<?xml version="1.0" encoding="utf-8"?>
<svg viewBox="0 0 464 464" xmlns="http://www.w3.org/2000/svg">
  <path d="M168,80v-2.745c0-10.685,4.161-20.729,11.716-28.284l10.705-10.705l46.002,23.001l9.386-18.772l16,16l6.614-13.228   l7.155,3.578c12.03,6.015,19.69,17.837,20.357,31.155H304c2.805,0,5.496,0.488,8,1.376V80c0-44.112-35.888-80-80-80   s-80,35.888-80,80v1.376c2.504-0.888,5.195-1.376,8-1.376H168z" transform="matrix(1, 0, 0, 1, 7.105427357601002e-15, 0)"/>
  <path d="M160,112h8.113c-0.07-1.252-0.113-2.511-0.113-3.777V96h-8c-4.411,0-8,3.589-8,8S155.589,112,160,112z" transform="matrix(1, 0, 0, 1, 7.105427357601002e-15, 0)"/>
  <path d="M160,128c-2.681,0-5.258-0.448-7.667-1.263c1.531,16.112,8.489,31.397,19.715,43.11c9.282-0.956,18.606-1.543,27.951-1.756   v-3.357c-14.06-8.4-24.244-21.493-28.997-36.734H160z" transform="matrix(1, 0, 0, 1, 7.105427357601002e-15, 0)"/>
  <path d="M312,104c0-4.411-3.589-8-8-8h-8v12.223c0,1.266-0.042,2.525-0.113,3.777H304C308.411,112,312,108.411,312,104z" transform="matrix(1, 0, 0, 1, 7.105427357601002e-15, 0)"/>
  <path d="M264,164.734v3.357c9.345,0.213,18.669,0.799,27.951,1.756c11.226-11.713,18.185-26.999,19.716-43.11   C309.258,127.552,306.681,128,304,128h-11.003C288.244,143.241,278.06,156.333,264,164.734z" transform="matrix(1, 0, 0, 1, 7.105427357601002e-15, 0)"/>
  <path d="M288,272v-50.606l27.859,7.96l15.73-36.703c-22.51-5.219-45.502-8.09-68.624-8.571C259.375,197.826,246.854,208,232,208   s-27.375-10.174-30.965-23.92c-21.072,0.438-42.036,2.859-62.625,7.235l10.783,37.738L176,221.394V272H288z" transform="matrix(1, 0, 0, 1, 7.105427357601002e-15, 0)"/>
  <path d="M32,134.111V128h0.006L32,48H0v144h32c0.007,0,0.01,0,0.01,0l-0.004-57.691C32.006,134.242,32,134.177,32,134.111z" transform="matrix(1, 0, 0, 1, 7.105427357601002e-15, 0)"/>
  <path d="M266.191,85.505l-16-16l-6.614,13.228L193.58,57.734l-2.55,2.55C186.497,64.817,184,70.844,184,77.255v30.968   c0,19.019,10.567,36.116,27.578,44.622l4.422,2.211V176c0,8.822,7.178,16,16,16s16-7.178,16-16v-20.944l4.422-2.211   C269.433,144.339,280,127.242,280,108.223V81.889c0-5.177-1.866-10.016-5.124-13.751L266.191,85.505z M236.422,127.155   l-22.206-11.103l10.194-30.582l15.179,5.06l-5.806,17.417l9.794,4.897L236.422,127.155z" transform="matrix(1, 0, 0, 1, 7.105427357601002e-15, 0)"/>
  <path d="M384.448,444.358l-16.869-4.217L320,446.938v7.092c0,5.498,4.472,9.97,9.97,9.97h52.061c5.498,0,9.97-4.472,9.97-9.97   C392,449.447,388.895,445.47,384.448,444.358z" transform="matrix(1, 0, 0, 1, 7.105427357601002e-15, 0)"/>
  <path d="M384.832,132.145c-2.673-2.673-6.227-4.145-10.008-4.145c-1.823,0-3.538,0.71-4.827,2c-1.289,1.29-1.998,3.004-1.997,4.828   c0.002,4.771,1.132,9.547,3.266,13.814l5.213,10.427l-10.724,42.895l-17.799-5.085c-0.229-0.066-0.46-0.126-0.69-0.191   l-15.898,37.096l15.965,4.561c3.841,1.097,7.813,1.654,11.807,1.654c15.172,0,28.153-10.834,30.868-25.761l10.837-59.605   l3.578-1.789c6.572-3.286,10.844-9.631,11.484-16.845h-27.22L384.832,132.145z" transform="matrix(1, 0, 0, 1, 7.105427357601002e-15, 0)"/>
  <path d="M328,120h29.492c0.383-0.446,0.768-0.89,1.188-1.31c4.311-4.314,10.044-6.69,16.144-6.69c7.653,0,14.872,2.832,20.457,8   H416v-16h-88V120z" transform="matrix(1, 0, 0, 1, 7.105427357601002e-15, 0)"/>
  <path d="M320,430.776l40-5.714v-71.47c0-21.406-12.238-40.916-31.353-50.284l-25.397,45.715l16.75,5.025V430.776z" transform="matrix(1, 0, 0, 1, 7.105427357601002e-15, 0)"/>
  <polygon points="432,48 432,128 432,134.111 432,192 464,192 464,48  " transform="matrix(1, 0, 0, 1, 7.105427357601002e-15, 0)"/>
  <path d="M103.875,240c4.647,0,9.27-0.647,13.74-1.924l16.193-4.627l-10.978-38.423c-2.267,0.596-4.53,1.209-6.785,1.853   l-17.799,5.085l-10.724-42.895l5.213-10.427c2.134-4.267,3.263-9.044,3.266-13.814c0.001-1.824-0.708-3.539-1.997-4.829   c-1.289-1.29-3.003-2-4.827-2c-3.781,0-7.334,1.472-10.008,4.145L75.314,136h-27.22c0.64,7.214,4.912,13.558,11.484,16.845   l3.578,1.789l11.014,60.575C76.781,229.573,89.274,240,103.875,240z" transform="matrix(1, 0, 0, 1, 7.105427357601002e-15, 0)"/>
  <polygon points="294.302,288 169.698,288 150.012,296.749 176.438,344.316 221.69,330.741 203.563,318.656 212.438,305.344    232,318.385 251.563,305.344 260.438,318.656 242.31,330.741 287.562,344.316 313.988,296.749  " transform="matrix(1, 0, 0, 1, 7.105427357601002e-15, 0)"/>
  <path d="M79.552,444.358C75.105,445.47,72,449.447,72,454.03c0,5.498,4.472,9.97,9.97,9.97h52.061c5.498,0,9.97-4.472,9.97-9.97   v-7.092l-47.58-6.797L79.552,444.358z" transform="matrix(1, 0, 0, 1, 7.105427357601002e-15, 0)"/>
  <path d="M89.176,112c6.099,0,11.833,2.376,16.144,6.69c0.42,0.42,0.805,0.864,1.188,1.31H136v-16H48v16h20.719   C74.305,114.832,81.523,112,89.176,112z" transform="matrix(1, 0, 0, 1, 7.105427357601002e-15, 0)"/>
  <path d="M104,353.592v71.47l40,5.714v-76.728l16.75-5.025l-25.397-45.715C116.238,312.676,104,332.186,104,353.592z" transform="matrix(1, 0, 0, 1, 7.105427357601002e-15, 0)"/>
</svg>