<?xml version="1.0" encoding="utf-8"?>
<svg viewBox="30.353 56.849 29.737 46.303" xmlns="http://www.w3.org/2000/svg">
  <g transform="matrix(1, 0, 0, 1, 1.7763568394002505e-15, 1.7763568394002505e-15)">
    <path d="M52.262,40.481a2.471,2.471,0,0,1,1.492.5c.518.373.98.78,1.478,1.188.193.159-.339-2.182-.332-2.155a7.187,7.187,0,0,1,1.264-5.22c.856-1.167,2.286-2.286,1.623-3.95a3.874,3.874,0,0,1-.484-1.864,3.9,3.9,0,0,1,.29-.988c-4.1,2.68-5.5,6.85-5.317,12.319A1.312,1.312,0,0,1,52.262,40.481Z"/>
    <path d="M54.465,48.367c.021,0,.042.007.069.007a.864.864,0,0,1,1.285.393c2.32,5.083,8.355,9.039,13.3,4.316,3.3-3.163,4.247-7.561,4.855-11.918.628-4.5-.249-9.253-3.515-12.651-1.291.111-2.8.932-3.909.988a8.413,8.413,0,0,1-3.625-.822c-.469-.18-5.552-2.21-4.24,1.077a5.2,5.2,0,0,1,.56,1.692,3.74,3.74,0,0,1-.974,2.617c-2.217,2.817-2.293,4.813-1.319,8.114a1.527,1.527,0,0,1-.421,1.408C55,45.121,51.869,39.652,50.453,42.38,49.583,44.079,52.615,48.505,54.465,48.367ZM63.7,41.689a1.915,1.915,0,0,1,.269-.683c.248-.3.414-.421.483-.38s.028.262-.069.566a1.45,1.45,0,0,0,.187,1.126,2.4,2.4,0,0,0,1.526.856,3.2,3.2,0,0,0,1.056.007l.242-.076a1.37,1.37,0,0,1,.159-.069.273.273,0,0,1,.041-.014l.062-.062.131-.117.021-.014.021-.028.069-.1.055-.076a.446.446,0,0,1,.014-.049c.021-.034.035-.062.021-.062.02-.007-.007-.062-.076-.179a4.72,4.72,0,0,1-.532-.995l-.014-.027v-.021a14.2,14.2,0,0,1-.483-3.522c.069-.863.2-1.367.324-1.367.139,0,.249.511.373,1.353.166.8.442,1.892.843,3.211a6.135,6.135,0,0,0,.469.76,1.356,1.356,0,0,1,.256.787.929.929,0,0,1-.083.456l-.083.207-.1.145-.131.186-.027.049-.021.021-.007.013-.076.076-.069.056-.131.117a.786.786,0,0,1-.18.124,2.487,2.487,0,0,1-.456.228c-.145.035-.283.076-.414.111a3.827,3.827,0,0,1-1.519-.076,3.031,3.031,0,0,1-2.009-1.513c-.035-.089-.076-.172-.111-.262s-.028-.186-.041-.269A1.278,1.278,0,0,1,63.7,41.689Z"/>
    <path d="M69.332,27.506A8.476,8.476,0,0,0,60.825,26.4c-.235.09-.456.187-.677.276a27.559,27.559,0,0,1,4.585,1.361C66.128,28.431,67.785,27.844,69.332,27.506Z"/>
    <path d="M96.076,72.694c-.145.069-.29.124-.435.186,10.828-1.94,18.382-11.214,26.226-18.374-.076-.477-.145-.96-.214-1.444-.11.111-.221.221-.338.318a2.866,2.866,0,0,1-.525.269,3.2,3.2,0,0,1-.545.1c-.166,0-.332-.014-.491-.028a3.256,3.256,0,0,1-.745-.262,4.68,4.68,0,0,1-1.554-1.312c-.256-.366-.359-.621-.269-.725s.352-.055.759.131a10.664,10.664,0,0,0,1.561.594,2.486,2.486,0,0,0,.421.055.47.47,0,0,1,.159-.027c.048-.021.069-.049.1-.056a1.108,1.108,0,0,0,.346-.628,11.282,11.282,0,0,0,.207-2.955c-.042-1.05-.111-2.065-.173-3a24.066,24.066,0,0,0-2.479-7.278c-2.14-3.84-4.985-7.2-7.464-10.814a6.232,6.232,0,0,0,.228,1.6c.138.525.276,1.008.393,1.422.242.836.318,1.388.173,1.451s-.511-.366-.953-1.119a9.7,9.7,0,0,1-.684-1.416,5.206,5.206,0,0,1-.435-2.009l.007-.152-.055-.076-.055-.041a1.024,1.024,0,0,1,.076-.09l.027-.014.076-.235.076-.235.035-.11.076-.145a18.919,18.919,0,0,1-2.307.269c-.545.021-.87-.02-.9-.152s.207-.338.7-.593a22.154,22.154,0,0,1,2.12-.871,9.746,9.746,0,0,0,2.707-1.429,4.294,4.294,0,0,0,1.029-1.236,6.507,6.507,0,0,0,.525-1.457c-.484.2-1,.456-1.54.649a4.22,4.22,0,0,1-2.238.3,2.4,2.4,0,0,1-.614-.228,2.141,2.141,0,0,1-.456-.345l-.145-.131c-.055-.062-.131-.145-.186-.214a1.884,1.884,0,0,1-.311-.491,1.353,1.353,0,0,1,.062-1.27,1.646,1.646,0,0,1,.711-.594,2.667,2.667,0,0,1,1.147-.214c.614.028.911.235.89.359-.02.145-.317.214-.773.4a2.8,2.8,0,0,0-.7.408c-.1.09-.186.2-.165.242s.034-.014.076.041a.624.624,0,0,0,.124.11l.069.063.159.11a1.338,1.338,0,0,0,.207.111,1.453,1.453,0,0,0,.18.02,3.078,3.078,0,0,0,1.27-.366c.3-.131.6-.3.939-.469-1.36-1.961-2.9-2.093-3.024-2.652,0-.138.131-.269.366-.38a2.046,2.046,0,0,1,1.194-.11,4.453,4.453,0,0,1,1.609.594c.491.366.856,1.609,1.216,1.747.642.241,1.029-.352.953-.932s-1.112-1.209-1.568-1.464c-1.222-.691-3.1-2.162-4.592-1.595-1.927.731-3.377,3.459-3.943,5.3-2.023,6.581,1.457,12.588,3.66,18.63a.93.93,0,0,1,.048.5.954.954,0,0,1-.048.511c-1.243,3.349-2.776,6.767-1.726,10.379a.956.956,0,0,1-.1.815.9.9,0,0,1-.732,1.036c-4.44.98-8.783,2.6-11.974,5.952a1.064,1.064,0,0,1-.414.269.894.894,0,0,1-1.188.124c-3.949-2.6-10,.429-14.066,3.343a5.845,5.845,0,0,1-.89,1.422,11.585,11.585,0,0,1-2.452,2.051A18.188,18.188,0,0,0,71.4,67.211l-.18.194c-.013.006-.041.055-.041.055l-.09.117a2.263,2.263,0,0,0-.29.449,2.837,2.837,0,0,0-.3.87,5.277,5.277,0,0,0,.2,2.2c.215.794.546,1.637.857,2.555a13.653,13.653,0,0,1,.435,1.464c.069.248.11.532.159.8.034.242.069.49.11.732.29,2.009.4,4.108,1.291,5.745A6.394,6.394,0,0,0,75.5,84.467a6.714,6.714,0,0,0,.642.415l.166.1.172.1.373.2a6.052,6.052,0,0,0,.663.3,4.242,4.242,0,0,0,.684.207,2.747,2.747,0,0,0,2.416-.469,6.487,6.487,0,0,0,1.7-2.279,28.8,28.8,0,0,0,1.851-5.752c.117-.49.228-.967.345-1.443s.242-.946.359-1.409c.221-.911.525-1.816.822-2.693.594-1.726,1.25-3.259,1.871-4.654,1.264-2.769,2.355-4.951,3.1-6.463s1.187-2.348,1.319-2.3-.083.967-.608,2.59-1.437,3.908-2.521,6.712c-.524,1.4-1.1,2.955-1.595,4.6-.241.829-.5,1.671-.7,2.617q-.156.684-.311,1.388c-.1.477-.2.96-.3,1.451a28.515,28.515,0,0,1-1.885,6.2,8.26,8.26,0,0,1-2.244,2.99,4.637,4.637,0,0,1-1.934.891,5.079,5.079,0,0,1-2.119-.048,8,8,0,0,1-1.865-.7l-.373-.207-.2-.117-.2-.117c-.256-.173-.525-.311-.767-.505-.221-.158-.435-.324-.642-.5a1.5,1.5,0,0,0-.635-.1.6.6,0,0,1-.145.034.481.481,0,0,1-.131.076,1.061,1.061,0,0,0-.263.283,4.065,4.065,0,0,0-.4,1.83c-.035.67-.042,1.292-.1,1.83a4.884,4.884,0,0,1-.235,1.278c-.11.276-.207.421-.283.414s-.138-.187-.159-.49c-.007-.152-.041-.325-.069-.518-.007-.09-.02-.18-.027-.276a1.013,1.013,0,0,1-.007.145c-.09,1.74-.283,2.769-.435,2.775-.173,0-.263-1.084-.387-2.755a8.823,8.823,0,0,0-.552-2.748,1.246,1.246,0,0,0-.864-.815,1.85,1.85,0,0,0-.69.042,4.33,4.33,0,0,0-.794.29c-1.126.566-2.286,1.1-3.246,1.615a13.651,13.651,0,0,0-2.41,1.582,7.051,7.051,0,0,0-1.277,1.415c-.256.38-.4.636-.477.594-.069-.027-.082-.3.063-.773a4.952,4.952,0,0,1,1.118-1.83,10.888,10.888,0,0,1,2.452-1.92c.435-.262.89-.511,1.36-.759a11.467,11.467,0,0,1-1.153.1,12.345,12.345,0,0,1-3.28-.373,10.723,10.723,0,0,1-4.178-2.071c-.856-.746-1.119-1.264-1.05-1.347.1-.117.594.27,1.471.732a13.147,13.147,0,0,0,4.04,1.361,11.726,11.726,0,0,0,2.9.1,7.367,7.367,0,0,0,3.052-.911,1.723,1.723,0,0,1,.207-.187c.076-.076.159-.172.242-.262a3.383,3.383,0,0,0,.414-.649,5.214,5.214,0,0,0,.477-1.63,5.443,5.443,0,0,0-.587-3.453l-.946-1.484,1.823-.049a3.053,3.053,0,0,0,.49-.027c.014-.014.014-.021.014-.028a.7.7,0,0,0-.014-.152,1.543,1.543,0,0,0-.041-.193,7.064,7.064,0,0,0-.332-.939c-.145-.345-.3-.656-.462-1.14-.021-.075-.035-.1-.063-.221l-.027-.138-.055-.276a1.671,1.671,0,0,1-.042-.373l-.007-.421c.062-.939.283-1.574.256-2.078a4.168,4.168,0,0,0-.449-1.582,7.227,7.227,0,0,0-2.3-2.493,16.659,16.659,0,0,0-2.769-1.581,25.837,25.837,0,0,0-4.447-1.588c-1.091-.242-1.719-.4-1.719-.546.007-.124.642-.227,1.823-.221a17.2,17.2,0,0,1,4.868,1.057,16.037,16.037,0,0,1,3.163,1.519,8.931,8.931,0,0,1,2.776,2.638,4.8,4.8,0,0,1,.352-.677,3.492,3.492,0,0,1,.38-.511l.089-.11.049-.055.055-.07.041-.041.228-.207a16.786,16.786,0,0,1,3.522-2.334c.193-.111.38-.214.559-.318a.267.267,0,0,0-.069-.027,6.476,6.476,0,0,1-3.376-3.819c-.29,2.845-.767,5.11-1.078,5.075s-.352-2.43-.062-5.365c.131-1.4.318-2.658.5-3.6-.02-.4-.034-.8-.041-1.208a12.467,12.467,0,0,1-3.19,2.009,8.059,8.059,0,0,1-4.143.636c.027.062.055.124.089.193a27.684,27.684,0,0,0,1.547,3.052,5.743,5.743,0,0,0,1.091,1.354,1.5,1.5,0,0,0,1.077.442c.7-.063,1.195-.5,1.312-.36.056.056.014.208-.138.442a1.967,1.967,0,0,1-1.008.725,2.18,2.18,0,0,1-1.892-.393,5.3,5.3,0,0,1-1.429-1.595,10.322,10.322,0,0,1-1.437-3.992,10.589,10.589,0,0,1-4.868-2.658c.2.566.414,1.2.629,1.871.759,2.245,1.581,4.164,1.256,4.3-.145.076-.5-.31-.96-.994a12.956,12.956,0,0,1-1.4-2.935c-.159-.5-.3-.987-.408-1.443-.1,2.652-1.187,5.034-4.177,6.056a1.063,1.063,0,0,1-.5.048,1,1,0,0,1-.531-.152c-5.518-3.3-10.413-6.069-16.946-6.283.249.428.484.835.67,1.18.587.981.9,1.671.684,1.851s-.864-.166-1.74-.939a22.235,22.235,0,0,1-2.859-3.529c-.3-.435-.587-.835-.87-1.215-2.583-2.389-4.758-5.3-8.128-6.553-.007.007-.014.021-.021.027l-.428.449a2.618,2.618,0,0,1-.386.339l-.18.145-.048.034-.1.076a.1.1,0,0,1-.027.014l-.049.021-.165.089a2.786,2.786,0,0,1-1.306.235,2.106,2.106,0,0,0-.483.007l-.138.083c-.974.891-1.581,2.1-3,2.293a3.3,3.3,0,0,1-1.222-.076,4.666,4.666,0,0,1-1.423-.629c-.283-.193-.421-.352-.386-.449s.234-.145.587-.124.821.069,1.36.069a2.105,2.105,0,0,0,1.519-.6l.18-.172.076-.083.11-.124a1.4,1.4,0,0,0,.1-.125l.041-.076c.028-.048.062-.117.1-.193a3.522,3.522,0,0,1,.435-.767,3.631,3.631,0,0,1,.393-.4c.138-.09.27-.186.408-.283l.02-.014.083-.034a3.092,3.092,0,0,1,1.229-.215.954.954,0,0,0,.463-.082l.021-.014.166-.131a2.314,2.314,0,0,0,.317-.29,2.492,2.492,0,0,1,.214-.249c.083-.09.166-.221.249-.332A17.586,17.586,0,0,0,22.6,40.737a22.545,22.545,0,0,1,1.644-3.874,14.846,14.846,0,0,0,1.892-2.88,34.383,34.383,0,0,1,2.065-4.171A49.931,49.931,0,0,1,33.818,21.4c.014-.007.021-.021.035-.028.014-.034.021-.069.035-.1,1.615-3.515,3.28-6.146,2.34-10.165-.89-3.77-3.7-4.329-7.312-4.392a1.065,1.065,0,0,1-.463.118c-2.859.062-2.8,8.673-1.339,10.2a.968.968,0,0,1,.131,1.229.927.927,0,0,1-.083.255c-1.9,3.957-5.524,6.2-8.791,8.881a5.752,5.752,0,0,1,1.388,0,4.024,4.024,0,0,1,1.906.828l.394.38a5.841,5.841,0,0,1,.338.477l.152.248.083.18.152.352a.606.606,0,0,0,.041.1v.006a.145.145,0,0,1,.014.042l.014.055.028.117.055.235.1.47c.028.311.021.621.028.925A7.153,7.153,0,0,1,22,34.908a14.837,14.837,0,0,1-3.432,3.771c-2.238,1.774-3.888,2.423-4.012,2.209-.159-.248,1.194-1.3,3.066-3.245a16.994,16.994,0,0,0,2.789-3.632A5.591,5.591,0,0,0,21.12,31.7c-.007-.186-.021-.379-.028-.573l-.069-.269-.034-.145-.014-.069-.007-.035-.138-.3-.083-.179-.062-.076c-.049-.048-.069-.1-.118-.159s-.117-.11-.172-.166a1.982,1.982,0,0,0-.926-.393,4.12,4.12,0,0,0-1.2.021,7.831,7.831,0,0,0-2.389.828,5.264,5.264,0,0,0-.518.3c-.187.124-.373.242-.56.359-.034.021-.062.042-.1.062-3.612,3.971-6.94,8.887-7.182,14.308a11.631,11.631,0,0,0,.746-1.126c.829-1.353,1.45-2.693,1.968-3.639s.891-1.526,1.043-1.464.034.732-.283,1.775A17.435,17.435,0,0,1,9.263,44.7a11.1,11.1,0,0,1-1.146,1.575,6.088,6.088,0,0,1,1.257.407c.49.276.732.5.7.594s-.373.076-.911-.028a8.426,8.426,0,0,0-2.072-.069l-.642.083a2.467,2.467,0,0,0-.38,1.8c.014.021.021.035.035.056,1.45,2.893,4.046,4.9,5.842,7.568,2.154,3.2,4.018,6.587,7.236,8.866,1.1.773,2.238,1.478,3.391,2.141.283.11.559.214.863.331.228.09.456.18.7.269s.511.159.774.235c.532.159,1.084.332,1.65.5a12.775,12.775,0,0,0,3.487.477L30.5,69.5l.47-.048A5.394,5.394,0,0,0,31.9,69.3a4.991,4.991,0,0,0,.9-.235,4.461,4.461,0,0,0,.9-.352l.5-.242.1-.048.021-.014.048-.028.207-.131a3.131,3.131,0,0,0,.649-.532c.159-.186.159-.262.159-.262a1.015,1.015,0,0,0-.283-.394c-.1-.09-.214-.186-.338-.283s-.235-.173-.4-.276c-.324-.2-.649-.408-.973-.608-.67-.421-1.285-.87-1.872-1.305-1.181-.87-2.278-1.712-3.363-2.355a8.967,8.967,0,0,0-1.615-.78l-.221-.083-.111-.048-.055-.021c-.014,0-.414-.1-.414-.1-.284-.069-.56-.139-.829-.2-1.112-.186-2.189-.283-3.211-.373a13.535,13.535,0,0,1-4.841-1.118c-1.008-.566-1.477-.995-1.429-1.1.062-.145.684.076,1.754.4a17.906,17.906,0,0,0,4.585.429,28.631,28.631,0,0,1,3.4.145c.311.055.629.11.953.172.028.007.062.007.09.014-.124-.159-.248-.324-.373-.476-.29-.394-.545-.774-.808-1.154-.131-.186-.255-.372-.386-.552s-.242-.38-.359-.559c-.228-.38-.463-.677-.677-.988-.477-.628-.919-1.222-1.319-1.761a15.121,15.121,0,0,1-1.754-2.81c-.3-.739-.387-1.181-.262-1.236s.435.248.911.822c.5.559,1.215,1.346,2.168,2.32.477.49,1,1.022,1.547,1.657.276.318.573.663.815,1,.124.166.255.339.38.511s.269.346.407.518c.276.352.553.711.836,1.077s.593.712.9,1.071c.3.379.636.656.946.994.166.166.311.338.5.5s.4.325.6.484.408.324.608.49l.242.193.324.235c.428.3.829.608,1.222.912.677.531,1.34,1.042,1.975,1.539.249.152.5.311.753.463a6.175,6.175,0,0,1,1.091.836,3.157,3.157,0,0,1,.256.276c.7.49,1.36.932,1.968,1.291a12.811,12.811,0,0,0,2.769,1.284,8.511,8.511,0,0,0,.828.235c.2.062.311.131.311.194s-.1.138-.3.207a2.58,2.58,0,0,1-.918.131,8.49,8.49,0,0,1-3.315-.8c-.276-.117-.559-.249-.842-.394a1.315,1.315,0,0,1-.056.194,1.944,1.944,0,0,1-.221.414,2.1,2.1,0,0,1-.255.331,4.886,4.886,0,0,1-1.077.884l-.269.159-.063.042-.034.02-.1.049-.124.062-.5.228a6.568,6.568,0,0,1-1.119.421,7.23,7.23,0,0,1-1.16.283,7.144,7.144,0,0,1-1.133.131l-.552.042-.545-.014c-.021,0-.035-.007-.056-.007,2.106.9,4.233,1.761,6.353,2.638a1.087,1.087,0,0,1,.456.352.866.866,0,0,1,.38.6c1.146,5.835,3.625,10.73,5.724,16.206,2.016,5.269,2.286,10.855,3.253,16.359a1.042,1.042,0,0,1-.166.794,1.405,1.405,0,0,1-.062.221,36.461,36.461,0,0,0-2.9,11.525,65.937,65.937,0,0,0,17.961,1.3c5.372-.373,10.551-2.065,15.917-2.272,3.066-7.8,6.622-15.433,7.616-23.837a1.025,1.025,0,0,1,.318-.656c1.429-3.087,3.363-5.8,4.385-9.094A39.2,39.2,0,0,0,91.063,74.5a.974.974,0,0,1,.187-.587c-1.112-.007-1.782-.172-1.768-.31.007-.173.739-.29,1.864-.5a19.878,19.878,0,0,0,4.212-1.451,24.4,24.4,0,0,0,3.771-2.389c.918-.732,1.505-1.215,1.629-1.091.1.1-.248.76-1.042,1.671A13.88,13.88,0,0,1,96.076,72.694ZM80.4,81.926c-.345.311-.808.373-1.022.132s-.1-.684.249-1a.742.742,0,0,1,.96-.2C80.843,81.042,80.767,81.526,80.4,81.926Zm-22.773-2.8c.179-.27.752-.18,1.222.124s.78.677.677.994-.725.353-1.292-.007S57.448,79.392,57.628,79.13ZM27.238,9.911a2.163,2.163,0,0,1,.435-1.077A1.891,1.891,0,0,1,28.688,8.2a3.022,3.022,0,0,1,1.636.1,6.341,6.341,0,0,1,1.181.505c.18.1.352.2.518.31l.124.083.063.042.076.055.013.014.028.02.193.166c.125.111.256.221.38.332s.269.3.4.455a3.927,3.927,0,0,1,.607.946,4.653,4.653,0,0,1,.339.919,7.239,7.239,0,0,1,.1,2.755c-.11.614-.235.953-.373.953s-.269-.339-.4-.932a13.9,13.9,0,0,0-.656-2.327,4.072,4.072,0,0,0-.352-.629,2.415,2.415,0,0,0-.463-.552,2.4,2.4,0,0,0-.262-.263c-.132-.1-.27-.193-.408-.29l-.2-.138v-.007h-.007l-.014-.013-.027-.014-.1-.056c-.131-.069-.269-.138-.407-.2a4.973,4.973,0,0,0-.871-.311,1.381,1.381,0,0,0-.607-.055.007.007,0,0,1-.007.007,1.112,1.112,0,0,0,.034.58,2.313,2.313,0,0,0,.65.477,3.7,3.7,0,0,1,.649.5,2.3,2.3,0,0,1,.545.863,2.058,2.058,0,0,1,.124.525l.014.138.007.076v.145a6.108,6.108,0,0,1-.048.718,7.316,7.316,0,0,1-.3,1.229,7.038,7.038,0,0,0-.263.9.794.794,0,0,0,.014.469c.09.277.56.615.967.863l.677.408-.366.545a6.722,6.722,0,0,1-1.9,1.92c-.532.29-.87.352-.946.256-.09-.111.124-.4.483-.857.214-.324.518-.766.829-1.319-.083-.048-.166-.083-.249-.138a2.562,2.562,0,0,1-.918-.884,2.361,2.361,0,0,1-.318-1.47,8.285,8.285,0,0,1,.235-1.174,6.059,6.059,0,0,0,.173-.96,3.29,3.29,0,0,0,.006-.442L29.3,13.3v-.076l-.014-.007c-.014-.014,0-.021-.021-.048-.041-.09-.1-.173-.428-.373a3.571,3.571,0,0,1-1.278-1.091A2.791,2.791,0,0,1,27.238,9.911Zm-.718,14.26c1.408-1.471,2.734-2.493,2.969-2.272s-.732,1.616-2.168,3.121c-1.492,1.416-2.88,2.376-3.094,2.148S25.035,25.593,26.52,24.171ZM53.485,85.69c-.111.3-.677.359-1.264.124-.546-.255-.863-.7-.718-.987s.69-.311,1.229-.056C53.257,84.972,53.6,85.386,53.485,85.69Zm-.905,2.865a1.273,1.273,0,0,1-.7.359,2.118,2.118,0,0,1-.836-.006,3.7,3.7,0,0,1-1.181-.435c-.234-.152-.449-.291-.435-.456s.187-.311.58-.352a4.337,4.337,0,0,1,1.243.1,3.6,3.6,0,0,0,.877.1c.214-.014.435-.111.58-.021C52.829,87.913,52.891,88.2,52.58,88.555Zm-8.59-2.437c-.1-.09-.021-.38.214-.815a8.79,8.79,0,0,1,.463-.773c.152-.3.324-.629.524-.981a12.847,12.847,0,0,0,.567-1.2c.2-.428.324-.918.5-1.408A21.113,21.113,0,0,0,47.353,75.4a9.968,9.968,0,0,0-1.471-3.874c-.228-.421-.421-.8-.573-1.139a35.394,35.394,0,0,1-3.9-3.812,17.031,17.031,0,0,1-2.665-4.047,9.882,9.882,0,0,1-.891-3.169c-.055-.766.028-1.181.152-1.208.145-.028.325.372.6,1.049a18.773,18.773,0,0,0,1.374,2.666,21.025,21.025,0,0,0,2.783,3.48,52.643,52.643,0,0,0,4.108,3.77c.29.242.574.483.857.718s.587.525.87.787.531.546.794.808c.248.284.5.56.732.843a8.332,8.332,0,0,1,1.864,3.784l-.055.055c0,1.064-.014,2.065-.069,2.728a2.084,2.084,0,0,0,.117.835,3.2,3.2,0,0,0,.366.7c.608.849,1.091,1.346.967,1.484-.1.118-.725-.076-1.657-.863a3.328,3.328,0,0,1-.677-.835,2.977,2.977,0,0,1-.38-1.285,21.229,21.229,0,0,0-.165-2.5,7.657,7.657,0,0,0-1.754-2.887l-.083-.083c.027.083.055.159.083.242.076.338.158.711.207,1.056.014.3.027.608.041.919l.007.117-.007.2-.014.234c-.013.166-.02.325-.027.491-.028.331-.035.656-.076,1A16.1,16.1,0,0,1,48,81.519a12.38,12.38,0,0,1-.773,1.581,9.143,9.143,0,0,1-.877,1.243c-.311.352-.594.663-.85.919-.269.221-.511.407-.718.552C44.37,86.1,44.094,86.208,43.99,86.118Zm4.4,8.514a4.526,4.526,0,0,1-2.093-.373,3.492,3.492,0,0,1-1.726-1.374,1.31,1.31,0,0,1-.207-.7c.021-.159.069-.256.145-.277s.172.021.283.132a4.01,4.01,0,0,0,.414.324,7.959,7.959,0,0,0,1.54.829c1.326.566,2.458.746,2.507,1.043C49.286,94.383,48.955,94.591,48.389,94.632ZM49.245,92c-1.713-.373-2.624-1.519-2.41-1.74.214-.256,1.291.318,2.638.594a3.061,3.061,0,0,0,1.581-.014c.38-.117.642-.325.794-.235.118.062.124.477-.345.932a2.04,2.04,0,0,1-.988.477A3.573,3.573,0,0,1,49.245,92Zm7.589,14.736a33.337,33.337,0,0,0-1.354,4.44,12.131,12.131,0,0,1-.739,2.016,17.156,17.156,0,0,1-.9,1.616,19.22,19.22,0,0,0-1.271,2.224c-.255.545-.38.863-.469.849-.069-.007-.1-.373.034-.994a11.024,11.024,0,0,1,.981-2.479c.248-.511.5-1,.739-1.6a11.982,11.982,0,0,0,.58-1.9,26.853,26.853,0,0,1,1.332-4.648,7.3,7.3,0,0,1,1.078-1.7,23.493,23.493,0,0,1-2.645-.753,8.648,8.648,0,0,1-2.672-1.567,6.925,6.925,0,0,1-1.292-1.554c-.242-.394-.345-.628-.3-.677s.263.111.6.428a12.652,12.652,0,0,0,1.443,1.236,9.134,9.134,0,0,0,2.534,1.2c1.043.311,2.259.545,3.577.815l1.154.235-.926.766A5.59,5.59,0,0,0,56.834,106.737Zm9.888,8.542a6.1,6.1,0,0,1-1.319,2.748c-.5.552-.863.8-.96.718s.076-.483.38-1.091a11.844,11.844,0,0,0,.566-1.471,5.841,5.841,0,0,1-.745.27,7.27,7.27,0,0,1-1.25.241,6.547,6.547,0,0,1-1.174-.027A7.087,7.087,0,0,1,61.2,116.5c-.318-.069-.6-.145-.849-.221-1.022-.3-1.63-.573-1.6-.725s.7-.18,1.741-.083a9.71,9.71,0,0,0,3.825-.138,13.363,13.363,0,0,0,1.6-.621l.988-.408Zm-.324-6.146a4.262,4.262,0,0,1-.615-.124,6.129,6.129,0,0,1-1.844-.926,7.291,7.291,0,0,1-1.146-1.008c-.573-.614-.739-1.07-.677-1.105s.352.3.981.774a7.834,7.834,0,0,0,2.879,1.464,3.833,3.833,0,0,0,.484.062,1.829,1.829,0,0,0,.469-.048,1.678,1.678,0,0,0,.808-.477,5.924,5.924,0,0,0,1.209-2.154,19.452,19.452,0,0,0,.994-5.918,8.851,8.851,0,0,0-.352-2.962,2.718,2.718,0,0,0-.131-.249,1.032,1.032,0,0,1-.076-.09l-.1-.076a.022.022,0,0,1-.014-.007c-.1-.007-.179-.02-.3-.02a9.329,9.329,0,0,0-1.367.1c-.912.131-1.816.318-2.59.511a15.341,15.341,0,0,0-2.1.877A6.693,6.693,0,0,0,60.342,99.7a2.35,2.35,0,0,0-.359.766c-.035.214-.07.325-.111.325s-.083-.111-.124-.325a2.041,2.041,0,0,1,.02-.435,2.536,2.536,0,0,1,.173-.553,6.3,6.3,0,0,1,2.583-2.444,13.874,13.874,0,0,1,2.2-1.07,21.513,21.513,0,0,1,2.714-.656,9.792,9.792,0,0,1,1.554-.152,3.636,3.636,0,0,1,.456.027l.283.069a1.269,1.269,0,0,1,.373.215l.138.131a1.871,1.871,0,0,1,.186.241,3.026,3.026,0,0,1,.242.456,7.372,7.372,0,0,1,.255.9,2.928,2.928,0,0,1,.939-1.43,2.318,2.318,0,0,1,1.092-.462,4.951,4.951,0,0,1,.98-.049c1.188.07,2.079.194,2.707.215.635.041,1,.055,1.008.145s-.338.207-.98.31a22.374,22.374,0,0,1-2.728.152,2.333,2.333,0,0,0-1.471.442,2.683,2.683,0,0,0-.7,1.623c-.076.338-.083.732-.131,1.1-.021.387-.063.808-.07,1.2-.027.794-.034,1.665-.082,2.555a12.471,12.471,0,0,1-.6,3.329,8.876,8.876,0,0,0,2.651-.056,9.34,9.34,0,0,0,1.388-.352,7.93,7.93,0,0,0,1.16-.442c1.375-.621,2.051-1.257,2.169-1.139.076.055-.456.9-1.844,1.754a7.648,7.648,0,0,1-1.2.607,8.968,8.968,0,0,1-1.477.5,8.337,8.337,0,0,1-3.743.089l-.6-.138a4.956,4.956,0,0,1-1,1.3,2.58,2.58,0,0,1-1.319.663A3.057,3.057,0,0,1,66.4,109.133Zm12.084,1.257c-.138.4-.4.835-.546,1.208-.152.421-.324.87-.483,1.388-.152.49-.373,1.084-.594,1.664-.131.263-.262.525-.4.794l-.013.021-.007.014v.007l-.055.076-.042.048-.09.1-.172.193a2.778,2.778,0,0,1-.394.359,4.525,4.525,0,0,1-2.279.939,6.62,6.62,0,0,1-2.147-.083,7.461,7.461,0,0,1-2.742-1.1,5.981,5.981,0,0,0-.283.656c-.055.269-.1.428-.158.435s-.139-.145-.194-.422a2.506,2.506,0,0,1,.249-1.3l.131-.276.331.159a9.052,9.052,0,0,0,2.825.842,4.7,4.7,0,0,0,3.535-.752,1.688,1.688,0,0,0,.29-.256l.124-.138.063-.069.013-.014.422-.78c.2-.511.393-1.008.58-1.478.179-.49.4-.98.621-1.436.249-.49.49-.787.663-1.133a3.591,3.591,0,0,0,.5-1.65,3.126,3.126,0,0,0-.021-.49c-.006-.118.007-.194.049-.214s.09.02.165.124a1.337,1.337,0,0,1,.256.511A3.247,3.247,0,0,1,78.482,110.39Zm8.231-20.868a1.246,1.246,0,0,1-.711.421,2.131,2.131,0,0,1-1.568-.359,8.258,8.258,0,0,1-.311,1.478,6.486,6.486,0,0,1-2.555,3.549,3.734,3.734,0,0,1-1.243.532c-.3.041-.483.028-.511-.048s.1-.207.346-.38a9.71,9.71,0,0,0,.9-.753,7.553,7.553,0,0,0,1.948-3.252,9.11,9.11,0,0,0,.414-2.258l.09-1.671.87,1.367a2.392,2.392,0,0,0,1.56,1.167c.456.048.774-.186.857-.09C86.844,89.267,86.816,89.363,86.713,89.522ZM113.56,36.745c.118-.1.67.366,1.388,1.271a16.072,16.072,0,0,1,2.106,3.97,28.129,28.129,0,0,1,1.161,4.289c.2,1.111.248,1.822.1,1.864s-.483-.587-.891-1.644-.89-2.52-1.457-4.1a40.986,40.986,0,0,0-1.712-3.936C113.74,37.484,113.429,36.849,113.56,36.745Zm-5.8-3.031c-.925-2.2-1.692-3.529-1.45-3.7.2-.145,1.381.89,2.707,3.072a13.727,13.727,0,0,1,.925,1.906,11.273,11.273,0,0,1,.38,1.229c.055.215.069.387.1.587l.049.3.02.187.014.172c.021.456.035.919.014,1.34-.007.476-.028.725,0,1.181l.035.331.027.166.042.083v.007a2.312,2.312,0,0,0,.1.518,4.158,4.158,0,0,1,.29,1.678l-.007.179v.014a6.634,6.634,0,0,1-.2,1.478,6.47,6.47,0,0,0-.179,1.111c.013.166,0,.221.027.415l.076.317.028.125.007.02.027.063a9.644,9.644,0,0,0,.429,1.049,21.974,21.974,0,0,0,2.064,3.508,11.551,11.551,0,0,0,1.809,2c.428.379.85.559.8.7-.041.111-.4.249-1.174-.028a7.235,7.235,0,0,1-2.492-1.767,16.577,16.577,0,0,1-2.638-3.6,11.073,11.073,0,0,1-.573-1.215l-.035-.076-.014-.042-.007-.02-.006-.014-.028-.083-.041-.159-.083-.3a4.84,4.84,0,0,1-.111-.877,6.6,6.6,0,0,1,.194-1.533,6.185,6.185,0,0,0,.145-1.153l.006-.09-.006-.089a2.408,2.408,0,0,0-.221-1.022c-.069-.256-.125-.532-.187-.794l-.014-.111v-.062l-.007-.083-.006-.166-.021-.331a13.231,13.231,0,0,1,.055-1.423,11.259,11.259,0,0,0,.048-1.153l.007-.131s-.007-.083-.007-.117l-.027-.3c-.021-.187-.021-.408-.055-.567-.083-.317-.1-.607-.215-.932A17.919,17.919,0,0,0,107.76,33.714Zm-7.8,31.861c-.145.1-.331.221-.539.345-.193.145-.414.311-.649.49-.973.7-2.23,1.83-3.777,3a13.727,13.727,0,0,1-2.361,1.443l-.145.069-.076.035-.076.034L92.3,71c-.1.028-.193.055-.283.09-.186.055-.366.111-.546.159-.359.1-.711.172-1.022.235-1.215.228-1.9.455-2,.3-.083-.117.573-.656,1.768-1.091.283-.11.594-.227.925-.352l.525-.221c.09-.034.179-.069.269-.11l.214-.124A20.31,20.31,0,0,0,94.3,68.468,28.538,28.538,0,0,1,98.355,65.7c.29-.145.559-.276.794-.373.242-.069.449-.131.622-.166.345-.082.552-.089.58-.02S100.24,65.368,99.957,65.575Zm-4.343-1.167c-2.272.531-3.722.739-3.805.476s1.208-.939,3.376-1.809c2.155-.891,5.173-1.94,8.211-3.529l1.084-.635a9.756,9.756,0,0,0,1.043-.642c.635-.47,1.291-.884,1.892-1.367.58-.456,1.118-.905,1.574-1.34a3.818,3.818,0,0,0,.905-1.188c.048-.165.041-.193.069-.29a1.23,1.23,0,0,0,.007-.221.566.566,0,0,0-.166-.352,7.934,7.934,0,0,0-.836-.7c-.531-.428-.752-.767-.669-.87s.435-.007,1.042.193a4.848,4.848,0,0,1,1.181.539,1.71,1.71,0,0,1,.663.849,2.148,2.148,0,0,1,.1.58,2.744,2.744,0,0,1-.028.553l-.014.11-.007.055v.021l-.02.076-.014.035-.1.283-.117.283-.138.241a7.213,7.213,0,0,1-.649.919,16.441,16.441,0,0,1-1.623,1.636c-.566.525-1.25,1.015-1.954,1.554a9.444,9.444,0,0,1-1.112.732c-.387.228-.78.463-1.181.7A37.938,37.938,0,0,1,95.614,64.408Z"/>
    <path d="M69.436,84.157a5.269,5.269,0,0,1-.684.973c-.083.083-.159.166-.242.249a2.694,2.694,0,0,1,.746.035,2.065,2.065,0,0,1,1.064.6,2.985,2.985,0,0,1,.559.905,6.575,6.575,0,0,1,.193.642,6.1,6.1,0,0,1,.049-1.043,2.925,2.925,0,0,1,.483-1.339,2.2,2.2,0,0,1,.552-.56c.132-.069.256-.138.387-.193.014-.007.035-.007.048-.014a7.227,7.227,0,0,1-.745-1.091,10.734,10.734,0,0,1-1.036-3.356c-.1-.69-.173-1.353-.242-2a3.86,3.86,0,0,1-.373.324c-.082.042-.172.083-.269.131a6.641,6.641,0,0,1,.262,1.126,7.846,7.846,0,0,1-.027,2.382A7.056,7.056,0,0,1,69.436,84.157Z"/>
  </g>
</svg>