<?xml version="1.0" encoding="utf-8"?>
<svg viewBox="42.289 25.505 323.499 199.292" xmlns="http://www.w3.org/2000/svg">
  <path d="M 102.178 191.936 C 108.67 194.224 114.763 197.957 119.947 203.14 C 126.153 209.347 130.273 216.857 132.328 224.797 L 139.313 224.797 C 144.668 213.557 152.417 200.438 162.29 191.988 L 162.29 171.271 C 152.164 162.787 146.29 150.386 146.29 136.797 C 146.29 135.347 146.685 133.924 147.43 132.681 L 169.964 95.124 C 170.168 93.029 170.289 90.907 170.289 88.797 C 170.289 64.732 156.932 43.735 137.247 32.807 C 84.363 33.245 74.289 66.943 74.289 128.797 L 74.289 168.349 C 84.783 173.069 96.22 180.532 102.178 191.936 Z" transform="matrix(1, 0, 0, 1, 7.105427357601002e-15, 0)"/>
  <path d="M 96.797 25.505 C 65.993 30.105 42.289 56.733 42.289 88.797 C 42.289 106.629 48.094 148.996 55.126 161.893 C 56.034 162.105 57.104 162.371 58.289 162.688 L 58.289 128.797 C 58.289 87.287 61.917 43.652 96.797 25.505 Z" transform="matrix(1, 0, 0, 1, 7.105427357601002e-15, 0)"/>
  <path d="M 258.589 132.681 C 259.334 133.924 259.729 135.347 259.729 136.797 C 259.729 150.386 253.855 162.787 243.729 171.271 L 243.729 191.988 C 253.603 200.438 261.353 213.558 266.707 224.797 L 273.691 224.797 C 275.746 216.858 279.865 209.347 286.072 203.14 C 291.256 197.956 297.348 194.224 303.841 191.936 C 309.799 180.532 321.235 173.069 331.73 168.349 L 331.73 128.797 C 331.73 66.943 321.656 33.245 268.772 32.807 C 249.086 43.735 235.729 64.732 235.729 88.797 C 235.729 90.907 235.85 93.029 236.055 95.124 L 258.589 132.681 Z" transform="matrix(1, 0, 0, 1, 7.105427357601002e-15, 0)"/>
  <path d="M 349.788 131.884 L 349.788 165.775 C 350.973 165.458 352.043 165.192 352.951 164.98 C 359.983 152.083 365.788 109.716 365.788 91.884 C 365.788 59.82 342.084 33.192 311.28 28.592 C 346.16 46.739 349.788 90.374 349.788 131.884 Z" transform="matrix(1, 0, 0, 1, 7.105427357601002e-15, 0)"/>
</svg>