<?xml version="1.0" encoding="utf-8"?>
<svg viewBox="93.153 248 325.694 128" xmlns="http://www.w3.org/2000/svg">
  <path d="M136,328c0,8.822,7.178,16,16,16c17.645,0,32-14.355,32-32h-32C143.178,312,136,319.178,136,328z" transform="matrix(1, 0, 0, 1, 7.993605777301127e-15, 0)"/>
  <path d="M227.064,295.309c-60.146-10.131-86.997-37.261-95.092-47.309h-8.574c-0.905,10.823-5.478,21.394-13.741,29.657  l-16.504,16.504l10.437,31.309c0.271,0.815,0.41,1.67,0.41,2.53c0,26.467,21.533,48,48,48c32.126,0,52.546-18.963,64.747-30.293  c5.889-5.469,9.443-8.77,13.802-9.574C234.643,335.377,248,331.982,248,320C248,307.736,239.195,297.353,227.064,295.309z M200,312  c0,26.467-21.533,48-48,48c-17.645,0-32-14.355-32-32s14.355-32,32-32h40c4.418,0,8,3.582,8,8V312z" transform="matrix(1, 0, 0, 1, 7.993605777301127e-15, 0)"/>
  <path d="M360,312h-32c0,17.645,14.355,32,32,32c8.822,0,16-7.178,16-16S368.822,312,360,312z" transform="matrix(1, 0, 0, 1, 7.993605777301127e-15, 0)"/>
  <path d="M388.602,248h-8.574c-8.095,10.048-34.946,37.178-95.092,47.309C272.805,297.353,264,307.736,264,320  c0,11.982,13.357,15.377,17.451,16.133c4.358,0.804,7.913,4.105,13.802,9.574C307.454,357.037,327.874,376,360,376  c26.467,0,48-21.533,48-48c0-0.86,0.139-1.714,0.41-2.53l10.437-31.309l-16.504-16.504C394.08,269.394,389.506,258.823,388.602,248z   M360,360c-26.467,0-48-21.533-48-48v-8c0-4.418,3.582-8,8-8h40c17.645,0,32,14.355,32,32S377.645,360,360,360z" transform="matrix(1, 0, 0, 1, 7.993605777301127e-15, 0)"/>
</svg>