<?xml version="1.0" encoding="utf-8"?>
<svg viewBox="144.112 187.194 223.774 108.439" xmlns="http://www.w3.org/2000/svg">
  <path d="M367.886,237.537c-6.465-13.254-13.644-23.063-20.512-27.93c-2.116-1.5-3.374-3.933-3.374-6.527v-15.886  c-4.295,1.328-8.714,2.015-13.138,2.015c-3.073,0-6.144-0.335-9.174-0.976L311.59,218.53c-0.471,1.411-1.325,2.664-2.469,3.616  l-48,40C259.638,263.382,257.819,264,256,264s-3.638-0.618-5.121-1.854l-48-40c-1.144-0.953-1.998-2.205-2.469-3.616l-10.098-30.296  c-3.031,0.641-6.102,0.976-9.174,0.976c-4.425,0-8.843-0.688-13.138-2.015v15.885c0,2.594-1.258,5.027-3.374,6.527  c-6.868,4.867-14.048,14.677-20.514,27.934c5.555,6.971,29.327,32.51,85.61,41.99c10.893,1.835,20.14,7.788,26.277,16.102  c6.137-8.314,15.385-14.267,26.277-16.102C338.494,270.063,362.277,244.572,367.886,237.537z" transform="matrix(1, 0, 0, 1, 7.105427357601002e-15, 0)"/>
</svg>