<?xml version="1.0" encoding="utf-8"?>
<svg viewBox="180.2101 -1.8189 172.8673 475.6619" xmlns="http://www.w3.org/2000/svg">
  <path d="M351.375,436.567l-0.568-1.265c-5.128-11.424-13.572-21.971-25.098-31.348c-4.511-3.669-8.027-8.267-10.751-14.055   c-2.565-5.454-4.057-11.664-4.43-18.456c-0.943-17.182-2.129-34.627-3.275-51.498c-4.98-73.263-10.13-149.021,3.723-219.937   c1.076-5.511,4.875-10.982,10.696-15.41l2.854-2.171c10.823-8.23,18.323-18.772,21.691-30.489   c2.919-10.16,1.173-20.731-4.917-29.767c-7.69-11.408-21.187-18.907-37.029-20.574c-36.006-3.79-63.849-4.408-87.621-1.945   c-21.115,2.187-36.44,16.81-36.44,34.77c0,16.438,8.247,36.698,18.008,44.239c4.398,3.396,15.108,17.427,19.576,74.185   c3.018,38.35,2.208,82.43,1.211,120.737c-1.242,47.735-8.251,88.752-22.728,132.993c-7.38,22.553-6.548,38.722,2.541,49.432   c11.704,13.789,30.248,10.93,38.17,9.708c1.208-0.187,2.431-0.332,3.63-0.433l22.818-1.907c10.158-0.854,20.107,1.191,28.776,5.9   c5.597,3.041,11.007,4.568,16.156,4.567c2.011,0,3.982-0.232,5.909-0.699c21.737-5.264,32.397-11.07,36.795-20.043   C353.636,447.877,353.746,441.852,351.375,436.567z" transform="matrix(1, 0, 0, 1, 7.105427357601002e-15, 7.105427357601002e-15)"/>
</svg>