<?xml version="1.0" encoding="utf-8"?>
<svg viewBox="4.8519 0.4 40.4446 49.0881" xmlns="http://www.w3.org/2000/svg">
  <g transform="matrix(1, 0, 0, 1, 8.881784197001252e-16, 0)">
    <path d="M43.4,42.4c-0.7-0.1-1.3-0.1-1.8-0.5c-2.6-2-7.4-1.5-7.9-4.5c-0.2-1-2.3-6.9-3.4-9c-5.1-10,8.4-26.1,10.1-28h-2   c-3.4,3.9-9.3,15.3-9.5,17.9c-0.2,2.8-2.4,2.5-2.9,1.9c-1-1.4-2.6-2.3-4.4-2.4c-0.9-0.9-1.1-2.2,1.2-3.2c3.3-1.5,7.5-11.4,8.7-14.2   h-9.8c-4.7,7.2-6,13.2-12,16.1c-8.6,4.2-4.6,11.3,3,17c2.6,1.9,3.3,2.8,11.3,12c3.6,3.8,5.8,2.5,6,2.5c0.1,0,0.1,0.1,0.2,0.2   c1.1,1.6,2.8,1.6,4.3,0.6c0.2-0.1,0.5-0.1,0.7,0c2.2,1.3,2.1-0.3,3.2-0.1c1,0.3,1.6-0.1,1.9-0.5c0.2-0.3,0.5-0.3,0.8-0.3   c2.1,0.2,0.9-1.9,0.9-1.9c0.9,0.5,1.7,0.3,2.4-0.1C46.3,44.4,44.8,42.6,43.4,42.4z M27.4,32.8c-1.8,0.3-2.8,0.5-4.5,0   c0.2-1-0.4-2.4-1.3-2.6c0.7-0.2,3.1,0,4.3-0.4c0.2-0.1,0.7-0.4,0.9-0.4c0.5,0.1,0.6,1.6,0.7,2C27.6,31.9,27.7,32.4,27.4,32.8z    M19.7,19.2c2.9-1.1,5.7,0.9,6.1,3.6c0.2,1.2-0.1,2.5,0.6,3.5c0.6,0.9,1.3,1.3,0.4,2.2c-0.6-0.1-1.5,0.6-2.2,0.6   c-1,0.1-1.5,0-2.3,0.1c-0.9-0.8-2-3-2.2-5.5c-0.1-1.9,0-2.5-1.1-3.6C18.6,19.6,19.2,19.4,19.7,19.2z M16.9,30.8   c-0.3-0.1-0.5,0-0.8,0c-0.6-0.1-0.9-0.8-1.2-1.4c-1.4-2.7-4.2-2.2-5.2-2.4c-3.1-0.6-4.3-5.2-0.9-7.6c3.3-2.4,9.9-0.6,9.8,3.1   c0,0.8-0.3,1.7-0.3,2.5c-0.2,2.7,1.4,2.4,2.3,3.4c0.4,0.5,0.4,1.2,0.2,1.9c0,0-2.7,1.5-2.8,1.5C17.6,31.4,17.4,30.9,16.9,30.8z    M20.4,35.9c-0.4,0.1-1.6-1.1-1.9-1.3c-1.6-1.5,0-1.9,2.2-3.1c0.3-0.2,0.6-0.5,0.9-0.2c0.3,0.4,0.5,0.9,0.3,1.4   C20.7,32.7,19.1,33.9,20.4,35.9z M21.4,35.6c-0.2-0.4-0.5-0.8-0.4-1.2c0.4-1.5,2.4,0.2,6.2-0.5c0.2,0,0.8-0.3,0.9-0.2   c0.1,0.1,0,0.8,0,1c0.5,3.4,3.2,2.2-5.4,3.8C20.8,38.9,22.3,37.3,21.4,35.6z M29.4,41.7c-1.9,0.1-3.8,0.3-5.6,0.6   c-0.3,0.1-0.6-0.2-0.6-0.6c0.1-2.4-0.8-1.9,4.5-2.7c1.2-0.2,0.8-0.5,2.2,1.9C30.1,41.3,29.8,41.7,29.4,41.7z"/>
  </g>
</svg>