<?xml version="1.0" encoding="utf-8"?>
<svg viewBox="5.3075 1.2 39.2351 47.6572" xmlns="http://www.w3.org/2000/svg">
  <g transform="matrix(1, 0, 0, 1, 8.881784197001252e-16, 0)">
    <path d="M9.7,22.3c-0.1-0.5-0.2-1.1-0.3-1.7c0-0.1,0-0.1,0-0.2c0,0,0.1,0,0.1,0C9.5,21.1,9.5,21.7,9.7,22.3z"/>
    <path d="M23.2,1.2c-0.2,0-0.5,0-0.6,0.2c-1.8,2.1-12.5,15.1-12.2,19.1c0.2,3.8,2.6,5.2,4.6,4.6c1.7-0.5,4.8,0.9,5.4-2.7   c0.2-1.1,0.5-3.1-2.8-3.7c-0.2,0-0.4-0.3-0.3-0.5c0.4-1.2,2.3-4.8,11.2-15c0.3-0.4,0.1-1-0.4-1.1L23.2,1.2z"/>
    <path d="M39.4,47.8c-0.7,0.6-1.3,1.4-2,0.9c-8.1-5.6-14.6-6.9-22.5-15c-0.4-0.4-0.8-0.8-1.3-1.2c-3.1-2.7-4.2-2.8-4.2-2.8   c1,0.6,1.6,1.7,1.7,1.9c-0.6-0.4-1.3-0.7-2-0.9c-0.9-0.3-1.7-1-2.3-1.7c-3.5-4.5-0.1-7.7,2.6-8.6c0,0.8,0,1.4,0.2,2   c0,0,0,0.1,0,0.1c0.7,2.6,2.6,3.8,4.4,3.8c0.4,0,0.8,0,1.1-0.2c0.3-0.1,0.6-0.1,1-0.1c0.2,0,0.4,0,0.6,0c0.2,0,0.3,0,0.5,0   c0.3,0,0.6,0,0.9-0.1c0,0,0,0,0,0c0.2,0,0.2,0,0.2,0c-1.1,1.3-2.2,3-2.6,3.7c-2,3.1,20.3,15.1,23.3,16.7   C39.8,46.7,39.9,47.4,39.4,47.8z"/>
    <path d="M18.9,25.2c0,0,0.1,2.3-1.5,3.5c-1,0.8-1.1,2.9,2.4,3.2c6.2,1.6,20.9,10.4,22.3,11.4c0.4,0.2,0.9,0.2,1.1-0.2   c0.8-1,2-2,0.9-2.7c-2.3-1.4-8.5-5-9.6-6c-1.4-1.2-5.6-3.5-8.4-4c0,0-5-0.8-5.1-2.8C21.1,27,20.8,26.4,18.9,25.2z"/>
  </g>
</svg>