<?xml version="1.0" encoding="utf-8"?>
<svg viewBox="43.871 5.415 15.51 89.3152" xmlns="http://www.w3.org/2000/svg">
  <polygon points="47.203,10.376 45.686,11.238 46.674,12.977 48.19,12.115 48.327,12.357 46.83,13.238 47.846,14.961 49.366,14.066   49.683,14.605 49.709,14.59 49.803,14.742 48.154,15.76 49.205,17.461 50.854,16.443 51.182,16.975 51.198,16.965 51.462,17.382   49.746,18.468 50.816,20.157 52.531,19.072 52.866,19.6 53.288,19.332 51.55,16.586 51.536,16.595 49.9,13.947 49.883,13.958   48.466,11.55 48.45,11.56 47.699,10.237 46.826,8.389 46.845,8.38 45.514,5.415 45.058,5.62 45.313,6.19 43.871,6.838 44.691,8.662   46.103,8.028 46.276,8.396 44.698,9.141 45.552,10.949 47.11,10.214 " transform="matrix(1, 0, 0, 1, 1.7763568394002505e-15, 0)"/>
  <polygon points="53.175,20.223 51.188,21.311 52.149,23.064 54.136,21.977 54.436,22.525 54.874,22.285 53.313,19.434   52.875,19.674 " transform="matrix(1, 0, 0, 1, 1.7763568394002505e-15, 0)"/>
  <polygon points="54.773,23.212 52.315,24.295 53.122,26.125 55.58,25.042 55.832,25.614 56.289,25.412 54.978,22.438 54.521,22.64   " transform="matrix(1, 0, 0, 1, 1.7763568394002505e-15, 0)"/>
  <polygon points="55.781,26.007 56.025,26.583 53.517,27.644 54.296,29.485 56.804,28.425 57.047,29.001 57.508,28.806   56.242,25.813 " transform="matrix(1, 0, 0, 1, 1.7763568394002505e-15, 0)"/>
  <polygon points="57.287,30.027 54.591,30.908 55.212,32.809 57.908,31.927 58.103,32.521 58.578,32.366 57.568,29.277   57.093,29.432 " transform="matrix(1, 0, 0, 1, 1.7763568394002505e-15, 0)"/>
  <polygon points="58.309,33.775 54.958,34.414 55.333,36.379 58.684,35.74 58.801,36.354 59.292,36.26 58.684,33.068 58.193,33.161   " transform="matrix(1, 0, 0, 1, 1.7763568394002505e-15, 0)"/>
  <polygon points="58.821,37.709 54.978,37.796 55.022,39.796 58.867,39.709 58.881,40.333 59.381,40.322 59.307,37.073   58.807,37.084 " transform="matrix(1, 0, 0, 1, 1.7763568394002505e-15, 0)"/>
  <polygon points="58.285,45.787 53.972,45.23 53.716,47.215 58.028,47.772 57.948,48.391 58.444,48.455 58.861,45.232 58.365,45.168   " transform="matrix(1, 0, 0, 1, 1.7763568394002505e-15, 0)"/>
  <polygon points="58.759,41.757 54.807,41.533 54.693,43.529 58.646,43.753 58.61,44.378 59.11,44.406 59.294,41.162 58.795,41.133   " transform="matrix(1, 0, 0, 1, 1.7763568394002505e-15, 0)"/>
  <polygon points="57.391,52.585 58.109,49.415 57.621,49.305 57.483,49.914 53.253,48.956 52.812,50.907 57.042,51.865   56.903,52.474 " transform="matrix(1, 0, 0, 1, 1.7763568394002505e-15, 0)"/>
  <polygon points="56.817,53.876 56.339,53.732 56.159,54.33 51.993,53.078 51.417,54.994 55.583,56.246 55.403,56.844 55.882,56.988   " transform="matrix(1, 0, 0, 1, 1.7763568394002505e-15, 0)"/>
  <polygon points="55.645,58.169 55.167,58.023 54.984,58.62 50.46,57.231 49.874,59.144 54.397,60.532 54.214,61.13 54.692,61.276   " transform="matrix(1, 0, 0, 1, 1.7763568394002505e-15, 0)"/>
  <polygon points="54.294,62.371 53.82,62.211 53.62,62.803 48.82,61.178 48.18,63.072 52.979,64.697 52.778,65.289 53.252,65.449 " transform="matrix(1, 0, 0, 1, 1.7763568394002505e-15, 0)"/>
  <polygon points="52.969,66.283 52.489,66.144 52.314,66.745 47.311,65.29 46.752,67.21 51.756,68.665 51.582,69.265 52.062,69.404   " transform="matrix(1, 0, 0, 1, 1.7763568394002505e-15, 0)"/>
  <polygon points="51.417,73.268 51.833,70.044 51.337,69.981 51.257,70.6 46.186,69.946 45.93,71.931 51.001,72.584 50.922,73.204   " transform="matrix(1, 0, 0, 1, 1.7763568394002505e-15, 0)"/>
  <polygon points="50.772,77.205 51.272,77.215 51.334,73.965 50.834,73.956 50.822,74.58 45.706,74.483 45.669,76.483 50.784,76.58   " transform="matrix(1, 0, 0, 1, 1.7763568394002505e-15, 0)"/>
  <polygon points="51.561,80.949 52.044,80.82 51.206,77.68 50.723,77.809 50.884,78.413 46.68,79.534 47.195,81.466 51.399,80.345   " transform="matrix(1, 0, 0, 1, 1.7763568394002505e-15, 0)"/>
  <polygon points="53.497,84.349 53.936,84.109 52.375,81.258 51.937,81.498 52.237,82.047 48.957,83.842 49.918,85.596   53.197,83.801 " transform="matrix(1, 0, 0, 1, 1.7763568394002505e-15, 0)"/>
  <path d="M55.958,85.596c-1.631-0.987-1.598-1.103-1.598-1.103s-2.121,3.083-2.914,3.851l1.43,1.63  c1.907,0.037,3.798-0.069,3.529,1.181c-0.269,1.25-2.227,3.397-1.656,3.567c0.571,0.17,3.447-2.34,3.554-4.139  S57.997,86.829,55.958,85.596z" transform="matrix(1, 0, 0, 1, 1.7763568394002505e-15, 0)"/>
</svg>