<?xml version="1.0" encoding="utf-8"?>
<svg viewBox="10.081 22.15 31.249 34.618" xmlns="http://www.w3.org/2000/svg">
  <g transform="matrix(0.9999999999999999, 0, 0, 0.9999999999999999, 0, -8.881784197001252e-16)">
    <g>
      <path d="M19.1,47.6c0,0.1-0.1,0.1-0.1,0.2c-0.9,1.9-4.3,2.8-9.8,5.4c-0.7,0.3-1.8,1.1-3.2,2.3l-3.3-4.9c4.3-4,6.1-5.4,9.5-10.6    c0.9-1.3,1.9-2,2.8-2.3C14.6,41.5,16.2,45.3,19.1,47.6z"/>
      <path d="M26.8,50.2c-0.5,1.2-1.5,2.3-2.9,2.8c-1.8,0.7-5.9,3.9-8.5,8.1c-0.7,1.1-1.7,2.5-3,3.9l-2.8-4.2v0c1.9-2.2,6.2-7,7.5-9.5    c1.2-0.6,2.5-1.6,3.2-2.8C22.2,49.7,24.4,50.3,26.8,50.2z"/>
    </g>
    <path d="M20.3,32.4c0.9,0.5,2.7-0.2,3.1-1.1c1-1.8,0.2-7,1.3-8.4c0.3-0.3,0.7-0.5,1.1-0.8c0,0-0.1,0-0.1,0   c-1.2-0.5-2.8-1.7-3.3-2.9c-0.5,0.3-0.5,1.1-0.7,1.6c-1.2,2.9-3.4,6.2-3.3,8.8C18.6,31.1,19.6,32.3,20.3,32.4z"/>
    <path d="M27,20.9c0.4-0.1,0.6-0.6,0.6-1c0.2-1.7,0.1-4.4,2-5.4c0.5-0.3,1.1-0.5,1.3-1c-1.3,0.1-3-0.9-3.3-1.5   c-0.6,0.6-0.3,0.8-3.4,4.6C22.2,18.9,26.4,21.1,27,20.9z"/>
    <path d="M31.5,9.8c-1.5-3,1.4-1.1,0.8-3.4c-0.2-0.7-1.3-2.7-1.8-1.1c-0.2,0.6-0.1,1.2-0.3,1.8c-0.6,1.9-1.9,2.3-1.8,3.4   C28.6,12.3,33.1,13,31.5,9.8z"/>
    <path d="M48.5,5.6C49.9,7.2,50.3,6,50.3,6c-0.5-1.5,1-2.6,1-2.6l0.5,0.4C52.8,3,52.5,1,52.4,1.1c0,0-2-0.4-2.7,0.8l0.4,0.5   c0,0-1.1,1.4-2.6,1c0,0-1.3,0.4,0.3,1.8L48.5,5.6z"/>
    <path d="M56.4,9.3c1.4,1.6,1.8,0.3,1.8,0.3c-0.5-1.5,1-2.6,1-2.6l0.5,0.4c1.1-0.8,0.8-2.8,0.8-2.8s-2-0.4-2.8,0.8L58,5.9   c0,0-1.1,1.4-2.6,1c0,0-1.2,0.4,0.3,1.8L56.4,9.3z"/>
    <path d="M58.2,16.1c0,0-1.3,0.3,0.2,1.8l0.6,0.7c1.3,1.7,1.8,0.5,1.8,0.5c-0.4-1.5,1.2-2.5,1.2-2.5l0.4,0.5c1.2-0.7,1-2.7,1-2.7   s-2-0.5-2.8,0.5l0.4,0.5C60.9,15.3,59.7,16.7,58.2,16.1z"/>
    <path d="M60.5,25.8l0.2,0.4c0,0-1.1,0.9-2.1,0.2c0,0-1,0-0.1,1.4l0.3,0.6c0.7,1.4,1.3,0.6,1.3,0.6c-0.1-1.2,1.2-1.8,1.2-1.8   l0.3,0.4c1-0.4,1.1-1.9,1.1-1.9S61.3,25.1,60.5,25.8z"/>
    <path d="M45.4,11.5c0.3-0.2,0.4-0.6,0.5-0.9c0.7-2.2,2.4-2.6,2.9-3c-0.7-0.3-2.3-1.9-2.5-2.3c-1.5,3.1-2.6,2.1-3.4,2.9   c-0.4,0.4-0.4,1-0.2,1.5C42.9,10.4,44.4,12.2,45.4,11.5z"/>
    <path d="M36.7,20.1c0.7,1.7,1.5,1.6,2,0.4c1.8-4.7,1.8-4.9,5.3-7.6c-0.9-0.2-2.4-1.8-2.7-2.6c0,0,0-0.1,0-0.1   c-0.1,0.3-0.4,1.8-2.4,3.9c-2.3,2.3-4.5,3.4-4.3,4.3C34.7,19.3,36,18.6,36.7,20.1z"/>
    <path d="M48.4,13.9c-2.4,5.3-11.1,7.8-7.6,9.1c0.7,0.3,1.3,0.3,1.7,1.5c0.7,2,1.7,2,2.4,0.6c3.4-7.7,5.8-7.5,7.1-8.6   C51.7,16.5,49,14.7,48.4,13.9z"/>
    <path d="M25.1,30.6c-0.3,1.6-1.1,2.1-1.2,2.2c0.7,0.6,1.3,1.3,2.4,1.9c0,0,0,0,0,0c0.3,0.1,0.5,0.3,0.8,0.4c0.8-0.8,2-3.4,2.1-3.7   l0,0c3.1-7.5,4.6-5.2,7.4-9c-1-0.7-1.2-1.8-1.4-2c-0.1,0.1-1.4-0.4-1.7-0.9C30.5,21.1,30.7,27.4,25.1,30.6z"/>
    <path d="M38.8,23c-2.5,0.5-3.1,3.8-5.7,7.1c-0.8,1-1.7,1.8-2.8,2.4c-1.6,3.2-2,3.4-2,3.5c0.6,0.9,1.5,1.7,2.4,2.1   c0.2-0.2,1-1,1-1.2c1.5-1.7,2.8-5.8,5.8-7.5c1.6-1,3.5-1.2,4.3-3c-0.5-0.7-0.6-1.6-0.8-1.8C40.2,24.3,39.2,23.9,38.8,23z"/>
    <path d="M49.7,11.8c-1.4,0.8,1.2,2.4,2.6,3.3c0.3,0.2,0.8,0.1,1-0.2c0.1-0.1,0.1-0.3,0.1-0.3c0.7-2.1,2.1-2.8,3.2-3.4   c-0.7-0.3-2.5-2.1-2.8-2.9C52.3,11.1,52.3,10.4,49.7,11.8z"/>
    <path d="M56.9,27.8c-1.8,1.8-2.5,0.9-3.3,1.3c-1.2,0.6,0.1,3.3,1.1,3.1c0.6-0.2,0.9-1.6,2.8-1.9c0.3,0,0.6-0.1,0.8-0.2   C57.8,29.6,57,28.1,56.9,27.8z"/>
    <path d="M55.7,22.7c0.7-1.3,1.4-2,2.8-2.5c-0.6-0.6-1.7-1.8-2-2.6c-0.1,0.1-0.8,1.5-2.5,1.8c-0.4,0.1-1,0-1.2,0.4   c-0.8,1.3,0.5,2.5,1.4,3.2C54.7,23.5,55.5,23.2,55.7,22.7z"/>
    <path d="M51.8,18.3L51.8,18.3L51.8,18.3C51.7,18.3,51.7,18.3,51.8,18.3z"/>
    <path d="M44.8,31.9c0.2,0.3,0.6,0.6,0.9,0.5c0.7-0.1,1.5-2.1,2.5-3.4c2.5-3.5,5.5-3.7,5.8-4.4c-0.9-0.2-2.4-1.6-2.8-2.9   c-2.5,3.7-4.1,3.9-7.9,6.1c-1.8,1.1,0.4,1.8,0.7,2.1C44.6,30.4,44.4,31.3,44.8,31.9z"/>
    <path d="M51.8,30.9c-2.9,2.4-8.5,2.1-6.6,3.7c0.2,0.2,0.4,0.3,0.6,0.5c0.4,0.7-0.2,2.2,0.9,2.3c1.1,0,2.1-3.4,6.5-4.4   C53.1,33,52.4,32.7,51.8,30.9z"/>
    <path d="M41.9,34.1c0.8-0.2,2.3-0.8,1.7-1.4c-0.5-0.8-0.5-1.7-0.6-1.8c-0.1-0.1-1.2-0.5-1.6-1.4c-2.1,0.6-3.7,4.2-7,5.9   c-1.5,2.5-1.4,2.4-3.4,4.5l-0.1,0c0.1,0.3,0.6,1,1,1.3C36.1,38.6,35.3,35.6,41.9,34.1z"/>
    <path d="M44.6,36c-0.1-0.1-0.6-0.4-0.9-1.1c0,0,0,0,0-0.1c-2.3,0-4,3-7.2,3.9c-1.7,2-2.4,2.5-3.9,3.6c0.1,0.4,0.4,0.8,0.8,1.1   c1.4-0.6,2.4-1.4,3.7-2.4c4.9-3.6,6.4-1.1,8.2-2.9C44.4,37.4,44.6,36.3,44.6,36z"/>
    <path d="M19,42.5c0,0-1.1,0.5-1.2,1.4c0.8,1.4,2,2.6,3.4,3.4c1.3,0.1,2-2.3,1.2-3.3C21.5,43,20.2,42.1,19,42.5z"/>
    <path d="M25.8,48.7c1-0.8,1.4-2.7,1.5-3.8c-1.6,0-3,0-3.6,0.1c0,0.9-0.4,2.3-1.3,2.9c0,0,0,0,0,0C23.5,48.4,24.6,48.7,25.8,48.7z"/>
    <path d="M32.3,44.4c-0.4-0.6-1-1-1.2-2.2c-0.1-0.1-1.6-1.2-1.8-3.3c-0.2-0.1-0.4-0.3-0.6-0.5c-0.3,0.1-0.7,0.2-1.1,0.3   C25.7,41.7,28.8,43.7,32.3,44.4z"/>
    <path d="M20.3,37.6c-0.8,1.6-0.6,3.1,1,4.2c0.6-1.2,2.1-2.2,3.6-3c0.6-1.1-1.2-2-2.3-2.4C22,36.9,21.2,37.3,20.3,37.6z"/>
    <path d="M26,38.3c0.6-0.3,1.2-0.5,1.8-0.6c-0.3-0.4-0.6-0.7-0.8-1.1c-0.1,0-1,0-2.9-1.6c-0.2,0.2-0.4,0.5-0.7,0.8   C24.6,36.2,25.9,37,26,38.3z"/>
    <path d="M26.2,39.3c-1.7,0.7-3.5,1.8-4.1,3.1c0.5,0.4,1.1,1,1.3,1.6c0.9-0.1,2.8-0.1,4.8,0C26.2,42.6,25.7,41,26.2,39.3z"/>
    <path d="M28.3,45c-0.1,0.7-0.4,2.5-1.2,3.8c2.2-0.4,4.7-0.5,5.8-3.2C31.5,45.2,29.7,45,28.3,45z"/>
    <path d="M17.2,42.7c0.9-1.2,1.8-1.3,2.3-1.3c-0.7-1.1-0.8-2.3-0.4-3.6c-0.8,0.1-1.7,0.1-2.7-0.1C16.2,39.5,16.5,41.1,17.2,42.7z"/>
    <path d="M23.4,34.2c-0.1-0.1-0.5-0.4-0.6-0.6c-1.6,0.6-3,0.5-4.3-0.8c-0.8,1-1.5,2.3-1.9,3.9C20.5,37.4,22.5,35.4,23.4,34.2z"/>
  </g>
</svg>