<?xml version="1.0" encoding="utf-8"?>
<svg viewBox="54.059 58.682 35.692 35.77" xmlns="http://www.w3.org/2000/svg">
  <g transform="matrix(1, 0, 0, 1, 1.7763568394002505e-15, 0)">
    <g display="none">
      <g display="inline">
        <g>
          <path fill="#000000" d="M57.228,32.935c0.044-0.071,0.108-0.126,0.185-0.158c1.935-1.578,3.85-1.883,3.955-1.899l0.031-0.005      l0.032,0c5.926,0.08,8.405-1.138,9.447-2.168c0.373-0.369,0.549-0.708,0.634-0.944c-0.04-0.177-0.046-0.299-0.046-0.33      c0-0.217,0.177-0.394,0.394-0.394h0c0.023,0,0.042,0.009,0.064,0.013c0.021-0.004,0.041-0.013,0.063-0.013h0      c0.217,0,0.394,0.176,0.394,0.394c0,0.031-0.006,0.15-0.045,0.323c0.329,0.881,1.969,3.229,10.08,3.119l0.021,0l0.021,0.002      c0.146,0.013,3.61,0.37,6.047,3.592c0.888,1.174,1.513,2.566,1.884,4.163c-0.131-6.349-2.485-11.198-2.485-11.198      c0.617-1.811-0.359-6.573-0.514-7.302c0.052-0.083,0.086-0.18,0.091-0.285c0.038-0.863,0.173-5.175-0.805-6.614      c-0.247-0.64-0.726-2.316-0.396-3.496c0.296-0.413,0.896-1.702-0.537-4.216c-0.162-0.284-0.523-0.383-0.806-0.221      c-0.284,0.161-0.383,0.522-0.221,0.806c1.215,2.133,0.611,2.934,0.614,2.934v0l-0.101,0.1l-0.044,0.135      c-0.613,1.88,0.377,4.361,0.42,4.465l0.03,0.073l0.048,0.063c0.49,0.643,0.657,3.062,0.639,5.004      c-4.33-4.328-10.191-5.042-11.022-5.122c0.704-5.304,3.968-6.915,4.002-6.931c0.098-0.047,0.14-0.164,0.094-0.262      c-0.047-0.098-0.164-0.141-0.262-0.094c-0.149,0.07-3.554,1.737-4.243,7.375c-0.81,0.491-2.931,2.573-2.97,4.851      c-0.034-2.032-1.728-3.911-2.669-4.642c-0.625-5.818-4.117-7.529-4.267-7.6c-0.098-0.046-0.216-0.004-0.262,0.094      c-0.047,0.099-0.004,0.216,0.094,0.262c0.034,0.016,3.31,1.618,4.007,6.962c-0.094-0.044-0.158-0.055-0.179-0.025      c0,0-6.55,0.469-11.227,5.233c-0.011-1.922,0.159-4.261,0.641-4.893l0.048-0.063l0.03-0.073c0.043-0.105,1.033-2.586,0.42-4.465      l-0.043-0.111l-0.062-0.081c-0.03-0.039-0.731-0.992,0.522-3.191c0.162-0.284,0.062-0.644-0.221-0.806      C58.47,5.137,58.11,5.236,57.948,5.52c-1.443,2.534-0.761,3.992-0.489,4.413c0.383,1.324-0.26,3.161-0.393,3.516      c-0.976,1.442-0.841,5.749-0.803,6.612c0.006,0.133,0.057,0.253,0.136,0.348c-0.256,1.261-1.019,5.373-0.457,7.025      c0,0-2.893,5.96-2.441,13.318c0.248-2.396,0.959-4.433,2.139-6.084C56.14,33.97,56.682,33.404,57.228,32.935z M54.419,45.984      c0.457,1.528,1.1,3.069,1.975,4.589c-0.029-5.454,0.499-13.573,0.698-16.425c-0.283,0.296-0.559,0.624-0.821,0.992      C54.422,37.737,53.804,41.382,54.419,45.984z M86.528,52.262c-0.002-0.017-0.009-0.033-0.008-0.051      c0.264-6.191-0.616-18.917-0.626-19.045c-0.002-0.034,0.007-0.065,0.013-0.097c-1.693-1.16-3.316-1.385-3.504-1.406      c-1.112,0.014-2.106-0.019-3.001-0.087c0.419,2.975,2.71,18.788,4.857,24.155c0.081,0.202-0.018,0.431-0.22,0.512      c-0.048,0.019-0.097,0.028-0.146,0.028c-0.156,0-0.304-0.093-0.366-0.248c-2.258-5.646-4.583-22.002-4.932-24.522      c-3.543-0.382-5.302-1.367-6.179-2.233c-0.208-0.206-0.365-0.405-0.492-0.595c-0.127,0.19-0.284,0.389-0.492,0.595      c-0.876,0.866-2.646,1.848-6.179,2.232c-0.348,2.513-2.673,18.876-4.932,24.524c-0.062,0.154-0.21,0.248-0.366,0.248      c-0.049,0-0.098-0.009-0.146-0.028c-0.202-0.081-0.3-0.31-0.22-0.512c2.147-5.368,4.439-21.185,4.857-24.156      c-0.893,0.068-1.883,0.102-2.989,0.089c-0.231,0.042-1.866,0.379-3.519,1.709c-0.118,1.61-0.894,12.534-0.736,18.504      c0.027,0.04,0.05,0.081,0.078,0.122c0,0,0.802,5.35,1.07,6.553c0,0-7.623,8.827-2.274,16.718l3.616,15.089l-0.992,3.268      c-0.095,0.312,0.082,0.643,0.394,0.737c0.057,0.017,0.115,0.025,0.172,0.025c0.253,0,0.488-0.164,0.565-0.419l0.764-2.517h3.505      l1.258,2.603c0.102,0.211,0.313,0.334,0.532,0.334c0.086,0,0.174-0.019,0.257-0.059c0.294-0.142,0.417-0.496,0.275-0.789      l-1.239-2.564l0.254-8.886c4.948-13.24,1.07-17.654,1.07-17.654c5.751-10.699,4.012-16.851,4.012-16.851l1.34-6.018      c0,0,1.066,5.483,1.467,6.018c0,0-1.739,6.152,4.012,16.851c0,0-3.878,4.413,1.07,17.654l0.242,8.466l-1.28,3.01      c-0.127,0.3,0.012,0.648,0.313,0.775c0.075,0.032,0.154,0.047,0.231,0.047c0.23,0,0.449-0.135,0.544-0.36l1.096-2.577h3.64      l0.761,2.517c0.077,0.255,0.312,0.42,0.565,0.42c0.057,0,0.114-0.008,0.172-0.025c0.312-0.094,0.489-0.424,0.394-0.737      l-0.939-3.104c-0.005-0.018-0.014-0.034-0.021-0.051l3.643-15.202c5.35-7.891-2.274-16.718-2.274-16.718      C85.729,57.508,86.363,53.349,86.528,52.262z M65.244,77.34c-0.073,0.125-0.205,0.195-0.34,0.195      c-0.067,0-0.136-0.017-0.198-0.054c-1.706-0.996-2.634-2.918-3.07-5.235c-0.46,1.845-1.184,3.631-2.301,5.13      c-0.077,0.104-0.196,0.159-0.316,0.159c-0.082,0-0.164-0.025-0.235-0.078c-0.174-0.13-0.21-0.377-0.08-0.551      c1.529-2.052,2.3-4.693,2.637-7.36c-0.071-1.635,0.019-3.352,0.195-5.01c-0.139-3.894-0.843-6.968-0.858-7.03      c-0.05-0.212,0.082-0.424,0.293-0.474c0.21-0.048,0.424,0.082,0.474,0.293c0.005,0.022,0.34,1.469,0.603,3.623      c0.557-3.156,1.239-5.554,1.316-5.821c0.06-0.209,0.279-0.328,0.488-0.269c0.209,0.061,0.329,0.279,0.269,0.488      c-0.026,0.088-1.263,4.437-1.786,9.25c0.001,0.038,0.003,0.075,0.005,0.112c0.045,1.461,0.006,3.145-0.211,4.869      c0.136,3.21,0.92,6.026,2.973,7.224C65.29,76.911,65.353,77.152,65.244,77.34z M85.064,77.457      c-0.071,0.053-0.153,0.078-0.235,0.078c-0.12,0-0.239-0.055-0.316-0.159c-1.117-1.499-1.84-3.284-2.3-5.128      c-0.436,2.315-1.364,4.237-3.071,5.232c-0.062,0.037-0.131,0.054-0.198,0.054c-0.135,0-0.267-0.07-0.341-0.195      c-0.11-0.188-0.046-0.429,0.142-0.539c2.083-1.215,2.832-4.135,2.968-7.263c-0.212-1.71-0.249-3.379-0.205-4.83      c0.001-0.047,0.004-0.093,0.006-0.141c-0.52-4.81-1.77-9.166-1.782-9.21c-0.06-0.209,0.06-0.427,0.269-0.488      c0.21-0.059,0.428,0.06,0.488,0.269c0.077,0.266,0.757,2.656,1.312,5.804c0.263-2.151,0.597-3.596,0.602-3.618      c0.05-0.212,0.263-0.342,0.474-0.293c0.212,0.05,0.343,0.262,0.293,0.474c-0.015,0.062-0.718,3.136-0.857,7.029      c0.176,1.658,0.267,3.376,0.195,5.012c0.337,2.668,1.107,5.309,2.636,7.36C85.275,77.081,85.239,77.327,85.064,77.457z       M86.72,33.702c0.156,2.374,0.713,11.364,0.627,17.059c1.346-2.285,2.157-4.619,2.601-6.887c0.261-3.762-0.43-6.76-2.072-8.931      C87.512,34.462,87.12,34.055,86.72,33.702z M71.86,16.257c0.109,0,0.197-0.088,0.197-0.197V4.922      c0-0.109-0.088-0.197-0.197-0.197s-0.197,0.088-0.197,0.197V16.06C71.663,16.169,71.751,16.257,71.86,16.257z M31.653,62.57      c-5.333,8.226-2.719,13.365-1.238,15.287C31.042,76.895,36.164,68.632,31.653,62.57z M36.409,80.783      c0.037,0.214-0.107,0.418-0.321,0.455c-0.023,0.004-0.045,0.006-0.068,0.006c-0.188,0-0.355-0.135-0.388-0.327      c-1.923-11.124,3.758-22.76,3.815-22.876c0.039-0.079,0.104-0.133,0.177-0.17c-0.138-0.266-0.223-0.418-0.223-0.418l0.699-1.95      c-0.359-0.067-0.673-0.238-0.928-0.51c-1.545-1.655-0.466-6.676-0.338-7.243l0.035-0.096c4.34-8.307,4.12-15.235,3.17-19.584      c-0.796-3.649-2.224-6.147-2.84-7.103c-1.546,2.122-7.915,12.078-1.789,24.691l0.026,0.071c0.061,0.229,1.464,5.643-1.168,8.986      c-1.304,1.657-3.36,2.495-6.114,2.495c-0.077,0-0.154-0.001-0.232-0.003c0.917,2.637,1.916,4.262,2.136,4.603      c5.516,6.888-0.995,16.494-1.062,16.592c-0.018,0.026-0.045,0.039-0.068,0.06c0.162,0.169,0.264,0.256,0.264,0.256      c-0.73,2.063,0.912,6.692,0.912,6.692v5.347l-1.496,2.759c-0.156,0.287-0.049,0.646,0.238,0.801      c0.09,0.049,0.186,0.072,0.281,0.072c0.21,0,0.413-0.112,0.52-0.309l1.536-2.833h2.47l1.297,2.8      c0.1,0.215,0.313,0.342,0.537,0.342c0.083,0,0.168-0.018,0.248-0.055c0.296-0.137,0.425-0.489,0.288-0.785l-1.261-2.721      l3.915-16.727c4.091-4.237,0.811-12.362-0.657-15.431C39.191,60.475,34.693,70.854,36.409,80.783z M24.665,77.857      c1.481-1.921,4.093-7.056-1.231-15.277C18.93,68.646,24.037,76.893,24.665,77.857z M22.972,90.329v-4.919      c0,0,1.642-4.629,0.912-6.692c0,0,0.102-0.086,0.264-0.256c-0.023-0.02-0.05-0.034-0.068-0.06      c-0.067-0.097-6.516-9.635-1.105-16.517c-0.001-0.001-0.002-0.003-0.003-0.004c0,0,1.145-1.69,2.182-4.673      c-0.075,0.001-0.15,0.003-0.224,0.003c-2.755,0-4.811-0.839-6.116-2.496c-2.633-3.343-1.235-8.756-1.174-8.985l0.026-0.071      c6.124-12.61-0.24-22.564-1.788-24.689c-1.404,2.204-7.051,12.558,0.329,26.685l0.036,0.098      c0.124,0.567,1.169,5.585-0.386,7.241c-0.245,0.26-0.544,0.426-0.885,0.498l0.704,1.962c0,0-0.085,0.152-0.223,0.418      c0.073,0.037,0.138,0.091,0.177,0.17c0.057,0.116,5.738,11.752,3.815,22.876c-0.033,0.192-0.2,0.327-0.388,0.327      c-0.022,0-0.045-0.002-0.068-0.006c-0.214-0.037-0.358-0.241-0.321-0.455c1.717-9.935-2.781-20.309-3.613-22.112      c-1.468,3.068-4.748,11.194-0.657,15.431l3.819,16.317c-0.047,0.053-0.086,0.113-0.112,0.183l-1.125,2.988      c-0.115,0.305,0.039,0.646,0.345,0.761c0.068,0.026,0.139,0.038,0.208,0.038c0.239,0,0.464-0.146,0.553-0.383l1.039-2.76h2.942      l1.123,2.773c0.093,0.23,0.314,0.369,0.548,0.369c0.074,0,0.149-0.014,0.222-0.043c0.303-0.123,0.448-0.467,0.326-0.77      L22.972,90.329z M42.869,21.61c0.526-2.469-1.032-4.653-1.944-5.68c0.023-0.063,0.037-0.13,0.037-0.2V13.32      c1.959-1.988,1.152-3.726,0.983-4.036c-0.831-1.888-0.396-3.208-0.374-3.273c0.109-0.306-0.049-0.643-0.354-0.754      c-0.306-0.112-0.646,0.046-0.758,0.353c-0.027,0.073-0.638,1.81,0.417,4.18l0.033,0.063c0.029,0.05,0.692,1.25-0.943,2.787      l-0.186,0.175v0.379c-1.469,0.951-5.201,3.439-6.154,4.765c-0.063,0.089-0.043,0.212,0.045,0.275      c0.035,0.025,0.075,0.037,0.115,0.037c0.061,0,0.122-0.028,0.16-0.082c0.861-1.199,4.264-3.498,5.833-4.523v2.064      c0,0.057,0.011,0.111,0.026,0.164c-3.621,4.171-6.222,6.604-8.065,8c0.063,0.085,0.094,0.192,0.074,0.305      c-0.02,0.112-0.459,2.756,1.908,4.376c0.179,0.123,0.225,0.368,0.103,0.548c-0.076,0.111-0.2,0.171-0.326,0.171      c-0.077,0-0.154-0.022-0.222-0.069c-2.265-1.55-2.345-3.889-2.281-4.795c-0.579,0.396-1.069,0.676-1.48,0.87      c5.666-9.374,4.356-18.462,4.342-18.554c-0.001-0.009-0.007-0.016-0.009-0.025c0.299-0.5,0.314-0.992,0.314-1.022      c0.002-0.109-0.085-0.199-0.194-0.2h-0.003c-0.107,0-0.195,0.086-0.197,0.194c0,0.009-0.023,0.893-0.799,1.378      c-0.673,0.421-2.09,0.635-5.013-0.733c-0.098-0.047-0.216-0.004-0.262,0.095c-0.046,0.099-0.004,0.216,0.095,0.262      c1.556,0.729,2.851,1.093,3.871,1.093c0.603,0,1.11-0.128,1.518-0.383c0.126-0.079,0.234-0.165,0.33-0.257      c0.177,1.735,0.668,9.897-4.504,18.24c-0.026,0.042-0.032,0.09-0.025,0.136c-1.084,0.385-1.434,0.06-1.434,0.06h-0.015      c0,0-0.32,0.298-1.301-0.015c0.018-0.054,0.016-0.114-0.017-0.166c-5.159-8.322-4.656-16.486-4.473-18.244      c0.069,0.063,0.143,0.123,0.226,0.179c0.396,0.264,0.896,0.396,1.495,0.396c0.979,0,2.224-0.352,3.725-1.054      c0.098-0.046,0.141-0.163,0.095-0.262c-0.046-0.099-0.164-0.141-0.262-0.095c-2.251,1.054-3.922,1.292-4.831,0.689      c-0.784-0.52-0.755-1.521-0.754-1.531c0.004-0.108-0.08-0.2-0.189-0.205c-0.102,0.001-0.2,0.08-0.205,0.188      c-0.002,0.037-0.022,0.684,0.352,1.28c-0.015,0.094-1.363,9.241,4.351,18.64c-0.446-0.195-0.997-0.5-1.663-0.955      c0.064,0.905-0.016,3.245-2.281,4.795c-0.068,0.047-0.145,0.069-0.222,0.069c-0.126,0-0.249-0.06-0.326-0.172      c-0.123-0.18-0.077-0.425,0.103-0.547c2.38-1.629,1.913-4.348,1.908-4.375c-0.021-0.112,0.011-0.221,0.074-0.305      c-1.833-1.388-4.414-3.8-8.004-7.929v-2.353c1.517,0.988,5.058,3.367,5.939,4.592c0.039,0.053,0.099,0.082,0.16,0.082      c0.04,0,0.08-0.012,0.115-0.037c0.088-0.063,0.108-0.187,0.045-0.275c-0.977-1.359-4.874-3.939-6.259-4.833v-0.399l-0.186-0.175      c-1.635-1.537-0.972-2.737-0.948-2.779l0.038-0.071c1.063-2.39,0.352-4.07,0.321-4.14c-0.13-0.297-0.474-0.431-0.772-0.304      c-0.298,0.127-0.437,0.474-0.313,0.773c0.022,0.052,0.519,1.294-0.305,3.166c-0.169,0.31-0.976,2.047,0.983,4.035v2.686      c-0.912,1.028-2.467,3.211-1.942,5.678c0,0-3.101,5.476-1.277,11.109c0,0-7.361,14.628,3.578,22.02      c0.319,0.015,0.57-0.073,0.771-0.286c1.067-1.136,0.517-5.013,0.202-6.482c-4.434-8.515-4.193-15.634-3.208-20.111      c1.072-4.874,3.179-7.687,3.268-7.804l0.297-0.391l0.317,0.375c0.094,0.111,9.315,11.291,2.233,25.925      c-0.113,0.461-1.247,5.361,1.042,8.263c1.148,1.456,2.997,2.193,5.497,2.193h0.036c0.602-1.828,3.938-12.93-2.056-17.638      c-0.171-0.134-0.201-0.382-0.067-0.553c0.135-0.171,0.382-0.201,0.553-0.067c1.659,1.303,2.79,3.169,3.373,5.513l0.761-2.527      h0.015l0.778,2.585c0.504-2.633,1.637-4.508,3.392-5.595c0.185-0.115,0.428-0.057,0.542,0.128      c0.115,0.185,0.057,0.428-0.128,0.542c-5.59,3.461-2.542,15.617-1.996,17.613h0.02c2.5,0,4.347-0.737,5.495-2.193      c2.287-2.901,1.15-7.804,1.036-8.263c-7.082-14.634,2.139-25.814,2.233-25.925l0.317-0.375l0.297,0.391      c0.087,0.114,8.564,11.587,0.059,27.916c-0.325,1.468-0.9,5.35,0.157,6.482c0.21,0.225,0.476,0.311,0.822,0.281      c10.931-7.393,3.573-22.017,3.573-22.017C45.969,27.086,42.869,21.61,42.869,21.61z"/>
        </g>
      </g>
    </g>
    <g>
      <g>
        <path fill="#000000" d="M57.278,33.21c0.044-0.071,0.108-0.126,0.185-0.158c1.935-1.578,3.85-1.883,3.955-1.899l0.031-0.005     l0.031,0c5.926,0.08,8.405-1.138,9.447-2.168c0.373-0.369,0.549-0.707,0.634-0.944c-0.04-0.177-0.046-0.299-0.046-0.33     c0-0.217,0.177-0.394,0.394-0.394h0c0.023,0,0.042,0.009,0.064,0.013c0.021-0.004,0.041-0.013,0.063-0.013h0     c0.217,0,0.394,0.176,0.394,0.394c0,0.031-0.006,0.15-0.045,0.323c0.329,0.881,1.969,3.229,10.08,3.119l0.021,0l0.021,0.002     c0.146,0.013,3.61,0.37,6.047,3.592c0.888,1.174,1.513,2.566,1.884,4.163c-0.131-6.349-2.485-11.198-2.485-11.198     c0.617-1.811-0.359-6.573-0.514-7.302c0.052-0.083,0.086-0.18,0.091-0.285c0.038-0.863,0.173-5.175-0.805-6.614     c-0.247-0.64-0.726-2.316-0.396-3.496c0.296-0.413,0.896-1.701-0.537-4.216c-0.162-0.284-0.523-0.383-0.806-0.221     c-0.284,0.161-0.383,0.522-0.221,0.806c1.215,2.133,0.611,2.934,0.614,2.934v0l-0.101,0.1l-0.044,0.135     c-0.613,1.88,0.377,4.361,0.42,4.466l0.03,0.073l0.048,0.063c0.49,0.643,0.657,3.062,0.64,5.004     c-4.33-4.328-10.191-5.042-11.022-5.122c0.704-5.304,3.968-6.915,4.002-6.931c0.098-0.047,0.14-0.164,0.094-0.262     c-0.047-0.098-0.164-0.141-0.262-0.094c-0.149,0.07-3.554,1.737-4.243,7.375c-0.81,0.491-2.931,2.573-2.97,4.851     c-0.034-2.032-1.728-3.911-2.669-4.642c-0.625-5.818-4.117-7.529-4.267-7.6c-0.098-0.046-0.216-0.004-0.262,0.094     c-0.047,0.099-0.004,0.216,0.094,0.262c0.034,0.016,3.31,1.618,4.007,6.962c-0.094-0.044-0.158-0.055-0.179-0.025     c0,0-6.55,0.469-11.227,5.233c-0.011-1.922,0.159-4.261,0.641-4.893l0.048-0.063l0.03-0.073c0.043-0.105,1.033-2.586,0.42-4.465     l-0.043-0.111L58.503,9.57c-0.03-0.039-0.731-0.992,0.522-3.191c0.162-0.284,0.062-0.644-0.221-0.806     c-0.284-0.162-0.644-0.063-0.806,0.221c-1.443,2.534-0.761,3.992-0.489,4.413c0.383,1.324-0.26,3.161-0.393,3.516     c-0.976,1.442-0.841,5.749-0.803,6.612c0.006,0.133,0.057,0.253,0.136,0.348c-0.256,1.261-1.019,5.373-0.457,7.025     c0,0-2.893,5.96-2.441,13.318c0.248-2.396,0.959-4.433,2.139-6.084C56.19,34.244,56.733,33.678,57.278,33.21z M54.47,46.259     c0.457,1.528,1.1,3.069,1.975,4.589c-0.029-5.454,0.499-13.573,0.698-16.425c-0.283,0.296-0.559,0.624-0.821,0.992     C54.473,38.011,53.854,41.656,54.47,46.259z M86.578,52.536c-0.002-0.017-0.009-0.033-0.008-0.051     c0.264-6.191-0.616-18.917-0.626-19.045c-0.002-0.034,0.007-0.065,0.013-0.097c-1.693-1.16-3.316-1.385-3.504-1.406     c-1.112,0.014-2.106-0.019-3.001-0.087c0.419,2.975,2.71,18.788,4.857,24.155c0.081,0.202-0.018,0.431-0.22,0.512     c-0.048,0.019-0.097,0.028-0.146,0.028c-0.156,0-0.304-0.094-0.366-0.248c-2.259-5.646-4.583-22.002-4.932-24.522     c-3.543-0.382-5.302-1.367-6.179-2.233c-0.208-0.206-0.365-0.405-0.492-0.595c-0.127,0.19-0.284,0.389-0.492,0.595     c-0.876,0.866-2.646,1.848-6.179,2.232c-0.348,2.513-2.673,18.876-4.932,24.524c-0.062,0.154-0.21,0.248-0.366,0.248     c-0.049,0-0.099-0.009-0.146-0.028c-0.202-0.081-0.3-0.31-0.22-0.512c2.147-5.368,4.439-21.185,4.857-24.156     c-0.893,0.068-1.883,0.102-2.989,0.089c-0.231,0.042-1.866,0.379-3.519,1.709c-0.118,1.61-0.894,12.534-0.736,18.504     c0.027,0.04,0.05,0.081,0.078,0.122c0,0,0.802,5.35,1.07,6.553c0,0-7.623,8.827-2.274,16.718l3.616,15.089L58.751,93.9     c-0.095,0.312,0.082,0.643,0.394,0.737c0.057,0.017,0.115,0.025,0.172,0.025c0.253,0,0.488-0.164,0.565-0.419l0.764-2.517h3.505     l1.258,2.603c0.102,0.211,0.313,0.334,0.532,0.334c0.086,0,0.174-0.019,0.257-0.059c0.294-0.142,0.417-0.496,0.275-0.789     l-1.239-2.564l0.254-8.886c4.948-13.24,1.07-17.654,1.07-17.654c5.751-10.699,4.012-16.851,4.012-16.851l1.34-6.018     c0,0,1.066,5.483,1.467,6.018c0,0-1.739,6.152,4.012,16.851c0,0-3.878,4.413,1.07,17.654l0.242,8.466l-1.28,3.01     c-0.127,0.3,0.012,0.648,0.313,0.775c0.075,0.032,0.154,0.047,0.231,0.047c0.23,0,0.449-0.135,0.544-0.36l1.096-2.577h3.64     l0.761,2.517c0.077,0.255,0.312,0.42,0.565,0.42c0.057,0,0.114-0.008,0.172-0.025c0.312-0.094,0.489-0.424,0.394-0.737     l-0.939-3.104c-0.005-0.018-0.014-0.034-0.021-0.051l3.643-15.202c5.35-7.891-2.274-16.718-2.274-16.718     C85.78,57.782,86.414,53.624,86.578,52.536z M65.294,77.614c-0.073,0.125-0.205,0.195-0.341,0.195     c-0.067,0-0.136-0.017-0.198-0.054c-1.706-0.996-2.634-2.918-3.07-5.235c-0.46,1.845-1.184,3.631-2.301,5.13     c-0.077,0.104-0.196,0.159-0.316,0.159c-0.082,0-0.164-0.025-0.235-0.078c-0.174-0.13-0.21-0.377-0.08-0.551     c1.529-2.052,2.3-4.693,2.637-7.36c-0.071-1.635,0.019-3.352,0.195-5.01c-0.139-3.894-0.843-6.968-0.858-7.031     c-0.05-0.212,0.082-0.424,0.293-0.474c0.21-0.049,0.424,0.082,0.474,0.293c0.005,0.022,0.34,1.469,0.603,3.623     c0.557-3.156,1.239-5.554,1.316-5.821c0.06-0.209,0.279-0.328,0.488-0.269c0.209,0.061,0.329,0.279,0.269,0.488     c-0.026,0.088-1.263,4.437-1.786,9.25c0.001,0.038,0.003,0.075,0.005,0.112c0.045,1.461,0.006,3.145-0.211,4.869     c0.136,3.21,0.92,6.026,2.973,7.224C65.34,77.185,65.404,77.426,65.294,77.614z M85.115,77.732     c-0.071,0.053-0.153,0.078-0.235,0.078c-0.12,0-0.239-0.055-0.316-0.159c-1.117-1.499-1.84-3.284-2.3-5.128     c-0.436,2.315-1.364,4.237-3.071,5.232c-0.062,0.037-0.131,0.054-0.198,0.054c-0.135,0-0.267-0.07-0.341-0.195     c-0.11-0.188-0.046-0.429,0.142-0.539c2.083-1.215,2.832-4.135,2.968-7.263c-0.212-1.71-0.249-3.379-0.205-4.83     c0.001-0.047,0.004-0.093,0.006-0.141c-0.52-4.81-1.77-9.166-1.782-9.21c-0.06-0.209,0.06-0.427,0.269-0.488     c0.21-0.059,0.428,0.06,0.488,0.269c0.077,0.266,0.757,2.656,1.312,5.804c0.263-2.151,0.597-3.596,0.602-3.618     c0.05-0.212,0.263-0.342,0.474-0.293c0.212,0.05,0.343,0.262,0.293,0.474c-0.015,0.062-0.718,3.136-0.857,7.029     c0.176,1.658,0.267,3.376,0.195,5.012c0.337,2.668,1.107,5.309,2.636,7.36C85.325,77.355,85.289,77.602,85.115,77.732z      M86.77,33.977c0.156,2.374,0.713,11.364,0.627,17.059c1.346-2.285,2.157-4.619,2.601-6.887c0.26-3.762-0.43-6.76-2.072-8.931     C87.562,34.736,87.17,34.329,86.77,33.977z M71.91,16.531c0.109,0,0.197-0.088,0.197-0.197V5.197C72.107,5.088,72.019,5,71.91,5     s-0.197,0.088-0.197,0.197v11.137C71.713,16.443,71.801,16.531,71.91,16.531z M31.703,62.845     c-5.333,8.226-2.719,13.365-1.238,15.287C31.093,77.169,36.214,68.906,31.703,62.845z M36.46,81.057     c0.037,0.214-0.107,0.418-0.321,0.455c-0.023,0.004-0.045,0.006-0.068,0.006c-0.188,0-0.355-0.135-0.388-0.327     c-1.923-11.124,3.758-22.76,3.815-22.876c0.039-0.079,0.104-0.133,0.177-0.17c-0.138-0.266-0.223-0.418-0.223-0.418l0.699-1.95     c-0.359-0.066-0.673-0.238-0.928-0.51c-1.545-1.655-0.466-6.676-0.338-7.243l0.035-0.096c4.34-8.307,4.12-15.235,3.17-19.584     c-0.796-3.649-2.224-6.147-2.84-7.103c-1.546,2.122-7.915,12.078-1.789,24.691l0.026,0.071c0.061,0.229,1.464,5.643-1.168,8.986     c-1.304,1.657-3.36,2.495-6.114,2.495c-0.077,0-0.154-0.001-0.232-0.003c0.917,2.637,1.916,4.262,2.136,4.603     c5.516,6.888-0.995,16.494-1.062,16.592c-0.018,0.026-0.045,0.039-0.068,0.06c0.162,0.169,0.264,0.256,0.264,0.256     c-0.73,2.063,0.912,6.692,0.912,6.692v5.347l-1.496,2.759c-0.156,0.287-0.049,0.646,0.238,0.801     c0.09,0.049,0.186,0.072,0.281,0.072c0.21,0,0.413-0.112,0.52-0.309l1.536-2.833h2.47l1.297,2.8     c0.1,0.215,0.313,0.342,0.536,0.342c0.083,0,0.168-0.018,0.248-0.055c0.296-0.137,0.425-0.489,0.288-0.785l-1.261-2.721     l3.915-16.727c4.091-4.237,0.811-12.362-0.657-15.431C39.241,60.749,34.744,71.128,36.46,81.057z M24.715,78.131     c1.481-1.921,4.093-7.056-1.231-15.277C18.98,68.92,24.087,77.167,24.715,78.131z M23.023,90.603v-4.919     c0,0,1.642-4.629,0.912-6.692c0,0,0.102-0.086,0.264-0.256c-0.023-0.02-0.05-0.034-0.068-0.06     c-0.067-0.097-6.516-9.635-1.105-16.517c-0.001-0.001-0.002-0.003-0.003-0.004c0,0,1.145-1.69,2.182-4.673     c-0.075,0.001-0.15,0.003-0.224,0.003c-2.755,0-4.811-0.839-6.116-2.496c-2.634-3.343-1.235-8.756-1.174-8.985l0.026-0.071     c6.124-12.61-0.24-22.564-1.788-24.689c-1.404,2.204-7.051,12.558,0.329,26.685l0.036,0.098c0.124,0.567,1.169,5.585-0.386,7.241     c-0.245,0.26-0.544,0.426-0.885,0.498l0.704,1.962c0,0-0.085,0.152-0.223,0.418c0.073,0.037,0.138,0.091,0.177,0.17     c0.058,0.116,5.738,11.752,3.815,22.876c-0.033,0.192-0.2,0.327-0.388,0.327c-0.022,0-0.045-0.002-0.068-0.006     c-0.214-0.037-0.358-0.241-0.321-0.455c1.717-9.935-2.781-20.309-3.613-22.112c-1.468,3.068-4.748,11.194-0.657,15.431     l3.819,16.317c-0.047,0.053-0.086,0.113-0.112,0.183l-1.125,2.988c-0.115,0.305,0.039,0.646,0.345,0.761     c0.068,0.026,0.139,0.038,0.208,0.038c0.239,0,0.464-0.146,0.553-0.383l1.039-2.76h2.942l1.123,2.773     c0.093,0.23,0.314,0.369,0.548,0.369c0.074,0,0.149-0.014,0.222-0.043c0.303-0.123,0.448-0.467,0.326-0.77L23.023,90.603z      M42.919,21.885c0.526-2.469-1.032-4.653-1.944-5.68c0.023-0.063,0.037-0.13,0.037-0.2v-2.409     c1.959-1.988,1.152-3.726,0.983-4.036c-0.831-1.888-0.396-3.208-0.374-3.273c0.109-0.306-0.049-0.643-0.354-0.754     c-0.306-0.112-0.646,0.046-0.758,0.353c-0.027,0.073-0.638,1.81,0.417,4.18l0.033,0.063c0.029,0.05,0.692,1.25-0.943,2.787     l-0.186,0.175v0.379c-1.469,0.951-5.201,3.439-6.154,4.765c-0.063,0.088-0.043,0.212,0.045,0.275     c0.035,0.025,0.075,0.037,0.115,0.037c0.061,0,0.122-0.029,0.16-0.082c0.861-1.199,4.264-3.498,5.833-4.523v2.064     c0,0.057,0.011,0.111,0.026,0.164c-3.621,4.171-6.222,6.604-8.065,7.999c0.063,0.085,0.094,0.193,0.074,0.305     c-0.02,0.112-0.459,2.756,1.908,4.376c0.18,0.123,0.225,0.368,0.103,0.548c-0.076,0.111-0.2,0.171-0.325,0.171     c-0.077,0-0.154-0.022-0.222-0.069c-2.265-1.55-2.345-3.889-2.281-4.795c-0.579,0.396-1.069,0.676-1.48,0.87     C35.234,16.2,33.923,7.112,33.909,7.02c-0.001-0.009-0.007-0.016-0.009-0.025c0.299-0.5,0.314-0.992,0.314-1.022     c0.002-0.109-0.085-0.199-0.194-0.2c-0.001,0-0.002,0-0.002,0c-0.108,0-0.196,0.086-0.198,0.194c0,0.009-0.023,0.893-0.799,1.378     c-0.673,0.421-2.09,0.635-5.013-0.733c-0.098-0.047-0.216-0.004-0.262,0.095c-0.046,0.099-0.004,0.216,0.095,0.262     c1.556,0.728,2.851,1.093,3.871,1.093c0.603,0,1.11-0.128,1.518-0.383c0.126-0.079,0.235-0.165,0.33-0.257     c0.177,1.735,0.668,9.897-4.504,18.24c-0.026,0.042-0.032,0.09-0.025,0.136c-1.084,0.385-1.434,0.06-1.434,0.06h-0.015     c0,0-0.32,0.298-1.301-0.015c0.018-0.054,0.016-0.114-0.017-0.166c-5.159-8.322-4.656-16.486-4.473-18.244     c0.069,0.063,0.143,0.123,0.226,0.179c0.396,0.264,0.896,0.396,1.495,0.396c0.979,0,2.224-0.352,3.725-1.054     c0.099-0.046,0.141-0.163,0.095-0.262c-0.046-0.099-0.164-0.141-0.262-0.095c-2.252,1.054-3.922,1.292-4.831,0.689     c-0.784-0.52-0.755-1.521-0.754-1.531c0.004-0.108-0.08-0.2-0.189-0.205c-0.102,0.001-0.2,0.08-0.205,0.188     c-0.002,0.037-0.022,0.684,0.352,1.28c-0.015,0.094-1.363,9.241,4.351,18.64c-0.446-0.195-0.997-0.5-1.663-0.955     c0.064,0.905-0.016,3.245-2.281,4.795c-0.068,0.047-0.145,0.069-0.222,0.069c-0.126,0-0.249-0.06-0.326-0.172     c-0.123-0.179-0.077-0.425,0.103-0.547c2.38-1.629,1.913-4.348,1.908-4.375c-0.021-0.112,0.011-0.221,0.074-0.305     c-1.833-1.388-4.414-3.8-8.004-7.929v-2.353c1.517,0.988,5.058,3.367,5.939,4.592c0.039,0.053,0.099,0.082,0.16,0.082     c0.04,0,0.08-0.012,0.115-0.037c0.088-0.063,0.109-0.187,0.045-0.275c-0.977-1.359-4.874-3.939-6.259-4.833v-0.399l-0.186-0.175     c-1.635-1.537-0.972-2.737-0.948-2.779l0.038-0.071c1.063-2.39,0.352-4.07,0.321-4.14c-0.13-0.297-0.474-0.431-0.772-0.304     c-0.298,0.127-0.437,0.474-0.313,0.773c0.022,0.052,0.519,1.294-0.305,3.166c-0.169,0.31-0.976,2.047,0.983,4.035v2.686     c-0.912,1.028-2.467,3.211-1.942,5.678c0,0-3.101,5.476-1.277,11.109c0,0-7.361,14.628,3.578,22.021     c0.319,0.015,0.57-0.073,0.771-0.286c1.067-1.136,0.517-5.013,0.202-6.482c-4.434-8.515-4.193-15.634-3.208-20.111     c1.072-4.874,3.179-7.687,3.268-7.804l0.297-0.391l0.317,0.375c0.094,0.111,9.315,11.291,2.233,25.925     c-0.113,0.461-1.247,5.361,1.042,8.263c1.148,1.456,2.997,2.193,5.497,2.193h0.036c0.602-1.827,3.938-12.93-2.056-17.638     c-0.171-0.134-0.201-0.382-0.067-0.553c0.135-0.171,0.382-0.201,0.553-0.067c1.659,1.303,2.79,3.169,3.373,5.512l0.761-2.527     h0.015l0.778,2.585c0.504-2.633,1.637-4.508,3.392-5.595c0.185-0.115,0.428-0.057,0.542,0.128     c0.115,0.185,0.057,0.428-0.128,0.542c-5.59,3.461-2.542,15.617-1.996,17.612h0.02c2.5,0,4.347-0.737,5.495-2.193     c2.287-2.901,1.15-7.804,1.036-8.263c-7.082-14.634,2.139-25.814,2.233-25.925l0.317-0.375l0.297,0.391     c0.087,0.114,8.564,11.587,0.059,27.916c-0.325,1.468-0.9,5.35,0.157,6.482c0.21,0.225,0.476,0.311,0.822,0.281     c10.931-7.393,3.573-22.017,3.573-22.017C46.019,27.361,42.919,21.885,42.919,21.885z"/>
      </g>
    </g>
  </g>
</svg>