<?xml version="1.0" encoding="utf-8"?>
<svg viewBox="1.39 0.9092 47.2199 48.1818" xmlns="http://www.w3.org/2000/svg">
  <g transform="matrix(1, 0, 0, 1, 8.881784197001252e-16, 0)">
    <path d="M48.0624,8.111c-2.5398-3.6132-1.8278-3.1674-2.18-3.3301c-0.24-0.12-0.6,0.01-0.79-0.1899   c-0.3582-0.4178,0.3877-0.6318-1.1-1.28c-1.4938-0.62-2.7108-2.2385-3.5-2.39c-0.27-0.0499-0.58,0.0599-0.7,0.2999   c-0.28,0.5801-1.12,1.1901-1.75,1.1602c-0.24-0.01-0.46-0.1001-0.68-0.1401c-0.78-0.1599-1.55,0.3301-2.06,0.9301   c-1.28,1.58-1.21,3.86-2.1,5.6901c-0.9417,1.9619-3.3862,3.7726-9.74,12.0299C7.6447,41.4871,10.9077,36.0205,9.2225,37.851   c-2.7562,2.8746-3.5552,3.798-4.46,4.51c-1.0164,0.7853-2.8491,1.6938-3.26,2.5499c-0.12,0.27-0.16,0.5699-0.04,0.83   c0.15,0.3101,0.51,0.49,0.86,0.51c0.35,0.01,0.69-0.11,1-0.25c0.56-0.26,1.07-0.61,1.54-1.02   c0.7871-0.6886,0.7977-0.3999,1.2599-0.3999c0.16,0.01,0.52-0.13,0.54-0.28c1.2302,1.9365,2.7738,1.6731,3.43,2.1599   c0.32,0.2201,0.53,0.6602,0.34,0.9901c-0.1299,0.2-0.39,0.3099-0.52,0.5299c-0.26,0.3801,0.04,0.9301,0.48,1.0601   c0.42,0.14,0.9-0.03,1.27-0.3101c0.03-0.02,0.06-0.0499,0.09-0.08c1.4615-1.1858,0.8722-2.131,3.41-8.58   c1.05-2.67,3.06-4.8301,5.06-6.88c28.0217-28.9863,20.6976-17.6115,27.62-22.6801c0.29-0.21,0.58-0.45,0.71-0.8   C48.7524,9.1709,48.3925,8.5809,48.0624,8.111z M27.9025,20.5509c-4.49,4.6799-7.71,8.36-7.91,8.59   c4.2742-6.7841,16.0956-21.4954,17.61-21.73C37.6025,7.4109,32.5225,15.7208,27.9025,20.5509z"/>
    <path d="M37.5976,7.4128l0.442-5.0293C38.0396,2.3835,38.9918,5.7315,37.5976,7.4128z"/>
  </g>
</svg>