<?xml version="1.0" encoding="utf-8"?>
<svg viewBox="16.667 10 66.666 25.0093" xmlns="http://www.w3.org/2000/svg">
  <path d="M20,26.667h3.334c2.344,0,4.593-0.514,6.666-1.409v6.419c11.044,4.443,28.948,4.443,40,0v-6.419  c2.073,0.895,4.323,1.409,6.667,1.409H80c1.843,0,3.333-1.491,3.333-3.333C83.333,21.491,81.843,20,80,20h-3.333  c-2.607,0-4.965-0.954-6.667-2.5V10c-11.052,4.447-28.956,4.447-40,0v7.5c-1.702,1.546-4.059,2.5-6.666,2.5H20  c-1.842,0-3.333,1.491-3.333,3.333C16.667,25.176,18.158,26.667,20,26.667z" transform="matrix(1, 0, 0, 1, 1.7763568394002505e-15, 0)"/>
</svg>