<?xml version="1.0" encoding="utf-8"?>
<svg viewBox="152.073 55.549 207.854 190.037" xmlns="http://www.w3.org/2000/svg">
  <path d="M228.934,77.107L216,55.549l-10.642,17.737c2.216-0.312,4.429-0.482,6.642-0.482  C217.428,72.804,223.12,74.378,228.934,77.107z" transform="matrix(1, 0, 0, 1, 7.105427357601002e-15, 7.105427357601002e-15)"/>
  <path d="M306.642,73.286L296,55.549l-12.934,21.558c5.815-2.729,11.507-4.303,16.934-4.303  C302.213,72.804,304.426,72.974,306.642,73.286z" transform="matrix(1, 0, 0, 1, 7.105427357601002e-15, 7.105427357601002e-15)"/>
  <path d="M267.604,86.671c-0.881-0.58-1.657-1.328-2.26-2.233L256,70.422l-9.344,14.015c-0.602,0.903-1.379,1.652-2.261,2.233  c3.881,2.918,7.763,6.183,11.605,9.68C259.842,92.853,263.723,89.589,267.604,86.671z" transform="matrix(1, 0, 0, 1, 7.105427357601002e-15, 7.105427357601002e-15)"/>
  <path d="M166.514,169.204c9.088,5.274,19.96,5.31,29.085,0.097l19.129-10.931C205.506,152.89,200,145.444,200,137  c0-15.955,19.625-28.364,46.93-30.627C234.267,94.572,222.806,88.804,212,88.804c-11.576,0-23.9,6.599-37.653,20.168l-22.274,37.123  C152.743,155.751,158.034,164.283,166.514,169.204z" transform="matrix(1, 0, 0, 1, 7.105427357601002e-15, 7.105427357601002e-15)"/>
  <path d="M312,137c0,8.444-5.506,15.89-14.728,21.371l19.129,10.931c9.125,5.214,19.997,5.176,29.085-0.097  c8.479-4.921,13.771-13.453,14.441-23.109l-22.274-37.123C323.9,95.403,311.576,88.804,300,88.804  c-10.806,0-22.267,5.768-34.93,17.569C292.375,108.636,312,121.045,312,137z" transform="matrix(1, 0, 0, 1, 7.105427357601002e-15, 7.105427357601002e-15)"/>
  <path d="M296.45,211.878L256,200.32l-40.45,11.557l11.665,9.721l27.216-5.443c1.037-0.207,2.102-0.207,3.139,0l27.216,5.443  L296.45,211.878z" transform="matrix(1, 0, 0, 1, 7.105427357601002e-15, 7.105427357601002e-15)"/>
  <ellipse cx="256" cy="137" rx="40" ry="15" transform="matrix(1, 0, 0, 1, 7.105427357601002e-15, 7.105427357601002e-15)"/>
  <path d="M210.037,196.812l43.765-12.504c1.438-0.41,2.959-0.41,4.396,0l43.765,12.504l4.853-14.56l-28.941-16.538  C271.217,167.191,263.848,168,256,168s-15.217-0.809-21.875-2.286l-28.941,16.538L210.037,196.812z" transform="matrix(1, 0, 0, 1, 7.105427357601002e-15, 7.105427357601002e-15)"/>
  <polygon points="243.005,234.757 256,245.586 268.995,234.757 256,232.158 " transform="matrix(1, 0, 0, 1, 7.105427357601002e-15, 7.105427357601002e-15)"/>
</svg>