<?xml version="1.0" encoding="utf-8"?>
<svg viewBox="21 -0.0006 86 128.0006" xmlns="http://www.w3.org/2000/svg">
  <path d="M31.05042,108.86359a37.77334,37.77334,0,0,0-1.98975,9.00037c-.2099,5.77112,3.3324,7.845,5.46259,8.56757a11.603,11.603,0,0,0,3.70349.66638c.05017,0,.09595-.006.14557-.00677.05859.00122.11957.00885.17767.00885a7.15578,7.15578,0,0,0,5.07-1.97A7.48065,7.48065,0,0,0,49.47,128c.038,0,.07617-.00562.11414-.00616.0376.00049.07367.00616.11139.00616a8.68469,8.68469,0,0,0,1.73657-.1795,6.634,6.634,0,0,0,5.319-5.83606c.60559-6.00745.21973-7.75232-2.42865-10.98242a31.80315,31.80315,0,0,1-2.70483-3.7417c-1.15192-2.00793-2.3689-10.68579-3.46606-22.53107C47.0224,71.95227,46.0274,55.50031,45.39,39.71a6.00073,6.00073,0,0,0,1.09-1.16c1.99-2.77,1.16-6.39.97-7.09a10.73462,10.73462,0,0,1,.45917-6.79279,12.87871,12.87871,0,0,1,1.065-2.01959.64526.64526,0,0,1,.15509-.06927c6.899-2.19287,6.7384-7.3476,6.583-12.33264C55.54877,4.99866,50.9176.52637,45.38507.04779,45.07245.01978,44.75787,0,44.44,0l-.014.00092L44.40747,0a9.84243,9.84243,0,0,0-8.94055,5.49664,8.58229,8.58229,0,0,1-6.75824,4.2915,7.73169,7.73169,0,0,0-5.51978,2.713c-5.27814,6.36951.41479,15.583,2.23969,18.20111,9.97827,33.0614,8.49432,66.40662,7.18866,72.44946C32.21686,105.0047,31.6239,106.96643,31.05042,108.86359Zm.02484-95.42908a13.23183,13.23183,0,0,0,4.079-1.8075A2.97782,2.97782,0,0,0,35.01,12.79a3.61907,3.61907,0,0,0,2.1,2.48A2.00087,2.00087,0,0,1,36.1,19,2.0674,2.0674,0,0,1,35.09,18.73C32.18182,17.03278,31.29126,14.95142,31.07526,13.43451Z" transform="matrix(1, 0, 0, 1, 1.7763568394002505e-15, 1.7763568394002505e-15)"/>
  <path d="M104.8111,12.50116a7.73171,7.73171,0,0,0-5.51984-2.713,8.58237,8.58237,0,0,1-6.75818-4.2915A9.84325,9.84325,0,0,0,83.59308,0h-.00153l-.01794.00085L83.56,0c-.32062,0-.63757.01971-.95258.048C77.078.52954,72.45123,5.00024,72.28772,10.24567c-.1554,4.985-.316,10.13977,6.58289,12.33258a.64763.64763,0,0,1,.15521.06934,12.89952,12.89952,0,0,1,1.06274,2.01331A10.711,10.711,0,0,1,80.55,31.45c-.19.71-1.02,4.33.97,7.1a6.00073,6.00073,0,0,0,1.09,1.16C81.95709,55.754,80.9408,72.48608,79.79065,85.34839c-1.083,11.53229-2.27948,19.94421-3.41425,21.92194a31.75312,31.75312,0,0,1-2.69885,3.73169c-2.64832,3.2301-3.03418,4.975-2.42865,10.98242a6.63421,6.63421,0,0,0,5.319,5.83606A8.68575,8.68575,0,0,0,78.3045,128c.03772,0,.07379-.00568.11139-.00616.038.00055.07617.00616.11414.00616a7.48065,7.48065,0,0,0,5.85-2.87,7.15578,7.15578,0,0,0,5.07,1.97c.05811,0,.11908-.00763.17767-.00885.04962.00079.0954.00677.14557.00677a11.603,11.603,0,0,0,3.70349-.66638c2.13019-.7226,5.67255-2.79645,5.46259-8.56757a37.77016,37.77016,0,0,0-1.98975-9.00043c-.57349-1.89716-1.16644-3.85889-1.56683-5.71179-1.30566-6.04285-2.78961-39.38806,7.18866-72.44946C104.3963,28.08417,110.08923,18.87067,104.8111,12.50116ZM92.91,18.73A2.0674,2.0674,0,0,1,91.9,19a2.00087,2.00087,0,0,1-1.01-3.73,3.61907,3.61907,0,0,0,2.1-2.48,2.97782,2.97782,0,0,0-.14423-1.163,13.23183,13.23183,0,0,0,4.079,1.8075C96.70874,14.95142,95.81818,17.03278,92.91,18.73Z" transform="matrix(1, 0, 0, 1, 1.7763568394002505e-15, 1.7763568394002505e-15)"/>
</svg>