<?xml version="1.0" encoding="utf-8"?>
<svg viewBox="9.244 24.92 81.511 67.323" xmlns="http://www.w3.org/2000/svg">
  <g transform="matrix(1, 0, 0, 1, 1.7763568394002505e-15, 0)">
    <path d="M32.24064,61.19774a1,1,0,0,1-1-1,5.33641,5.33641,0,0,0-1.81973-4.43808,1,1,0,1,1,1.11836-1.658,7.2595,7.2595,0,0,1,2.70137,6.09609A1,1,0,0,1,32.24064,61.19774ZM54.19054,38.162a1,1,0,0,1-1.4042.16758c-2.64453-2.08027-8.17051-3.13457-8.226-3.14512a.99994.99994,0,1,1,.36856-1.96562c.24639.04609,6.068,1.1584,9.09394,3.53886A1,1,0,0,1,54.19054,38.162ZM52.9211,7.51066c-.43387,3.40271-1.76689,16.95975,3.28634,24.33161a1,1,0,0,1-1.64961,1.13086c-5.053-7.37156-4.34207-19.6879-3.65194-25.47776l-24.63683.02425A1.00015,1.00015,0,0,0,25.2674,8.55985c.144,3.433.52832,12.43223,2.26884,15.91328,1.23615,2.47074-6.98657,11.16453-9.26582,19.71094C16.05353,52.49638,16.45187,62.33212,16.55,64.16122c-1.09277,2.0959-7.95683,15.823-6.6209,27.41895a1,1,0,0,0,.993.88554c36.703-.04088,34.02134.18719,34.53-.14394,3.61138-2.35069,5.09624-9.50049,5.4701-11.6628a2.7492,2.7492,0,0,1-.90242.25166,1.00049,1.00049,0,0,1-.34961-1.93164c1.20664-.53007,11.78848-5.531,11.78848-17.70136,0-13.12715-3.30323-19.27461-3.33662-19.33516a1,1,0,0,1,1.748-.97188c.14658.2629,3.58867,6.59278,3.58867,20.307a20.91388,20.91388,0,0,1-9.7669,17.73013c.12951,3.25288.50208,9.67573,1.48789,12.77866a.99989.99989,0,0,0,.953.69726h31.31a.9999.9999,0,0,0,.983-.8166c.87054-4.66729-.36277-12.42108-1.78613-16.79844a11.32436,11.32436,0,0,0-.73918-1.84624c2.69186-3.77583,4.3423-10.59,4.3423-18.08872,0-11.87216-9.49661-22.30325-12.20771-27.28613-2.13614-3.92481-1.09327-14.94395-.51123-18.85879A1.0003,1.0003,0,0,0,76.537,7.64169Zm15.77335,22.201c-1.98789,2.08555-4.94336,5.477-5.29,6.48672a1,1,0,1,1-1.8916-.64922c.614-1.78848,4.88418-6.326,5.734-7.21758a1,1,0,0,1,1.44766,1.38008ZM85.41173,73.66239a5.18876,5.18876,0,0,1-3.85713,2.21328,1,1,0,0,1,0-2,3.34536,3.34536,0,0,0,2.31494-1.48672,1,1,0,1,1,1.54219,1.27344Z"/>
  </g>
</svg>