<?xml version="1.0" encoding="utf-8"?>
<svg viewBox="-0.1642 0.0762 90.3284 89.8469" xmlns="http://www.w3.org/2000/svg">
  <g>
    <g>
      <desc type="0" basicinfo-basictype="0" basicinfo-roundedrectradius="12" basicinfo-polygonsides="6" basicinfo-starpoints="5" bounding="rect(-45.1642,-44.9235,90.3284,89.8469)" text="" font-familyname="" font-pixelsize="20" font-bold="0" font-underline="0" font-alignment="1" strokestyle="0" markerstart="0" markerend="0" shadowenabled="0" shadowoffsetx="0" shadowoffsety="2" shadowblur="4" shadowopacity="160" blurenabled="0" blurradius="4" transform="matrix(1,0,0,1,45,44.9997)" pers-center="0,0" pers-size="0,0" pers-start="0,0" pers-end="0,0" locked="0" mesh="" flag=""/>
      <path d="M5.527,74.499 C7.24485,75.2595 5.97664,77.0927 7.01,78.035 C8.38371,78.3991 9.42788,79.8392 9.826,81.167 C12.4121,83.6267 9.20015,85.976 7.71,87.751 C7.512,88.002 7.468,88.343 7.347,88.639 L7.137,88.528 L6.855,88.138 C5.903,87.394 6.68,84.918 6.112,83.465 C5.02252,83.1268 3.45848,81.7584 4.386,80.578 C2.47227,81.5042 0.0727158,79.7291 -0.136002,77.713 C-0.362,76.048 0.810001,74.85 1.982,73.895 C3.18764,73.6784 4.44787,73.9322 5.527,74.499 M82.024,1.697 C84.321,4.94 83.538,7.518 82.697,10.845 C82.744,11.655 83.043,12.438 83.086,13.248 C83.307,14.956 82.795,16.526 82.407,18.165 C82.407,18.165 80.308,16.282 75.389,19.253 C67.719,23.528 59.375,32.316 52.088,39.778 C50.56,41.342 49.119,42.99 47.676,44.633 C40.941,53.5266 32.2733,60.6693 25.074,69.151 C21.859,72.932 18.81,77.327 18.225,82.389 C18.062,83.803 18.293,84.535 18.567,85.767 C18.972,87.177 15.844,91.6 13.641,89.245 C12.2929,87.3227 9.97768,87.3385 8.254,88.601 C9.727,86.115 12.578,85.158 11.224,81.804 C10.0904,80.1882 9.57443,77.9339 7.363,77.385 C7.4356,76.128 7.21404,74.5981 6.014,73.877 C4.944,73.241 4.14,73.131 2.976,73.084 C3.63532,71.0817 5.29643,69.6227 7.147,68.677 C7.982,68.18 11.55,66.786 12.623,66.442 C16.378,65.236 14.871,65.98 19.797,62.7 C28.993,56.577 37.183,45.386 44.373,36.94 C45.635,35.459 47.327,34.054 48.667,32.749 C56.5764,24.9472 64.5833,17.1426 71.333,8.288 C72.305,6.965 73.452,5.7 74.017,4.159 C75.164,1.032 77.132,0.172001 78.618,0.0859985 C80.103,0 78.964,0.478001 81.852,1.702 L82.024,1.697 M88.971,6.218 C90.036,9.238 90.877,11.759 89.263,14.332 C87.888,16.524 86.097,17.887 84.883,18.308 C83.67,18.729 83.614,17.938 83.614,17.938 L83.509,18.044 L83.269,18.071 C84.348,15.411 84.012,13.471 83.486,10.86 L83.518,10.825 C84.38,8.038 84.64,5.688 83.598,2.881 C83.406,2.361 82.993,1.953 82.691,1.489 C82.764,1.401 87.592,2.309 88.971,6.218 " style="" stroke="none" fill-rule="evenodd" fill="#000000" fill-opacity="1"/>
    </g>
  </g>
</svg>