<?xml version="1.0" encoding="utf-8"?>
<svg viewBox="52 52 408 408.0002" xmlns="http://www.w3.org/2000/svg">
  <g transform="matrix(1, 0, 0, 1, 7.105427357601002e-15, 7.105427357601002e-15)">
    <path d="M416.2248,52H95.7752a12.7569,12.7569,0,0,0-12.3627,9.59C75.4741,92.4029,52,194.4693,52,324c0,56.837,9.8826,106.0643,14.5779,126.2447A12.6391,12.6391,0,0,0,78.9415,460H183.5787a12.7271,12.7271,0,0,0,11.9837-8.4392c15.4111-42.8592,27.6428-100.1747,40.5489-230.5808l-53.38,8.16a70.6724,70.6724,0,0,1-10.2847.7647,68.1118,68.1118,0,0,1-57.0347-30.855l-11.83-18.1118c-3.8128-5.8376-2.9207-14.03,2.7821-18.0416a12.7678,12.7678,0,0,1,18.1431,3.4286l12.24,18.7852a42.6759,42.6759,0,0,0,42.0746,18.87l57.2048-8.84a8.5023,8.5023,0,0,0,7.2238-8.4149V137a12.75,12.75,0,0,1,25.5,0v49.7253a8.5042,8.5042,0,0,0,7.2258,8.4149l57.1317,8.8285A42.6368,42.6368,0,0,0,375.34,185.11l12.2416-18.7852A12.72,12.72,0,0,1,408.917,180.18l-12.2416,18.87a68.2222,68.2222,0,0,1-57.0347,30.855,69.8229,69.8229,0,0,1-10.2846-.7647l-53.4654-8.16c12.9078,130.4226,25.1428,187.7361,40.6252,230.597A12.728,12.728,0,0,0,328.4939,460H433.0585a12.6391,12.6391,0,0,0,12.3636-9.7553C450.1174,430.0643,460,380.837,460,324c0-129.5307-23.4741-231.5971-31.4125-262.41A12.7569,12.7569,0,0,0,416.2248,52ZM106.146,242.91a12.7955,12.7955,0,0,1,11.8992,13.5147C116.5157,279.0352,115.75,301.73,115.75,324c0,12.41.5956,25.33,1.6166,38.3351a12.7534,12.7534,0,0,1-11.646,13.77h-1.0189a12.826,12.826,0,0,1-12.75-11.6449C90.8456,350.69,90.25,337.09,90.25,324c0-22.865.7657-46.1549,2.2952-69.19A12.6589,12.6589,0,0,1,106.146,242.91ZM420.05,364.46a12.6851,12.6851,0,0,1-12.6649,11.6449h-1.104a11.8291,11.8291,0,0,1-11.7149-12.9637C395.7205,349.7759,396.25,336.5781,396.25,324c0-22.1849-.7637-44.88-2.208-67.5751A12.7372,12.7372,0,0,1,405.9412,242.91a12.5341,12.5341,0,0,1,13.5157,11.9c1.5294,23.2048,2.2931,46.4947,2.2931,69.19C421.75,337.0052,421.1565,350.605,420.05,364.46Z"/>
  </g>
</svg>