<?xml version="1.0" encoding="utf-8"?>
<svg viewBox="52 52 408 408.0001" xmlns="http://www.w3.org/2000/svg">
  <g transform="matrix(1, 0, 0, 1, 7.105427357601002e-15, 7.105427357601002e-15)">
    <path d="M428.5878,61.591A12.7583,12.7583,0,0,0,416.2238,52H95.7762a12.7583,12.7583,0,0,0-12.364,9.591C75.4746,92.4056,52,194.471,52,324c0,56.8142,9.8738,106.0248,14.572,126.22A12.67,12.67,0,0,0,78.9651,460H183.4865a12.7778,12.7778,0,0,0,12.0174-8.4808c16.9585-47.0053,30.0094-111.3607,44.3449-270.4042a65.0917,65.0917,0,0,1-27.625-15.0446l-41.3089-37.1455A12.7592,12.7592,0,1,1,188,109.97l41.3088,37.23c15.7259,14.11,37.6545,14.11,53.38,0l41.2258-37.23a12.8386,12.8386,0,0,1,18.0189.9348,12.6863,12.6863,0,0,1-.9338,18.02L299.7742,166.07a66.368,66.368,0,0,1-27.71,15.0446c14.3354,159.0466,27.461,223.4015,44.432,270.4068A12.7762,12.7762,0,0,0,328.5115,460H433.0349a12.67,12.67,0,0,0,12.3931-9.78C450.1262,430.0248,460,380.8142,460,324,460,194.471,436.5254,92.4056,428.5878,61.591ZM166.75,217.92a12.75,12.75,0,0,1,25.5,0c0,59.2447-37.5714,110.0751-75.9044,126.0551.5935,12.58,1.4443,25.2448,3.0588,38.3351a12.7874,12.7874,0,0,1-11.1355,14.1948,9.22,9.22,0,0,1-1.5294.0851,12.7572,12.7572,0,0,1-12.6649-11.22c-2.04-16.83-3.229-33.405-3.6544-49.385v-.68c-.0851-3.8251-.17-7.65-.17-11.3051a1075.4085,1075.4085,0,0,1,7.479-126.0546,12.752,12.752,0,1,1,25.33,2.9748,1076.2015,1076.2015,0,0,0-7.2237,114.835C142.2689,299.52,166.75,261.1,166.75,217.92ZM421.58,335.3051a2.1138,2.1138,0,0,1-.085.68c-.34,15.98-1.5315,32.5546-3.5694,49.385a12.8239,12.8239,0,0,1-12.667,11.22,9.2331,9.2331,0,0,1-1.5294-.0851A12.7267,12.7267,0,0,1,392.5956,382.31c1.5294-13.0053,2.4632-25.7553,2.9737-38.3351-38.25-15.98-75.8193-66.81-75.8193-126.0551a12.75,12.75,0,0,1,25.5,0c0,43.18,24.3939,81.6,50.83,97.835a1052.7953,1052.7953,0,0,0-7.1407-114.835,12.752,12.752,0,1,1,25.33-2.9748A1091.9083,1091.9083,0,0,1,421.75,324C421.75,327.74,421.6649,331.48,421.58,335.3051Z"/>
  </g>
</svg>