<?xml version="1.0" encoding="utf-8"?>
<svg viewBox="6.4234 1 37.3541 48" xmlns="http://www.w3.org/2000/svg">
  <g transform="matrix(1, 0, 0, 1, 0.1004819944500932, 0)">
    <g>
      <path d="M33.6918,35.646c-1.2464-0.4235-2.5627-0.5555-3.7373-0.1898c-3.0901,1.0683-3.6971,3.5953-4.9607,7.7816    c0.0037,0.0922-0.0715,0.1006-0.0676,0.0105c-1.0503-3.5123-1.7206-6.6843-4.9642-7.7921    c-1.1434-0.356-2.4161-0.2405-3.6351,0.1563c-0.3312,0.6316-1.1188,2.3411-1.2834,4.6298C14.8343,43.1569,14.0046,49,14.0046,49    h21.9919c0,0-0.8298-5.8431-1.0389-8.7578C34.7961,37.9993,34.0341,36.3077,33.6918,35.646z"/>
      <path d="M42.7111,27.3219c-0.1394-2.7751-2.0221-5.0831-2.0221-5.0831l-0.9901-3.061c1.0878-4.4207,0.251-5.3969-0.6902-7.0146    c-0.9344-1.6176-3.4027-2.1266-4.1837-2.2591c-2.0433-0.3255-2.1899-0.7391-4.7833-2.3917    c-1.4155-0.9064-1.4433-1.6316-1.4433-1.6316c0.5856-0.4672,0.4741-2.1964,0.4741-2.1964C30.2997,4.3957,30.1464,1,30.1464,1    H19.8547c0,0-0.1534,3.3957,1.0738,2.6844c0,0-0.1116,1.7292,0.4741,2.1964c0,0-0.0279,0.7252-1.4434,1.6316    c-2.5816,1.6451-2.7307,2.0647-4.7832,2.3917c-0.781,0.1324-3.2493,0.6415-4.1837,2.2591    c-0.9413,1.6177-1.7781,2.5939-0.6903,7.0146l-0.9901,3.061c0,0-1.8826,2.308-2.0221,5.0831    C6.616,40.0624,5.8798,42.922,6.6553,45.6321C7.2759,47.8007,7.1992,49,7.1992,49h2.5032c0,0-0.7739-3.7792-0.3068-4.1208    c0.4672-0.3417,0.5578-0.272,0.7531,0.1952c0.2022,0.4672,0.3068,0.7391,0.7042,0.5997c0.3975-0.1464,0.7043-0.7809,0.1813-1.8756    c-0.5229-1.1017-0.4184-2.2871-1.6038-2.9355l2.0569-5.6827l3.4655-11.4492c0,0,2.6705,3.054,1.7501,7.5026    c0,0-0.2772,3.1945-0.2291,4.0098c1.1166-0.5799,2.4465-0.8189,3.6868-0.5212c3.4172,0.8368,4.562,4.3774,4.8015,7.9161    c0.2789-3.5836,1.2781-7.0618,4.8024-7.9161c1.2458-0.302,2.6099-0.059,3.7598,0.5632c0.0609-0.7417-0.2263-4.0517-0.2263-4.0517    c-0.9204-4.4486,1.7501-7.5026,1.7501-7.5026l3.4654,11.4492l2.057,5.6827c-1.1854,0.6484-1.0808,1.8338-1.6038,2.9355    c-0.5229,1.0947-0.2161,1.7292,0.1813,1.8756c0.8753,0.3071,0.4434-1.5364,1.4573-0.7949C41.0726,45.2208,40.2986,49,40.2986,49    h2.5032c0,0-0.0768-1.1993,0.5438-3.3679C44.12,42.9263,43.3827,40.0205,42.7111,27.3219z M22.8204,6.5026    c0.1071-0.2054,0.5286-0.0546,0.7375-0.2552c-0.0796-0.2209-0.0513-0.5327,0.0003-0.9551    c-0.425-0.0983-0.8464-0.3311-0.7378-0.5394c0.1132-0.2172,0.5858-0.0231,0.7781-0.2819c0.2732-0.3679,0.681-0.2021,0.7552,0.2352    c0.4812-0.049,1.0521-0.0281,1.2883-0.0036l0.0002,0.0001c0.0062-0.0262,0.006-0.0466,0.0142-0.0746    c0.0985-0.336,0.4683-0.5323,0.747-0.1571c0.1382,0.186,0.5131,0.1568,0.6133,0.1759c0.5004,0.0955-0.0189,0.5064-0.5632,0.658    c0.066,0.4509,0.0632,0.7476-0.0081,0.9469c0.158,0.1435,0.4786,0.1272,0.5714,0.1449c0.6065,0.1157-0.2781,0.7854-1.1334,0.6925    c-0.1916-0.0208-0.2634-0.2188-0.2538-0.4409c-0.5331,0.038-0.9329,0.0462-1.2384,0.0224    c0.0037,0.1544-0.0386,0.2979-0.1493,0.3801C24.0154,7.2189,22.616,6.8947,22.8204,6.5026z M22.9852,7.4795    c0.1002-0.0192,0.4752,0.0101,0.6133-0.176c0.275-0.3702,0.6856-0.1993,0.7559,0.2444c0.4019-0.0483,0.889-0.0484,1.291-0.0004    c0.0072-0.0325,0.0006-0.0513,0.011-0.0869c0.0985-0.336,0.4683-0.5323,0.747-0.1571c0.1561,0.2102,1.1133,0.0807,0.7349,0.5108    c-0.0643,0.0731-0.3727,0.2281-0.6964,0.3126c0.0511,0.4271,0.0778,0.7408,0.0094,0.9537    c0.1757,0.1342,0.6401,0.0818,0.7302,0.2546c0.2044,0.3922-1.195,0.7164-1.4214,0.5481    c-0.0712-0.0528-0.1129-0.2264-0.1224-0.3979c-0.001,0.0001-0.0016,0.0002-0.0026,0.0003c-0.3641,0.026-0.4843-0.0187-0.6345,0    c-0.2336-0.0292-0.4349-0.0374-0.6088-0.0425c0.0175,0.3741-0.2991,0.7087-1.3213,0.2533    c-0.3947-0.1758-0.3037-0.4256-0.0853-0.4673c0.0927-0.0176,0.4132-0.0013,0.5713-0.1448    c-0.0471-0.1912-0.0425-0.4917,0.0056-0.9586C22.9967,7.9788,22.4178,7.5876,22.9852,7.4795z M23.5576,10.9668    c-0.5502-0.1456-1.0822-0.5574-0.5724-0.6547c0.1002-0.0191,0.4752,0.0101,0.6133-0.1759    c0.2787-0.3752,0.6484-0.1789,0.747,0.1571c0.0093,0.0319,0.0094,0.0552,0.016,0.0847c0.3949-0.0468,0.8704-0.0472,1.2668-0.0015    c0.114-0.3491,0.4791-0.6388,0.7751-0.2403c0.1382,0.186,0.5131,0.1568,0.6133,0.1759c0.2217,0.0423,0.2991,0.296-0.0853,0.4673    c-0.1983,0.0883-0.3621,0.14-0.5107,0.1766c0.0281,0.4071,0.0909,0.7276,0.0226,0.9581c0.2241,0.1664,1.0528,0.076,0.6949,0.4827    c-0.1605,0.1824-1.1393,0.4968-1.3782,0.3193c-0.1105-0.0821-0.1529-0.225-0.1495-0.379c-0.2986,0.0234-0.6931,0.0181-1.222-0.019    c0.0076,0.1612-0.0317,0.3127-0.1467,0.3981c-0.239,0.1775-1.2177-0.1369-1.3782-0.3193    c-0.3539-0.4022,0.4523-0.3184,0.6871-0.4772C23.4777,11.7056,23.5059,11.3916,23.5576,10.9668z M22.9852,14.8945    c0.0924-0.0176,0.4113-0.0015,0.5698-0.1438c-0.0766-0.2217-0.0486-0.5367,0.0044-0.9706    c-0.1432-0.0349-0.3002-0.084-0.489-0.1681c-0.1742-0.0776-0.3322-0.2037-0.25-0.3613c0.1132-0.2172,0.5858-0.023,0.7781-0.2819    c0.3107-0.4183,0.6715-0.1171,0.7689,0.2394c0.3979-0.0465,0.8764-0.0464,1.2733,0.0006    c0.0065-0.0288,0.0065-0.0518,0.0157-0.0829c0.0985-0.336,0.4683-0.5323,0.747-0.1571c0.1382,0.186,0.5131,0.1568,0.6133,0.1759    c0.511,0.0975-0.0224,0.5109-0.5734,0.6566c0.0444,0.382,0.0607,0.6959-0.0283,0.9254c0.1781,0.1965,1.0957,0.0794,0.7232,0.5026    c-0.1467,0.1667-1.5453,0.763-1.5165-0.081c-0.5293,0.0375-0.9279,0.0478-1.2321,0.0262    C24.3848,16.2046,22.0917,15.0649,22.9852,14.8945z M22.9852,17.7272c0.0919-0.0176,0.4069-0.0023,0.5665-0.1414    c-0.0732-0.2131-0.0455-0.5296,0.0067-0.9622c-0.4249-0.0988-0.8462-0.3325-0.738-0.5401    c0.1132-0.2172,0.5858-0.0231,0.7781-0.282c0.2733-0.3679,0.6812-0.2019,0.7552,0.2355c0.4024-0.0495,0.8904-0.0504,1.293-0.0017    c0.0067-0.029,0.0005-0.0453,0.0098-0.0767c0.0985-0.336,0.4683-0.5323,0.747-0.1571c0.1561,0.2103,1.1133,0.0807,0.7349,0.5108    c-0.0642,0.0729-0.3715,0.2277-0.6945,0.3122c0.0532,0.4216,0.0838,0.7343,0.0013,0.956    c0.2264,0.1647,1.0503,0.0759,0.6932,0.4816c-0.146,0.1658-1.3261,0.6287-1.4578,0.1788    c-0.0253-0.0867-0.0372-0.1668-0.043-0.2432c-0.3095,0.0272-0.7191,0.0202-1.27-0.0191c-0.0046,0.0815-0.019,0.1691-0.0463,0.2623    C24.1496,18.8279,22.0789,17.9,22.9852,17.7272z M26.4425,20.409c0.0947,0.0888,0.2509,0.1264,0.3722,0.1367    c0.9827,0.0836-0.0877,0.7983-0.9313,0.7067c-0.205-0.0223-0.2736-0.247-0.2512-0.4876    c-0.1802,0.0093-0.3817,0.0203-0.6317,0.0516c-0.242-0.0303-0.4395-0.0391-0.6169-0.0459    c0.0188,0.1772-0.0147,0.3492-0.1417,0.4435c-0.239,0.1775-1.2177-0.1369-1.3782-0.3193c-0.113-0.1284-0.0718-0.298,0.1215-0.3348    c0.0938-0.0179,0.4219-0.0001,0.5776-0.1495c-0.0495-0.1848-0.0463-0.4852,0.0008-0.9424    c-0.5528-0.1445-1.091-0.5601-0.5784-0.6578c0.1002-0.0191,0.4752,0.0101,0.6133-0.1759c0.2787-0.3752,0.6484-0.1789,0.747,0.1571    c0.0091,0.0311,0.0091,0.054,0.0156,0.0827c0.3992-0.0483,0.8809-0.0491,1.28-0.0015c0.0065-0.0283,0.0063-0.0507,0.0153-0.0812    c0.0985-0.336,0.4683-0.5323,0.747-0.1571c0.1382,0.186,0.5131,0.1568,0.6133,0.1759c0.5126,0.0977-0.0258,0.5134-0.5786,0.6579    C26.4864,19.9263,26.4924,20.2262,26.4425,20.409z M23.5502,25.1115c0.0003-0.0021,0.0004-0.0039,0.0007-0.006    c-0.1743-0.0464-0.3479-0.1037-0.4804-0.1627c-0.3844-0.1713-0.307-0.425-0.0853-0.4673c0.1002-0.0191,0.4752,0.0101,0.6133-0.176    c0.2787-0.3752,0.6484-0.1788,0.747,0.1572c0.0063,0.0216,0.0067,0.0513,0.0106,0.0766c0.0011-0.0001,0.0018-0.0003,0.0029-0.0004    c0.233-0.0241,0.8022-0.0444,1.2834,0.0042c0.1049-0.3682,0.4381-0.6722,0.761-0.2375c0.1382,0.1861,0.5131,0.1569,0.6133,0.176    c0.1934,0.0369,0.2345,0.2065,0.1215,0.3348c-0.0841,0.0955-0.3925,0.2257-0.7017,0.3041c0.05,0.4699,0.0566,0.7752,0.0053,0.9599    c0.2018,0.1945,0.6407,0.0674,0.7396,0.257c0.0822,0.1576-0.0759,0.2836-0.2501,0.3613    c-1.0355,0.4614-1.3511,0.1153-1.3276-0.2643c-0.174,0.0091-0.3667,0.0204-0.6034,0.05c-0.2303-0.0288-0.4337-0.033-0.6176-0.0379    c0.0175,0.1762-0.0164,0.3464-0.141,0.439c-0.239,0.1775-1.2177-0.1369-1.3782-0.3193c-0.113-0.1284-0.0718-0.298,0.1215-0.3348    c0.0926-0.0176,0.4124-0.0014,0.5707-0.1445C23.4882,25.8873,23.4776,25.5956,23.5502,25.1115z M23.5494,22.288    c-0.3197-0.0851-0.6221-0.2382-0.6857-0.3104c-0.113-0.1284-0.0718-0.2979,0.1215-0.3348    c0.1002-0.0191,0.4752,0.0101,0.6133-0.1759c0.2787-0.3752,0.6484-0.1789,0.747,0.1571c0.0094,0.0322,0.0032,0.0488,0.01,0.0784    c0.0013-0.0002,0.0021-0.0003,0.0035-0.0005c0.2329-0.0241,0.8016-0.0444,1.2827,0.0042c0.1043-0.369,0.4383-0.6746,0.7617-0.2392    c0.1382,0.186,0.5131,0.1568,0.6133,0.1759c0.1934,0.0369,0.2345,0.2065,0.1215,0.3348    c-0.0837,0.0952-0.3901,0.2249-0.6981,0.3033c0.0499,0.4226,0.0686,0.74-0.002,0.9614c0.1553,0.1503,0.4846,0.1323,0.5786,0.1502    c0.1934,0.0369,0.2345,0.2065,0.1215,0.3348c-0.0545,0.062-0.1314,0.0989-0.2068,0.1324    c-0.9725,0.4333-1.3101,0.1543-1.3284-0.1956c-0.1935,0.006-0.4125,0.0018-0.6932-0.0239    c-0.2005-0.0126-0.3737-0.0162-0.5331-0.0215c0.0581,0.8815-1.3649,0.2769-1.5131,0.1086    c-0.113-0.1284-0.0718-0.298,0.1215-0.3348c0.0925-0.0176,0.4114-0.0016,0.5699-0.1439    C23.4869,23.0541,23.4787,22.7629,23.5494,22.288z M25.6105,34.9788c-0.3421,0.0218-0.4637-0.0192-0.61-0.0009    c-0.2497-0.0313-0.4524-0.04-0.6334-0.0472c-0.0028,0.1862-0.0474,0.3888-0.1252,0.4467    c-0.196,0.1456-0.8235-0.0318-1.1714-0.1868c-0.1742-0.0776-0.3322-0.2037-0.25-0.3613c0.0917-0.1759,0.5737-0.1171,0.7413-0.2609    c-0.049-0.1857-0.0452-0.4872,0.0026-0.9465c-0.3252-0.0841-0.636-0.2401-0.7006-0.3135    c-0.3785-0.4301,0.5787-0.3005,0.7349-0.5107c0.2787-0.3752,0.6484-0.1789,0.747,0.1571    c0.0098,0.0334,0.0034,0.0509,0.0104,0.0815c0.402-0.0493,0.8889-0.05,1.2906-0.0015c0.0067-0.0298,0.0004-0.0477,0.0099-0.08    c0.0507-0.1729,0.1889-0.328,0.3664-0.3586c0.176-0.0305,0.2855,0.0735,0.3806,0.2015c0.1382,0.186,0.5131,0.1568,0.6133,0.1759    c0.1934,0.0369,0.2345,0.2065,0.1215,0.3348c-0.0917,0.1042-0.3876,0.249-0.6951,0.3212c0.051,0.4269,0.0776,0.7404,0.0065,0.9519    c0.1595,0.1397,0.4752,0.1243,0.5671,0.1418C27.9194,34.8953,25.5779,36.0509,25.6105,34.9788z M26.4373,30.7906    c0.0493,0.4655,0.0557,0.7687,0.0046,0.9524c0.1567,0.1469,0.4816,0.1297,0.5749,0.1475    c0.6065,0.1157-0.2781,0.7854-1.1334,0.6926c-0.2212-0.024-0.2877-0.2488-0.259-0.4872    c-0.1785,0.0093-0.3776,0.0203-0.6238,0.0511c-0.2507-0.0314-0.4542-0.04-0.6356-0.0473    c-0.0007,0.0941-0.0112,0.1942-0.0435,0.3044c-0.123,0.4206-1.2869,0.0153-1.4577-0.1788    c-0.3598-0.4088,0.48-0.3152,0.6986-0.4853c-0.05-0.1871-0.0459-0.4924,0.0031-0.9603c-0.3092-0.0783-0.6176-0.2086-0.7017-0.3041    c-0.3785-0.4301,0.5787-0.3006,0.7349-0.5108c0.2787-0.3752,0.6484-0.1789,0.747,0.1571    c0.0069,0.0234,0.0074,0.0554,0.0114,0.0832c0.4057-0.0496,0.8979-0.0499,1.3015,0c0.0627-0.225,0.2025-0.4279,0.3765-0.454    c-0.0507-0.0004-0.1008,0.0047-0.1515-0.0008c-0.1573-0.0171-0.2458-0.2182-0.2532-0.4411    c-0.2906,0.0202-0.539-0.0071-0.539-0.0071c-0.287-0.0157-0.5152-0.0177-0.715-0.0227c0.0632,0.888-1.3641,0.2819-1.5125,0.1133    c-0.3602-0.4092,0.4819-0.3149,0.6993-0.4858c-0.0515-0.1879-0.0472-0.4867-0.0016-0.9292    c-0.428-0.0999-0.8417-0.3701-0.7409-0.5636c0.0971-0.1863,0.644-0.1015,0.7781-0.2819c0.2787-0.3752,0.6484-0.1789,0.747,0.1571    c0.0084,0.0286,0.0093,0.0508,0.0153,0.0775c0.4009-0.0486,0.885-0.0493,1.285-0.001c0.0039-0.0253,0.0042-0.0549,0.0106-0.0765    c0.0985-0.336,0.4683-0.5323,0.747-0.1571c0.134,0.1804,0.6809,0.0956,0.7781,0.2819c0.1175,0.2254-0.3167,0.4323-0.7405,0.5314    c0.0521,0.4391,0.078,0.7567,0.0068,0.9691c0.1588,0.1415,0.4767,0.1257,0.569,0.1432c0.559,0.1066-0.1494,0.6764-0.9332,0.6935    c0.0997,0.0044,0.2081,0.063,0.3199,0.2134c0.1382,0.186,0.5131,0.1568,0.6133,0.176    C27.5196,30.2367,27.0527,30.6492,26.4373,30.7906z"/>
      <path d="M26.0348,29.7512c0.0162,0.0001,0.0325,0.0006,0.0487,0.0002C26.0672,29.7507,26.0507,29.7488,26.0348,29.7512z"/>
    </g>
  </g>
</svg>