<?xml version="1.0" encoding="utf-8"?>
<svg viewBox="87.8 233.5372 838.47 560.1227" xmlns="http://www.w3.org/2000/svg">
  <path d="M918.94,609.86l-0.05-0.25c-0.67-3.58-0.59-7.23,0.26-10.85c3.64-15.62,8.9-44.35,4.83-66.4c-2.52,4.8-5.37,9.48-8.59,13.92  c-3.05,4.21-6.42,8.21-10.17,11.93c-2.86,2.85-5.93,5.53-9.24,8.01l-18-24c9.54-7.15,16.52-17.09,21.61-27.96  c2.75-5.87,4.96-12.01,6.72-18.13c4.31-14.98,6-29.85,6.64-40.37c-2.56-23.9-18.59-72.33-104.14-90.68  c-72.96-15.64-139.87-31.42-219.79-66.13c-78.92-34.28-164.2-55.3-253.49-62.49c-76.05-6.12-154.32-2.65-239.28,10.61l-8.45,1.32  v360.33l3.77,3.01c58.66,46.68,137.5,68.95,234.33,66.17c79.62-2.29,152.81-20.43,201.24-32.43c10.7-2.65,19.93-4.93,27.44-6.59  c74.36-16.4,92.59-16.03,106.03-14.11c7.08,1.01,14.71,3.72,21.53,6.18c-1.42,4.38-2.84,9.02-4.24,13.91  c-9.49,33.23-19.58,84.46-13.75,139.85l0.94,8.95h249.96l2.05-7.29C936.2,718.48,919.65,614.27,918.94,609.86z M423.99,504.56  c-105.03-34.5-206.03-41.24-207.04-41.3l1.9-29.94c4.27,0.27,105.87,7.06,214.5,42.73L423.99,504.56z M524.63,546.69  c-16.09-8.98-32.81-16.02-50.52-23.48l11.64-27.64c17.68,7.44,35.96,15.14,53.5,24.93L524.63,546.69z" transform="matrix(1, 0, 0, 1, 1.4210854715202004e-14, 1.4210854715202004e-14)"/>
</svg>