<?xml version="1.0" encoding="utf-8"?>
<svg viewBox="16.68 5.225 68.042 58.481" style="" fill-rule="evenodd" clip-rule="evenodd" stroke-linejoin="round" stroke-miterlimit="2" xmlns="http://www.w3.org/2000/svg">
  <g transform="matrix(1, 0, 0, 1, -562.0000000000001, 0)">
    <g transform="matrix(1,0,0,1,562.5,0)">
      <rect x="0" y="0" width="100" height="100" style="" fill="none"/>
      <g transform="matrix(0.833682,0,0,0.833682,-456.879,-596.938)">
        <path d="M646.071,778L608,786L569.929,778C565.07,794.973 564.726,812.89 568.88,830L604,830L608,810L612,830L647.12,830C651.274,812.89 650.93,794.973 646.071,778Z" style="" fill-rule="nonzero"/>
      </g>
      <g transform="matrix(0.833682,0,0,0.833682,-456.879,-596.938)">
        <path d="M625.406,737.403C623.409,738.287 621.197,738.707 619,738.709C616.803,738.702 614.592,738.283 612.596,737.398C610.632,736.509 609.766,735.998 608,734.231C606.234,735.998 605.368,736.509 603.404,737.398C601.408,738.283 599.197,738.702 597,738.709C594.803,738.707 592.591,738.287 590.595,737.403C588.629,736.516 586.789,735.119 586,733.249C589.888,735.435 592.597,736.245 596.917,736.245C600.333,736.245 604.667,734.425 606.822,730.611C607.877,728.745 608,725.631 608,725.631C608,725.631 608.123,728.745 609.178,730.611C611.333,734.425 615.667,736.245 619.083,736.245C623.404,736.245 626.113,735.435 630,733.249C629.211,735.119 627.371,736.516 625.406,737.403ZM625.406,754.122C623.409,755.006 621.197,755.425 619,755.428C616.803,755.42 614.592,755.002 612.596,754.117C610.632,753.228 609.766,752.717 608,750.95C606.234,752.717 605.368,753.228 603.404,754.117C601.408,755.002 599.197,755.42 597,755.428C594.803,755.425 592.591,755.006 590.595,754.122C588.629,753.235 586.789,751.838 586,749.967C589.888,752.154 592.597,752.964 596.917,752.964C600.333,752.964 604.667,751.144 606.822,747.329C607.877,745.464 608,742.35 608,742.35C608,742.35 608.123,745.464 609.178,747.329C611.333,751.144 615.667,752.964 619.083,752.964C623.404,752.964 626.113,752.154 630,749.967C629.211,751.838 627.371,753.235 625.406,754.122ZM625.406,772.325C623.409,773.209 621.197,773.629 619,773.631C616.803,773.624 614.592,773.205 612.596,772.32C610.632,771.431 609.766,770.92 608,769.153C606.234,770.92 605.368,771.431 603.404,772.32C601.408,773.205 599.197,773.624 597,773.631C594.803,773.629 592.591,773.209 590.595,772.325C588.629,771.438 586.789,770.041 586,768.171C589.888,770.357 592.597,771.167 596.917,771.167C600.333,771.167 604.667,769.347 606.822,765.533C607.877,763.667 608,760.553 608,760.553C608,760.553 608.123,763.667 609.178,765.533C611.333,769.347 615.667,771.167 619.083,771.167C623.404,771.167 626.113,770.357 630,768.171C629.211,770.041 627.371,771.438 625.406,772.325ZM641.394,738.122L646,722L570,722L574.606,738.122C576.824,745.885 576.824,754.115 574.606,761.878L570.547,776.086L608,783.957L645.453,776.086L641.394,761.878C639.176,754.115 639.176,745.885 641.394,738.122Z" style="" fill-rule="nonzero"/>
      </g>
    </g>
  </g>
</svg>