<?xml version="1.0" encoding="utf-8"?>
<svg viewBox="6.23 5.225 48.755 58.682" xmlns="http://www.w3.org/2000/svg">
  <g transform="matrix(1, 0, 0, 1, 1.7763568394002505e-15, 0)">
    <g display="none">
      <g display="inline">
        <g>
          <path fill="#000000" d="M64.734,86.567c0.004-0.22,0.008-0.44,0.011-0.656c0.002-0.121,0.002-0.239,0.004-0.359      c0.003-0.22,0.005-0.44,0.006-0.656c0.001-0.137,0.001-0.271,0.002-0.406c0.001-0.195,0.002-0.39,0.002-0.581      c0-0.143-0.001-0.284-0.001-0.426c-0.001-0.179-0.001-0.357-0.003-0.533c-0.001-0.145-0.003-0.288-0.005-0.431      c-0.002-0.169-0.004-0.339-0.006-0.506c-0.002-0.144-0.005-0.285-0.008-0.427c-0.003-0.161-0.006-0.322-0.01-0.481      c-0.003-0.141-0.007-0.281-0.011-0.42c-0.004-0.157-0.009-0.313-0.013-0.468c-0.004-0.137-0.009-0.273-0.013-0.409      c-0.005-0.151-0.011-0.3-0.016-0.449c-0.005-0.135-0.011-0.27-0.016-0.403c-0.006-0.146-0.013-0.291-0.02-0.435      c-0.006-0.13-0.012-0.26-0.019-0.388c-0.007-0.143-0.015-0.284-0.023-0.425c-0.007-0.127-0.014-0.254-0.022-0.379      c-0.008-0.137-0.017-0.272-0.025-0.406c-0.008-0.125-0.016-0.25-0.024-0.372c-0.009-0.133-0.019-0.264-0.028-0.395      c-0.009-0.119-0.017-0.24-0.026-0.357c-0.01-0.134-0.021-0.264-0.032-0.396c-0.009-0.111-0.018-0.224-0.028-0.333      c-0.012-0.138-0.025-0.272-0.037-0.407c-0.009-0.1-0.018-0.202-0.028-0.301c-0.016-0.161-0.032-0.318-0.048-0.475      c-0.011-0.105-0.022-0.21-0.033-0.313c-0.02-0.184-0.04-0.368-0.061-0.547c-0.012-0.1-0.024-0.197-0.036-0.296      c-0.014-0.116-0.028-0.232-0.042-0.346c-0.013-0.101-0.026-0.199-0.039-0.299c-0.014-0.108-0.028-0.217-0.043-0.323      c-0.013-0.097-0.027-0.193-0.041-0.288c-0.015-0.105-0.03-0.21-0.045-0.313c-0.014-0.096-0.029-0.19-0.043-0.284      c-0.015-0.098-0.03-0.196-0.045-0.292c-0.015-0.095-0.03-0.188-0.046-0.281c-0.015-0.094-0.031-0.187-0.046-0.279      c-0.016-0.091-0.031-0.181-0.047-0.27c-0.016-0.091-0.032-0.181-0.048-0.27c-0.016-0.088-0.032-0.175-0.048-0.261      c-0.016-0.086-0.032-0.172-0.049-0.257c-0.017-0.086-0.033-0.171-0.05-0.255c-0.017-0.083-0.033-0.166-0.05-0.247      c-0.017-0.081-0.034-0.162-0.051-0.242c-0.017-0.081-0.035-0.162-0.052-0.241c-0.017-0.078-0.034-0.157-0.052-0.234      c-0.017-0.077-0.035-0.152-0.052-0.227c-0.018-0.076-0.035-0.153-0.053-0.228c-0.018-0.075-0.036-0.147-0.054-0.221      c-0.018-0.072-0.035-0.145-0.053-0.215c-0.018-0.073-0.037-0.144-0.056-0.216c-0.018-0.068-0.035-0.137-0.053-0.203      c-0.019-0.073-0.039-0.143-0.058-0.214c-0.017-0.062-0.034-0.126-0.052-0.187c-0.021-0.075-0.042-0.147-0.064-0.22      c-0.029-0.099-0.058-0.196-0.087-0.292c-0.023-0.078-0.047-0.156-0.07-0.231c-0.019-0.061-0.038-0.12-0.057-0.179      c-0.019-0.058-0.037-0.116-0.056-0.173c-0.02-0.06-0.039-0.117-0.059-0.176c-0.018-0.053-0.036-0.107-0.054-0.16      c-0.02-0.058-0.04-0.113-0.06-0.169c-0.018-0.051-0.036-0.102-0.054-0.152c-0.02-0.054-0.039-0.106-0.059-0.158      c-0.018-0.05-0.037-0.1-0.056-0.148c-0.02-0.051-0.039-0.101-0.058-0.151c-0.018-0.047-0.037-0.093-0.055-0.139      c-0.02-0.049-0.039-0.097-0.059-0.144c-0.018-0.045-0.037-0.089-0.055-0.133c-0.019-0.046-0.039-0.092-0.058-0.137      c-0.018-0.042-0.036-0.083-0.054-0.124c-0.02-0.045-0.04-0.09-0.059-0.134c-0.017-0.038-0.034-0.076-0.052-0.113      c-0.02-0.043-0.039-0.085-0.059-0.127c-0.017-0.037-0.035-0.073-0.052-0.109c-0.019-0.04-0.038-0.08-0.058-0.118      c-0.018-0.036-0.035-0.07-0.053-0.105c-0.019-0.037-0.038-0.075-0.056-0.111c-0.017-0.032-0.033-0.063-0.05-0.094      c-0.019-0.036-0.039-0.073-0.058-0.109c-0.017-0.031-0.033-0.06-0.049-0.09c-0.018-0.033-0.037-0.067-0.055-0.099      c-0.017-0.03-0.034-0.059-0.051-0.088c-0.018-0.03-0.035-0.061-0.053-0.091c-0.016-0.027-0.031-0.052-0.047-0.078      c-0.069-0.114-0.136-0.219-0.202-0.318c-0.015-0.022-0.03-0.045-0.044-0.067c-0.016-0.024-0.032-0.047-0.048-0.07      c-0.015-0.022-0.03-0.044-0.045-0.064c-0.016-0.022-0.031-0.043-0.047-0.064c-0.015-0.02-0.029-0.041-0.044-0.06      c-0.015-0.02-0.03-0.039-0.044-0.058c-0.014-0.019-0.029-0.038-0.043-0.056c-0.015-0.019-0.029-0.036-0.043-0.054      c-0.013-0.017-0.027-0.034-0.04-0.05c-0.014-0.018-0.028-0.034-0.042-0.051c-0.013-0.015-0.025-0.03-0.037-0.044      c-0.014-0.016-0.027-0.031-0.04-0.046c-0.012-0.014-0.024-0.028-0.036-0.041c-0.012-0.014-0.024-0.027-0.036-0.04      c-0.012-0.013-0.024-0.026-0.035-0.038c-0.011-0.012-0.022-0.024-0.033-0.035c-0.011-0.012-0.022-0.023-0.033-0.034      c-0.011-0.011-0.021-0.022-0.032-0.032c-0.011-0.011-0.021-0.021-0.032-0.031c-0.009-0.009-0.018-0.018-0.027-0.026      c-0.011-0.01-0.021-0.02-0.032-0.029c-0.008-0.007-0.016-0.015-0.023-0.021c-0.012-0.01-0.022-0.02-0.033-0.029      c-0.005-0.005-0.011-0.009-0.016-0.014c-0.013-0.011-0.026-0.022-0.038-0.032c-0.002-0.002-0.004-0.004-0.006-0.005      c-0.015-0.012-0.028-0.023-0.041-0.032c0.032-5.548-5.004-9.634-5.821-10.26c0.901-3.399-0.686-5.89-1.013-6.354      c0.181-0.923,1.426-8.616-5.422-15.03c-1.923-1.939-3.847-3.032-4.818-3.507c1.017-3.934,0.886-7.516-0.407-10.697      c-2.707-6.657-9.453-9.071-9.739-9.17c-0.308-0.108-0.645,0.055-0.753,0.364c-0.108,0.308,0.055,0.646,0.363,0.754      c0.065,0.023,6.54,2.351,9.037,8.51c1.232,3.038,1.312,6.498,0.252,10.331l-2.605,2.26c-1.785-2.103-4.977-4.682-5.01-4.709      l-0.054-0.044h-0.014C23.838,14.342,9.978,8.01,9.802,7.931c-0.1-0.045-0.216-0.001-0.261,0.098      C9.496,8.128,9.54,8.245,9.64,8.29c0.173,0.078,13.732,6.273,23.772,14.462c-1.643,0.322-5.731,1.999-9.188,5.789      c-0.018,0.019-0.036,0.038-0.054,0.058c-0.018,0.02-0.036,0.04-0.054,0.06c-0.87,0.953-1.695,2.047-2.42,3.302      c-0.015,0.026-0.031,0.05-0.046,0.076l-0.032,0.055l0.001,0.01c-0.044,0.078-0.086,0.157-0.129,0.236      c-0.02,0.023-0.035,0.049-0.043,0.079c-0.339,0.625-0.655,1.284-0.938,1.987c-0.484,0.428-6.326,5.432-15.175,5.432      c-0.109,0-0.197,0.088-0.197,0.197c0,0.109,0.088,0.197,0.197,0.197c5.933,0,10.54-2.217,13.132-3.853      c-0.917,2.282-4.875,11.097-11.1,10.509c-0.11-0.014-0.205,0.069-0.215,0.178c-0.01,0.108,0.069,0.205,0.178,0.215      c0.209,0.02,0.418,0.03,0.627,0.03c2.695,0,5.315-1.66,7.64-4.839c0.409,0.187,0.817,0.274,1.22,0.274      c0.61,0,1.206-0.192,1.773-0.499c0.048,0.619,0.084,2.144-0.461,4.017c-0.654,2.25-2.305,5.474-6.459,8.055      c-0.093,0.057-0.121,0.179-0.064,0.272c0.037,0.06,0.102,0.093,0.168,0.093c0.035,0,0.071-0.01,0.104-0.03      c3.494-2.171,5.292-4.803,6.208-7.113c0.338,0.045,0.666,0.072,0.981,0.072c0.094,0,0.184-0.006,0.276-0.01      c-0.098,1.304-0.94,9.007-7.343,12.963c-0.093,0.057-0.121,0.179-0.064,0.272c0.037,0.06,0.102,0.094,0.168,0.094      c0.035,0,0.071-0.01,0.103-0.029c3.292-2.034,5.148-5.029,6.196-7.68c0.326-0.043,0.633-0.108,0.924-0.191      c-0.169,1.426-1.259,7.948-7.332,11.957c-0.091,0.06-0.116,0.182-0.056,0.273c0.038,0.057,0.101,0.089,0.165,0.089      c0.037,0,0.075-0.01,0.108-0.033c6.498-4.29,7.426-11.403,7.526-12.422c4.813-1.767,4.52-8.962,4.484-9.594      c0.058-0.212,0.105-0.409,0.14-0.584c0.604,1.396,1.326,2.838,2.186,4.262c-0.021,0.029-0.041,0.06-0.057,0.094      c-0.03,0.062-2.989,6.192-5.275,8.477l-0.099,0.099l-0.044,0.133c-0.099,0.297-2.369,7.247-0.065,12.167      c-0.412,1.665-1.773,7.662-0.469,9.401c0.234,0.312,0.543,0.503,0.902,0.559c0.91,0.57,7.405,4.885,6.754,11.364l-0.029,0.286      l0.207,0.199c0.624,0.601,2.292,2.475,2.514,3.914c0.045,0.292,0.297,0.501,0.584,0.501c0.03,0,0.061-0.002,0.091-0.007      c0.323-0.05,0.544-0.353,0.494-0.675c-0.277-1.791-2.05-3.752-2.66-4.382c0.555-7.511-7.132-12.093-7.464-12.286l-0.129-0.075      l-0.149-0.005c-0.052-0.002-0.101-0.011-0.169-0.102c-0.756-1.008-0.033-5.641,0.722-8.609l0.054-0.214l-0.098-0.197      c-2.076-4.152-0.303-10.375-0.008-11.337c2.008-2.081,4.34-6.566,5.128-8.142c2.464,3.701,5.928,7.139,10.766,9.11      c-0.284,0.952,0.928,2.869,1.317,3.45c0.015,0.024,0.029,0.048,0.044,0.072c-0.031,0.107-0.084,0.299-0.146,0.56      c-0.001,0.004-0.002,0.007-0.002,0.01c-0.02,0.087-0.041,0.181-0.063,0.283c-0.001,0.004-0.002,0.007-0.002,0.011      c-0.022,0.102-0.044,0.212-0.066,0.328c-0.001,0.004-0.002,0.008-0.002,0.012c-0.022,0.118-0.044,0.243-0.066,0.374      c0,0.002-0.001,0.004-0.001,0.007c-0.576,3.497-0.755,11.523,8.556,15.228c0.082,0.098,0.519,0.752,1.825,4.644      c0.025,0.099,0.634,2.451,3.011,4.838c0.154,0.275,1.644,2.964,2.254,5.202l-0.287,1.169c-0.078,0.317,0.116,0.638,0.434,0.716      c0.047,0.012,0.095,0.017,0.141,0.017c0.086,0,0.166-0.025,0.242-0.059l0.118-0.002c0.001-0.02,0.001-0.042,0.002-0.062      c0.102-0.079,0.179-0.192,0.212-0.327l0.182-0.741c0.001,0,0.002,0,0.002,0c0.052,0.01,0.103,0.019,0.154,0.027      c0.14,0.023,0.278,0.042,0.416,0.057c0.036,0.004,0.073,0.009,0.109,0.013c0.22,0.021,0.438,0.035,0.653,0.035      c1.078,0,2.091-0.265,3.029-0.793c0.287-0.162,0.558-0.344,0.814-0.54c1.034-0.74,2.045-1.881,2.872-3.621      c0.37,2.185,0.833,4.936,0.912,5.504c0.041,0.296,0.295,0.51,0.585,0.51c0.027,0,0.055-0.002,0.082-0.006      c0.324-0.045,0.549-0.344,0.504-0.668C65.787,92.773,65.107,88.761,64.734,86.567z M15.83,42.139      c0.064-0.091,0.128-0.178,0.191-0.27c1.844-2.711,2.891-5.532,3.009-5.859c1.136-0.763,1.759-1.328,1.778-1.346l0.049-0.072      c0.207-0.518,0.433-1.01,0.671-1.484c0.129,0.807,0.414,2.347,0.957,4.289c-0.008,0.01-0.018,0.017-0.025,0.029      C22.427,37.488,19.031,43.49,15.83,42.139z M18.566,52.794c0.931-2.525,1.136-4.659,1.175-5.224      c0.948-0.106,1.78-0.436,2.481-0.998c0.772-0.618,1.28-1.421,1.617-2.186C23.774,46.725,23.116,52.027,18.566,52.794z       M21.975,46.264c-0.976,0.781-2.236,1.076-3.745,0.893c0.913-2.529,0.789-4.6,0.734-5.136c1.77-1.14,3.187-3.312,3.669-4.109      c0.367,1.253,0.839,2.65,1.439,4.114C24.007,42.59,23.638,44.933,21.975,46.264z M45.072,54.728      c-0.091,0-0.182-0.021-0.268-0.065c-0.291-0.148-0.407-0.505-0.259-0.796c0.066-0.13,6.498-13.141-3.86-24.601      c-0.219-0.243-0.2-0.617,0.042-0.836s0.617-0.201,0.836,0.042c10.916,12.078,4.106,25.796,4.036,25.933      C45.495,54.61,45.287,54.728,45.072,54.728z M55.185,89.89c-0.062,0.021-0.125,0.03-0.187,0.03      c-0.248,0-0.479-0.157-0.561-0.405c-2.077-6.231-2.519-10.627-2.604-11.782c-11.201-8.051-3.601-26.643-3.522-26.831      c0.126-0.302,0.472-0.444,0.774-0.318c0.301,0.126,0.444,0.472,0.318,0.774c-0.076,0.181-7.414,18.154,3.339,25.566l0.242,0.167      l0.013,0.294c0.002,0.047,0.238,4.781,2.563,11.754C55.663,89.451,55.496,89.786,55.185,89.89z M57.936,88.664      c-0.089,0.238-0.314,0.385-0.554,0.385c-0.069,0-0.139-0.012-0.207-0.037c-0.306-0.114-0.462-0.455-0.348-0.761      c2.412-6.47,2.861-11.284,2.813-14.182c-0.052-3.133-0.68-4.761-0.686-4.777c-0.119-0.304,0.029-0.647,0.332-0.767      c0.302-0.12,0.646,0.026,0.767,0.329C60.165,69.131,62.727,75.812,57.936,88.664z"/>
        </g>
      </g>
    </g>
    <g>
      <g>
        <path d="M65.314,87c0.004-0.22,0.008-0.442,0.011-0.658c0.002-0.121,0.002-0.24,0.004-0.36c0.003-0.221,0.005-0.442,0.007-0.659     c0.001-0.137,0.001-0.271,0.002-0.407c0.001-0.195,0.002-0.391,0.001-0.583c0-0.144-0.001-0.285-0.001-0.427     c-0.001-0.179-0.001-0.358-0.003-0.535c-0.001-0.146-0.003-0.289-0.005-0.432c-0.002-0.17-0.004-0.34-0.006-0.507     c-0.002-0.144-0.005-0.286-0.008-0.428c-0.003-0.162-0.006-0.323-0.01-0.483c-0.003-0.142-0.007-0.282-0.011-0.421     c-0.004-0.157-0.009-0.314-0.013-0.469c-0.004-0.138-0.009-0.274-0.013-0.41c-0.005-0.151-0.011-0.301-0.017-0.45     c-0.005-0.136-0.011-0.271-0.016-0.404c-0.006-0.147-0.013-0.292-0.02-0.437c-0.006-0.13-0.012-0.26-0.019-0.389     c-0.007-0.143-0.015-0.285-0.023-0.426c-0.007-0.127-0.014-0.254-0.022-0.38c-0.008-0.137-0.017-0.272-0.026-0.408     c-0.008-0.125-0.016-0.25-0.024-0.373c-0.009-0.133-0.019-0.265-0.028-0.396c-0.009-0.12-0.017-0.24-0.026-0.358     c-0.01-0.134-0.021-0.265-0.032-0.397c-0.009-0.112-0.018-0.224-0.028-0.334c-0.012-0.138-0.025-0.273-0.037-0.408     c-0.009-0.101-0.018-0.203-0.028-0.302c-0.016-0.161-0.032-0.319-0.048-0.477c-0.011-0.105-0.022-0.21-0.033-0.314     c-0.02-0.185-0.04-0.369-0.061-0.549c-0.012-0.1-0.024-0.198-0.036-0.297c-0.014-0.116-0.028-0.233-0.042-0.347     c-0.013-0.101-0.026-0.2-0.039-0.3c-0.014-0.108-0.028-0.218-0.043-0.324c-0.013-0.098-0.027-0.193-0.041-0.289     c-0.015-0.105-0.03-0.211-0.045-0.314c-0.014-0.096-0.029-0.19-0.043-0.285c-0.015-0.098-0.03-0.197-0.045-0.293     c-0.015-0.095-0.03-0.189-0.046-0.282c-0.015-0.094-0.031-0.187-0.046-0.28c-0.016-0.091-0.031-0.181-0.047-0.271     c-0.016-0.091-0.032-0.182-0.048-0.271c-0.016-0.088-0.032-0.175-0.048-0.262c-0.016-0.087-0.033-0.173-0.049-0.258     c-0.017-0.086-0.033-0.171-0.05-0.256c-0.017-0.083-0.034-0.166-0.05-0.248c-0.017-0.082-0.034-0.163-0.051-0.243     c-0.017-0.082-0.035-0.162-0.052-0.242c-0.017-0.079-0.034-0.157-0.052-0.234c-0.017-0.077-0.035-0.152-0.052-0.228     c-0.018-0.077-0.036-0.153-0.053-0.228c-0.018-0.075-0.036-0.148-0.054-0.221c-0.018-0.072-0.036-0.145-0.053-0.216     c-0.019-0.073-0.037-0.144-0.056-0.216c-0.018-0.068-0.035-0.137-0.053-0.204c-0.019-0.073-0.039-0.143-0.059-0.214     c-0.017-0.063-0.034-0.126-0.052-0.188c-0.021-0.075-0.043-0.148-0.064-0.221c-0.029-0.099-0.058-0.197-0.087-0.293     c-0.024-0.078-0.047-0.156-0.071-0.232c-0.019-0.061-0.038-0.12-0.058-0.18c-0.019-0.058-0.037-0.117-0.056-0.173     c-0.02-0.06-0.04-0.118-0.059-0.176c-0.018-0.054-0.036-0.108-0.054-0.16c-0.02-0.058-0.04-0.114-0.06-0.17     c-0.018-0.051-0.036-0.102-0.054-0.152c-0.02-0.054-0.039-0.106-0.059-0.159c-0.019-0.05-0.037-0.1-0.056-0.149     c-0.02-0.051-0.039-0.101-0.059-0.151c-0.018-0.047-0.037-0.094-0.055-0.139c-0.02-0.049-0.039-0.097-0.059-0.145     c-0.018-0.045-0.037-0.089-0.055-0.133c-0.02-0.047-0.039-0.092-0.058-0.137c-0.018-0.042-0.036-0.083-0.054-0.124     c-0.02-0.045-0.04-0.09-0.06-0.134c-0.017-0.038-0.035-0.076-0.052-0.114c-0.02-0.043-0.04-0.086-0.059-0.128     c-0.017-0.037-0.035-0.073-0.052-0.109c-0.019-0.04-0.039-0.08-0.058-0.119c-0.018-0.036-0.035-0.07-0.053-0.105     c-0.019-0.037-0.038-0.075-0.057-0.111c-0.017-0.032-0.033-0.063-0.05-0.095c-0.019-0.037-0.039-0.073-0.058-0.109     c-0.017-0.031-0.033-0.06-0.05-0.09c-0.018-0.033-0.037-0.067-0.055-0.099c-0.017-0.03-0.034-0.059-0.051-0.088     c-0.018-0.03-0.035-0.062-0.053-0.091c-0.016-0.027-0.031-0.052-0.047-0.078c-0.069-0.114-0.137-0.22-0.202-0.319     c-0.015-0.022-0.03-0.045-0.045-0.067c-0.016-0.024-0.032-0.047-0.048-0.07c-0.015-0.022-0.03-0.044-0.045-0.065     c-0.016-0.022-0.031-0.043-0.047-0.065c-0.015-0.02-0.029-0.041-0.044-0.06c-0.015-0.02-0.03-0.039-0.044-0.059     c-0.014-0.019-0.029-0.038-0.043-0.056c-0.015-0.019-0.029-0.036-0.043-0.054c-0.013-0.017-0.027-0.034-0.04-0.05     c-0.014-0.018-0.028-0.034-0.042-0.051c-0.013-0.015-0.025-0.03-0.037-0.044c-0.014-0.016-0.027-0.031-0.04-0.046     c-0.012-0.014-0.024-0.028-0.036-0.041c-0.012-0.014-0.025-0.027-0.036-0.04c-0.012-0.013-0.024-0.026-0.036-0.038     c-0.011-0.012-0.022-0.024-0.033-0.035c-0.011-0.012-0.022-0.023-0.034-0.034c-0.011-0.011-0.021-0.022-0.032-0.032     c-0.011-0.011-0.021-0.021-0.032-0.031c-0.009-0.009-0.018-0.018-0.027-0.026c-0.011-0.01-0.021-0.02-0.032-0.03     c-0.008-0.007-0.016-0.015-0.023-0.021c-0.012-0.01-0.022-0.02-0.033-0.029c-0.005-0.005-0.011-0.009-0.016-0.014     c-0.013-0.012-0.026-0.022-0.038-0.032c-0.002-0.002-0.004-0.004-0.006-0.005c-0.015-0.012-0.028-0.023-0.041-0.033     c0.032-5.565-5.02-9.664-5.84-10.292c0.904-3.409-0.688-5.908-1.016-6.374c0.182-0.926,1.431-8.643-5.439-15.077     c-1.929-1.945-3.859-3.042-4.833-3.518c1.02-3.946,0.889-7.539-0.408-10.731c-2.715-6.678-9.483-9.099-9.769-9.199     c-0.309-0.108-0.647,0.056-0.755,0.365c-0.108,0.309,0.055,0.648,0.365,0.756c0.065,0.023,6.56,2.358,9.065,8.536     c1.236,3.047,1.317,6.518,0.253,10.363l-2.614,2.267c-1.791-2.109-4.992-4.697-5.025-4.723l-0.054-0.044h-0.014     C24.291,14.551,10.387,8.2,10.211,8.12c-0.1-0.045-0.217-0.001-0.262,0.099c-0.045,0.1-0.001,0.217,0.099,0.262     c0.174,0.079,13.774,6.292,23.845,14.507c-1.648,0.323-5.749,2.006-9.216,5.807c-0.018,0.019-0.036,0.038-0.054,0.058     c-0.018,0.02-0.036,0.041-0.054,0.061c-0.873,0.956-1.7,2.053-2.427,3.312c-0.015,0.026-0.031,0.05-0.047,0.076l-0.032,0.055     l0.001,0.01c-0.044,0.078-0.087,0.158-0.13,0.237c-0.02,0.023-0.035,0.049-0.043,0.079c-0.34,0.627-0.657,1.288-0.941,1.993     c-0.485,0.43-6.346,5.449-15.222,5.449c-0.109,0-0.198,0.089-0.198,0.198s0.089,0.198,0.198,0.198     c5.951,0,10.573-2.224,13.173-3.865c-0.92,2.29-4.89,11.132-11.134,10.542c-0.11-0.014-0.205,0.069-0.216,0.178     c-0.01,0.109,0.069,0.205,0.178,0.216c0.21,0.02,0.42,0.03,0.629,0.03c2.703,0,5.332-1.665,7.664-4.854     c0.41,0.188,0.82,0.275,1.224,0.275c0.612,0,1.21-0.193,1.778-0.5c0.048,0.621,0.084,2.151-0.462,4.03     c-0.656,2.257-2.313,5.491-6.479,8.08c-0.093,0.058-0.121,0.18-0.064,0.272c0.037,0.06,0.102,0.094,0.168,0.094     c0.036,0,0.072-0.01,0.104-0.03c3.505-2.178,5.309-4.818,6.228-7.135c0.339,0.046,0.668,0.072,0.984,0.072     c0.094,0,0.185-0.006,0.277-0.01c-0.098,1.308-0.943,9.035-7.366,13.004c-0.093,0.058-0.122,0.18-0.064,0.272     c0.037,0.061,0.102,0.094,0.169,0.094c0.036,0,0.071-0.01,0.104-0.029c3.302-2.041,5.164-5.045,6.215-7.704     c0.327-0.043,0.635-0.108,0.926-0.191c-0.169,1.43-1.263,7.973-7.355,11.995c-0.091,0.06-0.116,0.183-0.056,0.274     c0.038,0.058,0.101,0.089,0.165,0.089c0.037,0,0.075-0.01,0.109-0.033c6.519-4.303,7.449-11.439,7.549-12.461     c4.828-1.773,4.534-8.99,4.498-9.623c0.059-0.213,0.105-0.411,0.14-0.586c0.606,1.4,1.33,2.847,2.193,4.275     c-0.021,0.029-0.041,0.06-0.057,0.094c-0.03,0.062-2.998,6.211-5.291,8.504l-0.099,0.099l-0.044,0.133     c-0.099,0.298-2.377,7.27-0.065,12.204c-0.413,1.67-1.779,7.686-0.471,9.43c0.234,0.313,0.545,0.504,0.904,0.561     c0.912,0.572,7.428,4.9,6.775,11.399l-0.029,0.287l0.208,0.2c0.626,0.603,2.299,2.483,2.522,3.926     c0.045,0.293,0.298,0.503,0.586,0.503c0.03,0,0.061-0.002,0.092-0.007c0.324-0.05,0.546-0.354,0.496-0.677     c-0.278-1.797-2.056-3.763-2.669-4.395c0.557-7.535-7.155-12.131-7.487-12.325l-0.129-0.075l-0.149-0.005     c-0.052-0.002-0.101-0.011-0.17-0.102c-0.758-1.011-0.033-5.659,0.724-8.636l0.055-0.215l-0.099-0.197     c-2.082-4.165-0.304-10.407-0.008-11.372c2.015-2.087,4.354-6.587,5.144-8.167c2.472,3.712,5.946,7.161,10.799,9.138     c-0.285,0.955,0.931,2.878,1.322,3.461c0.015,0.024,0.029,0.049,0.044,0.073c-0.032,0.108-0.085,0.3-0.146,0.562     c-0.001,0.004-0.002,0.007-0.002,0.01c-0.02,0.087-0.042,0.182-0.063,0.284c-0.001,0.004-0.002,0.007-0.002,0.011     c-0.022,0.103-0.044,0.213-0.066,0.329c-0.001,0.004-0.002,0.008-0.002,0.012c-0.022,0.118-0.044,0.243-0.066,0.375     c0,0.002-0.001,0.004-0.001,0.007c-0.578,3.508-0.758,11.558,8.582,15.275c0.082,0.098,0.521,0.754,1.83,4.659     c0.025,0.1,0.636,2.459,3.021,4.853c0.155,0.276,1.649,2.973,2.261,5.218l-0.288,1.173c-0.078,0.318,0.117,0.64,0.435,0.718     c0.048,0.012,0.095,0.017,0.142,0.017c0.086,0,0.167-0.025,0.243-0.059l0.119-0.002c0.001-0.02,0.001-0.042,0.002-0.063     c0.102-0.079,0.18-0.192,0.213-0.328l0.183-0.743c0.001,0,0.002,0,0.002,0c0.051,0.01,0.103,0.019,0.154,0.027     c0.14,0.024,0.279,0.042,0.417,0.057c0.036,0.004,0.073,0.009,0.109,0.013c0.22,0.021,0.439,0.035,0.655,0.035     c1.081,0,2.097-0.266,3.038-0.796c0.288-0.162,0.559-0.345,0.817-0.542c1.037-0.742,2.052-1.887,2.881-3.632     c0.371,2.192,0.835,4.952,0.915,5.521c0.041,0.297,0.296,0.512,0.587,0.512c0.027,0,0.055-0.002,0.083-0.006     c0.325-0.045,0.551-0.345,0.506-0.67C66.37,93.226,65.688,89.201,65.314,87z M16.257,42.434c0.064-0.091,0.128-0.178,0.192-0.271     c1.849-2.719,2.9-5.549,3.019-5.877c1.14-0.765,1.764-1.332,1.784-1.35l0.049-0.072c0.207-0.519,0.434-1.013,0.673-1.489     c0.129,0.81,0.415,2.355,0.96,4.303c-0.008,0.01-0.018,0.017-0.025,0.029C22.875,37.769,19.469,43.789,16.257,42.434z      M19.002,53.122c0.934-2.533,1.14-4.673,1.179-5.24c0.951-0.106,1.785-0.438,2.489-1.001c0.774-0.62,1.284-1.425,1.622-2.193     C24.227,47.035,23.566,52.353,19.002,53.122z M22.422,46.572c-0.979,0.784-2.243,1.08-3.756,0.896     c0.916-2.537,0.791-4.614,0.737-5.151c1.776-1.144,3.197-3.322,3.68-4.122c0.368,1.256,0.841,2.658,1.443,4.126     C24.46,42.887,24.09,45.237,22.422,46.572z M45.591,55.062c-0.091,0-0.183-0.021-0.269-0.065     c-0.292-0.149-0.408-0.506-0.259-0.798c0.066-0.13,6.518-13.182-3.872-24.678c-0.22-0.243-0.201-0.619,0.042-0.838     s0.619-0.201,0.838,0.042c10.95,12.115,4.119,25.876,4.049,26.014C46.015,54.944,45.806,55.062,45.591,55.062z M55.735,90.333     c-0.062,0.021-0.126,0.031-0.188,0.031c-0.249,0-0.48-0.157-0.563-0.406c-2.083-6.25-2.527-10.66-2.612-11.818     c-11.236-8.076-3.612-26.725-3.533-26.914c0.126-0.303,0.474-0.445,0.776-0.319c0.302,0.126,0.445,0.474,0.319,0.776     c-0.076,0.181-7.437,18.21,3.349,25.646l0.243,0.168l0.013,0.295c0.002,0.047,0.239,4.795,2.571,11.79     C56.214,89.893,56.047,90.229,55.735,90.333z M58.494,89.104c-0.089,0.239-0.315,0.386-0.556,0.386     c-0.069,0-0.139-0.012-0.208-0.038c-0.307-0.114-0.463-0.456-0.349-0.764c2.419-6.49,2.87-11.319,2.822-14.226     c-0.052-3.142-0.682-4.776-0.688-4.792c-0.12-0.305,0.029-0.649,0.333-0.77c0.303-0.121,0.648,0.026,0.77,0.33     C60.73,69.51,63.3,76.212,58.494,89.104z"/>
      </g>
    </g>
  </g>
</svg>