<?xml version="1.0" encoding="utf-8"?>
<svg viewBox="14.068 2.412 65.434 96.865" xmlns="http://www.w3.org/2000/svg">
  <path d="M95,71.43A150.76,150.76,0,0,0,69,20.62c-.25-.37-4.85-7.42-5.92-9.85C62,9.58,51.75-.43,33.1,0c-1.19.68-7.31,4.63-8.52,14,.28,1.21.33,1.23,1.51,1.62l.44.14c.6.2.95,0,1.63-.32A3.85,3.85,0,0,1,31.37,15a3.77,3.77,0,0,1,2.31,2.29c.34.69.52,1,1.12,1.23s.94,0,1.62-.32a3.76,3.76,0,0,1,3.22-.46,3.62,3.62,0,0,1,2.23,2.11.73.73,0,0,0,1.24.12l1.4-2a3.57,3.57,0,0,1,3.36-2l4.92.52a2.74,2.74,0,0,1,2.47,2.73s.07,3.52,3.3,9.59c.24.43,5.72,11.05,5.31,32.43,0,.31-.48,6,4.45,8.73a1,1,0,1,1-1,1.79,11,11,0,0,1-5.5-9.48c-2.09-1.37-12-7.33-21.57-2.7a14.4,14.4,0,0,0-4.49,3.59c-1.84,2.12-5.92,5.46-13.25,5.46-.59,0-1.2,0-1.84-.06a1,1,0,0,1-1-1.1,1,1,0,0,1,1.1-.94c7.62.56,11.67-2.7,13.4-4.7.17-.17.33-.33.48-.5-3.93-1.5-15.65-5.06-24,1.58A16.68,16.68,0,0,0,4.6,76V88.37A11.62,11.62,0,0,0,16.68,100a39.07,39.07,0,0,0,6.75-.93l14.11-3.72a1.11,1.11,0,0,1,.72.07c.2.11,20,9.87,32.48-3.25-3.31-.26-8.9-1-11.91-3.14A1,1,0,0,1,60,87.35c3.52,2.51,11.71,2.87,13.16,2.91a9.4,9.4,0,0,1,1.42-.62c3.58-1.1,12.46-4.16,17.58-8.58A9.28,9.28,0,0,0,95,71.43ZM45.63,91.68a30.83,30.83,0,0,1-9.42,1.46,31.28,31.28,0,0,1-17.09-5.06,1,1,0,0,1-.29-1.41,1,1,0,0,1,1.42-.29A29.63,29.63,0,0,0,45,89.74a1,1,0,0,1,.62,1.94Zm17-16.7a1,1,0,0,1-1.44-.17,16.44,16.44,0,0,0-13.86-6.1c-3.86.3-7.57,2-11.14,3.65l-1.89.86c-3.4,1.51-7.26,3-11.2,3a15,15,0,0,1-3.18-.34,1,1,0,1,1,.44-2c4.44,1,9.12-.71,13.09-2.49.64-.28,1.26-.58,1.89-.86C39.07,68.79,43,67,47.17,66.67a18.33,18.33,0,0,1,15.64,6.88A1,1,0,0,1,62.63,75Zm22.28-2.66a1,1,0,0,1-.83.43,1,1,0,0,1-.59-.19c-2.47-1.78-4.21-4.88-4.88-8.73a41.72,41.72,0,0,1-.48-6.56c0-1,0-2-.11-3A43.81,43.81,0,0,0,67,27.66a1,1,0,1,1,1.53-1.36A45.89,45.89,0,0,1,80.06,54.14c.06,1,.08,2.06.11,3.09a39.9,39.9,0,0,0,.45,6.25c.58,3.33,2,6,4.07,7.42A1,1,0,0,1,84.91,72.32Z" transform="matrix(1, 0, 0, 1, 1.7763568394002505e-15, 0)"/>
</svg>