<?xml version="1.0" encoding="utf-8"?>
<svg viewBox="4.5 4.5 290.5736 339.411" xmlns="http://www.w3.org/2000/svg">
  <g>
    <g>
      <path style="" d="    M51.166,343.911c0,0,32.751-39.905,32.751-66.746c0-68-39.862-87.907-59.417-155.332C5.833,57.472,4.5,5.911,4.5,5.911" fill="none" stroke="#000000" stroke-width="9" stroke-linecap="round" stroke-linejoin="round" stroke-miterlimit="10"/>
      <path style="" d="    M129.581,279.658c-2.336-14.074-9.525-29.035-21.748-40.493c-21.333-20-45.166-34.165-60.396-64.254" fill="none" stroke="#000000" stroke-width="9" stroke-linecap="round" stroke-linejoin="round" stroke-miterlimit="10"/>
      <path style="" d="    M200.574,183.625c-9.922-24.101-26.276-37.934-38.742-43.458c-19.175-8.5-35.333-19.667-35.333-19.667" fill="none" stroke="#000000" stroke-width="9" stroke-linecap="round" stroke-linejoin="round" stroke-miterlimit="10"/>
      <path style="" d="    M194,301.164c6-18.666,15.396-29.363,15.396-69.361" fill="none" stroke="#000000" stroke-width="9" stroke-linecap="round" stroke-linejoin="round" stroke-miterlimit="10"/>
      <path style="" d="    M243.166,24.5c2.67,4.667,5.086,14.233,5.379,28.23c0.735,35.006-39.379,30.166-39.379,30.166" fill="none" stroke="#000000" stroke-width="9" stroke-linecap="round" stroke-linejoin="round" stroke-miterlimit="10"/>
      <path style="" d="    M249.28,87.736c2.667,4.667,6.667,10.667,6.667,24.667S248.834,136,240.166,140c-8.666,4-23.553,3-23.553,3" fill="none" stroke="#000000" stroke-width="9" stroke-linecap="round" stroke-linejoin="round" stroke-miterlimit="10"/>
      <path style="" d="    M253.666,143c12.465,34,0.668,54-8,58" fill="none" stroke="#000000" stroke-width="9" stroke-linecap="round" stroke-linejoin="round" stroke-miterlimit="10"/>
      <path style="" d="    M288.648,125.607c12.463,44.196,0.666,70.193-8,75.393" fill="none" stroke="#000000" stroke-width="9" stroke-linecap="round" stroke-linejoin="round" stroke-miterlimit="10"/>
      <path style="" d="    M287.934,83.124c1.99,5.323,5.119,12.241,3.162,27.169c-1.957,14.928-8.652,19.836-17.805,22.975" fill="none" stroke="#000000" stroke-width="9" stroke-linecap="round" stroke-linejoin="round" stroke-miterlimit="10"/>
      <path style="" d="    M291.398,19.167c3.35,6.474,4.148,13.338,3.436,35.645c-0.772,24.163-19.668,28.853-31.168,25.688" fill="none" stroke="#000000" stroke-width="9" stroke-linecap="round" stroke-linejoin="round" stroke-miterlimit="10"/>
      <path style="" d="    M276.166,343.911c0,0,25-60.077,11.188-150.761" fill="none" stroke="#000000" stroke-width="9" stroke-linecap="round" stroke-linejoin="round" stroke-miterlimit="10"/>
      <line style="" x1="267.666" y1="213.5" x2="267.666" y2="225" fill="none" stroke="#000000" stroke-width="9" stroke-linecap="round" stroke-linejoin="round" stroke-miterlimit="10"/>
      <path style="" d="    M83.917,290.164c0,0,35.663,26.336,102.451,29.336c66.788,3,99.397-20,99.397-20" fill="none" stroke="#000000" stroke-width="9" stroke-linecap="round" stroke-linejoin="round" stroke-miterlimit="10"/>
      <path style="" d="    M74.167,310.5c0,0,36.218,26.336,104.046,29.336c67.828,3,105.07-20.066,105.07-20.066" fill="none" stroke="#000000" stroke-width="9" stroke-linecap="round" stroke-linejoin="round" stroke-miterlimit="10"/>
      <path style="" d="    M175.102,62.206c3.188,5.074,4.244,10.448,1.701,15.294c-6.244,11.9-19.809,6-47.223-16.5    c-11.652-9.564-16.725-16.869-15.559-20.879" fill="none" stroke="#000000" stroke-width="9" stroke-linecap="round" stroke-linejoin="round" stroke-miterlimit="10"/>
      <path style="" d="    M176.658,103.393c1.892,3.422,2.209,6.925,0.17,10.141c-6.133,9.669-19.457,4.875-46.383-13.407    c-13.463-9.14-17.984-15.741-14.107-18.433" fill="none" stroke="#000000" stroke-width="9" stroke-linecap="round" stroke-linejoin="round" stroke-miterlimit="10"/>
      <path style="" d="    M75.167,4.5c0,0,6,55.359-16.667,79.013" fill="none" stroke="#000000" stroke-width="9" stroke-linecap="round" stroke-linejoin="round" stroke-miterlimit="10"/>
    </g>
  </g>
</svg>