<?xml version="1.0" encoding="utf-8"?>
<svg viewBox="4.5 4.5 291.7502 340.328" xmlns="http://www.w3.org/2000/svg">
  <g>
    <g>
      <path style="" d="    M30.173,221.592c-3.1,4.935-4.127,10.159-1.654,14.872c5.552,10.583,17.058,6.688,39.372-10.789" fill="none" stroke="#000000" stroke-width="9" stroke-linecap="round" stroke-linejoin="round" stroke-miterlimit="10"/>
      <path style="" d="    M42.164,259.967c-3.1,4.935-4.127,10.159-1.654,14.871c5.279,10.062,15.938,7.038,36.152-8.304" fill="none" stroke="#000000" stroke-width="9" stroke-linecap="round" stroke-linejoin="round" stroke-miterlimit="10"/>
      <path style="" d="    M281.867,4.5c6.365,9.632,11.367,21.304,13.329,35.289c6.045,43.074-15.419,63.04-25.966,73.764" fill="none" stroke="#000000" stroke-width="9" stroke-linecap="round" stroke-linejoin="round" stroke-miterlimit="10"/>
      <path style="" d="    M284.503,95.278c-13.327,40.493,8.314,74.212,4.86,117.966c-3.455,43.753-22.484,62.145-22.484,62.145" fill="none" stroke="#000000" stroke-width="9" stroke-linecap="round" stroke-linejoin="round" stroke-miterlimit="10"/>
      <path style="" d="    M262.989,213.244c0,0,10.979,48.986-8.57,131.583" fill="none" stroke="#000000" stroke-width="9" stroke-linecap="round" stroke-linejoin="round" stroke-miterlimit="10"/>
      <path style="" d="    M194.959,271.903c-0.308,6.467,0.266,12.436,1.498,17.181l4.375,16.849" fill="none" stroke="#000000" stroke-width="9" stroke-linecap="round" stroke-linejoin="round" stroke-miterlimit="10"/>
      <path style="" d="    M241.106,144.243c3.479,13.579,6.282,60.651-22.9,80.568c-3.873,2.643-7.189,5.809-10.003,9.322" fill="none" stroke="#000000" stroke-width="9" stroke-linecap="round" stroke-linejoin="round" stroke-miterlimit="10"/>
      <path style="" d="    M195.09,124.484c-8.842,5.628-26.344,16.634-30.719,36.654c-4.375,20.02,0,38.98,0,38.98" fill="none" stroke="#000000" stroke-width="9" stroke-linecap="round" stroke-linejoin="round" stroke-miterlimit="10"/>
      <path style="" d="    M98.85,40.121c-1.327-7.385-2.334-15.315-2.613-22.978" fill="none" stroke="#000000" stroke-width="9" stroke-linecap="round" stroke-linejoin="round" stroke-miterlimit="10"/>
      <path style="" d="    M114.685,84.92c8.983,42.32-17.403,28.992-24.332,120.46c-5.187,68.468,24.554,105.93,24.554,105.93    c3.241,12.239,4.616,33.518,4.616,33.518" fill="none" stroke="#000000" stroke-width="9" stroke-linecap="round" stroke-linejoin="round" stroke-miterlimit="10"/>
      <path style="" d="    M159.715,132.939c0,0,6.598,8.558,4.656,28.199" fill="none" stroke="#000000" stroke-width="9" stroke-linecap="round" stroke-linejoin="round" stroke-miterlimit="10"/>
      <path style="" d="    M100.742,145.094c0,0-30.483,33.486-58.358,43.226c-27.875,9.74-37.884,0-37.884,0" fill="none" stroke="#000000" stroke-width="9" stroke-linecap="round" stroke-linejoin="round" stroke-miterlimit="10"/>
      <ellipse transform="matrix(0.982 -0.1891 0.1891 0.982 -30.5124 8.7914)" style="" cx="30.818" cy="164.306" rx="10.416" ry="8.347" fill="none" stroke="#000000" stroke-width="9" stroke-linecap="round" stroke-linejoin="round" stroke-miterlimit="10"/>
    </g>
  </g>
</svg>