<?xml version="1.0" encoding="utf-8"?>
<svg viewBox="2.5 8.4 95.175 83.3" xmlns="http://www.w3.org/2000/svg">
  <g transform="matrix(1, 0, 0, 1, 1.7763568394002505e-15, 0)">
    <g>
      <path d="M60.3,27.5c0,1.9,0.7,3.8,2.2,5.2l9.9,9.9H36c-4.1,0-7.3,3.3-7.3,7.3s3.3,7.3,7.3,7.3h36.5l-9.9,9.9     c-2.9,2.9-2.9,7.5,0,10.4c2.9,2.9,7.5,2.9,10.4,0l22.5-22.5c2.9-2.9,2.9-7.5,0-10.4L72.9,22.3c-2.9-2.9-7.5-2.9-10.4,0     C61.1,23.8,60.3,25.7,60.3,27.5z"/>
      <path d="M36.9,84.4c0-4.1-3.3-7.3-7.3-7.3H17.2V23h12.4c4.1,0,7.3-3.3,7.3-7.3s-3.3-7.3-7.3-7.3H9.8c-4.1,0-7.3,3.3-7.3,7.3v68.7     c0,4.1,3.3,7.3,7.3,7.3h19.8C33.7,91.7,36.9,88.4,36.9,84.4z"/>
    </g>
  </g>
</svg>