<?xml version="1.0" encoding="utf-8"?>
<svg viewBox="2.9796 3 94.0118 93.9981" xmlns="http://www.w3.org/2000/svg">
  <defs>
    <style>.cls-1{fill-rule:evenodd;}</style>
  </defs>
  <path class="cls-1" d="M50,3A47,47,0,0,1,83.78,82.67C79.55,66.63,66.52,57,50,57s-29.55,9.66-33.78,25.7A47,47,0,0,1,50,3Zm0,15.09A17.55,17.55,0,1,0,67.55,35.64,17.55,17.55,0,0,0,50,18.09Zm0,2.74A14.81,14.81,0,1,0,64.81,35.64,14.81,14.81,0,0,0,50,20.83ZM81.5,84.88C78.07,69.28,65.92,59.72,50,59.72S21.93,69.28,18.5,84.88a47,47,0,0,0,63,0Z" transform="matrix(1, 0, 0, 1, 1.7763568394002505e-15, 0)"/>
</svg>