<?xml version="1.0" encoding="utf-8"?>
<svg viewBox="7.37 14.56 83.99 77.88" xmlns="http://www.w3.org/2000/svg">
  <defs>
    <style type="text/css">
	.st0{fill:none;}
</style>
  </defs>
  <g transform="matrix(1, 0, 0, 1, 1.7763568394002505e-15, 0)">
    <path d="M49.86,20.95c3.1,0,5.86,1.45,7.65,3.7v-7.76c0-1.29-1.04-2.33-2.33-2.33h-10.5c-1.29,0-2.33,1.04-2.33,2.33v7.58   C44.14,22.32,46.84,20.95,49.86,20.95z"/>
    <path d="M49.72,69.19c-1.6,1.78-3.98,3.52-6.91,4.9c-0.16,0.07-0.31,0.14-0.47,0.21v15.81c0,1.29,1.04,2.33,2.33,2.33h10.5   c1.29,0,2.33-1.04,2.33-2.33V74.48c-0.29-0.13-0.59-0.25-0.88-0.39C53.71,72.71,51.32,70.97,49.72,69.19z"/>
    <path d="M87.19,28.42h-4.17c-2.18,0-3.97,4.88-4.15,11.08h-2c-0.36-1.1-1.38-1.9-2.6-1.9h-1.33c-1.22,0-2.24,0.8-2.6,1.9h-7.87   l-2.69-0.49l-2.27-0.41l-1.48-0.27l-1.94-0.35c0.67-0.39,1.29-0.88,1.82-1.44c0.66-0.69,1.21-1.49,1.61-2.38   c0.47-1.05,0.74-2.2,0.74-3.42s-0.27-2.38-0.74-3.42c-1.31-2.92-4.24-4.97-7.65-4.97c-3.3,0-6.14,1.91-7.51,4.67   c-0.56,1.12-0.88,2.38-0.88,3.71s0.32,2.59,0.88,3.71c0.38,0.77,0.88,1.48,1.47,2.09c0.54,0.56,1.16,1.05,1.84,1.44l-1.94,0.36   l-1.36,0.25l-1.95,0.36l-2.97,0.55h-7.97c-0.36-1.1-1.38-1.9-2.6-1.9h-1.33c-1.22,0-2.24,0.8-2.6,1.9h-2.19h-0.91   c-0.24-6.01-2-10.68-4.14-10.68h-4.17c-2.3,0-4.17,5.42-4.17,12.1c0,6.68,1.87,12.1,4.17,12.1h4.17c2.14,0,3.89-4.67,4.14-10.68   h0.91h2.26c0.1,0.23,0.23,0.43,0.39,0.63c-0.73,1.4-1.26,3.91-1.1,5.5c0.16,1.63,0.83,3.01,1.76,3.87   c0.18,0.16,0.36,0.31,0.55,0.43c0.65,0.42,1.39,0.61,2.14,0.49c0.39-0.06,0.74-0.23,1.08-0.43c1.28-0.34,2.72-1.02,4.14-2.01   c0.98-0.69,1.83-1.45,2.54-2.22l7.86,10.28v0.95c-1.91,0.38-3.95,1.04-5.97,2c-5.11,2.41-8.58,5.93-9.03,8.79   c-0.44,1.03-0.69,2.13-0.64,3.17c0.08,1.6,1,3.49,2.22,5l-1.96,1.44c-1.01,0.74-1.22,2.16-0.48,3.16l0.34,0.47   c0.74,1.01,2.16,1.22,3.16,0.48l4.11-3.03l0.41-0.3l1.3-0.96c1.01-0.74,1.22-2.16,0.48-3.16L36,76.47   c0.01-0.08,0.01-0.16,0.02-0.24c0.03-0.49,0.05-0.97,0.06-1.45c1.98-0.32,4.13-0.97,6.27-1.93c0.14-0.06,0.29-0.12,0.43-0.19   c2.57-1.21,4.72-2.71,6.29-4.26c0.19-0.19,0.38-0.38,0.56-0.57c0.21,0.23,0.44,0.46,0.67,0.69c1.56,1.5,3.66,2.94,6.15,4.12   c0.35,0.17,0.71,0.32,1.07,0.47c1.93,0.81,3.85,1.36,5.63,1.65c0,0.48,0.02,0.96,0.06,1.44c0.01,0.08,0.01,0.17,0.02,0.25   l-0.29,0.39c-0.74,1.01-0.53,2.42,0.48,3.16l1.3,0.96l0.41,0.3l4.11,3.03c1.01,0.74,2.42,0.53,3.16-0.48l0.34-0.47   c0.74-1.01,0.53-2.42-0.48-3.16l-1.96-1.44c1.22-1.51,2.14-3.39,2.22-5c0.05-1.04-0.2-2.14-0.64-3.17   c-0.45-2.86-3.92-6.38-9.03-8.79c-1.78-0.84-3.56-1.45-5.27-1.84v-1.25l7.83-9.99c0.69,0.74,1.51,1.46,2.44,2.11   c1.42,0.99,2.86,1.67,4.14,2.01c0.34,0.2,0.69,0.37,1.08,0.43c0.76,0.12,1.49-0.07,2.14-0.49c0.19-0.12,0.38-0.27,0.55-0.43   c0.92-0.86,1.59-2.23,1.76-3.87c0.16-1.59-0.37-4.1-1.1-5.5c0.15-0.19,0.29-0.4,0.39-0.63h2.1c0.3,5.82,2.03,10.28,4.11,10.28h4.17   c2.3,0,4.17-5.42,4.17-12.1C91.36,33.84,89.49,28.42,87.19,28.42z M16.9,42.34h0.98c-0.21,3.38-1.13,5.93-2.25,5.93   c-1.27,0-2.29-3.29-2.29-7.34c0-4.06,1.03-7.34,2.29-7.34c1.11,0,2.04,2.55,2.25,5.93H16.9c-0.84,0-1.51,0.64-1.51,1.42   S16.07,42.34,16.9,42.34z M87.15,47.87c-1.27,0-2.29-3.29-2.29-7.34c0-4.06,1.03-7.34,2.29-7.34c1.27,0,2.29,3.29,2.29,7.34   C89.44,44.58,88.42,47.87,87.15,47.87z"/>
  </g>
</svg>