<?xml version="1.0" encoding="utf-8"?>
<svg viewBox="144.4542 9.0485 87.3148 237.9515" xmlns="http://www.w3.org/2000/svg">
  <path d="M148.92,114.1c-2.35,4.69-2.19,13,.46,25.4h18.16l3.17-23.66a76.57,76.57,0,0,1-21.14-3.1C149.33,113.26,149.12,113.7,148.92,114.1Z" transform="matrix(1, 0, 0, 1, 3.552713678800501e-15, 3.552713678800501e-15)"/>
  <path d="M182.14,67.14l-3.41,2.22q-1.66,1.92-3.28,3.89l1.08,7.69,6.4-12.26A11.24,11.24,0,0,0,182.14,67.14Z" transform="matrix(1, 0, 0, 1, 3.552713678800501e-15, 3.552713678800501e-15)"/>
  <path d="M159.1,92.42a190.77,190.77,0,0,1,14.25-19.77l-.83-6-6.8,7c-.06.07-3.55,3.35-7.14,7-5.36,5.38-7.52,8.24-7.65,8.72a1,1,0,0,1-1.8-.87c.68-1.43,3.21-4.36,7.48-8.69-.54-3.26.85-12.83,1.5-16a1,1,0,0,1,2,.37s-.19,1-.43,2.46c5.87-6.29-3.64-14.27-8.38-18-3.85,3.61-4.51,8.23-3.9,13.77.93,7.16.14,14.55-.49,20.49-.61,5.67-1.13,10.59.06,12.94C150.62,98.62,155.72,97.64,159.1,92.42Z" transform="matrix(1, 0, 0, 1, 3.552713678800501e-15, 3.552713678800501e-15)"/>
  <path d="M180.17,129.63s-1.22-6.4-1.86-13.86c-1.85.07-3.72.1-5.58.1l-3.17,23.63h10.91A59.2,59.2,0,0,0,180.17,129.63Z" transform="matrix(1, 0, 0, 1, 3.552713678800501e-15, 3.552713678800501e-15)"/>
  <path d="M178.15,113.77c-.94-8.83,1.11-25,1.84-29.58h-3a.37.37,0,0,1,0,.11c0,.11-3.95,29.43-4,29.57C174.72,113.87,176.44,113.83,178.15,113.77Z" transform="matrix(1, 0, 0, 1, 3.552713678800501e-15, 3.552713678800501e-15)"/>
  <path d="M162.64,26.29c-2.73-2.12-4.17-2.51-3.69,3.44a1,1,0,0,1-.47.95l-3.07,1.89V45c5.43,3.72,10.64,8.24,14,14a16,16,0,0,0,5.84.37c-5.84-6.35-10.39-11.5-10.43-11.55a1,1,0,0,1-.25-.66V39.21c-.3-.36-6.67-5.55-4.38-6.72a1,1,0,0,1,1.35.43c.89,1.71,3.67,4.23,4.66,5.06,1.45,1.22,5.78,4.17,8.48,3.31.59-.19,1.56-1.22,2.54-3.57,2.32-5.6,3.17-14.7.42-21.21L163.9,26.37A1,1,0,0,1,162.64,26.29Z" transform="matrix(1, 0, 0, 1, 3.552713678800501e-15, 3.552713678800501e-15)"/>
  <path d="M156.9,29.3c-.62-6.12,2.51-8,6.45-5l13.08-9.37c-4-3.38-14.71-9.39-21.37-3.2-6.08,4.91-4.31,13.3-.38,18.93Z" transform="matrix(1, 0, 0, 1, 3.552713678800501e-15, 3.552713678800501e-15)"/>
  <path d="M168.45,82.19h6.23l-1-6.83Q171,78.72,168.45,82.19Z" transform="matrix(1, 0, 0, 1, 3.552713678800501e-15, 3.552713678800501e-15)"/>
  <path d="M180.66,82.19c.93-1.29,3.74-5.69,3.05-10.67l-5.58,10.67Z" transform="matrix(1, 0, 0, 1, 3.552713678800501e-15, 3.552713678800501e-15)"/>
  <path d="M180.39,141.5h-11.1l-5.58,41.61c1.62-4.07,3.22-6.85,4.71-11.47,1.36-4.94,2.17-17.16,2.18-17.28a1,1,0,0,1,2,.13c0,.51-.83,12.54-2.24,17.68-2.18,6.88-4.69,9.77-7,18.39-2,7.13-2,24.34-1.9,32.41,3.91-.22,7.59-1.89,11-3.69-.29-11.61-.24-28.84,2.61-40.7A212.18,212.18,0,0,0,180.39,141.5Z" transform="matrix(1, 0, 0, 1, 3.552713678800501e-15, 3.552713678800501e-15)"/>
  <path d="M162.73,90.43c-2.06,3.39-4.33,7-8.22,8.4a119.09,119.09,0,0,1-4.14,12.06,76.66,76.66,0,0,0,20.61,3l4-29.65h-8C165.52,86.25,164.09,88.32,162.73,90.43Zm9.76,1.84c0,.08-4.31,8.4-5.29,15.51a1,1,0,0,1-2-.27c1-7.46,5.32-15.81,5.5-16.16A1,1,0,0,1,172.49,92.27Z" transform="matrix(1, 0, 0, 1, 3.552713678800501e-15, 3.552713678800501e-15)"/>
  <path d="M149.82,141.5c2.8,10.6,5.29,33.12,5.25,33.21a1,1,0,0,1-.15.64c-.1.16-9.88,15.66-7.66,27.68a177.87,177.87,0,0,1,2.31,26.51,55.54,55.54,0,0,0,5.93-.29l11.77-87.75Z" transform="matrix(1, 0, 0, 1, 3.552713678800501e-15, 3.552713678800501e-15)"/>
  <path d="M173,61.73h2.21l.42-.22c.29-.13.59-.24.89-.35A16.44,16.44,0,0,1,169,61c-.45-.1-.89-.17-1.11-.61-3.22-5.64-8.34-10-13.63-13.67a9.38,9.38,0,0,0-1.34.68c6.62,4.9,16.27,15.44,6.26,22.24a60.72,60.72,0,0,0-.69,8.31c3.09-3.09,5.79-5.63,5.82-5.65l7.85-8L172,62.87A1,1,0,0,1,173,61.73Z" transform="matrix(1, 0, 0, 1, 3.552713678800501e-15, 3.552713678800501e-15)"/>
  <path d="M147.86,49.45a13.57,13.57,0,0,1,2.73-2.93,12.93,12.93,0,0,1,2.82-1.65V32.34c-2.77-3.89-4.78-8.7-4.3-13.56-1,1.68-2,4.84-2,10.76C147.25,36.13,147.56,43.51,147.86,49.45Z" transform="matrix(1, 0, 0, 1, 3.552713678800501e-15, 3.552713678800501e-15)"/>
  <path d="M160.37,229.91a13.74,13.74,0,0,1-3.09,1.05l-2.15,16h22.51l1.22-5.16c-3.56-.9-7.42-1.84-10.63-3.75C165.1,235.93,162.67,232.89,160.37,229.91Z" transform="matrix(1, 0, 0, 1, 3.552713678800501e-15, 3.552713678800501e-15)"/>
  <path d="M149,231.53c-1.1,1.07-5.06,5.32-4.49,10.16l.62,5.31h8l2.1-15.7A54.83,54.83,0,0,1,149,231.53Z" transform="matrix(1, 0, 0, 1, 3.552713678800501e-15, 3.552713678800501e-15)"/>
  <path d="M222.09,74.3l-.41.3L225.26,72l-12.42-6.08,1.63,14.07,3.32-2.46c28.77,46.82-23.38,59.29-23.38,59.29C256.93,123.85,222.09,74.3,222.09,74.3Z" transform="matrix(1, 0, 0, 1, 3.552713678800501e-15, 3.552713678800501e-15)"/>
  <path d="M193.88,84.46,205,63.19a1,1,0,0,0,0-1,1,1,0,0,0-.85-.48H189.9a1,1,0,0,0-.75.34,1,1,0,0,0-.24.8l3,21.31h0l-18,139.24a8,8,0,0,1-1.17-2c-3.48,1.78-7.29,3.36-11.24,3.57,0,.91,0,2.56.06,3.2,2.25,3,4.6,6,7.65,8.19,3.31,1.93,7.15,2.79,10.84,3.7l10.48-2.5v-3.45c-2.34-1-10.3-4.42-14.86-8.71L193.87,84.48Zm-2.83-20.73h11.4l-9,17.21Z" transform="matrix(1, 0, 0, 1, 3.552713678800501e-15, 3.552713678800501e-15)"/>
  <path d="M175.69,63.73a5.47,5.47,0,0,0-1.23,1l-.18.18.8,5.68,2.23-2.63c1-.79,4.86-3.17,5.86-3.86l-.48-.35A6.73,6.73,0,0,0,175.69,63.73Z" transform="matrix(1, 0, 0, 1, 3.552713678800501e-15, 3.552713678800501e-15)"/>
</svg>