<?xml version="1.0" encoding="utf-8"?>
<svg viewBox="48.1904 5.7427 31.5851 116.4864" xmlns="http://www.w3.org/2000/svg">
  <g transform="matrix(1, 0, 0, 1, 1.7763568394002505e-15, 1.7763568394002505e-15)">
    <path d="M69.416,119.992c-.576-.2-1.162-.385-1.748-.568a26.971,26.971,0,0,1-3.174-1.136,16.628,16.628,0,0,1-1.718-.953,10.638,10.638,0,0,0-3.463-1.554h0a.441.441,0,0,1-.122-.043.749.749,0,0,0-.857.1,6.7,6.7,0,0,1-2.545,1.386,4.73,4.73,0,0,1-1.915.252.753.753,0,0,0-.745.391,5.757,5.757,0,0,0-.524,1.916c-.039.258-.076.513-.132.755a.749.749,0,0,0,.16.657.74.74,0,0,0,.623.261,5.96,5.96,0,0,1,1.287.049,46.56,46.56,0,0,0,5.326.217c.419.012,1.123.081,1.943.175a35.366,35.366,0,0,0,4.007.31,6.215,6.215,0,0,0,3.824-.926.75.75,0,0,0-.226-1.289Z"/>
    <path d="M53.354,26.35A4.88,4.88,0,0,0,50.063,29.2c-.92,2.5.672,5.674,2.163,8.155a15.12,15.12,0,0,1,1.261,3.809c.143.588.28,1.152.426,1.649a11.336,11.336,0,0,0,1.154,2.414A7.221,7.221,0,0,1,56.2,47.911a41.445,41.445,0,0,0,1.357,7.944.749.749,0,0,0,.719.539.761.761,0,0,0,.2-.027,20.873,20.873,0,0,1,2.7-.537c.176-.009.351-.018.518-.037a.751.751,0,0,0,.66-.853c-.221-1.523-.455-3.018-.686-4.5-.456-2.929-.888-5.7-1.229-8.649-.051-.436-.11-.882-.169-1.332a32.773,32.773,0,0,1-.371-4.118,2.807,2.807,0,0,1,.54-1.39,4.42,4.42,0,0,0,.8-2.553l-.012-.282c-.066-1.672-.135-3.4-1.869-4.822-.2-.163-.166-.276-.151-.33a.711.711,0,0,1,.55-.447.751.751,0,0,0,.631-.708,4.226,4.226,0,0,1,.484-1.94l.093-.167a10.3,10.3,0,0,1,.642-1.052.75.75,0,0,0-.075-.973,3.527,3.527,0,0,1-.568-.752.5.5,0,0,1,.223-.711.453.453,0,0,1,.681.159A2.932,2.932,0,0,0,65.4,21.435a1.724,1.724,0,0,0,.729-2.406,3.214,3.214,0,0,1-.335-1.221,1.239,1.239,0,0,1,.476-1,1.693,1.693,0,0,0,.8-1.109,1.291,1.291,0,0,0-.415-1.007,1.482,1.482,0,0,1-.312-.467,4.127,4.127,0,0,1-.1-1.468c.039-1.087.088-2.439-1.146-3.313a.757.757,0,0,0-.547-.129c-.482.074-.963.123-1.445.156a.75.75,0,0,0-.7.781,4.309,4.309,0,0,1-.984,2.814c-.521.7-.765.709-1.327.537a3.847,3.847,0,0,0-.714-.168.73.73,0,0,0-.794.5,4.737,4.737,0,0,0-.253,1.555,4.368,4.368,0,0,0,.061.975.75.75,0,0,0,1.4.23c.043-.083.176-.338.551-.148a.6.6,0,0,1,.3.79,1.9,1.9,0,0,1-2.1.765,1.4,1.4,0,0,1-.96-.733.778.778,0,0,0-1.092-.258,6.85,6.85,0,0,1-1.064.525,1.814,1.814,0,0,1-.386.117.749.749,0,0,0-.6.894,7.227,7.227,0,0,1,.2,2.972,2.253,2.253,0,0,1-.6.924,4.85,4.85,0,0,0-.712.953c-.133.248-.257.5-.381.753a.75.75,0,0,0,.468,1.046.55.55,0,0,1,.3.52A.509.509,0,0,1,53.354,26.35Z"/>
    <path d="M58.3,99.882a37.194,37.194,0,0,0,.464-5.116,9.458,9.458,0,0,1,.972-3.747,12.378,12.378,0,0,0,1.072-3.647.75.75,0,0,0-.613-.939,9.92,9.92,0,0,1-4.092-1.5L55.93,84.8c-.075-.055-.149-.11-.226-.163a.751.751,0,0,0-1.174.639,11.409,11.409,0,0,1-1.067,5.355c-1.776,3.956-1.172,7.771-.531,11.81l.048.312h0q.132.827.273,1.656c.615,3.684,1.252,7.493.549,11.163a.75.75,0,0,0,.736.891.548.548,0,0,0,.07,0,5.686,5.686,0,0,0,1.8-.557,6.093,6.093,0,0,0,1.661-1.3.746.746,0,0,0,.183-.635,41.137,41.137,0,0,1-.231-11.917C58.1,101.323,58.2,100.6,58.3,99.882Z"/>
    <path d="M55.236,53.909c-.31.033-.614.079-.913.126a5.285,5.285,0,0,1-1.87.082.755.755,0,0,0-.756.286l-.135.181c-.852,1.14-1.913,2.558-1.646,4.048a13.1,13.1,0,0,0,.589,2.015l.089.253a.75.75,0,0,0,1.319.188,11.538,11.538,0,0,1,4.316-3.861.75.75,0,0,0,.385-.883c-.178-.609-.327-1.217-.452-1.859A.787.787,0,0,0,55.236,53.909Z"/>
    <path d="M76.933,57.076c-2.542-1.944-5.172-3.954-8.811-3.954h0c-.028,0-.117-.009-.145-.009a.753.753,0,0,0-.6.3,2.786,2.786,0,0,1-1.255.858.75.75,0,0,0,.221,1.453,14.9,14.9,0,0,1,6.785,1.821,13.62,13.62,0,0,1,5.231,5.714.752.752,0,0,0,.666.406.764.764,0,0,0,.216-.032.749.749,0,0,0,.53-.8A8.168,8.168,0,0,0,76.933,57.076Z"/>
    <path d="M64.337,39.005a2.983,2.983,0,0,0,2.46-.823,2.482,2.482,0,0,0,.255-2.2,7.339,7.339,0,0,0-1.661-3.564h0c-.167-.175-.339-.366-.516-.562a15.464,15.464,0,0,0-1.4-1.416.75.75,0,0,0-1.234.638c.04.447.057.893.057,1.347a5.583,5.583,0,0,1-.928,3.246,2.242,2.242,0,0,0-.136,1.823,2.74,2.74,0,0,1,.117.671,103.015,103.015,0,0,0,1.459,12.862l.254,1.628a.75.75,0,0,0,.583.618.529.529,0,0,1,.241.117.744.744,0,0,0,.686.155,4.855,4.855,0,0,0,1.886-.984.749.749,0,0,0,.264-.657,12.5,12.5,0,0,0-.489-2.358,6.481,6.481,0,0,1-.024-2.4c.075-.605.168-1.184.259-1.752a17.833,17.833,0,0,0,.323-4.788.748.748,0,0,0-.871-.664,10.856,10.856,0,0,1-1.605.117.449.449,0,0,1-.348-.129.592.592,0,0,1-.127-.379.616.616,0,0,1,.128-.4A.449.449,0,0,1,64.337,39.005Z"/>
    <path d="M53.937,7.979a5.4,5.4,0,0,0-1.108,2.3,11.7,11.7,0,0,0,.655,5.417.756.756,0,0,0,.312.4.621.621,0,0,1,.217.227.748.748,0,0,0,.654.384.763.763,0,0,0,.183-.022,3.053,3.053,0,0,0,.791-.3,4.04,4.04,0,0,0,1.274-1.027,1.786,1.786,0,0,1,.171-.176.748.748,0,0,0,.244-.476,3.514,3.514,0,0,1,.747-2.1c.32-.321.907-.359,1.905-.124a.749.749,0,0,0,.807-.331,3.539,3.539,0,0,0,.548-1.98.75.75,0,0,0-.714-.71l-.207-.008c-.11,0-.222-.006-.329-.016A9.571,9.571,0,0,1,57.328,8.6a13.528,13.528,0,0,0-2.514-.859A.775.775,0,0,0,53.937,7.979Z"/>
    <path d="M57.273,7.471a9.654,9.654,0,0,0,3.432.973c.277.011.555.015.83.015.2,0,.391,0,.584-.006a.75.75,0,0,0,.348-1.407c-.253-.139-.5-.27-.739-.4-.744-.377-2.583-1.207-3.581-.788a.562.562,0,0,1-.492-.005.746.746,0,0,0-.406-.067c-.1.011-.2.031-.31.052A.75.75,0,0,0,56.8,7.271Z"/>
    <path d="M51.64,48.981a17.832,17.832,0,0,1,1.128,2.829l0,.009a3.593,3.593,0,0,1,.122.549.75.75,0,0,0,.745.669.755.755,0,0,0,.116-.009c.418-.066.847-.107,1.282-.148A.75.75,0,0,0,55.7,52,20.145,20.145,0,0,0,53.577,45.2a19.427,19.427,0,0,1-1.688-4.516,22.176,22.176,0,0,0-1.738-4.705c-.17-.307-.315-.623-.461-.938a.749.749,0,0,0-1.425.226c-.327,2.784.477,5.28,1.329,7.922.285.885.58,1.8.831,2.731A19.081,19.081,0,0,0,51.64,48.981Z"/>
    <path d="M71.086,114.811c-.484-.067-.984-.09-1.469-.111a10.436,10.436,0,0,1-1.679-.161,34.552,34.552,0,0,1-3.427-.865,12.279,12.279,0,0,1-3.842-2.349l-.5-.4a.75.75,0,0,0-1.208.678c.127,1.07.25,1.883.4,2.632a.7.7,0,0,0,.029.1.779.779,0,0,0,.185.307.752.752,0,0,0,.354.2,8.226,8.226,0,0,1,2.5,1.178,15.285,15.285,0,0,0,1.748.975,35.52,35.52,0,0,0,3.5,1.306.756.756,0,0,0,.235.038.744.744,0,0,0,.246-.042l.168-.058c1.241-.426,3.116-1.07,3.4-2.545a.75.75,0,0,0-.633-.884Z"/>
    <path d="M68.88,65.47C66.652,64.161,63.494,64.4,61.467,65a4.714,4.714,0,0,0-2.926,2.5,8.032,8.032,0,0,0-.215,6.107c.971,2.611,3.595,3.64,6.374,3.64a12.62,12.62,0,0,0,3.385-.479.71.71,0,0,0,.157-.064c2.9-1.592,3.528-5.35,2.884-8.166A4.665,4.665,0,0,0,68.88,65.47Zm-2.162,7.137a2.045,2.045,0,0,1-1.031.664.751.751,0,0,0-.442.374.369.369,0,0,1-.4.2,2.649,2.649,0,0,1-2.809-2.517l-.006-.161a3.347,3.347,0,0,1,.268-1.925,1.865,1.865,0,0,1,1.447-.759c.159-.013.307-.02.445-.02a2.523,2.523,0,0,1,1.719.613,3.962,3.962,0,0,1,1.226,1.748A2.207,2.207,0,0,1,66.718,72.607Z"/>
    <path d="M63.27,69.7a.75.75,0,0,0-.187,1.008c0,.019,0,.038,0,.055l0,.167,0,.111a2,2,0,0,0,.093.677,1.438,1.438,0,0,0,.788.922.751.751,0,0,0,.813-.129.58.58,0,0,1,.341-.148,1.035,1.035,0,0,0,.939-.656,1.628,1.628,0,0,0-.555-1.575A1.729,1.729,0,0,0,63.27,69.7Z"/>
    <path d="M69.893,57.44a22.235,22.235,0,0,0-8.37-.578l-.488.032a12.269,12.269,0,0,0-9.068,6.011,16.552,16.552,0,0,0-1.085,14.056c1.263,3.339,4.377,7.533,9,8.362a29.53,29.53,0,0,0,4.89.409,13.446,13.446,0,0,0,4.784-.685c3.417-1.428,7.29-3.047,8.47-7.7.978-3.842,1.75-6.876.2-11.141C76.5,61.461,73.856,58.675,69.893,57.44Zm5.283,20.47a9.717,9.717,0,0,1-6.193,4.751h0c-6.494,1.491-14.246,0-15.912-6.808-1.132-4.626-.658-9.014,1.3-12.039a10.56,10.56,0,0,1,7.274-4.585,1.084,1.084,0,0,0,.216-.029.709.709,0,0,1,.093-.013c8.067-.468,12.395,2.213,14.437,8.975A12.548,12.548,0,0,1,75.176,77.91Z"/>
    <path d="M62.07,60.237a.711.711,0,0,0-.1.013,11.329,11.329,0,0,0-6.883,17.406,9.708,9.708,0,0,0,8.445,4.415,25.551,25.551,0,0,0,7.114-1.3c3.175-.95,5.332-6.11,5.237-9.125a17.2,17.2,0,0,0-2.115-6.967C71.426,59.7,65.572,60.035,62.07,60.237Zm6.635,17.415a1.089,1.089,0,0,0-.2.089c-2.453.736-6.057.845-8.575-.569a5.261,5.261,0,0,1-2.632-3.342c-.883-3.356-.516-8.557,3.064-9.612a17.483,17.483,0,0,1,4.783-.68A9.617,9.617,0,0,1,69.9,64.58a4.124,4.124,0,0,1,2.042,2.765C72.353,69.175,73.343,75.321,68.705,77.652Z"/>
  </g>
</svg>