<?xml version="1.0" encoding="utf-8"?>
<svg viewBox="10.651 6.833 82.114 82.797" xmlns="http://www.w3.org/2000/svg">
  <path d="M23.102,51.602L20.64,51.45c-0.562-0.03-1.026,0.385-1.06,0.937c-0.034,0.551,0.386,1.026,0.937,1.06l2.462,0.151  C23,53.599,23.021,53.6,23.041,53.6c0.524,0,0.965-0.408,0.997-0.938C24.072,52.11,23.652,51.635,23.102,51.602z" transform="matrix(1, 0, 0, 1, 1.7763568394002505e-15, 0)"/>
  <path d="M78.069,49.573c-0.229-1.051,0.308-5.406,0.967-9.04c1.517-3.613-0.454-6.548-1.789-7.674  c-4.834-5.825-12.222-8.778-21.961-8.778c-5.074,0-9.932,0.806-13.784,1.705c0.421-0.601,0.699-1.289,0.745-2.04  c0.075-1.221-0.407-2.393-1.358-3.299c-0.099-0.094-0.202-0.185-0.309-0.271c1.199-0.75,2.007-1.952,2.092-3.331  c0.149-2.452-2.014-4.587-4.822-4.76l-4.621-0.284c-0.133-0.992-0.556-1.923-1.235-2.69c-0.902-1.021-2.149-1.63-3.51-1.713  c-2.492-0.142-4.641,1.499-5.246,3.789l-4.623-0.284c-2.806-0.177-5.221,1.704-5.369,4.134c-0.075,1.221,0.407,2.392,1.358,3.298  c0.1,0.094,0.202,0.185,0.309,0.271c-1.198,0.75-2.006,1.951-2.091,3.33c-0.075,1.221,0.407,2.393,1.358,3.299  c0.904,0.861,2.135,1.381,3.464,1.462l6.996,0.43c-0.548,0.02-1.054,0.059-1.464,0.135c-0.151,0.028-0.294,0.091-0.417,0.183  l-2.625,1.968c-0.235,0.176-0.381,0.446-0.398,0.739l-0.637,10.355c-0.021,0.356,0.147,0.697,0.445,0.895l2.161,1.435l0.815,0.994  l-0.049,0.805l-5.906-0.363c-2.829-0.186-5.222,1.704-5.369,4.134c-0.075,1.221,0.407,2.393,1.358,3.299  c0.099,0.094,0.202,0.185,0.309,0.271c-1.199,0.75-2.007,1.951-2.092,3.33c-0.075,1.221,0.407,2.393,1.358,3.299  c0.905,0.861,2.135,1.38,3.464,1.462l4.621,0.284c0.133,0.992,0.556,1.923,1.235,2.69c0.902,1.021,2.149,1.63,3.51,1.713  c0.106,0.007,0.212,0.01,0.317,0.01c2.348,0,4.348-1.604,4.929-3.799l4.623,0.284c0.122,0.008,0.244,0.011,0.365,0.011  c2.663,0,4.861-1.821,5.004-4.146c0.075-1.221-0.407-2.393-1.358-3.299c-0.1-0.094-0.202-0.185-0.31-0.271  c1.199-0.75,2.007-1.951,2.092-3.33c0.075-1.221-0.407-2.393-1.358-3.299c-0.904-0.861-2.135-1.381-3.464-1.462l-5.907-0.363  l0.104-1.689c0.512-0.317,1.006-0.697,1.456-1.156c1.284-1.071,3.08-2.217,3.713-2.218c0.07,0.012,0.144,0.014,0.211,0.012  c2.588-0.139,6.298,1.72,6.421,1.777c3.97,1.531,7.603,2.308,10.796,2.308c4.82,0,7.408-1.768,8.388-2.634  c0.272,0.088,0.447,0.205,0.489,0.333c0.214,0.656-0.936,2.416-2.114,3.609c-3.655,2.882-5.689,6.175-6.046,9.789  c-0.396,4.003,1.39,7.277,2.399,8.774c-2.544,1.917-4.36,4.621-5.16,7.713c-1.949,7.536,2.596,15.251,10.132,17.2  c1.161,0.3,2.354,0.453,3.543,0.453c6.429,0,12.044-4.352,13.656-10.584c0.724-2.797,0.576-5.679-0.421-8.381  C86.261,63.08,78.996,51.025,78.069,49.573z M30.972,27.518l3.684,0.226c-0.438,0.152-0.774,0.274-0.991,0.355  c-0.472-0.092-1.472-0.278-2.7-0.465L30.972,27.518z M25.299,11.315c0.49-1.19,1.715-1.999,3.063-1.92  c0.827,0.051,1.586,0.421,2.135,1.042c0.32,0.362,0.547,0.785,0.671,1.238l-1.994-0.123L25.299,11.315z M15.561,23.789  c-0.517-0.492-0.78-1.105-0.742-1.728c0.078-1.272,1.399-2.269,3.008-2.269c0.08,0,0.161,0.002,0.242,0.007l11.141,0.685  c0.021,0.001,0.042,0.002,0.063,0.002c0.524,0,0.965-0.408,0.997-0.938c0.034-0.551-0.386-1.026-0.937-1.06l-11.141-0.685  c-0.86-0.053-1.644-0.377-2.207-0.915c-0.517-0.492-0.78-1.105-0.742-1.727c0.082-1.335,1.545-2.358,3.25-2.261l5.52,0.339  c0,0,0,0,0,0l7.202,0.443l6.512,0.4c1.709,0.105,3.031,1.291,2.949,2.642c-0.082,1.336-1.536,2.37-3.251,2.261l-2.609-0.16  c-0.569-0.036-1.025,0.386-1.06,0.937c-0.034,0.551,0.386,1.025,0.937,1.059l2.609,0.16c0.86,0.053,1.644,0.378,2.207,0.915  c0.517,0.492,0.78,1.105,0.742,1.728c-0.082,1.335-1.534,2.369-3.25,2.261l-19.233-1.182C16.907,24.65,16.124,24.325,15.561,23.789z   M28.143,60.841c-0.489,1.19-1.691,1.998-3.062,1.919c-0.827-0.051-1.586-0.421-2.135-1.042c-0.32-0.362-0.547-0.784-0.671-1.238  l2.333,0.143L28.143,60.841z M37.882,48.367c0.517,0.492,0.78,1.105,0.742,1.728c-0.082,1.336-1.533,2.368-3.25,2.261l-6.905-0.424  c-0.567-0.032-1.025,0.386-1.06,0.937c-0.034,0.551,0.386,1.026,0.937,1.06l6.905,0.424c0.859,0.053,1.644,0.378,2.207,0.915  c0.517,0.492,0.78,1.106,0.742,1.728c-0.082,1.335-1.532,2.367-3.25,2.261l-9.617-0.591l-4.096-0.252c0,0,0,0-0.001,0l-5.521-0.339  c-0.859-0.053-1.644-0.377-2.207-0.914c-0.517-0.492-0.78-1.106-0.742-1.728c0.078-1.272,1.399-2.269,3.008-2.269  c0.08,0,0.161,0.002,0.242,0.007c0.571,0.041,1.026-0.385,1.06-0.937c0.001-0.021,0.002-0.042,0.002-0.063  c0-0.524-0.408-0.964-0.938-0.997c-0.859-0.053-1.644-0.377-2.206-0.915c-0.517-0.492-0.78-1.105-0.742-1.728  c0.082-1.335,1.547-2.359,3.25-2.261l9.617,0.591l2.712,0.167c0,0,0.001,0,0.001,0l6.903,0.424  C36.535,47.505,37.318,47.831,37.882,48.367z M27.896,44.971l-1.714-0.105l-0.456-0.028c0.647-0.083,1.41-0.231,2.208-0.491  L27.896,44.971z M76.477,68.604c-1.704-2.268-5.079-5.039-9.042-3.526c-0.516,0.197-0.773,0.775-0.577,1.291  c0.197,0.517,0.775,0.775,1.292,0.577c3.834-1.469,6.714,2.781,7.184,3.528c1.074,2.494,1.284,5.194,0.609,7.807  c-1.385,5.349-6.204,9.084-11.721,9.084c-1.021,0-2.044-0.131-3.043-0.389c-6.468-1.672-10.368-8.295-8.696-14.763  c0.763-2.946,2.602-5.482,5.179-7.141c0.412-0.265,0.566-0.801,0.371-1.251c-0.039-0.09-0.093-0.176-0.156-0.25  c-0.03-0.036-3.035-3.628-2.576-8.17c0.309-3.059,2.104-5.895,5.337-8.431c0.031-0.024,0.061-0.051,0.089-0.079  c0.566-0.565,3.354-3.494,2.645-5.683c-0.124-0.38-0.385-0.817-0.89-1.176c0.852-0.762,1.663-1.345,1.978-1.384  c0.549-0.064,0.941-0.561,0.877-1.109c-0.063-0.548-0.556-0.942-1.109-0.877c-1.469,0.172-3.652,2.376-4.286,3.048  c-0.008,0.009-0.01,0.02-0.018,0.029c-0.007,0.007-0.017,0.01-0.023,0.017c-0.083,0.097-2.079,2.37-7.308,2.37  c-2.946,0-6.337-0.731-9.991-2.137c-0.164-0.082-4.181-2.057-7.232-1.949c-1.594-0.155-4.407,2.012-5.271,2.738  c-1.861,1.893-4.669,2.139-5.723,2.161l-1.219-1.485c-0.063-0.077-0.138-0.144-0.221-0.199l-1.806-1.199l0.573-9.318l2.059-1.543  c0.399-0.057,0.889-0.086,1.459-0.086c1.362,0,2.976,0.164,4.422,0.36c0.068,0.019,0.131,0.05,0.204,0.054  c0.021,0.001,0.042,0.002,0.063,0.002c0.022,0,0.04-0.011,0.062-0.012c1.974,0.278,3.553,0.598,3.581,0.603  c0.189,0.039,0.385,0.022,0.565-0.048c0.102-0.04,10.298-3.986,21.169-3.986c9.154,0,16.044,2.733,20.479,8.124  c0.042,0.05,0.092,0.1,0.143,0.142c0.11,0.09,2.674,2.242,1.249,5.495c-0.031,0.071-0.054,0.146-0.067,0.221  c-0.215,1.175-0.702,3.987-0.932,6.433c-0.922-1.675-1.691-3.442-1.629-4.449c0.034-0.551-0.386-1.026-0.937-1.06  c-0.564-0.038-1.026,0.386-1.06,0.937c-0.178,2.888,3.361,8.018,3.793,8.633C76.667,51.063,83.902,61.976,76.477,68.604z" transform="matrix(1, 0, 0, 1, 1.7763568394002505e-15, 0)"/>
  <path d="M61.972,60.863c-0.376,0.498-0.786,0.998-1.221,1.486c-0.366,0.413-0.329,1.045,0.084,1.412  c0.19,0.169,0.428,0.252,0.664,0.252c0.275,0,0.55-0.113,0.748-0.336c0.469-0.528,0.913-1.069,1.32-1.609  c0.333-0.44,0.245-1.068-0.195-1.4C62.93,60.334,62.303,60.422,61.972,60.863z" transform="matrix(1, 0, 0, 1, 1.7763568394002505e-15, 0)"/>
  <path d="M66.155,47.196c-0.529,0.151-0.837,0.703-0.688,1.233c0.01,0.035,0.955,3.552-1.039,8.24  c-0.217,0.508,0.021,1.096,0.528,1.312c0.128,0.055,0.261,0.081,0.392,0.081c0.389,0,0.758-0.229,0.92-0.609  c2.29-5.381,1.171-9.406,1.122-9.575C67.235,47.35,66.686,47.047,66.155,47.196z" transform="matrix(1, 0, 0, 1, 1.7763568394002505e-15, 0)"/>
  <path d="M82.599,68.07c-0.415,0.364-0.457,0.996-0.093,1.411l3.493,3.99c0.197,0.226,0.474,0.341,0.752,0.341  c0.234,0,0.469-0.082,0.659-0.248c0.415-0.364,0.457-0.996,0.093-1.411l-3.493-3.99C83.646,67.746,83.015,67.706,82.599,68.07z" transform="matrix(1, 0, 0, 1, 1.7763568394002505e-15, 0)"/>
  <path d="M90.831,63.216c0.018,0.001,0.035,0.001,0.053,0.001c0.528,0,0.97-0.414,0.998-0.948c0.028-0.551-0.396-1.022-0.947-1.05  l-6.349-0.33c-0.554-0.033-1.022,0.395-1.051,0.947c-0.028,0.551,0.396,1.022,0.947,1.05L90.831,63.216z" transform="matrix(1, 0, 0, 1, 1.7763568394002505e-15, 0)"/>
  <path d="M90.868,45.819l-7.92,8.311c-0.381,0.4-0.366,1.033,0.034,1.414c0.193,0.184,0.441,0.276,0.689,0.276  c0.264,0,0.527-0.104,0.724-0.31l7.92-8.311c0.381-0.4,0.366-1.033-0.034-1.414C91.882,45.404,91.249,45.418,90.868,45.819z" transform="matrix(1, 0, 0, 1, 1.7763568394002505e-15, 0)"/>
  <path d="M48.591,18.399c0.138,0.422,0.529,0.69,0.95,0.69c0.103,0,0.208-0.016,0.311-0.05l21.954-7.177l-0.436,1.13  c-0.199,0.515,0.058,1.094,0.573,1.293c0.118,0.045,0.239,0.067,0.359,0.067c0.401,0,0.78-0.244,0.933-0.641l1.154-2.993  c0.167-0.432,0.016-0.921-0.365-1.184l-2.752-1.894c-0.456-0.312-1.077-0.197-1.392,0.257c-0.313,0.455-0.197,1.078,0.257,1.391  l0.999,0.688L49.23,17.138C48.705,17.31,48.419,17.875,48.591,18.399z" transform="matrix(1, 0, 0, 1, 1.7763568394002505e-15, 0)"/>
</svg>