<?xml version="1.0" encoding="utf-8"?>
<svg viewBox="161.543 30.868 87.254 194.469" xmlns="http://www.w3.org/2000/svg">
  <path d="M180.56,142.14a42.94,42.94,0,0,0,2.15,8.4c2.09,5.27,3.57,9.5,4.49,12.25,1.18-6.37,2.73-14.3,4.14-20.15A31.25,31.25,0,0,1,180.56,142.14Z" transform="matrix(1, 0, 0, 1, 3.552713678800501e-15, 3.552713678800501e-15)"/>
  <path d="M216.1,80.75c1.33-.17,2.22-1.93,2.43-2.4.09-.78.62-3.91,3.26-4.73a1,1,0,0,1,.59,1.91c-1.41.43-1.77,2.39-1.85,3,.94,3.4,7.66,10.74,10.21,13.31A1,1,0,0,1,231,92.9l-1.41,3.39c-1.45,3.45-8.2,12.5-8.48,12.89a1,1,0,0,1-1.37.22c-.85-.59-3.68-.47-5.59-.2a53.58,53.58,0,0,0-7.93,7.86c-.17.34-.57.72-.2,1a5.94,5.94,0,0,0,2.86.89,14.48,14.48,0,0,0,7.38-1.14c.91-.5,12.26-9.92,17.17-15.6,5.33-5.5,8.27-8.53,1.79-16.88-6.81-8.79-14.11-17.6-21.88-20.41l0,0a53.33,53.33,0,0,0,.84,11.56C214.47,78,214.81,79.72,216.1,80.75Z" transform="matrix(1, 0, 0, 1, 3.552713678800501e-15, 3.552713678800501e-15)"/>
  <path d="M200.83,133.66a33,33,0,0,0-5.56,2.46,45,45,0,0,0-1.45,4.82c4.22,3.37,11.38,4.21,16.63,2.39a102.78,102.78,0,0,0,5.15-23.17c-3,1-10,1.7-11.69-1.7H191.58c1.1,3-1.19,7-4.53,7.06a11,11,0,0,1-5.81-2.41,18.49,18.49,0,0,1-2.43-2.07,167.47,167.47,0,0,0,1.41,19c3.77.78,7.84,1.32,11.65.46.55-2.11,1-3.7,1.44-4.83-.76-.82-2.43-2.61-4.12-4.2a1,1,0,1,1,1.38-1.45c1.67,1.58,3.29,3.29,4.1,4.17a34.12,34.12,0,0,1,5.54-2.41,1,1,0,1,1,.62,1.9Z" transform="matrix(1, 0, 0, 1, 3.552713678800501e-15, 3.552713678800501e-15)"/>
  <path d="M205.4,74.2a8.26,8.26,0,0,0,2.71-5.75l.24-5.82L204.28,60a1,1,0,0,1-.45-.87l.09-3.17a8.2,8.2,0,0,1-6.5-.08l-.15,3a1,1,0,0,1-.29.66A19.24,19.24,0,0,1,191.79,63l-.27,4.69C191.05,74.91,200.08,79.19,205.4,74.2ZM202,60.75a1,1,0,0,1,1.17-.79,1,1,0,0,1,.79,1.17l-.84,4.42a1,1,0,0,1-2-.37Zm-3.76-1a1,1,0,0,1,1.07.93l.49,7.08a1,1,0,0,1-.93,1.06h-.07a1,1,0,0,1-1-.94l-.5-7.07A1,1,0,0,1,198.19,59.71Z" transform="matrix(1, 0, 0, 1, 3.552713678800501e-15, 3.552713678800501e-15)"/>
  <path d="M206,54.76l-.12,3.86,4.07,2.64h0l1.54,1,.46.1a37,37,0,0,1-.29-5.86c0-2.62,0-7.57-.7-9.84a16,16,0,0,1-2,4.71A10.71,10.71,0,0,1,206,54.76Z" transform="matrix(1, 0, 0, 1, 3.552713678800501e-15, 3.552713678800501e-15)"/>
  <path d="M204.46,53.37c2.61-1.75,4.26-5.22,4.78-8.47a8.36,8.36,0,0,0-16.57-.79C193.41,52.66,199,56.66,204.46,53.37Z" transform="matrix(1, 0, 0, 1, 3.552713678800501e-15, 3.552713678800501e-15)"/>
  <path d="M212.27,108.14l.24-.21c-.68-2.63-1.12-9.53-1.3-12.76a161.65,161.65,0,0,0-25.82-.39c-.21,4.6-.7,13-1.64,16.12a68.44,68.44,0,0,1,6.57,5.56h13.89C206.25,113.27,209.5,110.6,212.27,108.14Zm-18.7-11.26c0,.06-2.92,3.76-3.45,14.73a1,1,0,1,1-2-.1c.58-11.79,3.77-15.74,3.91-15.9A1,1,0,0,1,193.57,96.88Zm10.28-.76c1.81-1.47,3.61,2.45,4.27,13a1,1,0,0,1-2,.11c-.53-9.66-2.23-11.71-2.24-11.74A1,1,0,0,1,203.85,96.12Z" transform="matrix(1, 0, 0, 1, 3.552713678800501e-15, 3.552713678800501e-15)"/>
  <path d="M201.41,35.16a10.37,10.37,0,0,1,7.79,4.12c-.72-4.11-3.38-8.35-7.57-8.6a6.62,6.62,0,0,0-5.15,2.18,13.56,13.56,0,0,0-3.25,5.68,10.42,10.42,0,0,1,7.69-3.39Z" transform="matrix(1, 0, 0, 1, 3.552713678800501e-15, 3.552713678800501e-15)"/>
  <path d="M199.7,181.11c-.48-8.4-.84-13.39-1.07-14.86a1,1,0,0,1,.2-.76,77.27,77.27,0,0,0,10.78-19.84,20.52,20.52,0,0,1-16.3-2.63c-1.53,6.35-3.15,14.74-4.41,21.57-.1.59-.42,2.32-.42,2.37h0a2.64,2.64,0,0,1-.1.3c-.39,1.23-2.68,10.6-2.82,17.11-.08,4.33-.35,12.12-.57,17.8h6.18c.59-1.32,1.24-2.8,1.91-4.35C195.32,192.47,198,186.43,199.7,181.11Zm-10.07-2.73a1,1,0,0,1-.79-1.84c.4-.41.74-3.31.65-6a1,1,0,0,1,1-1,1,1,0,0,1,1,1C191.6,173.64,191.36,177.64,189.63,178.38Z" transform="matrix(1, 0, 0, 1, 3.552713678800501e-15, 3.552713678800501e-15)"/>
  <path d="M184.75,208.58a4.16,4.16,0,0,0,3.75.77c0-.14.4-2.25.47-2.3.32-.68.77-1.66,1.31-2.87h-5.37C184.84,206.23,184.78,207.82,184.75,208.58Z" transform="matrix(1, 0, 0, 1, 3.552713678800501e-15, 3.552713678800501e-15)"/>
  <path d="M194.82,210.16c-1.06,1-2.48,3.6-3.73,6.91a1.09,1.09,0,0,0,0,.83c1.11,2.46,2.54,3.59,4.36,3.39,4.63-.48,6.36-2.35,6.63-7.14,0-.37,0-.76,0-1.15a27.13,27.13,0,0,0-.16-2.91C199.77,211.25,197.11,210.86,194.82,210.16Z" transform="matrix(1, 0, 0, 1, 3.552713678800501e-15, 3.552713678800501e-15)"/>
  <path d="M195.59,208.3c1.92.54,4.49,1.07,6.08-.49a35.65,35.65,0,0,0-.78-3.51l0-.12H195.3C195.41,205.87,195.53,207.45,195.59,208.3Z" transform="matrix(1, 0, 0, 1, 3.552713678800501e-15, 3.552713678800501e-15)"/>
  <path d="M184.34,79a10,10,0,0,1-1.5,1.16c-.2,3.16-.16,10.1,2,12.7a164.78,164.78,0,0,1,27.37.44c.84-.72,2-5.7,2.55-11a6,6,0,0,1-1.22-1.55c-2.43-5-2.29-11-2.28-16.43a2,2,0,0,1-.95-.38l-.2,4.64a10.16,10.16,0,0,1-3.36,7.14c-6.67,6.15-17.74.95-17.22-8.13l.22-3.77c-.24.08-.47.15-.71.21-.5,4.93-1,10.46-4.23,14.46A1,1,0,0,1,184.34,79Z" transform="matrix(1, 0, 0, 1, 3.552713678800501e-15, 3.552713678800501e-15)"/>
  <path d="M200,186.35c-.41,1.08-.86,2.19-1.31,3.31-1.15,2.86-2.45,5.93-3.66,8.75,0,.85.07,2.26.16,3.77h5.58C200.62,199.14,200.32,192.84,200,186.35Z" transform="matrix(1, 0, 0, 1, 3.552713678800501e-15, 3.552713678800501e-15)"/>
  <path d="M183.88,210.42c-1.19,1.42-3.81,4.54-5.36,6.25a4.58,4.58,0,0,0-1.3,3.46c.06,2.37,4.27,5.32,6.37,4.33,1.38-.54,2.39-2.23,2.92-4.88l1.59-8.09A6.35,6.35,0,0,1,183.88,210.42Z" transform="matrix(1, 0, 0, 1, 3.552713678800501e-15, 3.552713678800501e-15)"/>
  <path d="M181.35,120.67c1.45,1.24,5,3.56,6.56,2.66h0a3.44,3.44,0,0,0,1-5.45,68.25,68.25,0,0,0-6.8-5.71,27.09,27.09,0,0,0-4.59-.8,1,1,0,0,1-.86-.59c-.07-.16-7.35-16.43-9.61-19.67a1,1,0,0,1,.23-1.38c6.67-4.82,13.06-9.79,14.07-11a12.52,12.52,0,0,1-3.75-3.4,1,1,0,0,1,1.62-1.18c.79,1.09,2.72,3.12,4,3.1,2.87-3.58,3.26-8.46,3.76-12.86-5.44.82-11.36,3.91-12.51,9.2a1,1,0,0,1-.29.52c-4.66,4.38-12.23,12.31-12.71,15-.62,3.41,5.42,16,10.6,22A117.86,117.86,0,0,0,181.35,120.67Z" transform="matrix(1, 0, 0, 1, 3.552713678800501e-15, 3.552713678800501e-15)"/>
  <polygon points="216.09 198.37 216.09 195.81 237.1 195.81 237.1 192.15 216.09 192.15 216.09 189.59 207.3 193.98 216.09 198.37" transform="matrix(1, 0, 0, 1, 3.552713678800501e-15, 3.552713678800501e-15)"/>
  <rect x="240.66" y="192.15" width="7.34" height="3.66" transform="matrix(1, 0, 0, 1, 3.552713678800501e-15, 3.552713678800501e-15)"/>
  <path d="M242.56,202.18H200.75c.06,1.17.09,1.85.1,1.88s0,.08,0,.12h41.7a1,1,0,0,0,0-2Z" transform="matrix(1, 0, 0, 1, 3.552713678800501e-15, 3.552713678800501e-15)"/>
  <path d="M191.17,202.18c-.31.71-.61,1.39-.89,2h5c-.05-.66-.09-1.34-.13-2Z" transform="matrix(1, 0, 0, 1, 3.552713678800501e-15, 3.552713678800501e-15)"/>
</svg>