<?xml version="1.0" encoding="utf-8"?>
<svg viewBox="-0.0008 -4.507 205.5087 364.579" xmlns="http://www.w3.org/2000/svg">
  <g>
    <path d="M181.165,69.927c0-2.781-2.256-5.037-5.037-5.037h-12.592c-2.781,0-5.037,2.256-5.037,5.037v32.619h22.666V69.927z"/>
    <path d="M158.499,119.139V271.88H97.063c-2.782,0-5.037,2.255-5.037,5.037v0.777v1.741v61.649h-68.07   c-1.668,0-3.02,1.352-3.02,3.018v15.97h184.571v-15.97c0-1.666-1.352-3.018-3.019-3.018h-21.324V119.139H158.499z M104.619,341.086   v-56.612h53.88v56.612H104.619z"/>
    <ellipse transform="matrix(0.9739 -0.2268 0.2268 0.9739 -2.4013 24.1033)" cx="103.674" cy="22.5" rx="22.495" ry="22.495"/>
    <path d="M123.313,52.921c1.313,0,2.598,0.257,3.819,0.763c2.467,1.017,4.39,2.938,5.415,5.405c1.023,2.471,1.023,5.187,0.004,7.654   l-12.471,30.158c-1.124,2.719-3.342,4.737-6.023,5.645h34.784c0.244-13.576-1.863-24.593-6.853-39.385   c-5.035-14.642-17.41-19.277-25.947-17.149c-8.535,2.128-12.289,14.04-9.42,23.992c0.298,1.523,0.624,3.13,0.961,4.786   l6.489-15.691C115.623,55.345,119.253,52.921,123.313,52.921z"/>
    <path d="M112.146,119.139H38.024c-3.877,0-7.034-3.156-7.034-7.037v-2.519c0-0.551,0.07-1.084,0.19-1.598l-19.704,1.619   c-6.88,0.564-12,6.601-11.434,13.482c0.564,6.88,6.602,11.998,13.481,11.434l63.203-5.198l40.112,6.13   c1.451,0.517,3.219,0.724,5.305,0.811l1.141,0.174c0.639,0.098,1.275,0.145,1.902,0.145c0.967,0,1.911-0.124,2.825-0.338   c8.153-0.483,16.739-3.508,19.56-17.105h-10.931H112.146z"/>
    <path d="M110.84,101.08c0.378,0,0.75-0.032,1.116-0.084c2.778-0.392,5.186-2.219,6.275-4.859l12.473-30.155   c1.687-4.084-0.254-8.764-4.338-10.45c-4.08-1.69-8.76,0.254-10.446,4.334l-7.626,18.437l-2.802,6.774l-32.483,0.004   c-4.42,0-8.002,3.582-8.002,8.001c0,4.416,3.582,7.998,8.002,7.998H110.84z"/>
    <path d="M200.471,117.14c2.782,0,5.037-2.256,5.037-5.037v-2.519c0-2.782-2.255-5.037-5.037-5.037h-19.306h-22.666h-9.711H112.26   H80.09h-7.078H38.025c-2.155,0-3.979,1.359-4.698,3.262c-0.209,0.554-0.338,1.149-0.338,1.775v2.519   c0,2.781,2.254,5.037,5.036,5.037h74.294h23.232h12.285h10.662h22.666H200.471z M164.499,114.091c-1.842,0-3.334-1.493-3.334-3.334   s1.492-3.334,3.334-3.334c1.84,0,3.332,1.493,3.332,3.334S166.339,114.091,164.499,114.091z M175.165,114.091   c-1.842,0-3.334-1.493-3.334-3.334s1.492-3.334,3.334-3.334c1.84,0,3.332,1.493,3.332,3.334S177.005,114.091,175.165,114.091z"/>
  </g>
</svg>