<?xml version="1.0" encoding="utf-8"?>
<svg viewBox="0 0 205.251 308.318" xmlns="http://www.w3.org/2000/svg">
  <g>
    <path d="M182.25,13h-31.834c-1.063-4.12-5.184-6.718-9.388-5.827c-3.072,0.65-5.35,2.982-6.086,5.827H70.307   c-0.737-2.846-3.013-5.178-6.083-5.826C60.02,6.284,55.897,8.878,54.835,13H23V0H0v308.317h23V25h29.623   c-1.338,8.728-1.943,16.606-1.943,23.69c-0.03,22.38,5.992,37.11,12.597,46.117c4.721,6.469,9.571,9.902,12.304,11.482v44.407   v16.939v88c0,6.83,5.537,12.363,12.363,12.363c6.828,0,12.365-5.533,12.365-12.363v-80.271h4.635v80.271   c0,6.83,5.537,12.363,12.363,12.363c6.828,0,12.365-5.533,12.365-12.363v-88v-16.939v-44.408   c2.732-1.581,7.582-5.016,12.303-11.483c6.601-9.004,12.626-23.734,12.594-46.112c0-7.085-0.606-14.965-1.942-23.692h29.624   v283.317h23V0h-23V13z M138.567,48.692c-0.03,19.609-5.064,30.531-9.52,36.683c-2.244,3.076-4.401,4.975-5.887,6.075   c-0.069,0.051-0.13,0.092-0.197,0.14c-0.334-0.045-0.673-0.075-1.02-0.075H83.309c-0.348,0-0.688,0.031-1.023,0.075   c-1.664-1.195-4.291-3.481-6.928-7.426c-4.212-6.338-8.655-17.091-8.677-35.474c-0.002-6.813,0.633-14.679,2.139-23.69h67.61   C137.935,34.013,138.569,41.878,138.567,48.692z"/>
    <ellipse transform="matrix(0.2268 -0.9739 0.9739 0.2268 16.6061 149.7667)" cx="102.626" cy="64.425" rx="22.495" ry="22.495"/>
  </g>
</svg>