<?xml version="1.0" encoding="utf-8"?>
<svg viewBox="33.1347 5.6139 62.0394 116.584" xmlns="http://www.w3.org/2000/svg">
  <g transform="matrix(1, 0, 0, 1, 1.7763568394002505e-15, 1.7763568394002505e-15)">
    <path d="M41.961,41.122a13.881,13.881,0,0,0,.264-2.425,12.4,12.4,0,0,1,.228-2.166,7.832,7.832,0,0,0,.147-1.169,3.043,3.043,0,0,1,.339-1.488,4.128,4.128,0,0,1,1.255-.957,7.705,7.705,0,0,0,1.127-.762.956.956,0,0,1,.186-.113.749.749,0,0,0,.414-.707c-.018-.362-.046-.727-.075-1.094-.039-.491-.079-.985-.088-1.479a.75.75,0,0,0-.4-.652,8.379,8.379,0,0,0-2.348-.859c-.44-.055-2.664-.287-3.3.542a.555.555,0,0,1-.1.107.746.746,0,0,0-.3.655c.053.787.078,1.575.1,2.354l.019.541a2.235,2.235,0,0,1-.143.858.749.749,0,0,0-.035.4.83.83,0,0,1,.013.141,17.847,17.847,0,0,1-1.183,5.22c-.2.592-.4,1.188-.577,1.8a22.7,22.7,0,0,0-.957,8.414.9.9,0,0,0,.425.691,1.889,1.889,0,0,0,.96.188,16.673,16.673,0,0,0,3.767-.7,12.181,12.181,0,0,0,2.867-1.646c.284-.2.576-.409.888-.616a13.269,13.269,0,0,0,3.325-3.439c.405-.541.824-1.1,1.291-1.633a.36.36,0,0,1,.314-.1.561.561,0,0,1,.421.25,5.721,5.721,0,0,0,.954,1.24.75.75,0,0,0,1.219-.281c.234-.626.452-1.219.643-1.8a.75.75,0,0,0-.257-.828c-.325-.249-.666-.476-1.006-.7A11.668,11.668,0,0,1,51.126,38a.348.348,0,0,1-.1-.255.548.548,0,0,1,.141-.391.512.512,0,0,1,.717.035,4.759,4.759,0,0,0,.772.518c.144.083.288.164.416.256l0,0a.749.749,0,0,0,1.208-.473,12.656,12.656,0,0,0,.13-2.559.423.423,0,0,1,.038-.226.748.748,0,0,0,.053-.532,6.255,6.255,0,0,1-.2-1.643.75.75,0,0,0-1.173-.619,5.882,5.882,0,0,1-1.865.645l-.61.147c-.567.141-1.153.287-1.726.376a.745.745,0,0,0-.539.375c-.567.752-1.2,1.495-1.82,2.214l-.462.541c-.143.167-.27.332-.395.494a4.847,4.847,0,0,1-.741.824c-.273.223-.557.435-.84.648-.225.168-.449.337-.669.51a.746.746,0,0,0-.284.535A14.361,14.361,0,0,1,40.8,46.218a.452.452,0,0,1-.426.224.636.636,0,0,1-.506-.3c-.035-.071-.057-.165.053-.33A14.666,14.666,0,0,0,41.961,41.122Z"/>
    <path d="M33.247,32.133a.749.749,0,0,0,.746.678h0c4.474-.031,4.474-.463,4.473-1.09-.012-.34-.02-.686-.028-1.037a26.006,26.006,0,0,0-.192-3.107.757.757,0,0,0-.189-.4.562.562,0,0,1-.14-.314.758.758,0,0,0-.795-.642.743.743,0,0,0-.342.11c-.222.045-.743.105-1.039.138a7.331,7.331,0,0,0-.957.14,1.976,1.976,0,0,0-1.644,2.052l0,.451a19.4,19.4,0,0,0,.062,2.068c.006.069.007.167.01.28C33.219,31.667,33.226,31.911,33.247,32.133Z"/>
    <path d="M42.587,121.384a1.52,1.52,0,0,0,1.5.806c.117,0,.234,0,.352,0,2.194,0,4.353-.369,5.614-2.57a3.67,3.67,0,0,1,1.935-1.8.731.731,0,0,0,.2-.124,4.5,4.5,0,0,0,1.119-4.432c-.03-.126-.056-.317-.088-.539-.049-.331-.107-.724-.188-1.1-.217-1.071-.536-1.669-1.03-1.942a.75.75,0,0,0-.652-.034,6.561,6.561,0,0,1-2.251.263,12.153,12.153,0,0,0-1.276.053.973.973,0,0,0-.479.252,5.752,5.752,0,0,0-1.044,2.744,9.5,9.5,0,0,1-.755,2.429c-.066.11-.244.332-.475.628C43.084,118.56,42.043,120.255,42.587,121.384Z"/>
    <path d="M47.189,30.97a.34.34,0,0,1,.149.238l0,.016c.044.188.074.367.1.547a.75.75,0,0,0,.741.629h.037a14.021,14.021,0,0,0,3.641-.826.749.749,0,0,0,.5-.839c-.036-.206-.064-.412-.1-.616-.025-.623-.049-1.246-.094-1.895a6.433,6.433,0,0,1-.029-.655.749.749,0,0,0-.626-.739l-.128-.024c-.105-.024-.212-.055-.324-.085a4.078,4.078,0,0,0-1.1-.2,4.586,4.586,0,0,0-2.127.359l-.2.1c-.77.371-.886.672-.886,1.566,0,.617.034,1.225.076,1.834A.749.749,0,0,0,47.189,30.97Z"/>
    <path d="M44.668,85.735c-1.038,4.851.091,9.917,1.221,13.314a27.659,27.659,0,0,1,1.029,5.351,40.632,40.632,0,0,0,.644,4.017.751.751,0,0,0,.731.582h.014l.2,0c1.318-.019,3.124-.044,3.394-2.374a19.938,19.938,0,0,1,.761-3.216,21.081,21.081,0,0,0,.816-3.5c.513-4.348.8-9.041-.581-13.929a.749.749,0,0,0-.9-.668,13.44,13.44,0,0,1-6.164-.094l-.28-.06A.751.751,0,0,0,44.668,85.735Zm7.535.313h0Z"/>
    <path d="M55.837,29.689a8.125,8.125,0,0,0-.722,2.922c0,.232.809,2.192,1.32,2.409a.76.76,0,0,0,.819-.152c.39-.375.253-.732-.112-1.684-.4-1.05.215-2.312.806-3.533a13.539,13.539,0,0,0,.738-1.714.489.489,0,0,1,.141-.225.75.75,0,0,0,.225-.415,12.561,12.561,0,0,0-.428-5.813c-.035-.088-.073-.172-.114-.26l-.059-.13a.5.5,0,0,1-.045-.289.77.77,0,0,0-.013-.291,9.987,9.987,0,0,1,.063-6.352,9.1,9.1,0,0,1,2-3.143.75.75,0,0,0-.752-1.255,6.63,6.63,0,0,0-1.539.7.784.784,0,0,0-.127.11,6.487,6.487,0,0,0-1.821,5.666,22.608,22.608,0,0,1-.136,2.6c-.066.723-.134,1.47-.145,2.231a19.491,19.491,0,0,0,.276,3,11.573,11.573,0,0,1,.115,4.178A12.21,12.21,0,0,1,55.837,29.689Z"/>
    <path d="M75.309,6.8c-1.437-1.5-5.867-1.281-10.281-.929-.736.058-1.322.106-1.652.109-1.089.007-2.314.091-3.394.165l-.477.033C57.327,6.323,56.29,7.2,56.24,8.943A.75.75,0,0,0,57.4,9.6a8.008,8.008,0,0,1,4.087-1.211.755.755,0,0,0,.331-.08,8.617,8.617,0,0,1,6.625-.268c2.692,1.162,3.019,2.984,3.471,5.505.135.749.274,1.523.486,2.346a18.9,18.9,0,0,1,.3,5.791,25.582,25.582,0,0,0,.094,5.078,11.444,11.444,0,0,0,.544,2.051.75.75,0,0,0,.706.5.424.424,0,0,1,.106.015.756.756,0,0,0,.248.042.749.749,0,0,0,.708-1,3.847,3.847,0,0,1-.151-.524c-.216-1.232-.349-2.309.218-3.008a3.45,3.45,0,0,1,.412-.417.75.75,0,0,0,.25-.694,23.8,23.8,0,0,1-.187-4.364c.008-.466.016-.931.016-1.391,0-.877-.018-1.781-.038-2.7a50.125,50.125,0,0,1,.173-7A1.75,1.75,0,0,0,75.309,6.8Z"/>
    <path d="M80.576,26.009a1.754,1.754,0,0,0-.1-.546A.734.734,0,0,0,79.745,25a.55.55,0,0,1-.474-.222c-.713-.94-2.376-.178-2.78.119a1.732,1.732,0,0,0-.724,1.9,11.143,11.143,0,0,0,.77,2.857.751.751,0,0,0,.516.458,6.515,6.515,0,0,0,1.533.12h.335c.132,0,.254.012.364.021s.234.021.358.021a1.16,1.16,0,0,0,.826-.287,1.357,1.357,0,0,0,.377-1.022,19.676,19.676,0,0,0-.239-2.652C80.591,26.191,80.583,26.092,80.576,26.009Z"/>
    <path d="M53.787,45.653a.752.752,0,0,0,.523.659.516.516,0,0,1,.188.109l.007.007c1.291,1.111,4.363-.057,4.394-.071a17.817,17.817,0,0,0,2.32-1.218c.386-.229.772-.456,1.157-.661a.427.427,0,0,1,.461,0,.637.637,0,0,1,.294.516c0,.081-.03.186-.216.284-.254.134-.52.28-.8.431-2.021,1.1-4.784,2.609-6.94,2.075a.75.75,0,0,0-.917.872l.108.54c.139.693.271,1.347.353,1.981l.145,1.006a19.569,19.569,0,0,1,.277,5.851,12.588,12.588,0,0,1-.954,2.93l-.106.252a.75.75,0,0,0,.691,1.039h.045a27.216,27.216,0,0,0,4.679-.279A20.4,20.4,0,0,1,66.355,62a22.056,22.056,0,0,0,5.535-.228,20,20,0,0,1,4.909-.232.75.75,0,0,0,.815-.915c-.282-1.213-.61-2.427-.937-3.638-.291-1.079-.582-2.156-.838-3.224a21.28,21.28,0,0,1-.522-5.531.749.749,0,0,0-1.029-.708c-2.013.807-4.706-.527-6.866-1.6-.395-.2-.773-.383-1.127-.549-.193-.091-.2-.186-.2-.227a.628.628,0,0,1,.282-.506A.493.493,0,0,1,66.9,44.6c.329.152.709.363,1.125.592,2.021,1.113,5.073,2.8,6.985.6a.9.9,0,0,0,.285-.667,43.386,43.386,0,0,0,.376-5.495A9.114,9.114,0,0,0,74.7,36.05a.748.748,0,0,0-.642-.45,5.279,5.279,0,0,1-3.262-1.739.734.734,0,0,0-.64-.218.751.751,0,0,0-.555.384,8.583,8.583,0,0,1-3.486,3.113c-2,1.116-4.632.327-6.958-.369l-.637-.189a.748.748,0,0,0-.37-.014l-.1.024a.707.707,0,0,1-.137.027,3.988,3.988,0,0,1-1.506-.155.75.75,0,0,0-.98.7,8.713,8.713,0,0,1-.867,3.979A8.046,8.046,0,0,0,53.787,45.653ZM66.23,54.111a23.186,23.186,0,0,1,3.207.228c.161.023.281.061.245.325a.642.642,0,0,1-.692.572,20.219,20.219,0,0,0-7.893.475.461.461,0,0,1-.583-.384.388.388,0,0,1,.29-.535A22.086,22.086,0,0,1,66.23,54.111Z"/>
    <path d="M54.389,107.192a.75.75,0,0,0-1.472-.244,9.111,9.111,0,0,1-.426,1.185.75.75,0,0,0,.218.881,2.384,2.384,0,0,1,.364.347.75.75,0,0,0,1.332-.51l-.015-.266c-.012-.2-.025-.4-.025-.587-.008-.276.007-.53.023-.791Z"/>
    <path d="M72.829,34.131a.75.75,0,0,0,1.125-.869c-.267-.774-.644-1.6-1.009-2.406a17.9,17.9,0,0,1-.907-2.224,24.438,24.438,0,0,1-.532-7.37,30.8,30.8,0,0,0-.478-7.331c-.411-2.589-1.162-5.347-4.852-5.347-.169,0-.332,0-.51.01a.75.75,0,0,0-.182,1.463c.211.068.422.143.64.233,2.223.922,3.509,4.6,3.679,6.8l.018.224c.131,1.651.351,4.416-.582,5.726-.615.877-.439,2.512-.254,4.243.07.654.136,1.271.143,1.751a.765.765,0,0,0,.037.222A11.64,11.64,0,0,0,72.829,34.131Z"/>
    <path d="M59.746,35.935a15.015,15.015,0,0,0,4.231.733c.1,0,.208,0,.312-.005,1.523-.041,4.655-2.208,4.8-3.994a.517.517,0,0,1,.073-.231.751.751,0,0,0,.006-.744,9.738,9.738,0,0,1-.939-2.284.42.42,0,0,0-.033-.1l-.027-.137a5.6,5.6,0,0,1-.109-.651.424.424,0,0,1,.024-.206.76.76,0,0,0,.045-.3c-.022-.366-.051-.729-.079-1.089a8.67,8.67,0,0,1,.351-4.375c1.342-2.8.471-7.519-1.149-10-1.577-2.408-3.4-2.206-4.345-1.874-2.3.813-4.3,4.211-4.043,6.863a12.552,12.552,0,0,0,.762,2.971,16.01,16.01,0,0,1,.534,1.734.746.746,0,0,0,.23.391,1.973,1.973,0,0,0,.9.477l.342.085a3.567,3.567,0,0,0,2.839-.111.367.367,0,0,1,.408-.028.635.635,0,0,1,.3.512.382.382,0,0,1-.227.35,4.6,4.6,0,0,1-3.606.249.75.75,0,0,0-.967.686,17.923,17.923,0,0,1-.666,3.881.366.366,0,0,1-.236.291.75.75,0,0,0-.418.374c-.63,1.276-1.493,3.024-.356,4.281.485.544.577.8.566.947a3.452,3.452,0,0,1-.054.45A.75.75,0,0,0,59.746,35.935Z"/>
    <path d="M63.4,77.475c.917.047,1.956.1,2.954.1.27,0,.575.011.9.023.386.013.809.028,1.246.028a10.521,10.521,0,0,0,1.963-.155.751.751,0,0,0,.18-1.414,7.409,7.409,0,0,1-1.935-1.173,1.489,1.489,0,0,0-.141-.167.784.784,0,0,0-.544-.219.748.748,0,0,0-.536.239.248.248,0,0,1-.164.094c-.554-.062-1.614-.053-1.652-.054a.732.732,0,0,1-.368-.083.748.748,0,0,0-.909.131A14.989,14.989,0,0,1,62.97,76.14a.75.75,0,0,0,.43,1.335Z"/>
    <path d="M87.394,83.032a42.916,42.916,0,0,1-5.748.558.75.75,0,0,0-.708.565c-1.451,5.693-.3,11.451.814,17.02.44,2.2.9,4.48,1.172,6.691a.748.748,0,0,0,.827.653,5.808,5.808,0,0,1,2.322.26.75.75,0,0,0,.948-.557c.211-.963.443-1.953.679-2.963,1.653-7.063,3.525-15.069.495-21.794A.75.75,0,0,0,87.394,83.032Z"/>
    <path d="M74.707,63.738a.426.426,0,0,1-.475-.434.747.747,0,0,0-.271-.536.759.759,0,0,0-.577-.165c-.475.064-.949.141-1.424.217a15.109,15.109,0,0,1-4.706.269,24.676,24.676,0,0,0-8.311-.047,12.975,12.975,0,0,1-2.292.107l-.228,0h-.007a.75.75,0,0,0-.747.68c-.01.11-.037.2-.258.241-4.444.708-7.217,1.942-9.138,6.424-1.7,3.942-1.526,8.175-1.361,12.269l.028.713a.751.751,0,0,0,.6.706l.534.114a13.414,13.414,0,0,0,2.92.4,14.965,14.965,0,0,0,3.381-.447.751.751,0,0,0,.565-.577c.057-.275.1-.55.15-.822a4.236,4.236,0,0,1,1.052-2.606,9.923,9.923,0,0,1,2.912-1.731c.587-.265,1.194-.538,1.8-.881.215-.124.466-.26.74-.408,1.693-.922,4.014-2.183,4.773-3.792,1.16-2.464-1.63-6.4-3.542-7.362-.091-.047-.332-.169-.155-.52a.54.54,0,0,1,.718-.278c2.24,1.132,5.095,5.4,4.181,7.948a.756.756,0,0,0,.114.685.785.785,0,0,0,.633.319A1.01,1.01,0,0,0,66.917,74a1.605,1.605,0,0,0,.654-.19.732.732,0,0,0,.2-.147.751.751,0,0,0,.217-.536,7.2,7.2,0,0,1,.394-2.179c.106-.347.2-.7.3-1.041.433-1.6.808-2.986,2.246-3.7a.548.548,0,0,1,.732.279c.171.343-.056.457-.153.5-1.53.766-2.209,3.428-2.509,5.525-.241,1.666,1.268,2.436,2.267,2.945.178.091.352.18.508.268.226.131.453.253.679.366a.749.749,0,0,0,.46.068.553.553,0,0,1,.462.31.741.741,0,0,0,.284.285,6.991,6.991,0,0,1,1.272.881,2.4,2.4,0,0,1,.466.545c.43.646.827.9,2.158,1.059a5.892,5.892,0,0,0,1.486.065l.153.012a.382.382,0,0,1,.4.315c.068.226.142.44.215.648a5.052,5.052,0,0,1,.352,1.445.75.75,0,0,0,.749.713H82.1a32.341,32.341,0,0,0,5.294-.47.75.75,0,0,0,.625-.823c-.5-4.532-1.113-8.881-2.987-12.287C82.692,64.608,79.213,63.738,74.707,63.738Z"/>
    <path d="M87.529,110.4a6.442,6.442,0,0,0-3.978-.877.75.75,0,0,0-.616.763,18.95,18.95,0,0,0,.276,2.571l.086.549c.034.221.053.429.071.623a2.223,2.223,0,0,0,1.753,2.38,1.783,1.783,0,0,1,1.188.819,4.4,4.4,0,0,1,.161.471c.289.917.685,2.174,1.723,2.174.211,0,.427,0,.647.009s.474.01.718.01a5.852,5.852,0,0,0,3.2-.717,1.186,1.186,0,0,0,.588-.985c.026-.944-1.066-1.8-2.187-2.589-.1-.071-.177-.124-.218-.157l0,0a10.164,10.164,0,0,1-2.777-4.087l-.28-.6A.743.743,0,0,0,87.529,110.4Z"/>
    <path d="M89.757,43.082a.471.471,0,0,1-.694-.127c-.229-.375-.464-.737-.7-1.094a10.333,10.333,0,0,1-1.911-4.146.735.735,0,0,0-.129-.32l-.261-.371c-1.376-1.961-3.091-4.4-5.439-5.221a.431.431,0,0,1-.265-.216.786.786,0,0,0-.741-.4c-.1.006-.19.013-.29.013-.173,0-.358,0-.551,0a5.615,5.615,0,0,1-2.517-.327,1.158,1.158,0,0,1-.345-.311.872.872,0,0,0-.88-.252.75.75,0,0,0-.7,1.029,10.951,10.951,0,0,1,.948,3.544.747.747,0,0,0,.06.272l.566,1.307a.749.749,0,0,0,1.15.3c.059-.046.119-.084.212-.148l.172-.13a6.279,6.279,0,0,1,.835-.569c.21-.11.4-.224.588-.335a3,3,0,0,1,1.3-.528.322.322,0,0,1,.218.093.588.588,0,0,1,.191.392c0,.39-.388.47-.555.486h0a3.866,3.866,0,0,0-.619.327c-.084.062-.173.125-.262.188s-.2.12-.31.177c-.159.087-.318.175-.475.28l-.185.123a5.6,5.6,0,0,0-1.185.967.752.752,0,0,0-.37.7l.012.129a1.353,1.353,0,0,1,.011.145c0,.493-.008.977-.025,1.462a.75.75,0,0,0,1.312.522,2.966,2.966,0,0,0,.754-1.365.8.8,0,0,0,0-.258c-.044-.232.142-.334.307-.378a.528.528,0,0,1,.671.317c.817,2.3,5.233,4.986,8.845,6.051a11.683,11.683,0,0,0,3.2.527,4.37,4.37,0,0,0,2.7-.772.76.76,0,0,0,.277-.445c.346-1.706-.519-3.976-1.213-5.8-.188-.495-.361-.948-.485-1.334A13.027,13.027,0,0,1,92.6,35.8a8.535,8.535,0,0,0-1.1-3.521c-.251-.347-.495-.647-.735-.94a12.084,12.084,0,0,1-.872-1.158.389.389,0,0,1-.06-.363.861.861,0,0,0-.079-.7,4.306,4.306,0,0,1-.649-1.476c-.33-2.2-.913-3.226-1.835-3.226-.84,0-2.9,0-3.393,1.264a1.464,1.464,0,0,0-.428-.07H82.5a1.5,1.5,0,0,0,0,3h.947a1.5,1.5,0,0,0,.817-.255,2.071,2.071,0,0,0,.319.294l.1.077a4.6,4.6,0,0,0,1.655.9.378.378,0,0,1,.315.41.749.749,0,0,0,.272.577.49.49,0,0,1,.174.361c.068.859.07,1.763.072,2.637a29.219,29.219,0,0,0,.137,3.355.735.735,0,0,0,.128.337c.105.154.08.24.071.269a.747.747,0,0,0-.008.406,11.421,11.421,0,0,0,1.762,3.5c.216.329.439.665.657,1.019A.388.388,0,0,1,89.757,43.082Z"/>
    <path d="M95,24.467a2.02,2.02,0,0,0-1.522-1.836A4.549,4.549,0,0,0,89.276,24a.752.752,0,0,0-.036.845c.05.081.087.156.123.228a8.231,8.231,0,0,1,.479,1.481c.1.385.2.77.328,1.144a6.516,6.516,0,0,0,.3.714.751.751,0,0,0,.865.4.467.467,0,0,1,.246,0,4.561,4.561,0,0,0,1.127.141,3,3,0,0,0,1.581-.389,1.735,1.735,0,0,0,.8-1.157,7.327,7.327,0,0,0-.021-2.356C95.046,24.859,95.021,24.665,95,24.467Z"/>
    <path d="M79.705,84.119a.75.75,0,0,0-.264-.732.629.629,0,0,1-.217-.342,2.269,2.269,0,0,1-.022-.685,3.357,3.357,0,0,0-.09-1.227,4.026,4.026,0,0,0-.139-.383.752.752,0,0,0-.686-.462,6.448,6.448,0,0,1-2.38-.435.75.75,0,0,0-1.021.533c-.118.547-.426.863-1.915,1.546a10.54,10.54,0,0,1-2.57.732.751.751,0,0,0-.623.69c-.017.264-.025.519-.034.782a.751.751,0,0,0,.75.773A.538.538,0,0,0,70.6,84.9h4.755c.266,0,.54.008.816.016.3.009.61.018.918.018a7.457,7.457,0,0,0,2.089-.245A.75.75,0,0,0,79.705,84.119Z"/>
    <path d="M63.429,105.016a.749.749,0,0,0,.729.632l.722.013c.644.012,1.3.025,1.96.025.642,0,1.287-.012,1.929-.047a.749.749,0,0,0,.7-.83,93.664,93.664,0,0,1-.381-10.186c0-1.556-.086-3.128-.169-4.648a60.992,60.992,0,0,1-.128-6.288.745.745,0,0,0-.214-.562.706.706,0,0,0-.559-.225c-.518.017-1.027.025-1.523.008-.821-.012-1.7.023-2.547.059l-.364.015a.752.752,0,0,0-.719.751c0,1.946.038,3.784.071,5.592.035,1.847.069,3.665.069,5.536a30.2,30.2,0,0,0,.211,3.09,28.841,28.841,0,0,1,.2,2.9c0,.355-.021.753-.041,1.17A14.879,14.879,0,0,0,63.429,105.016Z"/>
    <path d="M60.454,78.257a.753.753,0,0,0-.743-.042c-.5.249-1,.482-1.518.707a.748.748,0,0,0-.448.723,1.991,1.991,0,0,0,.682,1.41c.942.847,2.7,1.08,4.781,1.08.961,0,1.991-.05,3.045-.111.579-.034,1.068-.064,1.407-.064a7.565,7.565,0,0,0,1.772-.266,7.366,7.366,0,0,1,1.218-.219c1.4-.094,2.353-.2,2.89-.849a2.757,2.757,0,0,0,.34-2.159v-.156a.906.906,0,0,0-.277-.58.749.749,0,0,0-.928-.1c-3.251,2.035-11.728.729-11.814.716A1.482,1.482,0,0,1,60.454,78.257Z"/>
    <path d="M79.383,106.546a.751.751,0,0,0-.75-.772l-.3.009c-.387,0-.765.009-1.1.032a1.126,1.126,0,0,0-.3.049.749.749,0,0,0-.508.732,23.206,23.206,0,0,0,.346,2.972l.065.409a.749.749,0,0,0,.723.632q.255.006.51.006c.171,0,.341,0,.511-.006a.749.749,0,0,0,.729-.817,15.334,15.334,0,0,1,.02-2.212C79.354,107.236,79.372,106.891,79.383,106.546Z"/>
    <path d="M57.59,84.9c1.219.033,2.348.063,3.154.063a.7.7,0,0,1,.2.04.779.779,0,0,0,.223.034.751.751,0,0,0,.749-.784c-.008-.184-.008-.345-.008-.476a.75.75,0,0,0-.739-.75,11.533,11.533,0,0,1-3.145-.394c-.806-.244-1.124-.711-1.212-1.783a.749.749,0,0,0-1.206-.532,4.576,4.576,0,0,0-1.662,3.194l-.083.418a.75.75,0,0,0,.724.9C55.566,84.85,56.607,84.878,57.59,84.9Z"/>
    <path d="M55.154,109.066A1.519,1.519,0,0,0,57,110.113a1.479,1.479,0,0,0,1.007-.96v.049c0,.112.008.229.015.346l.01.152a.75.75,0,0,0,.749.712h.006c3.784-.029,7.618-.173,11.326-.312,1.618-.06,3.237-.121,4.857-.173a.752.752,0,0,0,.715-.877,9.649,9.649,0,0,1-.162-1.309c0-.175-.019-.356-.034-.539l-.024-.35a.777.777,0,0,0-.781-.707c-1.729.074-4.062.313-4.083.319a.466.466,0,0,1-.353-.12.749.749,0,0,0-1.112.084.461.461,0,0,1-.361.177c-1.2.068-2.437.042-3.636.018-.646-.014-1.289-.027-1.931-.027a.388.388,0,0,1-.32-.16.749.749,0,0,0-.567-.259.8.8,0,0,0-.171.017,13.924,13.924,0,0,0-2.271.344c-.419.087-.839.175-1.265.238a.75.75,0,0,0-.64.732c0,.167.005.333.009.5l-.21-.854a1.5,1.5,0,0,0-2.893.8Q55.016,108.509,55.154,109.066Z"/>
  </g>
</svg>