<?xml version="1.0" encoding="utf-8"?>
<svg viewBox="163.9136 7.3319 84.1019 239.3381" xmlns="http://www.w3.org/2000/svg">
  <path d="M199.65,142.76c-9.93-5-15-21.37-18.13-31.42l-1.45-.13c-1.77,1.66-10.33,10.12-9.29,16.89,1,6.3,3.5,12.93,5.31,19.22h23.32C199.5,145.78,199.57,144.27,199.65,142.76Z" transform="matrix(1, 0, 0, 1, 3.552713678800501e-15, 3.552713678800501e-15)"/>
  <path d="M192.05,89.27h-.7a49.78,49.78,0,0,0,1.45,21.15l5.36.51a138.5,138.5,0,0,1-1.39-21.62C195.77,89.28,193.59,89.24,192.05,89.27Z" transform="matrix(1, 0, 0, 1, 3.552713678800501e-15, 3.552713678800501e-15)"/>
  <path d="M200.21,131.64c0-.29,0-.58,0-.86.54-6.53-1-10.24-1.83-17.8l-5.09-.49a168.47,168.47,0,0,0,6.43,19Z" transform="matrix(1, 0, 0, 1, 3.552713678800501e-15, 3.552713678800501e-15)"/>
  <path d="M183.13,226a24.54,24.54,0,0,0,5.8-1,116.53,116.53,0,0,1-1.05-24.78C184,208.22,183.88,217.33,183.13,226Z" transform="matrix(1, 0, 0, 1, 3.552713678800501e-15, 3.552713678800501e-15)"/>
  <path d="M200.79,134c-.06,0-2.14-.9-2.18-.9a1,1,0,0,1-.54-.54,173.6,173.6,0,0,1-7-20.84s0-.09,0-.14v0c-1.58-6.43-2.38-10.71-2.26-15.81a38.67,38.67,0,0,0-3.88.06,1,1,0,0,1-1.06-.94,1,1,0,0,1,.94-1.06,40.19,40.19,0,0,1,4.11-.06c.81-9.81,4.18-29.92-7.7-32.88a7.13,7.13,0,0,0-8.86,5.8,112.5,112.5,0,0,0,5,22.21c.56,1.69,1.31,3.31,2,4.93,1.53,9.6,10.49,44.33,21.72,47.31,2.68-.75,5.59-2.59,2.8-5.78L218.77,8.45a1,1,0,0,0-2-.23L201.93,134.51Z" transform="matrix(1, 0, 0, 1, 3.552713678800501e-15, 3.552713678800501e-15)"/>
  <path d="M199.3,149.32H176.63c2.39,8.18,2.38,30.62,2,32.77-.07.1-6.61,10.42-6.75,22.94-.12,11.3.08,24.35.13,27.36,2.4.89,6.76,2.5,8.79.3.35-8.71.86-18,2.83-26.73,3.3-11.17,12.64-24.37,14-34.76C198.11,167.86,198.66,160.5,199.3,149.32Zm-12.53,35.8a1,1,0,0,1-.8-1.6c1-1.31,1-7.07.77-10.73a1,1,0,0,1,2-.15C188.75,173.6,189.69,184.65,186.77,185.12Z" transform="matrix(1, 0, 0, 1, 3.552713678800501e-15, 3.552713678800501e-15)"/>
  <path d="M198.38,239.9c-5.85-.2-11.39-2.59-16.36-5.55-3.13,2.64-7.73,1.05-11.12-.26-3.49,1.23-.63,10.52,0,12.58h26.28a11,11,0,0,0,3-4h0A2,2,0,0,0,198.38,239.9Z" transform="matrix(1, 0, 0, 1, 3.552713678800501e-15, 3.552713678800501e-15)"/>
  <path d="M172.86,54a50,50,0,0,0,.95-11.39c-4-4.57-7.88-10.46-7.05-16.81-1.9,2.08-3.89,5.74-2.22,11.2,2.29,7.64,3.25,17.42.6,20.85a8.23,8.23,0,0,0,5.69,0A18.47,18.47,0,0,0,172.86,54Z" transform="matrix(1, 0, 0, 1, 3.552713678800501e-15, 3.552713678800501e-15)"/>
  <path d="M174,56.41c-3.77,6.41-6.8,11.32-3.12,24.32.75,2.38,1.51,4.73,2.24,7,.6.12,1.22.22,1.83.31a116.25,116.25,0,0,1-4.63-21.27,9.1,9.1,0,0,1,11.23-7.85c11.73,2.86,10.72,18.88,10,28.34,2.13,0,4.24,0,6.24.08,7.31-1.22,7-11.36,3.61-16.68-3.64-5.64-15.26-13.26-16.58-14.12A21.86,21.86,0,0,0,174,56.41Z" transform="matrix(1, 0, 0, 1, 3.552713678800501e-15, 3.552713678800501e-15)"/>
  <path d="M206.66,232.6c-3.52-.1-9.26-1.19-16.74-5.79h0A25.29,25.29,0,0,1,183,228c0,1-.09,2-.13,2.94h0c0,.66,0,1.18-.06,1.54a37.84,37.84,0,0,0,11.94,5c2.23.63,5-.13,6.65,1.89h4a11,11,0,0,0,3-4.06A2,2,0,0,0,206.66,232.6Z" transform="matrix(1, 0, 0, 1, 3.552713678800501e-15, 3.552713678800501e-15)"/>
  <path d="M176.07,37.16c-.84-5.09,1.73-7.26,5.48-5,1.79-5.26,6.38-9,10.49-12.52-4.94-3.16-13.6-4.54-19.74.71-7.09,5.31-2.36,14.76,2.25,20Z" transform="matrix(1, 0, 0, 1, 3.552713678800501e-15, 3.552713678800501e-15)"/>
  <path d="M186.48,27.7a12.83,12.83,0,0,0-3.09,5.39c-.11.63.11,1.39-.59,1.72a1,1,0,0,1-1.09-.12c-.94-.77-2.64-1.7-3.25-1.35-.15.08-.83.64-.37,3.83a.94.94,0,0,1-.09.57l-2.19,4.67a53.08,53.08,0,0,1-.93,11.74,24.51,24.51,0,0,1,9.54.26l1.45-8.55a23.16,23.16,0,0,1-3.89-4,1,1,0,0,1,.16-1.4,1,1,0,0,1,1.4.15c2.32,2.75,5.19,6.08,8.3,4.67,2.73-1.5,4.17-7.36,4-12.16a36.54,36.54,0,0,0-2.48-12A50.74,50.74,0,0,0,186.48,27.7Z" transform="matrix(1, 0, 0, 1, 3.552713678800501e-15, 3.552713678800501e-15)"/>
  <path d="M224.88,68.21s42.9,33.16-3.07,64.37l-2-3.64-7.36,12.29,14-.45-1.94-3.48S277.15,106.1,224.88,68.21Z" transform="matrix(1, 0, 0, 1, 3.552713678800501e-15, 3.552713678800501e-15)"/>
</svg>