<?xml version="1.0" encoding="utf-8"?>
<svg viewBox="168.42 6.9992 58.1183 239.9984" xmlns="http://www.w3.org/2000/svg">
  <path d="M207,230l4.23-.11,11.56-42c.12-2.45,1-25.88-1.86-35.27a21.24,21.24,0,0,0-10.23.69c0,.12,1.06,24.64,1,24.77.15,1-1.26,10.4-2.69,13.22Zm11.43-47.15c.15.13,3.64,3.18,3.64,7.11a1,1,0,0,1-2,0c0-3-2.91-5.57-2.94-5.59A1,1,0,0,1,218.43,182.84Z" transform="matrix(1, 0, 0, 1, 3.552713678800501e-15, 3.552713678800501e-15)"/>
  <path d="M198.34,77.41c4.47,9.18,3.29,17.84-8.7,17.62a62.28,62.28,0,0,1,3,10.82h21.66a11.25,11.25,0,0,0,4.16-3.8c3.33-5.06-2-10.6-5.53-14.87C207.8,91,201,81.06,198.34,77.41Z" transform="matrix(1, 0, 0, 1, 3.552713678800501e-15, 3.552713678800501e-15)"/>
  <path d="M206.74,243s-4.54-2.86-4.54-2.88l-8.49-5.39h-5.55l-.08,10.4,2.72.73a33.37,33.37,0,0,0,15.33.46A1.84,1.84,0,0,0,206.74,243Z" transform="matrix(1, 0, 0, 1, 3.552713678800501e-15, 3.552713678800501e-15)"/>
  <path d="M219.21,104.44a14.12,14.12,0,0,1-3.66,3,0,0,0,0,0,0,0l-.21,4.52a16.24,16.24,0,0,0,2,3.12,22.8,22.8,0,0,1,1.23-2.3,1,1,0,0,1,1.69,1.07,25.17,25.17,0,0,0-1.66,3.29h0c-.93,2.13-2,4.86-3.1,8.12.49,1.61,1.17,3.92,2,6.61,1.81-3.73,5.17-11.08,5.58-14.88S220.6,107.13,219.21,104.44Z" transform="matrix(1, 0, 0, 1, 3.552713678800501e-15, 3.552713678800501e-15)"/>
  <path d="M210.18,141.08l.43,10.16a23.39,23.39,0,0,1,9.81-.72c-1.45-6.07-4.83-17.94-6.94-25a.29.29,0,0,1,0-.09l-.4-1.3H192.43a53,53,0,0,1-1.41,6.07c-1.48,4.53-2.62,11.68-.77,21.15,5.95-1.27,12.45-2.43,18.35-.4l-.42-9.69-5-4.24a1,1,0,0,1,1.3-1.52l4.45,3.77,2.22-3.54a1,1,0,0,1,1.69,1.06Z" transform="matrix(1, 0, 0, 1, 3.552713678800501e-15, 3.552713678800501e-15)"/>
  <path d="M192.69,122.17h20.16l.27-5.69a25.55,25.55,0,0,0-2.7-6.79,1,1,0,0,1,.25-1.39c1.36-.66,1.62.58,2.7,2.8l.15-3.25H193a61.8,61.8,0,0,1-.26,14.21S192.69,122.14,192.69,122.17Zm11.19-13.33a1,1,0,0,1,1.51,1.3c0,.06-2.11,2.67-2.6,10.08a1,1,0,0,1-2-.13C201.34,111.83,203.78,109,203.88,108.84Z" transform="matrix(1, 0, 0, 1, 3.552713678800501e-15, 3.552713678800501e-15)"/>
  <path d="M225.72,240.16l-14-8.29-5.43.14a8.94,8.94,0,0,0-2.45,5.74l0,1,4,2.55a4.09,4.09,0,0,1,1.36,1.53,33.46,33.46,0,0,0,15.94.62A1.82,1.82,0,0,0,225.72,240.16Z" transform="matrix(1, 0, 0, 1, 3.552713678800501e-15, 3.552713678800501e-15)"/>
  <path d="M193.26,232.73c1.53-5.09,10.27-34,13.38-41a1,1,0,0,1-1.76-.73c.4-3.4-2-6.74-2.08-6.77a1,1,0,0,1,1.6-1.2c.11.14,3,4.07,2.45,8.24.11-.22.21-.42.3-.58a42.92,42.92,0,0,0,2.59-12.58v0c0-.32-1-24.47-1.05-24.82-5.66-2.48-12.26-1-18.09.15A261.7,261.7,0,0,0,198,182.46a.94.94,0,0,1,0,.64c-.05.17-6,17.13-8,26.64a117.57,117.57,0,0,0-1.77,16.92L189.29,93c13.35.52,9.57-10.54,6.62-16-.5-.81.45-1.48.93-2A25,25,0,0,1,195,67.2l1.38-45.68a1,1,0,0,1,.85-1c.49-.6.95-2.63,1.21-4.72l-7.37,7.52-3.41,47c.21-.27.34-.42.36-.44a1,1,0,0,1,1.47,1.35,12.9,12.9,0,0,0-2.22,4.19,0,0,0,0,0,0,0c-1.07,2.6-1.48,7.69.08,13.26l-1.18,147.58a8.32,8.32,0,0,1,1.27-1.64h.74v-2Zm2.54-154c.22.53,2.06,5.21.66,7.75a1,1,0,0,1-1.75-1c.71-1.29-.09-4.38-.76-6A1,1,0,0,1,195.8,78.71Z" transform="matrix(1, 0, 0, 1, 3.552713678800501e-15, 3.552713678800501e-15)"/>
  <path d="M184.76,242.74a1.81,1.81,0,0,0,1.32,1.85l.07-8.21a9,9,0,0,0-1.29,4.21Z" transform="matrix(1, 0, 0, 1, 3.552713678800501e-15, 3.552713678800501e-15)"/>
  <path d="M203,56.76c-.32.57-.67,1.11-1.41.91-2.67-.93-2.41,2-2.08,3.64a1,1,0,0,1-.2.88l-2.21,2.68L197,67.19c.25,2.31.94,6.21,2,7.49,1.86,2.83,8.93,13.48,12.72,10.95-5.35-6.42-8.69-10-8.72-10a1,1,0,0,1-.13-1.2l1-1.66a30,30,0,0,1-4.18-3.9,1,1,0,0,1,1.5-1.33,22,22,0,0,0,4.49,4c3.07,1.07,6.43.87,6.6-4.16.48-4.19,1.06-9.37.16-13.19C209.09,53,205,53.72,203,56.76Z" transform="matrix(1, 0, 0, 1, 3.552713678800501e-15, 3.552713678800501e-15)"/>
  <path d="M197.49,50.81l-.33,10.8.27-.33c-.61-2.66.3-6.42,3.93-5.7a9.8,9.8,0,0,1,10.21-3.68C209,46.46,199,49.65,197.49,50.81Z" transform="matrix(1, 0, 0, 1, 3.552713678800501e-15, 3.552713678800501e-15)"/>
  <polygon points="168.42 38.47 171.19 38.47 171.19 61.27 175.16 61.27 175.16 38.47 177.94 38.47 173.18 28.94 168.42 38.47" transform="matrix(1, 0, 0, 1, 3.552713678800501e-15, 3.552713678800501e-15)"/>
  <rect x="171.19" y="65.13" width="3.97" height="7.97" transform="matrix(1, 0, 0, 1, 3.552713678800501e-15, 3.552713678800501e-15)"/>
  <path d="M205.62,7.62A1,1,0,0,0,204.7,7h-9.87a1,1,0,0,0-.08,2c-5.82.21-5.22,8.21-4.15,12l8.05-8.22a5.13,5.13,0,0,0-.31-2.31A4.56,4.56,0,0,0,195.16,9h7.16l-3.67,3.75a29.13,29.13,0,0,1-.22,3.08l7-7.13A1,1,0,0,0,205.62,7.62Z" transform="matrix(1, 0, 0, 1, 3.552713678800501e-15, 3.552713678800501e-15)"/>
</svg>