<?xml version="1.0" encoding="utf-8"?>
<svg viewBox="24.6 16.7 50.8 66.6" xmlns="http://www.w3.org/2000/svg">
  <g transform="matrix(1, 0, 0, 1, 1.7763568394002505e-15, 0)">
    <path d="M70.6,34.9c2.5,0,4.5,2,4.5,4.5c0,2.5-2,4.5-4.5,4.5c-2.5,0-4.5-2-4.5-4.5C66,36.9,68.1,34.9,70.6,34.9z"/>
    <g>
      <path d="M34,54.1V20.5h-3.1v33.6C31.9,53.9,33,53.9,34,54.1z"/>
      <path d="M30.8,70.7v12.6H34V70.7C33,70.9,31.9,70.9,30.8,70.7z"/>
      <path d="M62.3,45.5l3.8-1.1C64,44.2,62.8,43.8,62.3,45.5z"/>
      <path d="M34.6,19.8h17.8h2.8h6.4v-3.1H26.5v3.1C29.5,19.8,31.6,19.8,34.6,19.8z"/>
      <path d="M54.5,20.5H53v14.3c1.1-0.2,0.8-0.2,1.5-0.3V20.5z"/>
      <path d="M61.3,46.5l-2.9,0.9l-3-12.4l-0.2,0v0c-1.4,0.3-0.6,0.1-3.4,0.7c3.1,17.2,2.8,16.3,3.5,16.8c0.7,0.4,1,0.2,4.3-0.4l0,0    c0.3,0,7.9-1.6,8.2-1.7c1.6-0.3,2.3-1.7,2-2.9c-0.4-1.6-0.4-2.9-1.8-3C65.8,45.1,67.2,44.7,61.3,46.5L61.3,46.5z"/>
      <path d="M32.8,60.9c-1.2-0.3-2.2,0.7-1.9,1.9c0.1,0.5,0.6,1,1.1,1.1c1.2,0.3,2.2-0.7,1.9-1.9C33.8,61.4,33.3,61,32.8,60.9z"/>
      <path d="M74.6,70.2V67c-6.7,0-12.6,0-19.4,0v3.1c1.5,0,11.8,0,13.3,0h4.1H74.6z"/>
      <polygon points="72.1,70.8 69.4,70.8 72.7,83.3 75.4,83.3   "/>
      <path d="M63.2,66.4c1.9,0,3.6-1.2,4.3-3l5.8-16c0.3-0.7,0.1-1.5-0.4-2.1c-0.7-0.8-1.6-0.7-3.1-0.8c0.6,2.7,1.1,3.7,0.2,5    c-0.9,1.4-1.2,1.2-10,3L58,59.4l-7.1,1c-2.4,0.3-4.2,2.4-4.1,4.8l0.4,18.1h3.7l1.4-16.9h2.3H63.2z"/>
      <path d="M34.2,54.8c-4.8-1.2-9.6,2.5-9.6,7.6c0,5.1,4.8,8.7,9.6,7.6c4.5-1.1,7.2-5.8,5.4-10.6C38.8,57.1,36.7,55.4,34.2,54.8z     M32.8,64.6c-1.6,0.3-2.9-1.1-2.6-2.6c0.2-0.9,0.9-1.6,1.7-1.7C34.9,59.6,35.7,64,32.8,64.6z"/>
      <polygon points="54.4,83.3 57.1,83.3 60.4,70.8 57.7,70.8   "/>
    </g>
  </g>
</svg>