<?xml version="1.0" encoding="utf-8"?>
<svg viewBox="5.6675 16.8745 116.5861 96.3597" xmlns="http://www.w3.org/2000/svg">
  <g transform="matrix(1, 0, 0, 1, 1.7763568394002505e-15, 1.7763568394002505e-15)">
    <path d="M40.354,85.7a.5.5,0,0,0-.588-.6,22.343,22.343,0,0,1-3.173.382.5.5,0,0,0-.373.2.494.494,0,0,0-.083.416,6.6,6.6,0,0,1,.143,1.544v9.032a.5.5,0,0,0,.435.5.487.487,0,0,0,.066,0,.5.5,0,0,0,.482-.37l.4-1.5c.172-.656.343-1.313.523-1.97.264-.966.559-1.932.854-2.9C39.506,88.894,39.993,87.3,40.354,85.7Z"/>
    <path d="M18.666,75.453a.5.5,0,0,0,.429.31,28.288,28.288,0,0,0,3.04-.018c1.268-.052,2.432-.047,3.627-.021a26.641,26.641,0,0,0,6.437-.379,18.28,18.28,0,0,1,5.892.069c1.1.129,2.246.263,3.333.282a.786.786,0,0,1,.173.03.474.474,0,0,0,.159.013.7.7,0,0,1,.471.132.426.426,0,0,0,.264.081.711.711,0,0,0,.184-.026.57.57,0,0,0,.345-.326,14.6,14.6,0,0,1,1.593-3.188c1.311-1.793,2.427-3.626,3.437-5.34a.5.5,0,0,0-.2-.7,9.758,9.758,0,0,0-4.8-1.028c-.181,0-.4.012-.639.025a6.148,6.148,0,0,1-1.6-.044,1.831,1.831,0,0,1-1.028-1.6,2.548,2.548,0,0,1,1.2-2.308.5.5,0,0,0,.169-.566.471.471,0,0,0-.489-.332c-2.967.1-5.847.144-8.567.121h0a.721.721,0,0,0-.381.156c-2.7,1.448-4.565,3.8-6.368,6.082-.379.478-.758.956-1.144,1.427-.5.615-.972,1.3-1.425,1.957a21.4,21.4,0,0,1-1.822,2.408c-.28.3-.6.614-.921.934-.43.424-.876.865-1.284,1.325A.5.5,0,0,0,18.666,75.453Z"/>
    <path d="M28.964,105.068a.5.5,0,0,0,.5.48h.007c3.425-.048,4.339.174,4.579.3a.5.5,0,0,0,.972-.167V99.26c0-.382.038-1.071.085-1.938.388-7.095.281-11.28-1.416-11.677a.524.524,0,0,1-.4-.324.5.5,0,0,0-.541-.3,12.221,12.221,0,0,1-1.229.116c-.22.014-.433.027-.629.045-.344.029-.71.059-1.09.066a.5.5,0,0,0-.478.606.435.435,0,0,1-.277.527c-.494.236-.678.674-.25,9.252.049.969.086,1.7.086,1.955v.878C28.879,100.63,28.877,102.867,28.964,105.068Z"/>
    <path d="M42.16,83.387a.5.5,0,0,0,.408.212h2.364c1.636,0,3.353.043,5.1.128a.491.491,0,0,0,.393-.163.5.5,0,0,0,.126-.4,15.661,15.661,0,0,1-.1-2.1.528.528,0,0,0-.186-.361.588.588,0,0,0-.4-.136c-.86.044-1.714.087-2.549.094a.549.549,0,0,1-.576-.426.571.571,0,0,0-.041-.19,4.011,4.011,0,0,1-.078-1.053,7.876,7.876,0,0,0-.019-.8,16.521,16.521,0,0,0-.27-1.691l-.113-.593a9.244,9.244,0,0,1-.112-1.706.5.5,0,0,0-.937-.243,23.14,23.14,0,0,0-1.106,2.4,17.609,17.609,0,0,1-1.342,2.776.537.537,0,0,1-.214.2.5.5,0,0,0-.267.407l-.068.933a.666.666,0,0,1-.464.639,18.528,18.528,0,0,1-5.271.314c-.4-.012-.8-.025-1.179-.032a.51.51,0,0,0-.393.18.5.5,0,0,0-.106.419.731.731,0,0,1,.013.143,4.8,4.8,0,0,1-.145,1.311.5.5,0,0,0,.479.641.508.508,0,0,0,.11-.012.59.59,0,0,1,.131-.01c1.279-.038,4.421-.21,5.974-.986A.69.69,0,0,1,42.16,83.387Z"/>
    <path d="M28.62,83.9a9.278,9.278,0,0,0,1.249.089,6.646,6.646,0,0,0,.693-.034c.277-.024.552-.067.826-.111a7.24,7.24,0,0,1,1.124-.12,1.05,1.05,0,0,0,.786-.271,1.115,1.115,0,0,0,.225-.888l-.006-.221a.662.662,0,0,1,.012-.128.5.5,0,0,0-.106-.419.532.532,0,0,0-.394-.179c-1.47.03-2.948.075-4.426.128a.5.5,0,0,0-.482.491,7.917,7.917,0,0,0,.072,1.232A.5.5,0,0,0,28.62,83.9Z"/>
    <path d="M18.061,80.123c.29.048.575.1.859.159a12.617,12.617,0,0,0,2.43.306c.868,0,1.742.016,2.617.03s1.761.03,2.651.03,1.779-.015,2.66-.06c.834-.043,1.67-.075,2.507-.108,1.257-.048,2.517-.1,3.767-.179.631-.036,1.312-.008,2.032.022a17.039,17.039,0,0,0,2.975-.048.5.5,0,0,0,.431-.457c.06-.789.121-1.586.151-2.375a.5.5,0,0,0-.466-.518c-.61-.041-1.229-.111-1.849-.182a23.392,23.392,0,0,0-3.317-.218c-.986.027-1.98.128-2.94.226a30.929,30.929,0,0,1-3.652.226c-1.259-.021-2.59.029-3.878.079a36.33,36.33,0,0,1-7.087-.171.5.5,0,0,0-.444.151.5.5,0,0,0-.124.453,11.819,11.819,0,0,1,.336,1.874.493.493,0,0,0-.075.225A.5.5,0,0,0,18.061,80.123Z"/>
    <path d="M49.578,57.491a4.572,4.572,0,0,0-.08-.468.5.5,0,0,0-.492-.385l-.737.011c-1.118.018-2.275.037-3.352-.054-.484-.044-1.08-.148-1.711-.257a13.875,13.875,0,0,0-3.332-.33,12.336,12.336,0,0,0-5.433,2.457.5.5,0,0,0,.284.912h0c4.407-.028,9.171-.205,14.564-.543a.5.5,0,0,0,.445-.65c-.041-.128-.082-.256-.109-.377C49.606,57.705,49.593,57.6,49.578,57.491Z"/>
    <path d="M114.875,61.128a22.57,22.57,0,0,0,1.252-6.184c.031-1.413.186-2.846.336-4.232a45.182,45.182,0,0,0,.349-4.87c0-.53.042-1.126.084-1.747a13,13,0,0,0-.255-4.833,12.849,12.849,0,0,0-2.411-3.947c-.225-.281-.456-.569-.689-.874a13.545,13.545,0,0,0-7.067-4.782.5.5,0,0,0-.625.345,14.013,14.013,0,0,1-.656,1.713,11.44,11.44,0,0,0-.822,2.352,9.79,9.79,0,0,1-1.144,2.908.5.5,0,0,0,.147.642l.124.089c.929.67,1.449,1.094,1.308,2.02a7.615,7.615,0,0,0,.719,3.887,10.687,10.687,0,0,1,.708,2.455c.694,6.008,1.48,12.818,3.423,18.815a.516.516,0,0,1-.375.695.641.641,0,0,1-.856-.4,81.537,81.537,0,0,1-2.71-13.807l-.25-1.8a20.911,20.911,0,0,0-1.9-7.175,2.638,2.638,0,0,1-.162-1.42,2.686,2.686,0,0,0-.427-2.007.5.5,0,0,0-.846.106,8.293,8.293,0,0,0-.749,2.569,7.679,7.679,0,0,1-1.149,3.046l-.193.351a.5.5,0,0,0,.074.581.683.683,0,0,1,.134.243,6.313,6.313,0,0,1,.267,1.458,2.641,2.641,0,0,0,.084.446l.044.185a2.3,2.3,0,0,1,.061.365.5.5,0,0,0,.064.2.494.494,0,0,1,.07.379.384.384,0,0,0,.022.308c.831,4.452,1.983,8.5,3.2,12.781l.153.544c1.2,4.23,2.434,8.6,5.389,11.921a.5.5,0,0,0,.373.167.491.491,0,0,0,.248-.066c.294-.167.571-.34.844-.509.218-.135.433-.269.651-.4a.5.5,0,0,0,.192-.662c-.143-.274-.265-.567-.385-.853l-.142-.335c-.149-.343-.279-.737-.413-1.142a7.665,7.665,0,0,0-1.217-2.575.624.624,0,0,1-.127-.647.763.763,0,0,1,.524-.493.451.451,0,0,1,.439.195,8.637,8.637,0,0,1,1.333,2.6l.064.171a19.987,19.987,0,0,0,.769,1.888l.044.115c.29.761.351.88.594.869a.525.525,0,0,1,.11.04,1,1,0,0,0,.294.037c.4-.065.826-.121,1.255-.177l.79-.107a.5.5,0,0,0,.362-.253.515.515,0,0,0,.025-.445,1.3,1.3,0,0,1-.083-.238.492.492,0,0,0-.07-.165,11.218,11.218,0,0,1-1.838-7.13.491.491,0,0,0-.055-.255.578.578,0,0,1-.035-.424C114.364,62.8,114.623,61.951,114.875,61.128Z"/>
    <path d="M107.354,91.507l.392,0c.306,0,.631.016.963.031.357.017.732.035,1.11.035a6.368,6.368,0,0,0,1.828-.223.5.5,0,0,0,.35-.556c-.193-1.24-.444-2.525-.79-4.045a.5.5,0,0,0-.8-.28,9.373,9.373,0,0,1-3.877,1.392c-.561.117-1.1.231-1.59.369a3.974,3.974,0,0,1-.418.088,1.244,1.244,0,0,0-.982.517,1.227,1.227,0,0,0,.049,1.051C104.272,91.552,106.053,91.522,107.354,91.507Z"/>
    <path d="M58.231,26.3a.564.564,0,0,1-.1-.256.5.5,0,0,0-.088-.239c-1.706-2.433-5.7-8.13-11.352-5.868a.509.509,0,0,0-.166.109c-1.016,1-3.043,4.519-2.2,6.476a2.1,2.1,0,0,0,2.259,1.183h0a5.053,5.053,0,0,1,2.048.2,2.6,2.6,0,0,0,2.737-.367c.124-.076.256-.157.4-.242.614-.363.962-.108,1.629.451a3.038,3.038,0,0,0,1.921.923,2.652,2.652,0,0,0,1.44-.484,1.94,1.94,0,0,1,1.04-.332.477.477,0,0,0,.388-.157.5.5,0,0,0,.133-.4,3.766,3.766,0,0,1-.006-.676A.5.5,0,0,0,58.231,26.3Z"/>
    <path d="M113.659,96.114c0,.249-.009.529-.019.828-.062,1.891-.147,4.482,1.682,5.516.23.129.465.256.7.384.53.285,1.078.581,1.56.9a3.648,3.648,0,0,0,1.775.785.819.819,0,0,0,.5-.155c.568-.409.339-1.245.1-2.129a6.519,6.519,0,0,1-.193-.819c-.049-.422-.119-.84-.19-1.259a12.876,12.876,0,0,1-.243-2.145V89.5c0-.578.009-1.186.019-1.813.07-4.526.156-10.158-3.089-13.486l0,0a.585.585,0,0,1-.1-.129.5.5,0,0,0-.5-.254c-.466.059-.965.129-1.457.242a9.486,9.486,0,0,0-2.653,1.192c-.373.217-.748.436-1.143.63a.5.5,0,0,0-.272.538c.482,2.654,1.2,5.3,1.887,7.866.406,1.506.825,3.063,1.191,4.595a25.626,25.626,0,0,1,.457,6.183Z"/>
    <path d="M51.089,35.246a1.686,1.686,0,0,1,.789-.079c.232.062.435.317.65.586a3.621,3.621,0,0,0,.549.59,4.148,4.148,0,0,0,2.167.588.5.5,0,0,0,.493-.415,12.3,12.3,0,0,1,1.547-3.638,17.337,17.337,0,0,0,1.3-2.7.462.462,0,0,0,0-.373.422.422,0,0,0-.264-.237.74.74,0,0,1-.087-.083,1.416,1.416,0,0,0-.338-.273.5.5,0,0,0-.491.016.513.513,0,0,0-.109.088,13.646,13.646,0,0,1-1.561.692,4.089,4.089,0,0,1-1.89-.272,2.158,2.158,0,0,1-.872-.47,1.129,1.129,0,0,1-.263-.19.5.5,0,0,0-.357-.161.49.49,0,0,0-.364.146,1.139,1.139,0,0,1-.4.273,6.217,6.217,0,0,1-3.4-.051,12.658,12.658,0,0,0-2.5-.324.5.5,0,0,0-.583.531,7.661,7.661,0,0,0,.394,2.206c.3.77,1.267.977,1.974,1.129.171.036.328.069.45.108A1.652,1.652,0,0,1,49.176,34.3C49.531,35.627,50.544,35.379,51.089,35.246Z"/>
    <path d="M61.615,28.821a10.891,10.891,0,0,0-1.879-6.342,6.083,6.083,0,0,0-1-1.083,4.509,4.509,0,0,1-.871-.966c-1.359-2.214-6.766-4.609-9.7-3.064a.5.5,0,0,0,.278.941c4.361-.387,8.84,2.547,10.879,7.141.075.171.136.348.233.611a3.716,3.716,0,0,1,.4,2.011,7.2,7.2,0,0,1-.881,3.8c-.151.279-.307.556-.461.83-.91,1.618-1.85,3.291-1.7,5.4a7.71,7.71,0,0,0,2.394,4.64,3.155,3.155,0,0,0,2.027.825c.082,0,.163,0,.245-.012a.5.5,0,0,0,.383-.246.5.5,0,0,0,.025-.455A10.723,10.723,0,0,1,60.8,38.376a39.464,39.464,0,0,1,.4-4.649A39.1,39.1,0,0,0,61.615,28.821Z"/>
    <path d="M38.2,101.866a1.06,1.06,0,0,0-.192-.057,1.807,1.807,0,0,0-.716.034l-.005,0-.482.105a.576.576,0,0,0-.059.018.5.5,0,0,0-.212.134.5.5,0,0,0-.135.373c.029.477.052.983.044,1.482a.5.5,0,0,0,.483.507c.08,0,.16,0,.238,0a5.327,5.327,0,0,0,1.177-.121.5.5,0,0,0,.39-.5,8.379,8.379,0,0,0-.263-1.645A.5.5,0,0,0,38.2,101.866Z"/>
    <path d="M79.074,44.653a.5.5,0,0,0,.416-.257A16.278,16.278,0,0,0,80.9,40.137a11.446,11.446,0,0,0,.076-3.293,20.377,20.377,0,0,1-.07-2.294.5.5,0,0,0-.723-.471.933.933,0,0,0-.154.1l-.167.118a5.079,5.079,0,0,1-1.766.95.558.558,0,0,0-.376.154.482.482,0,0,0-.125.209.637.637,0,0,1-.416.435,2.875,2.875,0,0,0-1.135.974,3.223,3.223,0,0,1-.573.595l-.271.174a11.034,11.034,0,0,1-1.363.794l-.406.19a5.313,5.313,0,0,1-2.262.7,15.871,15.871,0,0,1-2.5-.254.509.509,0,0,0-.51.2.5.5,0,0,0-.017.549l.248.411c.142.237.284.475.432.708A14.154,14.154,0,0,0,73.8,44.74a8.1,8.1,0,0,0,1.768.184,18.42,18.42,0,0,0,2-.141C78.059,44.729,78.559,44.676,79.074,44.653Z"/>
    <path d="M70.732,55.183a1.035,1.035,0,0,0,.716.7,6.382,6.382,0,0,0,3.807-.156c.016-.011.031-.023.046-.035l.189-.145c.983-.744,1.022-.773,1.022-1.054a.63.63,0,0,0-.092-.291,2.786,2.786,0,0,1-.264-.5,13.624,13.624,0,0,1-.571-3.516.5.5,0,0,0-.138-.313,3.077,3.077,0,0,0-2.684-.841l-.178,0c-.106,0-.215,0-.329,0a3.568,3.568,0,0,0-1.183.129,1.053,1.053,0,0,0-.178.1.509.509,0,0,0-.307.148.5.5,0,0,0-.137.418c.034.252.08.5.126.753a7.927,7.927,0,0,1,.17,1.324c0,.309-.029.653-.059,1.008A7.216,7.216,0,0,0,70.732,55.183Z"/>
    <path d="M88.341,53.513a2.234,2.234,0,0,0,1.108.211,10.022,10.022,0,0,0,1.785-.2c.1-.028.231-.05.366-.075a1.973,1.973,0,0,0,1.364-.615.828.828,0,0,0,.109-.659c-.13-.558-.221-1.15-.309-1.723a15.707,15.707,0,0,0-.585-2.722,2.493,2.493,0,0,0-1.524-1.572,4.6,4.6,0,0,0-3.676.469.732.732,0,0,1-.222.08.5.5,0,0,0-.412.453c-.031.375-.054.756-.078,1.138l-.036.563a.532.532,0,0,0,.137.377,1.181,1.181,0,0,1,.131.166A14.771,14.771,0,0,1,88,53.035.724.724,0,0,0,88.341,53.513Z"/>
    <path d="M78.917,50.167a5.339,5.339,0,0,1,.139.748c.14.968.273,1.883.994,1.883h.026c3.994-.117,4.546-3.391,5.032-6.28a22.9,22.9,0,0,1,.492-2.407l.449-1.548c.317-1.082.632-2.162.923-3.254a17.914,17.914,0,0,1,.969-2.517A17.263,17.263,0,0,0,88.992,34c.086-.345.167-.719.25-1.106a11.616,11.616,0,0,1,1.063-3.34h0a.754.754,0,0,0,.03-.759c-.342-.636-1.646-.914-4.983-1.062-.231-.01-.395-.016-.446-.022-1.044-.17-2.081-.37-3.118-.57A43.312,43.312,0,0,0,73.6,26.1c-.47,0-.979-.022-1.5-.044a14.642,14.642,0,0,0-4.616.283c-3.119.937-3.668,2.544-3.668,5.575a.782.782,0,0,1-.033.215.505.505,0,0,0,.046.386l1.979,3.491a.5.5,0,0,0,.385.251.416.416,0,0,1,.292.192,5.3,5.3,0,0,0,6.674,1.067,11.341,11.341,0,0,0,1.582-1.2l.212-.182a.5.5,0,0,0-.229-.871l-.337-.068a4.1,4.1,0,0,0-2.731.023.526.526,0,0,1-.555.03.764.764,0,0,1-.37-.631.543.543,0,0,1,.3-.488,5.333,5.333,0,0,1,3.592-.226,13.215,13.215,0,0,0,2,.2A8.827,8.827,0,0,0,80.876,32.4c.326-.2.647-.4.961-.574a.509.509,0,0,0,.111-.086,3.451,3.451,0,0,1,.909-.664.619.619,0,0,1,.805.177.589.589,0,0,1,.082.721.484.484,0,0,0-.093.182.425.425,0,0,1-.272.282c-.161.069-.337.146-.506.222a.5.5,0,0,0-.18.138c-.863,1.054-.491,2.435-.163,3.655a6.46,6.46,0,0,1,.29,1.488,4.836,4.836,0,0,1-.423,1.851,7.35,7.35,0,0,0-.514,1.918c-.126,1.152-.643,3.99-2.722,5.473-.833.594-1.212.935-1.257,1.383a1.228,1.228,0,0,0,.477.958A5.1,5.1,0,0,1,78.917,50.167Z"/>
    <path d="M121.306,105.093a.5.5,0,0,0-.615-.019,7.863,7.863,0,0,1-.9.553c-1.342.751-3.971-1.23-5.381-2.292-.24-.181-.454-.342-.656-.489l-.168-.142a.5.5,0,0,0-.671,0,12.858,12.858,0,0,0-1.829,2.283c-.9,1.32-1.757,2.567-3.147,2.981-.444.132-.888.27-1.332.409-.772.241-1.544.482-2.32.686-.468.125-1.893.5-1.811,1.5s1.816,1.623,3.023,1.74c.971.088,2.04.185,3.146.185a11.524,11.524,0,0,0,4.759-.889c.339-.152.676-.316,1.015-.481a16.811,16.811,0,0,1,1.942-.849c.225-.075.5-.159.809-.252,2.508-.761,4.783-1.562,5.072-2.988A2.032,2.032,0,0,0,121.306,105.093Z"/>
    <path d="M103.551,67.465a.5.5,0,0,0,.753-.578c-.416-1.192-.887-2.543-1.262-3.885v0l-.215-.756c-1.208-4.246-2.348-8.257-3.161-12.618a.678.678,0,0,1,0-.265.5.5,0,0,0-.052-.346,3.379,3.379,0,0,1-.288-1.14l-.09-.691a.5.5,0,0,0-.725-.381,5.518,5.518,0,0,1-.58.262.5.5,0,0,0-.323.493,66.313,66.313,0,0,0,1.185,8.508q.16.876.313,1.731C99.7,61.161,100.435,65.347,103.551,67.465Z"/>
    <path d="M87.541,45.013a5.235,5.235,0,0,1,4.469.394.5.5,0,0,0,.4.066.429.429,0,0,1,.4.105,4.757,4.757,0,0,0,2.386.456,7.319,7.319,0,0,0,2.231-.3,1.6,1.6,0,0,0,1.155-1,5.97,5.97,0,0,1,.646-1.376,5.24,5.24,0,0,0,.9-2.647,8.163,8.163,0,0,1,1.453-3.391l.29-.477a11.755,11.755,0,0,0,1.21-3.176c.156-.583.318-1.186.546-1.792l.114-.308c.2-.537.4-1.076.628-1.6a.5.5,0,0,0-.387-.7l-.4-.05c-.3,0-.606,0-.907-.008a16.708,16.708,0,0,0-4.114.3l-.776.184a16.7,16.7,0,0,1-6.036.7.507.507,0,0,0-.529.327A17.262,17.262,0,0,0,90.7,32.56a16.008,16.008,0,0,1-.491,1.744c-.2.548-.447,1.074-.71,1.631a14.516,14.516,0,0,0-.966,2.413c-.182.673-.359,1.351-.537,2.03-.352,1.343-.7,2.691-1.094,4.019a.5.5,0,0,0,.132.5A.5.5,0,0,0,87.541,45.013Z"/>
    <path d="M63.375,44.25a4.031,4.031,0,0,1-3.067.143.5.5,0,0,0-.581.276c-.078.172-.148.336-.218.507a.219.219,0,0,0-.031.124c-.007.034-.024.089-.039.137l-.036.126a.5.5,0,0,0,.034.333.642.642,0,0,1,0,.564,35,35,0,0,1-2.259,4.106,40.255,40.255,0,0,0-2.124,3.785c-.254.542-.5,1.123-.761,1.719a17.445,17.445,0,0,1-3.212,5.54,1.157,1.157,0,0,1-1.313.338c-2.106-.579-4.337-1.074-6.434-.262-1.652.645-2.2,1.078-2.093,1.654.139.75,1.263.834,3.8.846.5,0,.933,0,1.157.028a6.049,6.049,0,0,1,2.97,1.416.5.5,0,0,0,.3.1.48.48,0,0,0,.085-.007c.039-.007.075-.016.125-.03,3.2-.534,5.855-4.389,7.574-7.244.573-.959,1.244-1.9,1.893-2.815.633-.891,1.288-1.813,1.868-2.767,1.328-2.181,2.619-4.375,3.91-6.569q1.26-2.139,2.528-4.274a.5.5,0,0,0-.017-.539,16.6,16.6,0,0,1-1-1.768c-.2-.383-.388-.754-.581-1.084-.827-1.42-1.624-2.841-2.42-4.261a.5.5,0,0,0-.934.2,16.424,16.424,0,0,0,1.09,8.775A.666.666,0,0,1,63.375,44.25Z"/>
    <path d="M8.553,106.558a12.6,12.6,0,0,0-2.193.135.508.508,0,0,0-.414.48c-.045,1.2-.091,2.445-.091,3.686l-.005.4c0,.244-.01.491,0,.737a.532.532,0,0,0-.141.607.56.56,0,0,0,.567.341,1.526,1.526,0,0,0,.367-.052c.112,0,.226,0,.341.007a4.12,4.12,0,0,0,1.317-.108.5.5,0,0,0,.4-.515,19.906,19.906,0,0,1,.275-3.771,9.995,9.995,0,0,0,.079-1.458A.5.5,0,0,0,8.553,106.558Z"/>
    <path d="M13.035,108.042a.623.623,0,0,1-.168.021h0l-.355.012c-.567.022-1.1.041-1.633.011a.516.516,0,0,0-.523.428c-.05.35-.11.7-.169,1.039a12.874,12.874,0,0,0-.249,2.012,7.011,7.011,0,0,0,.038,1.069L10,112.8a.5.5,0,0,0,.495.431h.365a3.166,3.166,0,0,0,1.186-.174,1.956,1.956,0,0,0,1.285-1.8c.028-.165.059-.343.1-.535a7.188,7.188,0,0,0,.2-1.714.876.876,0,0,1,.035-.3.511.511,0,0,0-.63-.671Z"/>
    <path d="M49.206,112.906a1.713,1.713,0,0,0,.533.094c.306.015.612.023.906.016l.279,0,.156,0c.548,0,1-.129,1.164-1.029a10.22,10.22,0,0,0,.218-1.888c0-.112,0-.227.007-.343.007-.224.013-.453,0-.675a.546.546,0,0,0,.019-.506c-.179-.371-.6-.342-.848-.306l-1.079-.131c-.385.008-.77.008-1.156.008a.479.479,0,0,0-.5.42l-.018.095c-.072.256-.135.519-.182.777a8.166,8.166,0,0,0-.129,1.942.506.506,0,0,0,.125.308.74.74,0,0,1,.124.625A.519.519,0,0,0,49.206,112.906Z"/>
    <path d="M39.051,111.583c1.744.066,3.529.135,5.3.135.815,0,1.627-.015,2.431-.051a.5.5,0,0,0,.478-.517,8.18,8.18,0,0,1,.247-2.354.5.5,0,0,0-.089-.434c-.095-.123-.267-.236-.4-.193-10,.079-20.353.286-31.656.632a.5.5,0,0,0-.484.48c-.021.517-.05,1.071-.117,1.607a.5.5,0,0,0,.5.562H33.867C35.572,111.45,37.341,111.517,39.051,111.583Z"/>
    <path d="M56.223,112.2h.7c.306,0,.612-.009.919-.032a.5.5,0,0,0,.458-.437l.147-1.135c.1-.764.2-1.53.283-2.293l.032-.277a5.732,5.732,0,0,0,.06-.924c-.01-.268-.4-.494-.665-.494-.511,0-1.737.077-2.095.8l-.008.016a.734.734,0,0,1-.081.126.49.49,0,0,0-.087.188c-.053.231-.108.458-.164.685-.065.265-.13.529-.191.8a3.447,3.447,0,0,0,.076,1.5,4.172,4.172,0,0,1,.116.773v.2A.5.5,0,0,0,56.223,112.2Z"/>
    <path d="M52.847,83.929c.174-.014.356-.03.581-.042.1-.014.213-.025.328-.037s.227-.022.341-.037a.5.5,0,0,0,.435-.474,19.8,19.8,0,0,0-.041-2.412.5.5,0,0,0-.47-.442c-.547-.028-1.127-.033-1.823-.016a.5.5,0,0,0-.487.506,10.6,10.6,0,0,0,.341,2.6.5.5,0,0,0,.482.369.52.52,0,0,0,.1-.009A.992.992,0,0,1,52.847,83.929Z"/>
  </g>
</svg>