<?xml version="1.0" encoding="utf-8"?>
<svg viewBox="6.9535 12.2 86.054 75.6" xmlns="http://www.w3.org/2000/svg">
  <path d="M78.7,72.7l-1.2,0.4l-4.3,1.6v12.7c0,0.1,0,0.2,0,0.3h5.4c0-0.1,0-0.2,0-0.3V72.7z" transform="matrix(1, 0, 0, 1, 1.7763568394002505e-15, 0)"/>
  <path d="M34.4,87.8L72.2,74v0l0.7-0.2L83.2,70c0.5-0.2,0.7-0.7,0.5-1.1L83,66.7c-0.1-0.2-0.2-0.4-0.5-0.5c-0.1-0.1-0.2-0.1-0.4-0.1  c-0.1,0-0.2,0-0.3,0.1l-9,3.3L26.6,86.3c-0.8,0.3-0.6,1.5,0.3,1.5H34.4z" transform="matrix(1, 0, 0, 1, 1.7763568394002505e-15, 0)"/>
  <path d="M7.6,80.9c-2-5.4,0.8-11.3,6.2-13.3c8.7-3.2,16.8,5.8,12.9,14.1C22.9,90,10.8,89.5,7.6,80.9z" transform="matrix(1, 0, 0, 1, 1.7763568394002505e-15, 0)"/>
  <path d="M43.3,70.9c0.3,4.8-5.6,7.3-8.8,3.8c-1-1-1.5-2.4-1.4-3.8l1.2-17.3c2.6,0.5,5.4,0.5,7.9,0l0.7,10.8l0,0L43.3,70.9z" transform="matrix(1, 0, 0, 1, 1.7763568394002505e-15, 0)"/>
  <path d="M90.7,55.7c-1.7-1.4-3.5-1.2-5.5-1.2L43.9,65.1c0.4,6.2,0.4,5.9,0.4,6.3c-0.1,1.6-0.7,3-1.9,4.2c-4,3.9-10.6,0.7-10.3-4.8  l0.2-2.7l-0.8,0.2c-3,0.8-4.3,3.8-3.4,6.3l1.4,3.9c0.9,2.5,3.6,3.8,6.1,2.9l46.2-16.8c1.4-0.5,3,0.5,3,2.1l0.5,17.7  c0.1,1.8,1.5,3.2,3.3,3.2h0c1.8,0,3.3-1.4,3.3-3.2L93,60.8C93.1,58.8,92.2,57,90.7,55.7z" transform="matrix(1, 0, 0, 1, 1.7763568394002505e-15, 0)"/>
  <path d="M52.1,17.7c-3.8-3.6-8.7-5.5-13.9-5.5c-0.5,0-1,0-1.5,0.1c-10.2,0.7-18.4,9-18.9,19.3c-0.6,11,7.5,20.2,18.2,21.3  c0.7,0.1,1.4,0.1,2.2,0.1c11.5,0,20.4-9.4,20.4-20.4C58.6,27,56.2,21.5,52.1,17.7z M43.2,33.5c-0.3,2.1-2.1,3.8-4.2,4.2h0  c-0.3,0-0.6,0.1-0.9,0.1c-1.3,0-2.6-0.5-3.6-1.5c-1.2-1.2-1.7-2.8-1.4-4.5c0.3-2.1,2.1-3.8,4.2-4.2c1.7-0.3,3.3,0.2,4.5,1.4  C43,30.2,43.5,31.8,43.2,33.5z" transform="matrix(1, 0, 0, 1, 1.7763568394002505e-15, 0)"/>
</svg>