<?xml version="1.0" encoding="utf-8"?>
<svg viewBox="0 -5.943 216.4475 301.99" xmlns="http://www.w3.org/2000/svg">
  <g transform="matrix(1, 0, 0, 1, -7.105427357601002e-15, 0)">
    <path d="M113.385,97.526c-0.13,11.33,5.123,17.03,11.567,20.24c0.523,2.456,1.396,7.573,1.389,14.133   c0.002,6.687-0.894,14.832-3.816,23.344c-2.94,8.522-7.831,17.44-16.214,26.106c-5.19,5.354-5.056,13.9,0.3,19.09   c2.622,2.541,6.011,3.806,9.395,3.806c3.526,0,7.048-1.372,9.695-4.105c11.268-11.61,18.293-24.241,22.362-36.134   c4.081-11.904,5.278-23.045,5.281-32.107c-0.012-11.734-1.982-20.048-2.65-22.563c0.594-7.672,2.771-15.52,5.53-23.007h-41.456   C114.214,89.802,113.762,93.501,113.385,97.526z"/>
    <path d="M148.506,38.002c5.973,0,10.904,4.861,10.992,10.834c0.043,2.939-1.059,5.718-3.105,7.824   c-2.045,2.109-4.789,3.295-7.729,3.339l-26.089,0.39c-1.251,2.643-2.345,5.269-3.309,7.944h44.638   c1.249-2.682,2.452-5.226,3.535-7.588c5.203-8.977,3.82-21.62-4.754-25.953c-6.82-3.446-17.14-3.341-25.362,3.377l11.011-0.163   L148.506,38.002z"/>
    <path d="M115.102,84.332h41.879H171c2.762,0,5-2.238,5-5v-4c0-2.762-2.238-5-5-5h-8.021h-44.405h-2.827l-8.02,14H115.102z"/>
    <path d="M87.707,84.332c-0.255-0.554-0.476-1.128-0.639-1.729c-0.77-2.835-0.387-5.802,1.07-8.352l2.246-3.92H5   c-2.762,0-5,2.238-5,5v4c0,2.762,2.238,5,5,5h50.5v1.997v190.719h-15c-2.762,0-5,2.238-5,5v14h61v-14c0-2.762-2.238-5-5-5h-15   V86.329v-1.997H87.707z M66,290.002c-2.484,0-4.5-2.015-4.5-4.5c0-2.485,2.016-4.5,4.5-4.5c2.486,0,4.5,2.015,4.5,4.5   C70.5,287.987,68.486,290.002,66,290.002z M66,74.501c2.486,0,4.5,2.015,4.5,4.5c0,2.485-2.014,4.5-4.5,4.5   c-2.484,0-4.5-2.015-4.5-4.5C61.5,76.516,63.516,74.501,66,74.501z"/>
    <ellipse transform="matrix(0.9489 -0.3156 0.3156 0.9489 2.5071 60.4839)" cx="188.001" cy="22.501" rx="22.495" ry="22.495"/>
    <path d="M89.877,75.247c-1.674,2.922-1.524,6.386,0.083,9.085c0.436,0.731,0.979,1.404,1.623,1.997   c0.487,0.449,1.027,0.856,1.628,1.2c1.412,0.81,2.951,1.194,4.471,1.194c2.24,0,4.426-0.85,6.1-2.395   c0.621-0.572,1.172-1.236,1.626-1.997c0.027-0.047,0.062-0.087,0.089-0.134l7.942-13.866l1.146-1.999l5.676-9.91l3.3-0.05   l25.075-0.374c4.969-0.073,8.938-4.163,8.863-9.132c-0.072-4.97-4.162-8.938-9.131-8.864l-13.266,0.198l-20.234,0.302   c-3.186,0.044-6.094,1.756-7.674,4.522L93.839,68.333l-1.146,1.999L89.877,75.247z"/>
  </g>
</svg>