<?xml version="1.0" encoding="utf-8"?>
<svg viewBox="4.51 0.9987 40.98 48.0026" xmlns="http://www.w3.org/2000/svg">
  <g transform="matrix(1, 0, 0, 1, 8.881784197001252e-16, 0)">
    <g>
      <path d="M13.45,1.4287h0.04c-0.72-0.28-1.51-0.43-2.34-0.43c-3.67,0-6.64,2.98-6.64,6.65c0,0.99,0.22,1.94,0.62,2.79    c-0.02-0.22-0.03-0.44-0.03-0.66C5.1,5.1687,8.84,1.4287,13.45,1.4287z"/>
      <path d="M35.64,25.8387c-6.39,0.25-8.92,6.4-8.92,6.4c-1.08,0.38-3.81,2.72-3.81,2.72c-0.37-4.5-3.88-7.7401-3.88-7.7401    c-1.59-1.27-4.05-6.58-4.05-6.58c-0.42-0.93-0.7-1.78-0.88-2.55c-0.21,0.02-0.43,0.03-0.65,0.03c-2.95,0-5.54-1.53-7.02-3.84    c0.11,0.47,0.27,0.91,0.49,1.29c0,0,1.44,3.49,1.63,10.8c0.2006,7.5056,4.4415,17.331,4.79,18.42c0.64,1.96,2.59,5.64,8.12,3.63    c0,0,8.87-5.01,12.92-5.26c0,0,8.44-0.83,11.11-9.95v-16.13C39.1,18.7787,35.64,25.8387,35.64,25.8387z"/>
      <path d="M13.4455,17.1231c4.0582,0,7.3482-3.2899,7.3482-7.3482c0-4.0583-3.29-7.3482-7.3482-7.3482    c-4.0584,0-7.3483,3.2899-7.3483,7.3482C6.0971,13.8332,9.3871,17.1231,13.4455,17.1231z M13.4454,4.4205    c2.9572,0,5.3544,2.3972,5.3544,5.3544c0,2.9572-2.3973,5.3544-5.3544,5.3544c-2.9572,0-5.3545-2.3973-5.3545-5.3544    C8.0909,6.8177,10.4882,4.4205,13.4454,4.4205z"/>
      <path d="M10.3868,10.0873l0.0064,0.0043c0.5576,0.2168,0.9114,1.0726,0.6695,1.6226l-0.0021,0.0043    c-0.0597,0.1407-0.0192,0.2793,0.0725,0.371c0.0895,0.0895,0.2303,0.1322,0.3688,0.0704l0.0085-0.0043    c0.5227-0.2276,1.3939,0.0911,1.6204,0.6738l0.0021,0.0043c0.0576,0.145,0.1833,0.2132,0.3134,0.2132    c0.1258,0,0.2559-0.0682,0.3113-0.2132l0.0021-0.0043c0.2176-0.5594,1.0729-0.9135,1.6226-0.6716l0.0042,0.0021    c0.1386,0.0597,0.2815,0.0192,0.371-0.0704c0.0917-0.0917,0.1301-0.2303,0.0704-0.371l-0.0021-0.0043    c-0.239-0.543,0.1073-1.4039,0.6695-1.6226l0.0085-0.0043c0.1407-0.0533,0.2133-0.1833,0.2133-0.3113    s-0.0725-0.2559-0.2133-0.3135h-0.0043c-0.5825-0.2247-0.9054-1.0981-0.6737-1.6204l0.0021-0.0085    c0.0618-0.1386,0.0213-0.2814-0.0682-0.371c-0.0917-0.0917-0.2324-0.1301-0.3732-0.0703l-0.0042,0.0021    c-0.5333,0.2366-1.412-0.1279-1.6226-0.6695l-0.0021-0.0085c-0.0555-0.1407-0.1855-0.2133-0.3113-0.2133    c-0.1301,0-0.2559,0.0725-0.3134,0.2133c-0.0021,0.0021-0.0021,0.0043-0.0021,0.0063c-0.2148,0.5504-1.0516,0.9265-1.6226,0.6716    c-0.0021-0.0021-0.0043-0.0021-0.0043-0.0021c-0.1428-0.0619-0.2814-0.0214-0.3731,0.0703    c-0.0895,0.0896-0.1322,0.2303-0.0704,0.371l0.0043,0.0085c0.2307,0.5298-0.1244,1.4091-0.6738,1.6183l-0.0043,0.0021    c-0.145,0.0576-0.2132,0.1855-0.2132,0.3135S10.2419,10.034,10.3868,10.0873z M13.4454,8.4662    c0.7228,0,1.3087,0.5859,1.3087,1.3088c0,0.7227-0.5859,1.3087-1.3087,1.3087s-1.3087-0.5859-1.3087-1.3087    C12.1367,9.0521,12.7226,8.4662,13.4454,8.4662z"/>
    </g>
  </g>
</svg>