<?xml version="1.0" encoding="utf-8"?>
<svg viewBox="0 0 223.658 298.5" xmlns="http://www.w3.org/2000/svg">
  <g>
    <path d="M171.73,168.649c-3.55-0.009-6.915-0.251-10.065-0.642c4.196,22.159,8.732,46.648,12.571,67.541   c0.964,5.247,1.884,10.264,2.743,14.961c3.729,8.548,6.938,18.217,9.605,28.99c0.04,0.161,0.083,0.315,0.123,0.478   c0.428,1.752,0.521,3.505,0.352,5.205c-0.61,6.111-4.838,11.482-10.984,13.317h47.583v-14c0-2.762-2.239-5-5-5h-26.235   c-2.072-11.425-7.762-42.739-13.929-75.96c-2.164-11.655-4.385-23.543-6.531-34.892c-0.027,0-0.056,0.001-0.083,0.001H171.73z"/>
    <path d="M38.758,291.699c-1.224-2.018-1.939-4.238-2.162-6.518c-0.168-1.722-0.062-3.476,0.364-5.204   c0.04-0.161,0.082-0.316,0.122-0.478c2.665-10.763,5.873-20.455,9.602-29.013c3.971-21.71,9.233-50.277,14.164-76.426   c0.384-2.036,0.766-4.057,1.145-6.061c-3.15,0.392-6.506,0.64-10.057,0.648h-0.003H51.93h-0.155c-0.026,0-0.055-0.001-0.081-0.001   C43.433,212.354,34.03,264.08,31.235,279.5H5c-2.762,0-5,2.238-5,5v14h47.581C43.888,297.398,40.77,295.016,38.758,291.699z"/>
    <path d="M156.597,287.357c-0.679-2.774-1.382-5.39-2.101-7.857H117.83v-34.168h12.5c2.199,0,4.045-1.429,4.715-3.401   c-2.751-2.627-5.543-4.456-8.441-5.516c-0.272-0.096-0.527-0.176-0.774-0.248c-1.39-0.408-2.362-0.466-2.763-0.469   c-0.684,0.088-1.373,0.136-2.057,0.136c-3.32,0-6.522-1.064-9.18-3.028c-2.657,1.961-5.859,3.024-9.176,3.024   c-0.67,0-1.342-0.04-2.008-0.129c-0.471,0-1.442,0.065-2.816,0.468c-0.251,0.073-0.512,0.154-0.79,0.253   c-2.601,0.928-5.132,2.515-7.735,4.857c-0.228,0.204-0.459,0.42-0.693,0.642c0.667,1.979,2.516,3.412,4.718,3.412h12.5V279.5   H69.167c-0.719,2.477-1.421,5.088-2.1,7.857c-1.339,5.449-5.433,9.599-10.582,11.143h110.689   C162.027,296.955,157.934,292.806,156.597,287.357z"/>
    <path d="M97.83,138.331c0.137,0.109,0.278,0.214,0.418,0.32c0.98,0.744,2.025,1.416,3.135,1.997c1.655,0.866,3.445,1.54,5.35,1.983   c5.463,1.272,10.922,0.431,15.53-1.983c1.104-0.579,2.162-1.244,3.156-1.997c0.139-0.105,0.275-0.216,0.412-0.324   c3.837-3.047,6.715-7.358,7.912-12.502c2.036-8.74-1.328-17.475-7.912-22.716c-2.531-2.014-5.535-3.514-8.895-4.296   c-6.96-1.62-13.914,0.187-19.105,4.313c-3.834,3.047-6.709,7.356-7.906,12.496C87.89,124.359,91.25,133.092,97.83,138.331z"/>
    <path d="M161.276,165.949c3.2,0.42,6.652,0.682,10.31,0.697c0.048,0,0.096,0.002,0.144,0.002c0.05,0,0.103,0,0.153,0   c6.537,0,13.751-0.869,21.232-3.102v-19.169c-7.942,3.171-15.717,4.25-22.386,4.271c-0.891,0-1.749-0.023-2.588-0.061   c-4.009-0.181-7.439-0.768-10.475-1.505c-1.531-0.371-2.963-0.776-4.31-1.19c-0.201-0.062-0.411-0.123-0.608-0.185   c-1.919-0.597-3.496-1.191-4.672-1.674c-0.262-0.107-0.51-0.211-0.731-0.306c-0.606-0.259-1.052-0.467-1.324-0.599   c-0.132-0.065-0.226-0.109-0.274-0.133l0.001-0.001c-0.793-0.419-1.621-0.703-2.458-0.869c-1.497-0.943-3.21-1.479-5.032-1.479   h-12.151c-0.093,0.066-0.183,0.137-0.277,0.202c-3.986,2.771-8.81,4.373-13.977,4.373c-1.866,0-3.742-0.217-5.573-0.642   c-3.081-0.717-5.931-2.005-8.45-3.761c-0.087-0.06-0.182-0.111-0.269-0.173H85.402c-1.821,0-3.535,0.535-5.031,1.477   c-0.838,0.166-1.667,0.45-2.461,0.87c-0.172,0.095-0.984,0.495-2.324,1.042c-1.338,0.545-3.206,1.236-5.492,1.917   c-1.246,0.371-2.617,0.737-4.094,1.076c-3.08,0.707-6.625,1.287-10.476,1.514c-1.172,0.068-2.37,0.106-3.594,0.104   c-6.593-0.02-13.834-1.076-21.387-4.166v19.065c7.48,2.231,14.695,3.101,21.232,3.101c0.052,0,0.103,0,0.154,0   c0.048,0,0.094-0.002,0.142-0.002c3.657-0.016,7.109-0.277,10.31-0.697c4.059-0.533,7.708-1.319,10.872-2.175   c0.668-0.181,1.319-0.364,1.943-0.55c0.666-0.197,1.301-0.396,1.914-0.596l10.857,46.257c-0.193,0.065-0.38,0.118-0.574,0.188   c-8.129,2.822-17.769,9.032-26.353,20.344c-5.927,7.775-11.437,17.868-16.176,31.035c-2.065,5.739-3.981,12.077-5.723,19.048   c-0.08,0.321-0.164,0.629-0.243,0.952c-0.422,1.723-0.484,3.446-0.25,5.101c0.751,5.301,4.629,9.871,10.148,11.225   c1.08,0.265,2.161,0.392,3.226,0.392c6.071,0,11.588-4.128,13.101-10.287c0.634-2.586,1.289-5.043,1.96-7.382   c6.562-22.847,14.751-34.202,20.884-39.709c0.124-0.111,0.241-0.205,0.363-0.312c3.244-2.84,5.965-4.203,8.042-4.943   c0.526-0.186,1.013-0.329,1.458-0.442c1.373-0.348,2.342-0.394,2.783-0.394c0.095,0,0.15,0.002,0.182,0.004   c4.153,0.577,8.152-0.82,11.033-3.491c2.887,2.678,6.897,4.076,11.06,3.488c0.039-0.001,0.093-0.001,0.159-0.001   c0.441,0,1.41,0.046,2.783,0.394c0.446,0.113,0.933,0.257,1.459,0.442c2.058,0.753,4.804,2.087,8.041,4.936   c1.801,1.586,3.751,3.634,5.825,6.327c5.045,6.595,10.673,17.165,15.423,33.7c0.672,2.339,1.327,4.796,1.96,7.379   c1.512,6.161,7.027,10.29,13.1,10.29c1.064,0,2.146-0.127,3.225-0.392c5.52-1.354,9.396-5.923,10.147-11.225   c0.235-1.654,0.174-3.378-0.248-5.101c-0.079-0.321-0.16-0.634-0.24-0.952c-1.738-6.96-3.655-13.281-5.722-19.022   c-7.044-19.573-15.81-32.403-25.022-40.735c-5.989-5.414-12.11-8.774-17.51-10.669c-0.196-0.069-0.381-0.122-0.574-0.188   l10.857-46.256c0.613,0.199,1.249,0.398,1.916,0.597c1.533,0.455,3.206,0.901,5.001,1.314   C155.859,165.091,158.469,165.581,161.276,165.949z"/>
    <path d="M11.426,67l0.001,55H9.542c-2.762,0-5,2.239-5,5v11.844v5.202v2.442v5.234v27.943c0,2.762,2.238,5,5,5h1.888v9.288h9.999   v-9.288h2.113c2.762,0,5-2.238,5-5v-14.652v-2.099v-19.297v-2.194V127c0-2.761-2.238-5-5-5h-2.113V67   c0.014-8.284,6.717-14.987,15.001-15.001h53.647h7.753V66.62c-2.477,0.743-5.045,1.654-7.552,2.771   c-4.976,2.236-10.256,4.664-14.769,10.021c-4.493,5.342-7.933,12.971-11.03,25.328c-1.563,6.266-4.423,20.4-7.903,38.355   c-0.217,1.12-0.437,2.26-0.658,3.408c3.902-0.265,7.464-0.891,10.501-1.634c3.457-17.835,6.318-31.948,7.761-37.706   c2.902-11.643,5.963-17.764,8.969-21.298c2.989-3.517,6.208-5.091,11.232-7.354c1.113-0.503,2.273-0.962,3.448-1.38v23.47   c3.988-2.775,8.815-4.379,13.985-4.379c1.866,0,3.742,0.218,5.574,0.642c3.122,0.728,5.96,2.031,8.44,3.764V77.134   c1.174,0.418,2.334,0.873,3.449,1.38c5.022,2.263,8.243,3.835,11.232,7.354c3.004,3.532,6.065,9.654,8.967,21.298   c1.436,5.726,4.321,19.935,7.772,37.757c2.914,0.755,6.363,1.42,10.502,1.643c-0.226-1.171-0.449-2.328-0.67-3.47   c-3.48-17.953-6.339-32.09-7.901-38.356c-3.098-12.355-6.538-19.984-11.033-25.326c-4.51-5.358-9.79-7.784-14.766-10.019   c-2.507-1.118-5.075-2.029-7.552-2.773V51.999h1.747h59.652c8.284,0.014,14.987,6.717,15.001,15.001v55h-2.113   c-2.762,0-5,2.239-5,5v14.33v2.202v19.383v2.098v14.653c0,2.762,2.238,5,5,5h2.113v9.288h9.999l0-9.288h1.888c2.762,0,5-2.238,5-5   v-27.948v-5.24v-2.425v-5.205V127c0-2.761-2.238-5-5-5h-1.886l0.002-55c-0.004-13.812-11.192-24.997-25.004-25h-59.652h-1.747V24   h12.333c2.761,0,5-2.238,5-5V5c0-2.762-2.239-5-5-5H85.497c-2.761,0-5,2.238-5,5v14c0,2.762,2.239,5,5,5H97.83v18h-7.753H36.429   C22.618,42.003,11.429,53.188,11.426,67z"/>
  </g>
</svg>