<?xml version="1.0" encoding="utf-8"?>
<svg viewBox="6.189 0 37.622 50" xmlns="http://www.w3.org/2000/svg">
  <g transform="matrix(1, 0, 0, 1, 8.881784197001252e-16, 0)">
    <path fill-rule="evenodd" clip-rule="evenodd" d="M18.5,41.174v5.972h-2.135V50h17.272v-2.854H31.5v-5.972h-2.854v5.972h-7.293   v-5.972H18.5z M15.202,31.369h19.596v-4.465h-8.37v-1.559h8.37V2.13h-4.056V0H19.258v2.13h-4.056v23.215h8.371v1.559h-8.371V31.369   z M8.212,39.825h15.86v-2.126h1.856v2.126h15.86v-2.126h2.023v-2.854h-2.023v-2.126h-15.86v2.126h-1.856v-2.126H8.212v2.126H6.189   v2.854h2.023V39.825z"/>
  </g>
</svg>