<?xml version="1.0" encoding="utf-8"?>
<svg viewBox="0.3897 8.33 63.2203 47.38" xmlns="http://www.w3.org/2000/svg">
  <circle cx="10.02" cy="21.38" r="4.04" transform="matrix(0.7147168516400653, -0.6994139132028424, 0.6994139132028424, 0.7147168516400653, -12.09000015258789, 13.10999965667725)"/>
  <path d="M22.59,35.29l-4.82,4.28-2.24-3.8-.46-5.64a2.92,2.92,0,0,0-3.29-2.66,2.92,2.92,0,0,0-2.5,3.41l.13.72-.15-.15a2.89,2.89,0,0,1-.5-3.33l0-.06a2.89,2.89,0,0,1,.8-1,4.56,4.56,0,0,1,2.64-1,3.88,3.88,0,0,1,1.29.14s1.24.19,4.61,4Z" transform="matrix(1, 0, 0, 1, 8.881784197001252e-16, 8.881784197001252e-16)"/>
  <path d="M26.3,43.86a3.54,3.54,0,0,0,.51-.12,7.55,7.55,0,0,1-1.81,2l-.19.14a2.07,2.07,0,0,1-2.36-.58l-4.13-4.5,5.19-4.6.54.64-.95,1a3.6,3.6,0,0,0,2.9,6Z" transform="matrix(1, 0, 0, 1, 8.881784197001252e-16, 8.881784197001252e-16)"/>
  <path d="M41.6,30.41a2.21,2.21,0,0,1-1.16,1.28L32,35.54l-4,6.21a2.68,2.68,0,1,1-4.23-3.24l5.11-5.63a3.42,3.42,0,0,1,1-.65L39,28.07a2,2,0,0,1,2.55.88A1.85,1.85,0,0,1,41.6,30.41Z" transform="matrix(1, 0, 0, 1, 8.881784197001252e-16, 8.881784197001252e-16)"/>
  <path d="M17.89,42.67a1.69,1.69,0,0,1-3.08.36l-3.5-5.94-1.13-6.38a2,2,0,1,1,4-.51L14.63,36l1.44,2.45,1.66,2.82A1.69,1.69,0,0,1,17.89,42.67Z" transform="matrix(1, 0, 0, 1, 8.881784197001252e-16, 8.881784197001252e-16)"/>
  <path d="M62.21,8.33a1.4,1.4,0,0,0-1.4,1.4V16.9l-1.89,1.67a10.09,10.09,0,0,1,.87,3l1-.89v30a2.26,2.26,0,0,1-2.25,2.25H24.33L47.16,32.7l-.56-.17a10.11,10.11,0,0,1-2.27-1.07l-23,20.3L2.82,31.68a1.4,1.4,0,0,0-2.06,1.9l18.43,20a1.4,1.4,0,0,0,1.19,2.13H58.56a5.06,5.06,0,0,0,5.05-5.05V9.73A1.4,1.4,0,0,0,62.21,8.33Z" transform="matrix(1, 0, 0, 1, 8.881784197001252e-16, 8.881784197001252e-16)"/>
  <circle cx="49.75" cy="22.9" r="3.51" transform="matrix(0.9964341980352078, -0.0843735087923475, 0.0843735087923475, 0.9964341980352078, -1.7499999999999991, 4.2800002098083505)"/>
  <path d="M45.5,30.43a8.6,8.6,0,0,0,1.56.69,8.49,8.49,0,0,0,1.49.35,8.64,8.64,0,0,0,1.92.05q.39,0,.77-.1a8.64,8.64,0,0,0,7.15-8.64c0-.2,0-.4,0-.6a8.64,8.64,0,0,0-9.47-7.87,8.76,8.76,0,0,0-7.77,9.14A8.63,8.63,0,0,0,45.5,30.43Zm-1.32-7.94a5.58,5.58,0,0,1,11-.65,5.7,5.7,0,0,1,.09,1.48,5.58,5.58,0,0,1-11.14-.83Z" transform="matrix(1, 0, 0, 1, 8.881784197001252e-16, 8.881784197001252e-16)"/>
</svg>