<?xml version="1.0" encoding="utf-8"?>
<svg viewBox="0 0 223.659 298.5" xmlns="http://www.w3.org/2000/svg">
  <g>
    <path d="M156.597,287.357c-0.679-2.774-1.382-5.39-2.101-7.857H117.83v-34.168h12.5c2.199,0,4.045-1.429,4.715-3.401   c-2.75-2.627-5.542-4.456-8.441-5.516c-1.807-0.639-3.065-0.714-3.537-0.717c-0.683,0.088-1.373,0.136-2.056,0.136   c-3.321,0-6.522-1.064-9.18-3.028c-2.658,1.961-5.859,3.024-9.176,3.024c-0.67,0-1.343-0.04-2.009-0.129   c-0.557,0-1.808,0.085-3.605,0.721c-2.601,0.928-5.132,2.515-7.735,4.857c-0.228,0.204-0.459,0.42-0.693,0.643   c0.667,1.978,2.516,3.411,4.718,3.411h12.5V279.5H69.168c-0.719,2.477-1.421,5.088-2.1,7.857   c-1.34,5.449-5.434,9.599-10.581,11.143h110.689C162.028,296.955,157.934,292.806,156.597,287.357z"/>
    <path d="M38.758,291.699c-2.148-3.541-2.787-7.704-1.798-11.722c0.04-0.161,0.082-0.316,0.122-0.478H5c-2.761,0-5,2.238-5,5v14   h47.582C43.889,297.398,40.771,295.016,38.758,291.699z"/>
    <path d="M176.076,298.5h47.583v-14c0-2.762-2.239-5-5-5h-32.075c0.04,0.161,0.083,0.315,0.123,0.478   C188.676,288.026,183.932,296.154,176.076,298.5z"/>
    <path d="M55.999,32C56.013,23.716,62.716,17.013,71,16.999h9.497V19c0,2.762,2.239,5,5,5h18.083v56.332v2H60.654l-4.655,1.615   l-10.002,3.469l-8.952,3.105l-1.913,0.664l-17.082,5.926l-1.889,0.655l-5.302,1.839c-2.61,0.904-3.989,3.755-3.085,6.364   c0.904,2.609,3.755,3.989,6.364,3.085l6.754-2.344l1.913-0.663l17.33-6.013l1.93-0.67l3.932-1.364l10.001-3.47l6.344-2.201h98.986   l6.331,2.197l10.002,3.471l3.933,1.364l1.93,0.67l17.331,6.014l1.914,0.664l6.756,2.345c0.542,0.188,1.096,0.277,1.639,0.277   c2.071,0,4.009-1.296,4.725-3.362c0.904-2.609-0.476-5.456-3.085-6.361v-0.003l-5.303-1.84l-1.891-0.655l-17.082-5.926   l-1.915-0.664l-8.952-3.105l-10.002-3.47l-4.653-1.614H120.08v-2V24h18.083c2.761,0,5-2.238,5-5v-2.001h9.497   c8.283,0.014,14.987,6.717,15,15.001v49.829l10.003,3.469L177.663,32C177.66,18.188,166.471,7.003,152.66,7h-9.497V5   c0-2.762-2.239-5-5-5H85.497c-2.761,0-5,2.238-5,5v2H71C57.189,7.003,46,18.188,45.997,32l0,53.3l10.002-3.469V32z M115.08,80.332   v2h-6.5v-2V24h6.5V80.332z"/>
    <path d="M55.999,150.399c-3.348-2.566-6.684-5.563-10.001-8.986L46,252.11c2.993-7.103,6.327-13.465,10-19.031V150.399z"/>
    <path d="M55.999,119.554V96.65l-10.001,3.47v5.574C49.582,111.238,52.938,115.804,55.999,119.554z"/>
    <path d="M177.662,105.708v-5.591l-10.002-3.471v22.925C170.761,115.776,174.111,111.207,177.662,105.708z"/>
    <path d="M167.66,233.112c3.676,5.566,7.012,11.896,10,18.978l0.001-110.677c-3.317,3.425-6.653,6.422-10.001,8.987V233.112z"/>
    <path d="M22.361,86.395c-3.283,1.755-5.034,5.254-4.723,8.742l16.497-5.723C31.613,85.545,26.51,84.177,22.361,86.395z"/>
    <path d="M201.301,86.395c-4.149-2.218-9.251-0.851-11.773,3.018l16.496,5.721C206.334,91.647,204.583,88.149,201.301,86.395z"/>
    <path d="M46,295.744c0.764,0.38,1.575,0.688,2.426,0.922c0.125,0.034,0.245,0.08,0.372,0.111c1.079,0.265,2.161,0.392,3.225,0.392   c1.235,0,2.444-0.179,3.604-0.503c0.125-0.035,0.249-0.073,0.372-0.112c4.374-1.358,7.953-4.9,9.124-9.672   c0.634-2.586,1.289-5.043,1.96-7.382c6.563-22.847,14.751-34.202,20.884-39.709c0.123-0.111,0.241-0.205,0.363-0.312   c3.244-2.84,5.966-4.203,8.042-4.943c2.149-0.758,3.658-0.836,4.242-0.836c0.094,0,0.149,0.002,0.182,0.004   c4.153,0.577,8.152-0.82,11.033-3.491c2.886,2.678,6.897,4.076,11.059,3.488c0.039-0.001,0.093-0.001,0.159-0.001   c0.584,0,2.092,0.078,4.242,0.836c2.059,0.753,4.804,2.087,8.041,4.936c1.801,1.585,3.752,3.634,5.826,6.327   c5.044,6.595,10.672,17.165,15.422,33.7c0.672,2.339,1.327,4.796,1.96,7.379c1.171,4.772,4.749,8.315,9.122,9.675   c0.124,0.038,0.248,0.077,0.373,0.112c1.16,0.324,2.369,0.503,3.604,0.503c1.064,0,2.146-0.127,3.226-0.392   c0.127-0.031,0.246-0.077,0.371-0.111c0.851-0.234,1.662-0.542,2.425-0.921c5.534-2.748,8.633-9.04,7.103-15.293   c-0.079-0.321-0.16-0.634-0.24-0.952c-2.054-8.225-4.358-15.563-6.862-22.1c-3.068-8.008-6.434-14.821-10-20.611   c-4.385-7.118-9.072-12.696-13.881-17.046c-5.989-5.414-12.11-8.774-17.511-10.669c-0.195-0.069-0.381-0.122-0.574-0.188   l11.389-48.522l0.502-2.14c0.682-0.145,1.416-0.33,2.186-0.549c4.263-1.213,9.814-3.661,16.153-8.451   c0.572-0.43,1.151-0.883,1.736-1.351c3.154-2.52,6.497-5.595,10.001-9.349c6.84-7.327,14.295-17.248,22.17-30.715l-17.358-6.023   c-1.638,2.704-3.243,5.222-4.811,7.565c-3.536,5.283-6.885,9.685-10.002,13.345c-4.78,5.612-9.017,9.489-12.548,12.136   c-4.108,3.079-7.261,4.538-9.342,5.251c-0.52,0.178-0.974,0.309-1.361,0.405c-0.389,0.098-0.711,0.161-0.965,0.203   c-0.395,0.065-0.603,0.074-0.677,0.078c-0.771-0.044-1.523,0.021-2.251,0.166c-0.728-0.184-1.482-0.287-2.257-0.287h-2.169h-9.982   c-4.039,2.893-8.965,4.575-14.254,4.575c-1.866,0-3.742-0.217-5.573-0.642c-3.188-0.742-6.136-2.083-8.718-3.934h-9.995h-2.164   c-0.776,0-1.53,0.104-2.258,0.287c-0.734-0.146-1.494-0.211-2.273-0.165c-0.09-0.004-0.294-0.02-0.654-0.079   c-0.248-0.043-0.573-0.11-0.957-0.206c-2.325-0.578-7.092-2.356-13.962-8.285c-2.787-2.41-5.906-5.52-9.299-9.504   c-3.117-3.66-6.466-8.064-10.001-13.349c-1.568-2.344-3.172-4.854-4.81-7.559l-17.357,6.023   c7.874,13.465,15.329,23.385,22.168,30.711c3.504,3.754,6.847,6.829,10.001,9.35c0.585,0.468,1.166,0.921,1.738,1.352   c6.341,4.791,11.894,7.24,16.158,8.452c0.768,0.219,1.5,0.403,2.181,0.547l0.502,2.141l11.389,48.522   c-0.193,0.065-0.379,0.118-0.574,0.188c-8.128,2.822-17.769,9.032-26.353,20.344c-1.719,2.256-3.401,4.716-5.041,7.379   c-3.57,5.797-6.933,12.604-10,20.612c-2.5,6.528-4.801,13.862-6.857,22.092c-0.08,0.321-0.164,0.629-0.243,0.952   C37.365,286.701,40.466,292.995,46,295.744z"/>
    <path d="M133.742,125.825c2.818-12.1-4.707-24.193-16.807-27.012c-12.1-2.816-24.193,4.709-27.012,16.809   c-2.076,8.919,1.472,17.83,8.324,23.029c0.981,0.744,2.025,1.416,3.135,1.997c1.655,0.866,3.445,1.54,5.349,1.983   c5.463,1.272,10.922,0.431,15.53-1.983c1.105-0.579,2.162-1.244,3.157-1.997C129.463,135.59,132.502,131.151,133.742,125.825z"/>
  </g>
</svg>