<?xml version="1.0" encoding="utf-8"?>
<svg viewBox="8.9 21.3 82.2 57.4" xmlns="http://www.w3.org/2000/svg">
  <g transform="matrix(1, 0, 0, 1, 1.7763568394002505e-15, 0)">
    <circle cx="15.3" cy="34.7" r="1.3"/>
    <path d="M45.5,28.5c0.6,1.3,1.8,2.2,3.1,2.6c0.4,0.1,0.9,0.2,1.4,0.2c1.9,0,3.7-1.1,4.5-2.8c0.3-0.7,0.5-1.5,0.5-2.2   c0-2.8-2.3-5-5-5s-5,2.3-5,5C45,27.1,45.1,27.8,45.5,28.5L45.5,28.5z"/>
    <path d="M72.2,27.4c-1.3-0.6-2.8-0.8-4.3-0.4L59,29.5h-3.5c0,0.1-0.1,0.1-0.1,0.2c-0.1,0.1-0.1,0.2-0.2,0.3   c-0.1,0.1-0.2,0.2-0.3,0.4c-0.1,0.1-0.2,0.2-0.3,0.3c-0.1,0.1-0.2,0.2-0.3,0.3c-0.1,0.1-0.2,0.2-0.3,0.3c-0.1,0.1-0.3,0.2-0.4,0.3   c-0.1,0.1-0.2,0.1-0.3,0.2c-0.1,0.1-0.3,0.2-0.4,0.2c-0.1,0.1-0.2,0.1-0.3,0.2c-0.2,0.1-0.3,0.1-0.5,0.2c-0.1,0-0.2,0.1-0.3,0.1   c-0.2,0.1-0.4,0.1-0.6,0.1c-0.1,0-0.2,0-0.3,0.1c-0.3,0-0.6,0.1-0.9,0.1s-0.6,0-0.9-0.1c-0.1,0-0.2,0-0.3-0.1   c-0.2,0-0.4-0.1-0.6-0.1c-0.1,0-0.2-0.1-0.3-0.1c-0.2-0.1-0.3-0.1-0.5-0.2c-0.1,0-0.2-0.1-0.3-0.2c-0.1-0.1-0.3-0.1-0.4-0.2   c-0.1-0.1-0.2-0.1-0.3-0.2c-0.1-0.1-0.3-0.2-0.4-0.3c-0.1-0.1-0.2-0.2-0.3-0.3c-0.1-0.1-0.2-0.2-0.3-0.3c-0.1-0.1-0.2-0.2-0.3-0.3   c-0.1-0.1-0.2-0.2-0.3-0.4c-0.1-0.1-0.1-0.2-0.2-0.3c0-0.1-0.1-0.1-0.1-0.2l-3.7,0L32,27c-1.4-0.4-2.9-0.3-4.3,0.4l-6.1,3   c0,0,0,0.1,0.1,0.1c0.1,0.2,0.2,0.4,0.4,0.6c0,0.1,0.1,0.1,0.1,0.2c0.1,0.3,0.2,0.5,0.3,0.8c0,0,0,0.1,0,0.1   c0.1,0.2,0.2,0.5,0.2,0.7c0,0.1,0,0.2,0.1,0.2c0.1,0.2,0.1,0.5,0.1,0.7c0,0,0,0.1,0,0.1l3.5-1.3c1.3-0.5,2.7-0.5,4-0.2l6.1,1.7   c2.4,0.7,4.3,2.5,5.1,4.9l3,8l-2.8,3c-0.3,0.3-0.5,0.8-0.4,1.2c0.1,1,0.3,3.4,0.8,10.1l1.4,17.3h5.8V51.3h1.3v27.4h5.8   c0.3-3.6,1.8-22.5,2.2-26.8c0-0.4-0.1-0.8-0.3-1.1l-2.9-3.7l3-8c0.7-2.4,2.6-4.2,5-4.9l6.1-1.7c1.3-0.4,2.7-0.3,4,0.2l3.5,1.3   c0,0,0-0.1,0-0.1c0-0.2,0.1-0.5,0.1-0.7c0-0.1,0-0.2,0.1-0.2c0.1-0.2,0.1-0.5,0.2-0.7c0,0,0-0.1,0-0.1c0.1-0.3,0.2-0.5,0.3-0.8   c0-0.1,0.1-0.1,0.1-0.2c0.1-0.2,0.2-0.4,0.3-0.6c0,0,0-0.1,0.1-0.1L75.6,29C73.6,28.1,72.9,27.7,72.2,27.4z"/>
    <path d="M15.3,28.3c-3.5,0-6.4,2.9-6.4,6.4s2.9,6.4,6.4,6.4c3.1,0,5.7-2.2,6.2-5.2l0,0l0.1-1.1c0,0,0,0,0,0c0,0,0-0.1,0-0.1   c0-1.5-0.5-3-1.5-4.1C19,29.1,17.2,28.3,15.3,28.3z M15.3,37.3c-1.5,0-2.6-1.2-2.6-2.6s1.2-2.6,2.6-2.6s2.6,1.2,2.6,2.6   S16.8,37.3,15.3,37.3z"/>
    <path d="M84.7,28.3c-1.9,0-3.6,0.8-4.8,2.2l0,0c-0.7,0.8-1.2,1.9-1.4,2.9c0,0.2-0.1,0.4-0.1,0.6c0,0.2,0,0.4,0,0.6c0,0,0,0.1,0,0.1   l0.1,1.1l0,0c0.6,3,3.1,5.2,6.2,5.2c3.5,0,6.4-2.9,6.4-6.4S88.2,28.3,84.7,28.3z M84.7,37.3c-1.5,0-2.6-1.2-2.6-2.6   s1.2-2.6,2.6-2.6s2.6,1.2,2.6,2.6S86.1,37.3,84.7,37.3z"/>
    <circle cx="84.7" cy="34.7" r="1.3"/>
  </g>
</svg>