<?xml version="1.0" encoding="utf-8"?>
<svg viewBox="8.489 13.891 73.209 99.035" style="enable-background:new 0 0 128 128;" xmlns="http://www.w3.org/2000/svg">
  <g transform="matrix(1, 0, 0, 1, 0, 3.552713678800501e-15)">
    <path d="M39.138,92.871c-4.139,4.309-11.543,11.125-16.955,11.125c-0.303,0-0.598-0.03-0.888-0.074   c-2.711,9.144-3.76,16.23-3.099,21.06l27.88,0.017C49.21,119.09,51,110.751,51,101.997c0-7.027-1.163-13.801-3.268-19.289   C45.01,86.33,42.093,89.795,39.138,92.871z"/>
    <path d="M19.376,103.346c-3.096-1.308-5.729-4.217-7.673-8.515c-0.469-1.036-0.875-2.154-1.254-3.305   c-5.797,12.112-7.141,29.135-7.396,33.471h13.133C15.536,119.848,16.587,112.738,19.376,103.346z"/>
    <path d="M104.882,43.249c-6.423-18.162-3.419-35.531-2.393-40.252H85.609C82.571,8.586,74.35,15.258,68.983,19.232   c3.998,2.109,9.275,6.083,14.801,10.247C91.022,34.931,99.09,41.005,104.882,43.249z"/>
    <path d="M51.497,77.413c-0.763,1.138-1.552,2.271-2.362,3.394c2.152,5.108,3.468,11.412,3.786,18.047   c0.029,0.03,0.066,0.048,0.092,0.082c2.29,3.052,4.915,5.851,7.786,8.37c0.415-1.298,0.868-2.492,1.327-3.562   C56.433,96.029,52.762,86.998,51.497,77.413z"/>
    <path d="M21.294,101.892c6.725,1.715,25.084-17.237,34.458-35.562c5.2-10.165,6.624-20.788,3.908-29.146   c-1.701-5.234-4.942-9.189-9.373-11.438c-1.001-0.508-2.242-0.756-3.659-0.756c-8.55,0-23.548,9.012-31.345,24.251   c-6.331,12.376-7.137,32.876-1.759,44.767C15.501,98.377,18.188,101.104,21.294,101.892z"/>
    <path d="M53.215,74.768c1.202,13.667,7.445,26.333,17.579,35.664c10.199,9.393,23.457,14.564,37.331,14.564H125V98.641   c-27.725-1.888-50.797-11.727-68.61-29.254C55.417,71.164,54.353,72.965,53.215,74.768z M102,105.997c5.131,0,9,2.149,9,5   s-3.869,5-9,5s-9-2.149-9-5S96.869,105.997,102,105.997z"/>
    <path d="M116.966,53.41c-2.322-3.306-4.517-6.429-9.898-7.43c-6.246-1.162-15.519-8.148-24.486-14.904   c-6.73-5.071-13.088-9.86-16.897-11.131c-3.31-1.102-8.867,0.07-16.173,3.389c0.596,0.157,1.159,0.363,1.681,0.627   c4.916,2.494,8.502,6.852,10.371,12.603c2.879,8.86,1.41,20.04-4.029,30.675c-0.053,0.105-0.112,0.211-0.166,0.316   C74.857,84.968,97.608,94.743,125,96.635V60.699C120.987,59.134,118.944,56.227,116.966,53.41z"/>
    <path d="M63.537,105.57c-1.876,4.763-3.478,11.632-1.868,19.427h31.484c-8.768-2.376-16.901-6.82-23.714-13.093   C67.298,109.932,65.333,107.809,63.537,105.57z"/>
    <path d="M104.537,2.997c-0.876,3.821-4.432,22.139,2.744,40.98c0.049,0.01,0.103,0.028,0.152,0.037   c6.185,1.15,8.719,4.758,11.17,8.247c1.747,2.487,3.412,4.852,6.397,6.259V2.997H104.537z"/>
    <ellipse cx="102" cy="110.997" rx="7" ry="3"/>
  </g>
</svg>