<?xml version="1.0" encoding="utf-8"?>
<svg viewBox="10.396 10.534 141.627 141.631" xmlns="http://www.w3.org/2000/svg">
  <path d="M81.208,10.534c-39.109,0-70.812,31.705-70.812,70.815s31.702,70.816,70.812,70.816c39.111,0,70.815-31.706,70.815-70.816  S120.319,10.534,81.208,10.534z M48.487,112.389c2.069,2.16,4.514,3.244,7.333,3.244c2.758,0,5.373-1.301,7.852-3.903h6.719  c-1.16,2.791-3.07,5.038-5.732,6.745c-2.664,1.707-5.578,2.563-8.742,2.563c-4.483,0-8.327-1.615-11.54-4.844  c-3.21-3.225-4.818-7.079-4.818-11.561c0-4.419,1.591-8.216,4.771-11.397c3.18-3.181,6.996-4.771,11.444-4.771  c4.543,0,8.46,1.663,11.751,4.982c1.254,1.254,2.273,2.79,3.054,4.606h-6.579c-1.349-1.566-2.75-2.657-4.205-3.267  c-1.457-0.611-2.86-0.917-4.208-0.917c-2.759,0-5.146,1.083-7.168,3.243c-2.018,2.162-3.03,4.701-3.03,7.614  C45.388,107.672,46.421,110.227,48.487,112.389z M89.568,118.075c-1.974,1.976-4.372,2.963-7.192,2.963  c-2.819,0-5.193-0.911-7.119-2.728c-1.928-1.815-2.954-4.104-3.079-6.862h6.063c0.03,1.255,0.43,2.265,1.197,3.032  c0.769,0.767,1.795,1.153,3.08,1.153c1.251,0,2.27-0.37,3.055-1.106c0.782-0.735,1.175-1.684,1.175-2.844  c0-2.036-1.41-3.57-4.229-4.606c-2.257-0.814-3.753-1.41-4.49-1.784c-0.735-0.379-1.434-0.894-2.091-1.554  c-1.755-1.722-2.632-3.837-2.632-6.345c0-2.441,0.902-4.542,2.702-6.298c1.801-1.755,3.956-2.632,6.461-2.632  c2.569,0,4.726,0.848,6.464,2.539c1.739,1.691,2.687,3.824,2.845,6.391h-6.017c-0.188-2.351-1.332-3.524-3.432-3.524  c-0.971,0-1.756,0.289-2.35,0.87c-0.596,0.579-0.893,1.354-0.893,2.328c0,1.031,0.345,1.831,1.033,2.395  c0.688,0.564,2.099,1.223,4.23,1.975c2.443,0.847,4.229,1.803,5.359,2.868c1.879,1.756,2.82,3.946,2.82,6.579  C92.53,113.705,91.541,116.103,89.568,118.075z M110.626,120.425h-4.748L93.657,89.077h6.109l8.461,23.827l8.46-23.827h6.063  L110.626,120.425z M82.95,19.978c33.113,0.926,59.673,28.037,59.673,61.371c0,0.152-0.008,0.301-0.011,0.454  C111.223,77.058,86.607,51.712,82.95,19.978z"/>
</svg>