<?xml version="1.0" encoding="utf-8"?>
<svg viewBox="9.8 10.691 141.732 141.733" xmlns="http://www.w3.org/2000/svg">
  <g>
    <path d="M74.046,92.585c-1.757-0.667-4.127-1.003-7.111-1.003h-1.212v23.021h1.37c3.722,0,6.567-0.581,8.534-1.742   c3.512-2.076,5.269-5.299,5.269-9.664c0-2.357-0.632-4.521-1.897-6.493C77.733,94.734,76.083,93.36,74.046,92.585z"/>
    <path d="M80.667,10.691C41.528,10.691,9.8,42.419,9.8,81.557s31.728,70.867,70.866,70.867c39.137,0,70.866-31.729,70.866-70.867   S119.804,10.691,80.667,10.691z M53.291,102.488c-1.158,1.931-2.652,3.248-4.478,3.95c-1.44,0.563-3.934,0.843-7.48,0.843H39.12   v13.382h-6.532V85.526h8.85c2.598,0,4.442,0.103,5.531,0.315c1.792,0.386,3.389,1.228,4.793,2.528   c2.177,2.036,3.267,4.634,3.267,7.796C55.029,98.449,54.45,100.555,53.291,102.488z M84.45,113.232   c-1.949,2.987-4.504,5.023-7.665,6.111c-2.529,0.878-5.689,1.319-9.482,1.319H59.19V85.526h8.007   c6.356,0,11.149,1.366,14.382,4.107c1.754,1.511,3.162,3.495,4.215,5.953c1.053,2.459,1.58,4.986,1.58,7.585   C87.374,106.893,86.398,110.249,84.45,113.232z M110.133,91.582H98.752v8.641h10.854v6.058H98.752v14.383h-6.531V85.526h17.912   V91.582z M82.407,20.142c33.138,0.924,59.719,28.057,59.719,61.415c0,0.151-0.01,0.301-0.014,0.453   C110.702,77.264,86.067,51.897,82.407,20.142z"/>
    <path d="M46.917,92.647c-1.09-0.709-2.916-1.065-5.479-1.065H39.12v9.642h2.054c4.917,0,7.375-1.668,7.375-5.006   C48.549,94.547,48.004,93.358,46.917,92.647z"/>
  </g>
</svg>