<?xml version="1.0" encoding="utf-8"?>
<svg viewBox="10.301 10.691 141.732 141.733" xmlns="http://www.w3.org/2000/svg">
  <path d="M81.167,10.691c-39.139,0-70.866,31.728-70.866,70.866s31.728,70.867,70.866,70.867c39.137,0,70.866-31.729,70.866-70.867  S120.304,10.691,81.167,10.691z M51.181,90.546h-6.712v30.117h-6.71V90.546h-6.765v-6.276h20.188V90.546z M84.406,120.663h-7.801  l-8.784-12.549l-8.458,12.549h-8.021l12.549-18.116L51.343,84.269h8.021l8.458,12.714l8.784-12.714h7.801l-12.603,18.277  L84.406,120.663z M104.705,90.546h-6.713v30.117h-6.71V90.546h-6.766v-6.276h20.188V90.546z M82.907,20.142  c33.138,0.924,59.719,28.057,59.719,61.415c0,0.151-0.01,0.301-0.014,0.453C111.202,77.264,86.567,51.897,82.907,20.142z"/>
</svg>