<?xml version="1.0" encoding="utf-8"?>
<svg viewBox="10.492 10.534 141.628 141.631" xmlns="http://www.w3.org/2000/svg">
  <path d="M81.306,10.534c-39.112,0-70.814,31.705-70.814,70.815s31.702,70.816,70.814,70.816c39.108,0,70.814-31.706,70.814-70.816  S120.414,10.534,81.306,10.534z M72.111,120.425h-7.8l-8.775-12.539l-8.452,12.539h-8.015l12.541-18.099L39.069,84.062h8.015  l8.452,12.7l8.775-12.7h7.8l-12.596,18.264L72.111,120.425z M92.883,120.425h-17.83V84.062h6.763v30.095h11.067V120.425z   M114.962,117.701c-2.288,2.289-5.072,3.433-8.343,3.433c-3.269,0-6.022-1.055-8.258-3.161c-2.237-2.108-3.427-4.761-3.574-7.961  h7.037c0.035,1.453,0.498,2.627,1.388,3.518c0.893,0.892,2.082,1.337,3.573,1.337c1.45,0,2.634-0.429,3.543-1.282  c0.907-0.855,1.361-1.954,1.361-3.299c0-2.363-1.634-4.144-4.904-5.343c-2.618-0.945-4.355-1.636-5.207-2.072  c-0.855-0.435-1.664-1.036-2.429-1.801c-2.035-1.997-3.052-4.449-3.052-7.357c0-2.835,1.044-5.271,3.137-7.308  c2.089-2.034,4.587-3.054,7.495-3.054c2.979,0,5.479,0.982,7.497,2.946c2.017,1.962,3.116,4.433,3.299,7.415h-6.981  c-0.216-2.729-1.543-4.091-3.978-4.091c-1.129,0-2.037,0.338-2.728,1.01c-0.689,0.672-1.033,1.571-1.033,2.699  c0,1.198,0.397,2.126,1.197,2.779c0.798,0.653,2.437,1.418,4.907,2.291c2.836,0.98,4.906,2.089,6.215,3.325  c2.183,2.036,3.271,4.579,3.271,7.633C118.396,112.629,117.254,115.409,114.962,117.701z M83.045,19.978  c33.113,0.926,59.675,28.037,59.675,61.371c0,0.152-0.008,0.301-0.013,0.454C111.319,77.058,86.704,51.712,83.045,19.978z"/>
</svg>