<?xml version="1.0" encoding="utf-8"?>
<svg viewBox="22.46 21.82 467.0799 468.36" xmlns="http://www.w3.org/2000/svg">
  <path d="M37,327.91a151.36,151.36,0,0,0,30.63-5.74,4.44,4.44,0,0,0,2.77-5.84c-7.4-19.24-8.59-34.15-8.67-35.24a8.8,8.8,0,0,1,17.55-1.27c0,.58,3.6,42.14,35.57,73.44A164.91,164.91,0,0,1,139.78,384c4.33,7,7.23,12,8.86,15.28a8.79,8.79,0,1,1-15.73,7.86c-.95-1.89-3.12-5.84-8.1-13.88-.16-.27-.33-.54-.5-.81a4.4,4.4,0,0,0-8.12,2.36V470a20.16,20.16,0,0,0,20.15,20.16H238.19a9,9,0,0,0,9-9V440.65a9,9,0,0,1,8.53-9.16,8.8,8.8,0,0,1,9.07,8.8v40.89a9,9,0,0,0,9,9H375.66A20.16,20.16,0,0,0,395.81,470V393.82a4.41,4.41,0,0,0-8.12-2.36c-.39.61-.77,1.22-1.15,1.83-5,8-7.15,12-8.1,13.89a8.8,8.8,0,1,1-15.73-7.88c1.61-3.23,4.6-8.36,8.86-15.26a164.65,164.65,0,0,1,24.93-30.78c32-31.36,35.54-73,35.57-73.44a8.8,8.8,0,0,1,17.55,1.27c-.08,1.09-1.26,15.91-8.6,35.06a4.43,4.43,0,0,0,2.74,5.82c10.63,3.43,22.32,5.12,31.23,5.94a13.31,13.31,0,0,0,14.55-13.25V127.57c-16.7-24.16-40.48-30.47-57.62-31.48a16.52,16.52,0,0,0-12.36,4.55c-.94.89-1.87,1.82-2.78,2.8a74.54,74.54,0,0,1-18.32,14.65,70.17,70.17,0,0,1-13.74,6,8.8,8.8,0,0,1-11.2-7,9,9,0,0,1,6.34-9.94,53.33,53.33,0,0,0,10-4.49c2.72-1.51,7-5.06,10.27-8a6.34,6.34,0,0,0,.27-9.2c-20.63-21-47-27.43-64.29-29.3a5,5,0,0,0-5.49,5.65c.18,1.37.37,2.74.57,4.09a9,9,0,0,1-7,10.31,8.56,8.56,0,0,1-1.66.16A8.79,8.79,0,0,1,313.89,69a364.32,364.32,0,0,1-3.42-42.33,5,5,0,0,0-5-4.85H205.88a5,5,0,0,0-5,4.85A360,360,0,0,1,197.46,69a8.77,8.77,0,0,1-10.29,7.33,9,9,0,0,1-7-10.31c.2-1.35.39-2.72.57-4.09a5,5,0,0,0-5.52-5.59c-17.36,2-43.54,8.61-63.95,29.57a6.36,6.36,0,0,0,.34,9.22c3.18,2.77,7.23,6.12,9.89,7.6a53.11,53.11,0,0,0,10,4.49,9,9,0,0,1,6.33,9.94,8.8,8.8,0,0,1-11.2,7,70.43,70.43,0,0,1-13.74-6,74.72,74.72,0,0,1-18.32-14.65q-1.35-1.44-2.73-2.76a16.54,16.54,0,0,0-12.48-4.54c-17.08,1.14-40.43,7.6-56.9,31.43V314.66A13.3,13.3,0,0,0,37,327.91Zm243-175A8.79,8.79,0,0,1,290.22,160c5.16,29.37,21,81.19,69.47,98.31a8.8,8.8,0,0,1-2.94,17.09,8.61,8.61,0,0,1-2.93-.51c-56.86-20.1-75.11-78.7-80.92-111.84A8.79,8.79,0,0,1,280,152.9ZM247.2,236.2a8.8,8.8,0,0,1,17.6,0V383.75a8.8,8.8,0,0,1-17.6,0Zm-95.53,22.15C200.1,241.23,216,189.41,221.13,160a8.8,8.8,0,1,1,17.33,3.05c-5.82,33.14-24.07,91.74-80.93,111.84a8.61,8.61,0,0,1-2.93.51,8.8,8.8,0,0,1-2.93-17.09Z" transform="matrix(1, 0, 0, 1, 7.105427357601002e-15, 1.4210854715202004e-14)"/>
</svg>