<?xml version="1.0" encoding="utf-8"?>
<svg viewBox="21.8099 23.06 468.4203 465.86" xmlns="http://www.w3.org/2000/svg">
  <path d="M36.45,328.53A73.84,73.84,0,0,0,62.5,317.84a6.52,6.52,0,0,0,2.26-8.46A78.64,78.64,0,0,1,60,298.5a8.8,8.8,0,0,1,16.74-5.44c.16.49,12.38,36.21,46.77,43.87a8.79,8.79,0,0,1,6.88,8.5c0,.21.57,23.7,16.51,28.92a9,9,0,0,1,6.18,9.94,8.81,8.81,0,0,1-11.33,6.88c-21-6.66-26.77-27.73-28.35-38.75a75,75,0,0,1-22.1-11.22,3.77,3.77,0,0,0-5.91,3.89c4.9,20.57,13.09,44.26,26.43,58.93v70.27a14.61,14.61,0,0,0,14.62,14.62h21.65a6.52,6.52,0,0,0,6.53-6.52V458a31,31,0,0,0-4.41-16.67A8.79,8.79,0,0,1,153.38,429a9.08,9.08,0,0,1,12,3.51A47.55,47.55,0,0,1,172.24,457v25.4a6.53,6.53,0,0,0,6.53,6.52H333.23a6.53,6.53,0,0,0,6.53-6.52V457a47.55,47.55,0,0,1,6.82-24.53,9.07,9.07,0,0,1,12-3.51,8.79,8.79,0,0,1,3.14,12.41A31,31,0,0,0,357.35,458v24.36a6.52,6.52,0,0,0,6.53,6.52h21.65a14.61,14.61,0,0,0,14.62-14.62V404c13.34-14.67,21.53-38.36,26.43-58.93a3.77,3.77,0,0,0-5.91-3.89,74.9,74.9,0,0,1-22.1,11.22c-1.58,11-7.35,32.09-28.35,38.75a8.81,8.81,0,0,1-11.33-6.88,9,9,0,0,1,6.18-9.94c15.94-5.22,16.51-28.71,16.51-29a8.82,8.82,0,0,1,6.89-8.47c34.44-7.67,46.65-43.51,46.76-43.87A8.8,8.8,0,0,1,452,298.5a76.47,76.47,0,0,1-4.72,10.88,6.52,6.52,0,0,0,2.26,8.46,73.84,73.84,0,0,0,26.05,10.69,12.39,12.39,0,0,0,14.64-12.24V137.18a12.39,12.39,0,0,0-2.45-7.42C455.06,86,399,95.24,399,95.24,379.21,53.82,322.19,57,322.19,57V35a11.93,11.93,0,0,0-11.94-11.94H201.75A11.93,11.93,0,0,0,189.81,35V57s-57-3.18-76.82,38.24c0,0-56-9.23-88.73,34.52a12.39,12.39,0,0,0-2.45,7.42V316.29A12.39,12.39,0,0,0,36.45,328.53ZM294.87,458a39,39,0,0,1-7.22.67,40.64,40.64,0,0,1-26.91-10.28,40.18,40.18,0,0,1-4.74-5,40.18,40.18,0,0,1-4.74,5,40.69,40.69,0,0,1-26.91,10.28,39,39,0,0,1-7.22-.67,8.8,8.8,0,0,1,3.28-17.29,22.86,22.86,0,0,0,26.79-22.51v-9a8.8,8.8,0,0,1,17.6,0v9a22.86,22.86,0,0,0,26.79,22.51A8.8,8.8,0,0,1,294.87,458Zm-22.43-84.74a22.71,22.71,0,0,0,19.15,5.46A8.8,8.8,0,0,1,294.87,396a39,39,0,0,1-7.22.67,40.65,40.65,0,0,1-26.91-10.29,40.09,40.09,0,0,1-4.74-5,40.09,40.09,0,0,1-4.74,5,40.65,40.65,0,0,1-26.91,10.29,39,39,0,0,1-7.22-.67,8.8,8.8,0,0,1,3.28-17.29,22.86,22.86,0,0,0,26.79-22.51v-9a8.8,8.8,0,0,1,17.6,0v9A22.84,22.84,0,0,0,272.44,373.29ZM282.07,151c12.79-1.33,22.48-8,28.35-13.46a72,72,0,0,1,22.9-14.21,8.79,8.79,0,1,1,6.35,16.4,54.46,54.46,0,0,0-17.33,10.74c-7.83,7.22-20.86,16.2-38.45,18-.31,0-.62.05-.92.05a8.8,8.8,0,0,1-.9-17.55ZM167.3,128.3a8.79,8.79,0,0,1,11.38-5,72,72,0,0,1,22.9,14.21c5.87,5.41,15.56,12.13,28.35,13.46a8.8,8.8,0,0,1-.9,17.55c-.3,0-.61,0-.92-.05-17.59-1.83-30.62-10.81-38.45-18a54.46,54.46,0,0,0-17.33-10.74A8.8,8.8,0,0,1,167.3,128.3Zm-73.5,110a8.78,8.78,0,0,1,9.92,7.51c.27,1.94.6,3.92,1,5.89a38.57,38.57,0,0,0,37.93,31h61.78c.69,0,1.37,0,2.05,0,22.47-.82,40.74-20.2,40.74-43.2V198a8.8,8.8,0,0,1,17.6,0v41.46c0,23,18.28,42.38,40.74,43.2.68,0,1.36,0,2,0h61.78a38.57,38.57,0,0,0,37.93-31c.38-1.95.71-3.93,1-5.9a8.8,8.8,0,0,1,17.43,2.42c-.32,2.27-.7,4.57-1.14,6.83a56.2,56.2,0,0,1-55.2,45.26H307.59c-.91,0-1.8,0-2.69,0A59.46,59.46,0,0,1,256,271.31a59.46,59.46,0,0,1-48.9,28.92c-.88,0-1.78,0-2.69,0H142.63A56.2,56.2,0,0,1,87.43,255c-.44-2.28-.82-4.58-1.14-6.83A8.8,8.8,0,0,1,93.8,238.27Z"/>
</svg>