<?xml version="1.0" encoding="utf-8"?>
<svg viewBox="12.81 1.001 24.3799 47.9981" xmlns="http://www.w3.org/2000/svg">
  <g transform="matrix(1, 0, 0, 1, 8.881784197001252e-16, 0)">
    <g>
      <path d="M36.0264,21.7644c-1.15-1.28-2.22-1.14-2.64-0.48h0.6201l0.1899,0.77c0.08,0.31,1.73,7.54-3.42,9.99l-0.47,0.22    c-0.04,1.8701-0.25,5.64-0.57,12.2401h2.9c0.1-1.33,0.65-8.27,1.58-11.75c1.03-3.85,0.88-4.6801,2.89-6.19    C37.1064,26.5644,37.6364,23.5644,36.0264,21.7644z"/>
      <path d="M29.9664,30.3544c0,0,0.01,0,0.01,0.01c0.11,0.14,0.2,0.27,0.26,0.4c0.01,0.01,0.01,0.02,0.01,0.02    c0.06,0.13,0.1,0.25,0.1,0.36c4.48-2.13,2.88-8.86,2.88-8.86c-0.1002-0.0057-0.4891,0.1454-1-0.11c0,0,0,0.01-0.01,0    c-0.2546-0.1273-0.5031-0.369-0.64-0.66c0,0,0-0.0099-0.0099-0.0099c-0.2777-0.555-0.3277-1.4711-0.66-1.87    c-0.02,0.02-0.04,0.04-0.06,0.05l-2.53,4.58c0.9103,0.7291,1.3668,1.8537,0.93,3.02    C28.2229,28.4939,29.1041,29.1965,29.9664,30.3544z"/>
      <path d="M30.9064,18.1544c0.32-0.55,0.67-0.92,0.89-1.95c0.23-1.04,0.27-1.33,0.7-1.65c0.16-0.12,0.47-0.66,0.8-1.33    c0,0,0,0,0-0.01c0.54-1.12,1.11-2.64,1.11-3.28c0-1.03,1.04-3.24-0.25-4.92c-1.3-1.66-6.8-5.45-12.22-3.44    c-5.4,2.01-6.6,5.52-6.19,7.48c0.39,1.95,2.27,2.74,2.27,2.74s-0.27,0.67,0.41,1.43c0.67,0.74,0.52,1.39,1.01,1.64    c0.49,0.25,1.04,0.42,1.38,0.32c0.34-0.11,3.02-0.51,3.02,0.73s-0.2,3-1.49,4.29c-0.12,0.12-0.23,0.2401-0.32,0.34    c0.11-0.03,0.23-0.05,0.36-0.05c0.3701,0,0.71,0.15,1.01,0.44c0.68,0.63,0.86,1.62,0.46,2.62c-0.36,0.92-1.22,1.89-2.13,1.95    l0.73,3.86c0.94,0.72,2.71,0.06,3.51-2.59c0.5-1.66,0.39-2.38,0.58-2.46c0.18-0.08,0.77-0.44,0.87-0.5c0,0,0,0,0.01-0.01    c0.15-0.28,2.59-4.7,2.65-4.81C30.0764,18.9944,30.5864,18.6844,30.9064,18.1544z"/>
      <path d="M22.7048,21.6504c-0.7603-0.7363-0.6378,1.5671-6.3977-1.8318c-1.6803-0.9518-2.304,0.0401-2.014,0.6015    c0.0546,0.1185,0.1549,0.2097,0.2187,0.3281c0.246,0.5104-0.3646,1.1118-0.1641,1.6405c0.0911,0.2369,0.3372,0.3918,0.5923,0.4374    c0.2552,0.0547,0.5195,0.0091,0.7747-0.0274c0.5103-0.082,1.0298-0.1639,1.5493-0.246c0.5377-0.082,1.1574-0.1367,1.5402,0.246    c1.6879,1.6476-3.667,3.8586-5.377,2.6612c-0.1935-0.1346-0.5103-0.081-0.5103,0.4374c-0.1076,1.6659-0.1616,2.0329-0.0274,2.3149    c0.1276,0.2733,0.4466,0.4192,0.7473,0.4374c0.3008,0.0182,0.5924-0.0729,0.884-0.1641c6.5176-1.9877,5.3141-4.2546,6.4797-4.1648    c0.2748,0.0458,0.3126,0.1205,0.5286,0.1823c0,0,0,0,0.0091,0C22.1467,24.7049,23.7979,22.6732,22.7048,21.6504z"/>
      <polygon points="33.6391,44.5071 29.0933,44.5071 29.0933,46.624 27.4766,46.624 27.4766,48.9991 35.2558,48.9991 35.2558,46.624     33.6391,46.624   "/>
    </g>
  </g>
</svg>