<?xml version="1.0" encoding="utf-8"?>
<svg viewBox="12.68 4.73 24.6399 40.54" xmlns="http://www.w3.org/2000/svg">
  <g transform="matrix(1, 0, 0, 1, 8.881784197001252e-16, 0)">
    <g>
      <path d="M13.7,4.73c0.46,2.25,1.31,6.31,1.62,7.51c0.96,3.57-1.84,29.18-2.64,33.03h9.82c-0.13-3.63-0.56-10.2-2.11-12.44    c0,0-1.41,1.95-1.3701,4.15c0.06,2.21,0.29,3.56,0.29,3.56h-1.67c0,0-0.03-4.77-0.57-6.19c-0.81-2.14-0.35-3.16-0.35-8.96    c0-1.11,0.22-3.51,0.87-4.87c0.66-1.35,3.56-5.6,3.74-6.98c0.19-1.39,0.58-6.37,0.58-6.37s0.6-0.26,1.43-0.47    c0.75-0.17,1.67-0.31,2.47-0.13c0.38,0.07,0.73,0.2,1.02,0.44c0,0,0.72,6.66,1.86,8.5c0.13,0.21,0.28,0.4,0.42,0.55    c1.39,1.36,4.35,3.91,4,8.09c-0.37,4.1899-0.77,6.1299-2.77,8.45c-3.22,3.73-2.56,5.97-2.78,12.67h4.64    c-0.6801-2.87-1.58-7.52-0.84-9.41c0.85-2.21,2.86-9.89,3.68-13.06c0.24-0.92,0.41-1.85,0.52-2.79l1.76-15.28H13.7z"/>
      <path d="M28.6,18.96c0.1828,0.2137,0.3618,0.515,0.5005,0.8729c1.0736,1.3958,0.1466,2.7897-0.7511,4.3545    c-0.2141,0.6698-0.3751,1.3769-0.4794,1.9726c1.21,0.76,3.36,1.5,4.1,0.98c1.05-0.74-0.29-6.39-1.19-7.79    c-0.53-0.83-1.71-1.37-2.59-1.69C28.32,18.23,28.46,18.68,28.6,18.96z"/>
      <path d="M20.9975,19.4088C21.4462,18.449,21.94,17.896,21.94,16.7l-0.02-0.11v-0.14c-0.68,0.4-1.49,1.03-1.96,1.93    c-0.9,1.73-3.08,6.83-1.85,8.41c0.76,0.97,2.46,0.61,3.65,0.2c-0.1264-0.6946-0.363-1.3531-0.67-3.4    C20.4432,22.2557,19.5609,20.7809,20.9975,19.4088z"/>
      <path d="M22.3372,24.9359c1.5007,7.5839,1.2213,7.0467,1.7059,9.8658h1.8081l0.8311-7.3346c0,0,0.0464-0.5073,0.1645-1.2286    c-0.2268,0.1399-1.0329,0.5957-1.9429,0.5957C23.3831,26.8342,22.9417,25.7621,22.3372,24.9359z"/>
      <path d="M25.2711,18.3547c0.2853,0.0064,1.2449,0.0629,2.188,0.387c-0.8835-2.7497-1.6079-9.6478-1.6079-9.6478    c-0.8019-0.175-1.7207-0.0437-2.4644,0.1313l-0.4664,7.2763c0,0,0.1765,0.7844-0.398,2.1054    C23.3939,18.3706,24.3724,18.3295,25.2711,18.3547z"/>
      <path d="M25.242,19.3542c-6.1032-0.1763-3.4073,3.433-3.4073,3.433s0.9921,0.9778,1.8614,2.3687    c0.8694,1.3909,2.6589,0.2104,2.6589,0.2104s0.6494-0.627,1.9777-3.2692S25.242,19.3542,25.242,19.3542z"/>
    </g>
  </g>
</svg>